<svg width="80" height="80" fill="none" xmlns="http://www.w3.org/2000/svg"><path d="M7.74 70.97H5.16v2.58h2.58v-2.58zm6.453 2.58a3.876 3.876 0 003.871-3.871 3.876 3.876 0 00-3.87-3.871 3.876 3.876 0 00-3.872 3.87 3.876 3.876 0 003.871 3.872zm0-5.162c.711 0 1.29.58 1.29 1.29 0 .712-.579 1.291-1.29 1.291-.71 0-1.29-.58-1.29-1.29 0-.711.58-1.29 1.29-1.29z" fill="#fff"/><path d="M80 20.646V.001H56.774v3.511l-2.046-.508a14.443 14.443 0 00-3.465-.422H30.27a14.32 14.32 0 00-4.517.728l-6.788 2.245a14.397 14.397 0 00-5.587 3.426l-4.494 4.46a3.835 3.835 0 00-.942 3.967l.2.593a3.884 3.884 0 003.69 2.644h.949a3.879 3.879 0 002.748-1.13l.01-.01.047.345.027.137c.195.772.64 1.435 1.226 1.947H9.032v36.13h27.08l-5.63 4.469a9.19 9.19 0 01-5.695 1.982h-1.561v-5.162H0V80h23.226v-3.513l2.046.507a14.33 14.33 0 003.465.425H49.73a14.32 14.32 0 004.517-.728l6.788-2.245a14.413 14.413 0 005.587-3.426l4.494-4.46a3.837 3.837 0 00.942-3.968L71.859 62a3.884 3.884 0 00-3.69-2.644h-.948a3.88 3.88 0 00-2.749 1.13l-.009.01-.047-.345-.029-.137c-.195-.772-.64-1.435-1.226-1.947h7.807v-36.13H43.886l5.63-4.469a9.19 9.19 0 015.696-1.982h1.562v5.161H80zM59.355 2.582h18.064v15.484h-2.58v-6.452h-2.58v6.452H59.354V2.582zM20.645 77.42H2.581V61.937h2.58v6.451h2.58v-6.451h12.904V77.42zM66.29 62.319a1.31 1.31 0 01.93-.382h.949c.566 0 1.066.356 1.244.885l.198.592a1.27 1.27 0 01-.313 1.315l-4.493 4.46a11.812 11.812 0 01-4.58 2.81l-6.788 2.245a11.785 11.785 0 01-3.707.596H28.735c-.958 0-1.914-.118-2.842-.349l-2.667-.661v-6.732h1.561c2.643 0 5.236-.903 7.3-2.542l9.71-7.708a1.29 1.29 0 01.502-.247l2.127-.527c.706-.17 1.42.247 1.592.94l.226.893a1.285 1.285 0 01-.54 1.382l-3.228 2.135a6.444 6.444 0 00-2.7 6.937l.412 1.634 2.502-.631-.411-1.633a3.816 3.816 0 01-.035-1.685l3.716.922c.306.076.617.13.929.161l10.173 1.01a6.485 6.485 0 005.23-1.854l3.997-3.966zm-17.44-4.255h9.163c-.469.358-.869.8-1.132 1.324l-2.946 5.847-6.792-.675a3.746 3.746 0 01-.559-.097l-2.9-.719c.073-.055.14-.117.216-.169l3.227-2.135a3.865 3.865 0 001.723-3.376zm10.336 2.484c.1-.2.254-.371.443-.497l.256-.169a1.314 1.314 0 011.21-.13c.38.149.662.45.777.835l.304 2.178-1.7 1.686a3.906 3.906 0 01-3.159 1.12l-.63-.063 2.498-4.96zm9.202-36.03v30.967H48.154a3.9 3.9 0 00-4.349-1.917l-2.126.527a3.86 3.86 0 00-1.486.73l-.83.66h-27.75V24.517h20.232a3.898 3.898 0 003.408 2.033c.31 0 .626-.038.94-.115l2.127-.528a3.867 3.867 0 001.485-.73l.83-.658h27.752zm-37.236-2.58h-9.163c.469-.357.869-.799 1.132-1.324l2.946-5.846 6.792.675c.189.018.374.05.559.096l2.9.719c-.073.056-.14.117-.216.169l-3.227 2.136a3.865 3.865 0 00-1.723 3.375zm-10.335-2.485a1.31 1.31 0 01-.444.497l-.256.169c-.361.24-.804.286-1.21.13a1.286 1.286 0 01-.777-.835l-.303-2.178 1.7-1.686a3.918 3.918 0 013.158-1.12l.63.063-2.498 4.96zm34.397-6.549a11.79 11.79 0 00-7.3 2.542l-9.71 7.709a1.304 1.304 0 01-.502.247l-2.127.528a1.306 1.306 0 01-1.59-.94l-.227-.893a1.284 1.284 0 01.541-1.382l3.227-2.136a6.444 6.444 0 002.7-6.937l-.412-1.633-2.502.63.412 1.633a3.81 3.81 0 01.034 1.685l-3.716-.92a6.49 6.49 0 00-.929-.162l-10.173-1.01a6.504 6.504 0 00-5.23 1.854l-3.997 3.966a1.328 1.328 0 01-.93.382h-.95a1.307 1.307 0 01-1.244-.885l-.2-.594a1.269 1.269 0 01.315-1.313l4.494-4.46a11.783 11.783 0 014.579-2.81l6.788-2.245a11.784 11.784 0 013.707-.596h20.993c.958 0 1.914.116 2.843.347l2.667.66v6.733h-1.561z" fill="#fff"/><path d="M74.838 6.453h-2.58v2.58h2.58v-2.58zm-9.032 0a3.876 3.876 0 00-3.87 3.871 3.876 3.876 0 003.87 3.871 3.876 3.876 0 003.871-3.87 3.876 3.876 0 00-3.87-3.872zm0 5.161c-.71 0-1.29-.579-1.29-1.29 0-.71.58-1.29 1.29-1.29.712 0 1.29.58 1.29 1.29 0 .711-.579 1.29-1.29 1.29zM38.71 32.262v1.29h-.257c-1.992 0-3.613 1.572-3.613 3.502v.737c0 1.932 1.62 3.502 3.613 3.502h3.096c.57 0 1.033.413 1.033.921v.737c0 .508-.463.921-1.032.921h-3.097c-.57 0-1.033-.413-1.033-.921v-.369h-2.58v.369c0 1.93 1.62 3.502 3.613 3.502h.258v1.29h2.58v-1.29h.259c1.992 0 3.612-1.572 3.612-3.502v-.737c0-1.931-1.62-3.502-3.612-3.502h-3.097c-.57 0-1.033-.413-1.033-.921v-.737c0-.508.464-.921 1.033-.921h3.096c.57 0 1.033.413 1.033.921v.37h2.58v-.37c0-1.931-1.62-3.502-3.612-3.502h-.258v-1.29H38.71z" fill="#fff"/><path d="M27.098 40.002c0 7.114 5.788 12.903 12.903 12.903s12.903-5.788 12.903-12.903-5.788-12.904-12.903-12.904-12.903 5.789-12.903 12.904zm23.226 0c0 5.691-4.631 10.322-10.323 10.322s-10.323-4.63-10.323-10.322c0-5.692 4.631-10.323 10.323-10.323s10.323 4.631 10.323 10.323zM14.193 34.84h2.581v-5.16h5.161V27.1h-7.742v7.741zm2.581 10.323h-2.58v7.742h7.741v-2.58h-5.161v-5.162zM63.226 34.84h2.58v-7.742h-7.741v2.581h5.16v5.161zm2.58 10.323h-2.58v5.161h-5.161v2.581h7.741v-7.742z" fill="#fff"/></svg>