<svg width="80" height="80" fill="none" xmlns="http://www.w3.org/2000/svg"><g clip-path="url(#clip0)" fill="#fff"><path d="M19.355 5.161H32.26v2.58H19.355v-2.58zm3.871 10.323h-2.58v14.193h-2.581V19.355h-2.58v10.322h-2.582v-6.451h-2.58v6.451h-2.58v2.581h18.064v-2.58h-2.58V15.483zM7.742 34.839h2.58v2.58h-2.58v-2.58zm5.16 0h12.904v2.58H12.902v-2.58z"/><path d="M76.129 52.903A3.876 3.876 0 0080 49.033v-19.87a5.187 5.187 0 00-4.431-5.109l-4.601-.657V21.24a7.716 7.716 0 002.58-5.755v-2.58c0-4.27-3.472-7.743-7.742-7.743s-7.741 3.472-7.741 7.742v2.58a7.72 7.72 0 002.58 5.756v2.158l-7.23 1.034-4.442-5.076h.06v-6.452h2.58V5.161h-13.66L32.794 0H18.82l-5.162 5.161H0v7.742h2.58v30.968H0v7.742h12.903v3.628L4.28 77.42H0V80h80v-2.58h-5.161V52.665c.405.145.836.237 1.29.237zm-9.1-15.95l-1.223 1.222-1.221-1.221 1.072-8.576c.05.002.098.01.15.01.051 0 .099-.009.15-.01l1.071 8.576zm-6.384-24.05a5.166 5.166 0 015.161-5.161 5.166 5.166 0 015.162 5.161v2.58a5.166 5.166 0 01-5.162 5.162 5.166 5.166 0 01-5.16-5.161v-2.58zm5.161 10.323c.906 0 1.772-.165 2.581-.452v1.387c-.32.494-1.209 1.645-2.58 1.645-1.375 0-2.265-1.156-2.581-1.645v-1.387a7.706 7.706 0 002.58.452zM61.3 25.91c.391.527 1.006 1.209 1.85 1.722l-1.282 10.253 3.94 3.94 3.94-3.94-1.282-10.253c.844-.514 1.459-1.195 1.849-1.722l4.89.698a2.594 2.594 0 012.215 2.555v19.87c0 .71-.58 1.29-1.29 1.29-.71 0-1.29-.58-1.29-1.29V30.967h-2.58V43.87H59.354V30.968h-7.792c-.394 0-.762-.177-1.008-.484L41.59 19.279a1.38 1.38 0 01-.3-.858v-.275a1.373 1.373 0 012.404-.904l8.697 9.94L61.3 25.91zM21.935 56.774V77.42H12.21l8.029-20.645h1.698zm2.581 0h2.58V77.42h-2.58V56.774zm5.161 0h1.698l8.029 20.645h-9.727V56.774zm4.467 0h2.393l8.028 20.645h-2.392l-8.029-20.645zm4.566-1.533v-3.628h12.903V43.87h-2.58V32.587c.699.61 1.584.961 2.53.961h5.211V77.42h-9.44L38.71 55.241zm20.645-8.79h5.161V77.42h-5.161V46.452zM2.58 7.742h12.147l5.161-5.16h11.835l5.161 5.16h12.147v2.582H2.581V7.742zm2.58 5.162h41.29v3.57l-.813-.93a3.953 3.953 0 00-6.928 2.603v.274c0 .893.306 1.77.865 2.47l6.877 8.595v14.386H5.162V12.903zM2.58 46.453h46.451v2.58H2.581v-2.58zm33.548 5.16v2.581H15.484v-2.58h20.645zm-21.053 5.162h2.392L9.44 77.42H7.048l8.028-20.645zm52.02 20.645V46.452h5.162v30.967h-5.161z"/><path d="M36.129 25.807c-4.27 0-7.742 3.472-7.742 7.742s3.472 7.742 7.742 7.742 7.742-3.473 7.742-7.742c0-4.27-3.473-7.742-7.742-7.742zm-1.29 2.764v3.687H31.15a5.154 5.154 0 013.687-3.687zm-3.688 6.268h3.687v3.688a5.154 5.154 0 01-3.687-3.688zm6.268 3.688V28.57c2.22.576 3.87 2.58 3.87 4.978 0 2.397-1.65 4.401-3.87 4.977z"/></g><defs><clipPath id="clip0"><path fill="#fff" d="M0 0h80v80H0z"/></clipPath></defs></svg>