<svg width="80" height="80" fill="none" xmlns="http://www.w3.org/2000/svg"><g clip-path="url(#clip0)" fill="#fff"><path d="M77.42 72.258V36.13H56.773V23.226H44.871l4.19-7.683a10.356 10.356 0 001.262-4.943v-.277C50.323 4.63 45.692 0 40 0S29.677 4.63 29.677 10.323v.277c0 1.721.436 3.431 1.261 4.943l4.191 7.683H23.226v12.903H2.58v36.13H0V80h80v-7.742h-2.58zm-2.581 0h-2.58V61.936h-7.743v10.322h-2.58V38.71h12.903v33.548zm-5.162 0h-2.58v-7.742h2.58v7.742zm-49.032-2.58h38.71v2.58h-38.71v-2.58zm5.161-5.162h28.387v2.58H25.806v-2.58zm16.775-2.58h-5.162V51.612h5.162v10.322zM59.355 38.71v28.387h-2.58V38.71h2.58zM32.258 10.6v-.277c0-4.27 3.472-7.742 7.742-7.742s7.742 3.472 7.742 7.742v.277a7.772 7.772 0 01-.944 3.708l-6.022 11.04c-.31.566-1.24.566-1.55 0l-6.022-11.04a7.759 7.759 0 01-.946-3.708zm4.279 15.206l.423.776A3.46 3.46 0 0040 28.387a3.46 3.46 0 003.04-1.805l.423-.776h10.73v36.13h-9.032V49.031H34.84v12.904h-9.033v-36.13h10.73zm-13.311 41.29h-2.58V38.71h2.58v28.387zM5.16 38.71h12.903v33.548h-2.58V61.936H7.742v10.322h-2.58V38.71zm7.742 33.548h-2.58v-7.742h2.58v7.742zM77.42 77.42H2.581v-2.58h74.838v2.58z"/><path d="M28.387 33.548h9.032v2.581h-9.032v-2.58zm14.193 0h9.032v2.581H42.58v-2.58zM28.387 38.71h9.032v2.58h-9.032v-2.58zm14.193 0h9.032v2.58H42.58v-2.58zm-14.193 5.161h9.032v2.58h-9.032v-2.58zm14.193 0h9.032v2.58H42.58v-2.58zm2.58-33.549A5.166 5.166 0 0040 5.162a5.166 5.166 0 00-5.162 5.16 5.166 5.166 0 005.161 5.162 5.166 5.166 0 005.161-5.162zm-7.741 0a2.583 2.583 0 012.58-2.58 2.583 2.583 0 012.58 2.58A2.583 2.583 0 0140 12.903a2.583 2.583 0 01-2.58-2.58zM7.742 41.29h2.58v2.581h-2.58v-2.58zm5.16 0h2.581v2.581h-2.58v-2.58zm-5.16 5.162h2.58v2.58h-2.58v-2.58zm5.16 0h2.581v2.58h-2.58v-2.58zm-5.16 5.161h2.58v2.58h-2.58v-2.58zm5.16 0h2.581v2.58h-2.58v-2.58zm-5.16 5.161h2.58v2.581h-2.58v-2.58zm5.16 0h2.581v2.581h-2.58v-2.58zM69.678 41.29h2.58v2.581h-2.58v-2.58zm-5.162 0h2.58v2.581h-2.58v-2.58zm5.162 5.162h2.58v2.58h-2.58v-2.58zm-5.162 0h2.58v2.58h-2.58v-2.58zm5.162 5.161h2.58v2.58h-2.58v-2.58zm-5.162 0h2.58v2.58h-2.58v-2.58zm5.162 5.161h2.58v2.581h-2.58v-2.58zm-5.162 0h2.58v2.581h-2.58v-2.58z"/></g><defs><clipPath id="clip0"><path fill="#fff" d="M0 0h80v80H0z"/></clipPath></defs></svg>