<svg width="80" height="80" fill="none" xmlns="http://www.w3.org/2000/svg"><path d="M68.246 11.716C60.69 4.16 50.646 0 39.962 0a39.86 39.86 0 00-27.274 10.74C5.3 17.63.82 26.955.074 36.996a1.172 1.172 0 102.337.174c.79-10.63 6.038-20.006 13.818-26.344l.924 2.743a2.737 2.737 0 002.084 1.815l4.007.756a7.371 7.371 0 00-.994 3.702c0 2.102 1.733 5.561 5.152 10.282a2.808 2.808 0 002.268 1.158c.895 0 1.743-.433 2.269-1.158 1.676-2.315 2.946-4.326 3.806-6.023l5.41 5.19c.075.073.12.176.12.281v7.316a.388.388 0 01-.072.226l-2.492 3.53a2.725 2.725 0 00-.077 3.04l.596.94a2.741 2.741 0 001.822 1.228l4.352.79a2.755 2.755 0 002.317-.658l5.163-4.648a2.738 2.738 0 00.906-2.032V30.74c0-.086.03-.172.083-.24l3.886-4.96a.388.388 0 01.307-.15h1.935a1.172 1.172 0 100-2.343h-1.935a2.72 2.72 0 00-2.152 1.047l-3.886 4.96a2.747 2.747 0 00-.582 1.686v8.564a.39.39 0 01-.13.29l-5.162 4.647a.392.392 0 01-.331.094l-4.352-.79a.392.392 0 01-.26-.175l-.597-.94a.389.389 0 01.011-.435l2.492-3.53a2.717 2.717 0 00.501-1.577v-7.316c0-.74-.307-1.46-.841-1.973l-6.051-5.805c.242-.744.364-1.396.364-1.952 0-4.091-3.329-7.42-7.42-7.42a7.38 7.38 0 00-4.674 1.663l-5.324-1.005a.392.392 0 01-.298-.259l-1.177-3.494c6.178-4.398 13.708-6.983 21.765-6.983 12.922 0 24.343 6.543 31.128 16.49l-3.432 4.074a.39.39 0 01-.298.139h-2.046a1.172 1.172 0 100 2.343h2.046c.808 0 1.57-.354 2.091-.972l2.956-3.51A37.424 37.424 0 0177.618 40c0 9.9-3.842 18.917-10.11 25.646l.445-4.537a2.72 2.72 0 00-.357-1.642l-3.747-6.444c.201-.665.304-1.253.304-1.76 0-4.092-3.33-7.42-7.42-7.42-3.96 0-7.204 3.116-7.41 7.026l-5.258 1.556a.389.389 0 01-.11.016h-4.728a7.402 7.402 0 00-6.08-2.437l-3.59-3.048a.389.389 0 01-.08-.504l.9-1.458a2.738 2.738 0 00-.197-3.153l-2.743-3.401a2.723 2.723 0 00-2.129-1.018h-6.65a2.75 2.75 0 00-2.344 1.326l-2.583 4.3a2.749 2.749 0 00.195 3.1l2.226 2.83c.063.08.092.179.082.28l-.829 8.485a2.72 2.72 0 00.334 1.599l2.774 4.966a.39.39 0 01.044.257l-.98 5.737A37.836 37.836 0 018.215 60.26a1.172 1.172 0 10-1.975 1.263C13.64 73.093 26.246 80 39.962 80c10.684 0 20.729-4.16 28.284-11.716C75.8 60.73 79.962 50.684 79.962 40c0-10.684-4.161-20.73-11.716-28.284zm-38.576 3.05a5.082 5.082 0 015.076 5.076c0 1.508-1.759 4.838-4.706 8.907a.448.448 0 01-.37.19.448.448 0 01-.37-.19c-2.947-4.069-4.706-7.399-4.706-8.907a5.082 5.082 0 015.076-5.076zm27.063 31.42a5.082 5.082 0 015.076 5.076c0 1.509-1.76 4.838-4.706 8.907a.448.448 0 01-.37.19.448.448 0 01-.37-.19c-2.947-4.069-4.707-7.398-4.707-8.907a5.082 5.082 0 015.077-5.076zM38.788 57.401c0 1.508-1.759 4.838-4.705 8.907a.448.448 0 01-.37.189.448.448 0 01-.37-.19c-2.947-4.068-4.707-7.398-4.707-8.906a5.082 5.082 0 015.076-5.077 5.082 5.082 0 015.076 5.077zM19.704 71.766l1.163-6.806a2.743 2.743 0 00-.308-1.794l-2.774-4.967a.388.388 0 01-.047-.228l.829-8.485a2.721 2.721 0 00-.573-1.957l-2.226-2.83a.392.392 0 01-.028-.443l2.583-4.3a.392.392 0 01.335-.19h6.65c.119 0 .23.053.304.145l2.743 3.401c.104.13.115.31.029.451l-.901 1.458a2.72 2.72 0 00.556 3.522l2.374 2.015a7.427 7.427 0 00-4.12 6.643c0 2.102 1.734 5.562 5.152 10.282a2.808 2.808 0 002.269 1.158c.895 0 1.743-.433 2.268-1.158 3.418-4.72 5.152-8.18 5.152-10.282 0-.92-.17-1.802-.478-2.616h3.298c.263 0 .524-.038.776-.113l4.945-1.463c.671 2.07 2.273 4.86 4.79 8.336a2.81 2.81 0 002.268 1.158c.895 0 1.743-.433 2.268-1.159 1.612-2.224 2.848-4.169 3.705-5.823l2.864 4.924a.38.38 0 01.051.235l-.718 7.307c-6.648 5.888-15.384 9.47-24.941 9.47-7.323 0-14.31-2.093-20.258-5.891z" fill="#fff"/><path d="M2.379 42.325a1.173 1.173 0 00-2.34.142 39.694 39.694 0 003.573 14.244 1.172 1.172 0 102.129-.98 37.355 37.355 0 01-3.362-13.407zm25.607-21.421h.513v.512a1.172 1.172 0 102.343 0v-.512h.513a1.172 1.172 0 100-2.344h-.513v-.512a1.172 1.172 0 10-2.343 0v.512h-.513a1.172 1.172 0 100 2.344zm29.919 31.933v-.513h.512a1.172 1.172 0 100-2.344h-.512v-.512a1.172 1.172 0 10-2.344 0v.512h-.512a1.172 1.172 0 100 2.344h.512v.513a1.172 1.172 0 102.344 0zM32.03 58.462h.512v.513a1.172 1.172 0 102.343 0v-.513h.513a1.172 1.172 0 100-2.343h-.513v-.513a1.172 1.172 0 10-2.343 0v.513h-.513a1.172 1.172 0 100 2.343zm15.738-42.524a1.172 1.172 0 100 2.344h.157a1.172 1.172 0 100-2.344h-.157zm3.859-2.891a1.172 1.172 0 100 2.344h.157a1.172 1.172 0 100-2.344h-.157zm-8.8 50.421h-.157a1.172 1.172 0 100 2.344h.157a1.172 1.172 0 100-2.343zM20.952 42.943h-.157a1.172 1.172 0 100 2.343h.157a1.172 1.172 0 100-2.343z" fill="#fff"/></svg>