<svg width="80" height="80" fill="none" xmlns="http://www.w3.org/2000/svg"><path d="M72.258 40c0-7.035-2.27-13.545-6.105-18.851l5.781-5.782-7.3-7.3-5.781 5.782A32.067 32.067 0 0043.87 7.982V2.581h2.58V0h-12.9v2.58h2.58v5.402a32.07 32.07 0 00-14.98 5.866l-5.782-5.782-7.3 7.3 5.782 5.781A32.07 32.07 0 007.742 40c0 12.467 7.239 23.838 18.482 29.159C27.736 75.369 33.33 80 40 80c3.266 0 6.456-1.14 8.982-3.206l-1.636-1.997A11.629 11.629 0 0140 77.42c-6.404 0-11.613-5.209-11.613-11.613 0-2.67.932-5.28 2.623-7.345l-1.997-1.636a14.18 14.18 0 00-2.222 3.828 24.466 24.466 0 01-3.182-2.437l2.705-2.705-1.825-1.825-2.71 2.711a24.53 24.53 0 01-6.25-15.107h3.826v-2.58H15.55a24.388 24.388 0 016.254-15.082l2.687 2.687 1.824-1.825-2.686-2.686a24.38 24.38 0 0115.08-6.255v3.806h2.582V15.55a24.387 24.387 0 0115.08 6.255l-2.686 2.686 1.825 1.825 2.686-2.687a24.38 24.38 0 016.255 15.082h-3.806v2.58h3.827a24.53 24.53 0 01-6.25 15.107l-2.71-2.71-1.825 1.824 2.704 2.705a24.46 24.46 0 01-3.18 2.437c-2.07-5.282-7.205-9.04-13.21-9.04a14.226 14.226 0 00-8.983 3.206l1.637 1.997A11.63 11.63 0 0140 54.193c6.404 0 11.613 5.21 11.613 11.613 0 2.671-.932 5.281-2.622 7.346l1.996 1.636a14.194 14.194 0 002.795-5.633C65.022 63.831 72.258 52.468 72.258 40zm-7.623-28.285l3.65 3.65-3.739 3.74a32.735 32.735 0 00-3.65-3.65l3.739-3.74zM38.71 2.581h2.58v5.193A33.725 33.725 0 0040 7.742c-.432 0-.862.016-1.29.032V2.581zM11.715 15.365l3.65-3.65 3.74 3.74a32.735 32.735 0 00-3.65 3.65l-3.74-3.74zm42.467 50.709c.002-.09.012-.179.012-.268a14.1 14.1 0 00-.248-2.585C62.076 58.327 67.097 49.525 67.097 40c0-14.94-12.156-27.097-27.097-27.097-14.94 0-27.096 12.156-27.096 27.097 0 9.526 5.019 18.325 13.149 23.217a14.13 14.13 0 00-.246 2.59c0 .09.011.178.012.268C16.34 60.91 10.323 50.906 10.323 40c0-16.365 13.312-29.677 29.677-29.677 16.365 0 29.678 13.312 29.678 29.677 0 10.908-6.015 20.907-15.495 26.074z" fill="#fff"/><path d="M38.71 21.936v14.43c-1.499.535-2.581 1.954-2.581 3.634a3.876 3.876 0 003.87 3.871c1.68 0 3.1-1.082 3.634-2.58h9.27V38.71h-9.27a3.864 3.864 0 00-2.343-2.343V21.936h-2.58zM40 41.29a1.291 1.291 0 11.002-2.582A1.291 1.291 0 0140 41.29zm-2.58 19.355h5.161c.712 0 1.29.578 1.29 1.29h2.581a3.876 3.876 0 00-3.87-3.87H41.29v-1.29h-2.58v1.29h-1.29a3.876 3.876 0 00-3.871 3.87v1.29a3.876 3.876 0 003.87 3.872h5.162c.712 0 1.29.578 1.29 1.29v1.29a1.29 1.29 0 01-1.29 1.29H37.42a1.29 1.29 0 01-1.29-1.29h-2.581a3.876 3.876 0 003.87 3.871h1.291v1.29h2.58v-1.29h1.291a3.876 3.876 0 003.871-3.87v-1.29a3.876 3.876 0 00-3.87-3.872H37.42a1.29 1.29 0 01-1.29-1.29v-1.29c0-.712.578-1.29 1.29-1.29z" fill="#fff"/></svg>