<svg width="80" height="80" fill="none" xmlns="http://www.w3.org/2000/svg"><path d="M80 41.29V30.937a6.412 6.412 0 00-4.597-6.18l-8.306-2.491v-1.96c2.337-1.635 3.87-4.34 3.87-7.402V9.033c0-4.98-4.051-9.032-9.032-9.032-4.98 0-9.032 4.052-9.032 9.032v3.871a9.02 9.02 0 003.871 7.401v1.96l-7.32 2.197a14.863 14.863 0 00-9.962-3.816 14.899 14.899 0 00-9.704 3.59l-6.562-1.97v-1.96c2.337-1.634 3.87-4.34 3.87-7.4V9.032c0-4.98-4.051-9.032-9.032-9.032-4.98 0-9.032 4.052-9.032 9.032v3.871a9.019 9.019 0 003.871 7.401v1.96l-8.306 2.492A6.415 6.415 0 000 30.936V41.29h2.58V30.937a3.845 3.845 0 012.76-3.707l8.308-2.493c.75.975 2.204 2.36 4.416 2.36 2.213 0 3.666-1.385 4.417-2.36l5.292 1.587a14.893 14.893 0 00-3.138 7.497 9.001 9.001 0 00-6.57-2.853c-4.981 0-9.033 4.052-9.033 9.032v3.871a9.019 9.019 0 003.871 7.401v1.96l-8.306 2.492A6.415 6.415 0 000 61.904v11.644h15.484c.71 0 1.29.58 1.29 1.29V80h46.452v-5.161c0-.711.58-1.29 1.29-1.29H80V61.904a6.412 6.412 0 00-4.597-6.18l-8.306-2.492v-1.96c2.337-1.634 3.87-4.34 3.87-7.4V40c0-4.98-4.051-9.032-9.032-9.032a9.002 9.002 0 00-6.451 2.722v-1.223a6.939 6.939 0 00-3.546-6.055l5.58-1.675c.752.974 2.205 2.359 4.417 2.359 2.213 0 3.666-1.385 4.417-2.36l8.31 2.493a3.846 3.846 0 012.757 3.707V41.29H80zM18.064 2.58a6.46 6.46 0 016.452 6.452H18.6c-.82 0-1.624-.332-2.203-.912l-.912-.912-.912.912a3.136 3.136 0 01-2.203.912h-.756a6.46 6.46 0 016.451-6.451zm-6.451 10.323v-1.29h.756a5.651 5.651 0 003.115-.925 5.65 5.65 0 003.115.925h5.917v1.29a6.46 6.46 0 01-6.451 6.452 6.46 6.46 0 01-6.452-6.452zm6.451 11.613c-1.371 0-2.26-1.152-2.58-1.645v-1.315c.818.244 1.684.38 2.58.38.897 0 1.763-.136 2.581-.381v1.315c-.32.495-1.209 1.646-2.58 1.646zm35.469 22.648a9.072 9.072 0 003.241 4.11v1.96l-8.304 2.491c-.274.081-.54.187-.8.304l-1.218-.28v-2.543a10.377 10.377 0 003.133-4.232 6.426 6.426 0 003.948-1.81zM40 55.484c1.37 0 2.675-.274 3.871-.76v1.405L40 59.032l-3.871-2.903v-1.405a10.26 10.26 0 003.871.76zm-5.456 2.683l3.146 2.36-3.236 1.941-.818-4.091.908-.21zm4.03 10.22h2.852l1.003 9.032h-4.858l1.003-9.032zm3.076-2.58h-3.3l-.741-2.223L40 62.15l2.391 1.434-.74 2.222zm.66-5.28l3.145-2.36.909.209-.818 4.091-3.236-1.94zm9.587-15.342a3.869 3.869 0 01-1.63 1.042c.036-.35.056-.706.056-1.066v-6.174c1.388.527 2.422 1.748 2.56 3.208a3.849 3.849 0 01-.986 2.99zm-4.155-.024c0 4.27-3.472 7.742-7.742 7.742s-7.742-3.472-7.742-7.742V38.71h4.38c2.813 0 5.549-.702 7.995-2.043l1.021 2.043h2.088v6.451zm-18.01 1.066a3.87 3.87 0 01-1.63-1.042 3.847 3.847 0 01-.986-2.989c.14-1.46 1.173-2.682 2.561-3.208v6.173c0 .36.02.715.056 1.066zm.683 2.747a10.355 10.355 0 003.133 4.232v2.542l-1.219.282a6.673 6.673 0 00-.797-.305l-8.306-2.492v-1.96a9.08 9.08 0 003.241-4.11 6.426 6.426 0 003.948 1.811zm-12.35-15.426A6.46 6.46 0 0124.515 40h-.756a3.14 3.14 0 01-2.203-.912l-.912-.913-.912.913A3.137 3.137 0 0117.53 40h-5.917a6.46 6.46 0 016.451-6.452zm-6.452 10.323v-1.29h5.917a5.65 5.65 0 003.115-.925 5.65 5.65 0 003.115.925h.756v1.29a6.46 6.46 0 01-6.451 6.452 6.46 6.46 0 01-6.452-6.452zm6.451 9.032c.897 0 1.763-.135 2.581-.38v1.315c-.32.495-1.209 1.646-2.58 1.646-1.372 0-2.261-1.153-2.581-1.645v-1.315c.818.244 1.684.38 2.58.38zm-2.58 18.065h-5.161v-9.033H7.742v9.033H2.58v-9.063a3.845 3.845 0 012.759-3.708l8.308-2.493c.75.976 2.204 2.36 4.416 2.36 2.213 0 3.666-1.384 4.417-2.36l4.893 1.469-3.599.83a8.992 8.992 0 00-7 8.8v1.584h2.58v-1.583a6.424 6.424 0 015.001-6.287l6.764-1.561 1.521 7.608 2.7-1.62.764 2.292-1.13 10.183h-6.588V67.097h-2.58v10.322h-6.452v-2.58a3.876 3.876 0 00-3.871-3.871zm59.176-12.77a3.845 3.845 0 012.76 3.707v9.063h-5.162v-9.033h-2.58v9.033h-5.162a3.876 3.876 0 00-3.87 3.87v2.581h-6.453V67.097h-2.58v10.322h-6.587l-1.132-10.183.764-2.291 2.7 1.619 1.52-7.608 6.766 1.561a6.424 6.424 0 015.001 6.287v1.583h2.58v-1.583a8.992 8.992 0 00-7-8.801l-3.599-.83 4.893-1.469c.75.976 2.204 2.36 4.416 2.36 2.213 0 3.666-1.384 4.417-2.36l8.308 2.493zm-10.144-4.36c-.32.495-1.209 1.646-2.58 1.646-1.375 0-2.265-1.156-2.581-1.645v-1.316a8.98 8.98 0 005.161 0v1.316zm-2.58-3.515a6.46 6.46 0 01-6.452-6.452v-1.29h.756a5.65 5.65 0 003.115-.925 5.65 5.65 0 003.115.925h5.917v1.29a6.46 6.46 0 01-6.452 6.452zm0-16.775A6.46 6.46 0 0168.386 40H62.47a3.14 3.14 0 01-2.203-.912l-.912-.913-.912.913A3.136 3.136 0 0156.24 40h-.756a6.46 6.46 0 016.451-6.452zm-9.033 3.981c-1.141-.864-2.56-1.4-4.093-1.4h-1.56l-1.588-3.174-1.216.81a14.028 14.028 0 01-7.807 2.364h-5.45c-1.532 0-2.95.536-4.092 1.4v-1.908c0-6.834 5.561-12.395 12.395-12.395 3.31 0 6.424 1.289 8.765 3.63l1.369 1.368.289.098a4.365 4.365 0 012.988 4.145v5.062zm9.032-34.948a6.46 6.46 0 016.452 6.451h-.756c-.82 0-1.624-.332-2.203-.912l-.912-.912-.912.912a3.136 3.136 0 01-2.203.912h-5.917a6.46 6.46 0 016.451-6.451zm-6.451 10.322v-1.29H61.4a5.65 5.65 0 003.115-.925 5.651 5.651 0 003.115.925h.756v1.29a6.46 6.46 0 01-6.452 6.452 6.46 6.46 0 01-6.451-6.452zm6.451 11.613c-1.374 0-2.264-1.156-2.58-1.645v-1.316a8.98 8.98 0 005.161 0v1.315c-.32.495-1.209 1.646-2.58 1.646z" fill="#fff"/><path d="M29.678 0h2.58v2.58h-2.58V0zm0 5.161h2.58v14.194h-2.58V5.16zM47.742 0h2.58v2.58h-2.58V0zm0 5.161h2.58v14.194h-2.58V5.16zm-12.904 0h2.58v9.032h-2.58V5.161zm0 11.613h2.58v2.581h-2.58v-2.58zM42.58 5.161h2.58v9.032h-2.58V5.161zm0 11.613h2.58v2.581h-2.58v-2.58z" fill="#fff"/></svg>