<svg width="80" height="80" fill="none" xmlns="http://www.w3.org/2000/svg"><path d="M75.556 72.38c-2.1 0-3.81 1.71-3.81 3.81s1.71 3.81 3.81 3.81 3.81-1.71 3.81-3.81-1.71-3.81-3.81-3.81zm0 5.08a1.271 1.271 0 010-2.54c.699 0 1.27.57 1.27 1.27 0 .701-.571 1.27-1.27 1.27zM8.254 3.81c0-2.1-1.71-3.81-3.81-3.81S.634 1.71.634 3.81s1.71 3.809 3.81 3.809 3.81-1.71 3.81-3.81zm-5.08 0c0-.7.57-1.27 1.27-1.27.7 0 1.27.57 1.27 1.27 0 .699-.57 1.27-1.27 1.27-.7 0-1.27-.571-1.27-1.27zm65.679 46.512l-2.508-5.015c.531-1.08.987-2.17 1.362-3.256l5.31-1.77V25.75l-5.31-1.77a27.92 27.92 0 00-1.362-3.256l2.51-5.02L58.582 5.43l-5.02 2.51a27.924 27.924 0 00-3.257-1.362l-1.77-5.31h-14.53l-1.77 5.31a27.82 27.82 0 00-3.256 1.362l-5.02-2.51-10.274 10.273 2.51 5.02a27.903 27.903 0 00-1.361 3.257l-5.31 1.77v14.53l5.31 1.77a27.75 27.75 0 001.348 3.229l-1.633 2.975H6.984V73.65h8.89v-3.81h9.632l3.81 3.81h6.875v1.27A5.084 5.084 0 0041.27 80a5.084 5.084 0 005.078-5.08v-1.27h8.89c2.1 0 3.81-1.709 3.81-3.809 0-.979-.382-1.864-.99-2.54.61-.675.99-1.56.99-2.54 0-.978-.382-1.863-.99-2.539a3.78 3.78 0 00.932-1.96l9.862-9.94zm-50.108-5.606a25.422 25.422 0 01-1.695-4.052l-.195-.617-4.791-1.598V27.581l4.79-1.596.195-.619a25.217 25.217 0 011.694-4.05l.299-.576-2.267-4.534 7.684-7.684 4.534 2.267.576-.299a25.27 25.27 0 014.05-1.694l.619-.194 1.599-4.793h10.868L48.3 8.601l.618.194a25.22 25.22 0 014.051 1.694l.576.298 4.534-2.266 7.684 7.684-2.267 4.534.298.575a25.3 25.3 0 011.695 4.051l.194.618 4.792 1.6V38.45l-4.79 1.597-.196.617a25.422 25.422 0 01-1.694 4.052l-.299.575 2.27 4.538-7.504 7.561a3.9 3.9 0 00-.204-.247c.61-.676.99-1.56.99-2.54 0-1.98-1.525-3.594-3.46-3.774 5.388-4.317 8.538-10.796 8.538-17.813 0-12.603-10.254-22.857-22.857-22.857S18.413 20.413 18.413 33.016a22.867 22.867 0 008.501 17.778H16.052l3.006-5.476-.313-.602zm37.764 20.046c0 .7-.57 1.27-1.27 1.27H45.08c-.699 0-1.27-.57-1.27-1.27 0-.7.571-1.27 1.27-1.27h10.16c.7 0 1.27.57 1.27 1.27zM38.205 33.016h6.13l2.014-2.014v-5.605a2.542 2.542 0 012.54 2.54v5.823l-4.335 4.335h-6.568l-4.335-4.335v-5.824c0-1.4 1.14-2.54 2.54-2.54v5.606l2.014 2.014zm.525 7.619h5.08v5.08h-5.08v-5.08zm7.62-.744l5.079-5.08v-6.875a5.084 5.084 0 00-5.08-5.079h-2.54v7.093l-.525.526h-4.028l-.526-.526v-7.093h-2.54a5.084 5.084 0 00-5.079 5.08v6.874l5.08 5.08v5.823h-3.066l-.08.08c-4.335-2.797-7.013-7.593-7.013-12.778 0-8.403 6.835-15.238 15.238-15.238 8.403 0 15.238 6.835 15.238 15.238 0 5.147-2.571 9.86-6.875 12.698H46.35v-5.823zm12.698-6.875c0-9.804-7.974-17.778-17.778-17.778-9.803 0-17.778 7.974-17.778 17.778 0 5.865 2.918 11.327 7.704 14.627l-1.828 1.829a20.326 20.326 0 01-8.415-16.456c0-11.202 9.115-20.318 20.317-20.318s20.317 9.116 20.317 20.318a20.197 20.197 0 01-7.68 15.904 3.78 3.78 0 00-1.264-2.26 17.66 17.66 0 006.405-13.644zM55.24 53.333c.699 0 1.27.57 1.27 1.27 0 .7-.571 1.27-1.27 1.27H45.08c-.7 0-1.27-.57-1.27-1.27 0-.7.57-1.27 1.27-1.27h10.16zm-10.16 7.62a1.271 1.271 0 010-2.54h10.16c.699 0 1.27.569 1.27 1.27 0 .7-.571 1.27-1.27 1.27H45.08zM13.334 71.11h-3.81V50.794h3.81V71.11zm17.033 0l-3.81-3.81H15.874V53.334h13.225l5.079-5.08H50.16a1.271 1.271 0 010 2.54H36.935l-5.452 5.452 1.796 1.796 2.912-2.912v15.98h-5.824zm10.903 6.35c-1.4 0-2.54-1.14-2.54-2.54V53.333h2.774a3.757 3.757 0 00-.234 1.27c0 .98.382 1.864.99 2.54a3.78 3.78 0 00-.99 2.54c0 .978.382 1.863.99 2.54a3.78 3.78 0 00-.99 2.539c0 .979.382 1.864.99 2.54a3.78 3.78 0 00-.99 2.54c0 1.652 1.065 3.05 2.54 3.575v1.504c0 1.4-1.14 2.54-2.54 2.54zm13.97-6.35H45.08c-.7 0-1.27-.57-1.27-1.27 0-.7.57-1.27 1.27-1.27h10.16c.699 0 1.27.57 1.27 1.27 0 .7-.571 1.27-1.27 1.27zM3.174 11.428h2.54v2.54h-2.54v-2.54zm0 6.35h2.54v2.54h-2.54v-2.54zm0 6.349h2.54v2.54h-2.54v-2.54zm71.111 29.206h2.54v2.54h-2.54v-2.54zm0 6.35h2.54v2.54h-2.54v-2.54zm0 6.349h2.54v2.54h-2.54v-2.54z" fill="#fff"/></svg>