<svg width="120" height="120" fill="none" xmlns="http://www.w3.org/2000/svg"><g clip-path="url(#clip0)"><g filter="url(#filter0_ddd)"><path d="M21.058 45.852c-.367 0-.72.145-.979.403-.26.258-.405.609-.405.974v5.506a1.376 1.376 0 001.384 1.377h3.017a18.733 18.733 0 002.133 5.319l-3.361 3.344a1.375 1.375 0 000 1.947l4.15 4.13a1.384 1.384 0 001.509.299c.168-.07.32-.171.449-.299l3.361-3.345a18.94 18.94 0 005.346 2.123v4.379a1.384 1.384 0 001.384 1.376h4.852a21.98 21.98 0 004.957 9.207 22.134 22.134 0 008.664 5.897 22.234 22.234 0 0020.254-2.397L91.459 99.71a4.15 4.15 0 002.936 1.21 4.162 4.162 0 003.835-2.55 4.11 4.11 0 00-.9-4.5L83.644 80.25A21.901 21.901 0 0087.3 65.112a21.955 21.955 0 00-7.338-13.753h1.978a1.385 1.385 0 001.384-1.377v-5.255c.273-.72 4.151-10.968 4.151-11.265 0-3.027-.858-5.416-2.55-7.1-1.692-1.683-4.093-2.536-7.136-2.536s-5.444.853-7.136 2.537c-1.692 1.683-2.55 4.072-2.55 7.1 0 .164 4.151 11.262 4.151 11.262v2.23a22.158 22.158 0 00-6.918-1.103h-5.785a18.732 18.732 0 00-2.134-5.318l3.362-3.345a1.377 1.377 0 00.3-1.5 1.377 1.377 0 00-.3-.447l-4.151-4.13a1.385 1.385 0 00-1.508-.298c-.168.069-.32.17-.449.298l-3.362 3.345a18.944 18.944 0 00-5.346-2.123v-4.379a1.37 1.37 0 00-.405-.973 1.387 1.387 0 00-.978-.403h-5.535c-.367 0-.719.145-.978.403-.26.258-.406.608-.406.974v4.378a18.944 18.944 0 00-5.346 2.123l-3.361-3.345a1.385 1.385 0 00-1.508-.298c-.168.069-.32.17-.45.298l-4.15 4.13a1.376 1.376 0 000 1.947l3.361 3.345a18.732 18.732 0 00-2.133 5.318h-3.017zm74.315 49.963a1.376 1.376 0 01.316 1.51 1.375 1.375 0 01-.755.751 1.389 1.389 0 01-1.518-.314L79.974 84.389a22.289 22.289 0 001.957-1.947l13.442 13.373zm-24.5-62.596c.083-4.407 2.409-6.64 6.917-6.64 4.514 0 6.84 2.239 6.917 6.655-.39 1.063-2.28 6.062-3.722 9.865h-6.387l-3.724-9.88zm4.15 12.633h5.535v2.753h-4.514a22.53 22.53 0 00-1.021-.53v-2.223zm9.686 22.027c0 3.811-1.136 7.537-3.264 10.706a19.351 19.351 0 01-8.692 7.099 19.464 19.464 0 01-11.19 1.099 19.403 19.403 0 01-9.92-5.271 19.244 19.244 0 01-5.305-9.865 19.182 19.182 0 011.097-11.135 19.295 19.295 0 017.13-8.652 19.443 19.443 0 0110.758-3.255h.014a19.444 19.444 0 0113.691 5.652 19.245 19.245 0 015.68 13.622zM41.813 56.865a6.943 6.943 0 01-3.843-1.16 6.89 6.89 0 01-2.549-3.089 6.85 6.85 0 01-.393-3.977 6.872 6.872 0 011.893-3.524 6.951 6.951 0 017.54-1.492 6.91 6.91 0 013.105 2.535 6.858 6.858 0 011.166 3.824 6.873 6.873 0 01-2.029 4.865 6.945 6.945 0 01-4.89 2.018zm-15.24-9.41a15.956 15.956 0 012.537-6.321 1.372 1.372 0 00-.155-1.762l-3.173-3.157 2.194-2.183 3.173 3.157a1.387 1.387 0 001.77.155 16.134 16.134 0 016.355-2.524 1.377 1.377 0 001.156-1.358v-4.13h2.767v4.13c0 .326.116.641.328.89.212.248.505.414.828.468a16.132 16.132 0 016.354 2.524 1.39 1.39 0 001.77-.155l3.174-3.157 2.194 2.184-3.173 3.156a1.373 1.373 0 00-.156 1.762 15.957 15.957 0 012.537 6.319 22.184 22.184 0 00-5.585 3.269 9.608 9.608 0 00-1.836-6.435 9.69 9.69 0 00-4.887-3.498 9.738 9.738 0 00-6.02.049 9.686 9.686 0 00-4.83 3.576 9.607 9.607 0 00.19 11.385 9.69 9.69 0 004.946 3.414 9.737 9.737 0 006.019-.15 21.803 21.803 0 00-1.853 8.816c0 .92.058 1.84.173 2.753h-2.94v-4.13c0-.326-.117-.641-.328-.89a1.385 1.385 0 00-.828-.468 16.134 16.134 0 01-6.354-2.524 1.389 1.389 0 00-1.771.155l-3.173 3.157-2.194-2.183 3.173-3.157a1.374 1.374 0 00.155-1.762 15.956 15.956 0 01-2.537-6.321 1.375 1.375 0 00-.47-.824 1.389 1.389 0 00-.894-.326H22.44v-2.754h2.768c.327 0 .644-.115.894-.326.25-.21.417-.502.47-.824z" fill="#fff"/></g><g filter="url(#filter1_ddd)"><path d="M62.527 23.403a1.3 1.3 0 00-.08 1.056c.124.347.391.635.742.799l2.96 1.382a1.562 1.562 0 001.135.081c.185-.056.357-.147.505-.267.148-.119.269-.264.356-.427a1.311 1.311 0 00.079-1.06 1.364 1.364 0 00-.29-.47 1.474 1.474 0 00-.461-.33l-2.96-1.382a1.575 1.575 0 00-1.13-.075 1.46 1.46 0 00-.856.693z" fill="#fff"/></g><g filter="url(#filter2_ddd)"><path d="M76.606 16.858v2.668c0 .354.124.693.347.944.222.25.524.39.838.39.315 0 .617-.14.84-.39.222-.25.347-.59.347-.944v-2.668c0-.354-.125-.694-.348-.944a1.124 1.124 0 00-.838-.39c-.315 0-.617.14-.84.39-.222.25-.346.59-.346.944z" fill="#fff"/></g><g filter="url(#filter3_ddd)"><path d="M69.067 16.866a1.455 1.455 0 00-.693.855 1.57 1.57 0 00.075 1.13l1.382 2.96c.08.175.192.332.33.46.136.13.296.228.469.29a1.296 1.296 0 001.06-.078 1.4 1.4 0 00.428-.356c.119-.148.21-.32.267-.505a1.578 1.578 0 00-.082-1.135l-1.382-2.96a1.415 1.415 0 00-.8-.742 1.3 1.3 0 00-1.054.08z" fill="#fff"/></g><g filter="url(#filter4_ddd)"><path d="M84.66 17.536l-1.38 2.955a1.559 1.559 0 00-.082 1.133c.057.185.148.356.267.504.119.147.264.268.427.355a1.31 1.31 0 001.059.079 1.35 1.35 0 00.469-.29 1.47 1.47 0 00.329-.46l1.38-2.954a1.557 1.557 0 00.082-1.133 1.506 1.506 0 00-.267-.504 1.397 1.397 0 00-.427-.356 1.312 1.312 0 00-1.059-.078c-.173.062-.332.16-.469.29a1.474 1.474 0 00-.329.46z" fill="#fff"/></g><g filter="url(#filter5_ddd)"><path d="M91.061 22.79l-2.955 1.38c-.175.08-.331.193-.46.33a1.363 1.363 0 00-.29.469 1.297 1.297 0 00.08 1.059c.086.163.207.308.355.427s.319.21.504.267a1.575 1.575 0 001.133-.082l2.955-1.38a1.47 1.47 0 00.46-.33c.128-.136.227-.296.289-.468a1.295 1.295 0 00-.079-1.06 1.398 1.398 0 00-.355-.427 1.507 1.507 0 00-.504-.266 1.573 1.573 0 00-1.133.081z" fill="#fff"/></g><g filter="url(#filter6_ddd)"><path d="M48.732 68.302a16.605 16.605 0 1016.605-16.604 16.624 16.624 0 00-16.605 16.604zm30.442 0a13.838 13.838 0 11-13.837-13.837 13.853 13.853 0 0113.837 13.837z" fill="#fff"/></g><g filter="url(#filter7_ddd)"><path d="M57.298 67.907a1.42 1.42 0 00-.386-.978 1.287 1.287 0 00-.932-.406c-.35 0-.685.146-.932.406a1.42 1.42 0 00-.386.978c.003 2.935 1.115 5.749 3.091 7.824 1.977 2.075 4.657 3.242 7.452 3.246.35 0 .684-.146.932-.406a1.42 1.42 0 00.386-.978 1.42 1.42 0 00-.386-.978 1.287 1.287 0 00-.932-.406c-2.097-.002-4.106-.878-5.589-2.434-1.482-1.557-2.316-3.667-2.318-5.868z" fill="#fff"/></g></g><defs><filter id="filter0_ddd" x="4.674" y="8.826" width="108.872" height="107.093" filterUnits="userSpaceOnUse" color-interpolation-filters="sRGB"><feFlood flood-opacity="0" result="BackgroundImageFix"/><feColorMatrix in="SourceAlpha" values="0 0 0 0 0 0 0 0 0 0 0 0 0 0 0 0 0 0 127 0"/><feOffset/><feGaussianBlur stdDeviation="2.5"/><feColorMatrix values="0 0 0 0 0.196078 0 0 0 0 0.709804 0 0 0 0 0.968627 0 0 0 1 0"/><feBlend in2="BackgroundImageFix" result="effect1_dropShadow"/><feColorMatrix in="SourceAlpha" values="0 0 0 0 0 0 0 0 0 0 0 0 0 0 0 0 0 0 127 0"/><feOffset/><feGaussianBlur stdDeviation="5"/><feColorMatrix values="0 0 0 0 0.196078 0 0 0 0 0.709804 0 0 0 0 0.968627 0 0 0 1 0"/><feBlend in2="effect1_dropShadow" result="effect2_dropShadow"/><feColorMatrix in="SourceAlpha" values="0 0 0 0 0 0 0 0 0 0 0 0 0 0 0 0 0 0 127 0"/><feOffset/><feGaussianBlur stdDeviation="7.5"/><feColorMatrix values="0 0 0 0 0.196078 0 0 0 0 0.709804 0 0 0 0 0.968627 0 0 0 1 0"/><feBlend in2="effect2_dropShadow" result="effect3_dropShadow"/><feBlend in="SourceGraphic" in2="effect3_dropShadow" result="shape"/></filter><filter id="filter1_ddd" x="47.371" y="7.64" width="35.93" height="34.151" filterUnits="userSpaceOnUse" color-interpolation-filters="sRGB"><feFlood flood-opacity="0" result="BackgroundImageFix"/><feColorMatrix in="SourceAlpha" values="0 0 0 0 0 0 0 0 0 0 0 0 0 0 0 0 0 0 127 0"/><feOffset/><feGaussianBlur stdDeviation="2.5"/><feColorMatrix values="0 0 0 0 0.964706 0 0 0 0 0 0 0 0 0 0.698039 0 0 0 1 0"/><feBlend in2="BackgroundImageFix" result="effect1_dropShadow"/><feColorMatrix in="SourceAlpha" values="0 0 0 0 0 0 0 0 0 0 0 0 0 0 0 0 0 0 127 0"/><feOffset/><feGaussianBlur stdDeviation="5"/><feColorMatrix values="0 0 0 0 0.964706 0 0 0 0 0 0 0 0 0 0.698039 0 0 0 1 0"/><feBlend in2="effect1_dropShadow" result="effect2_dropShadow"/><feColorMatrix in="SourceAlpha" values="0 0 0 0 0 0 0 0 0 0 0 0 0 0 0 0 0 0 127 0"/><feOffset/><feGaussianBlur stdDeviation="7.5"/><feColorMatrix values="0 0 0 0 0.964706 0 0 0 0 0 0 0 0 0 0.698039 0 0 0 1 0"/><feBlend in2="effect2_dropShadow" result="effect3_dropShadow"/><feBlend in="SourceGraphic" in2="effect3_dropShadow" result="shape"/></filter><filter id="filter2_ddd" x="61.605" y=".523" width="32.372" height="35.337" filterUnits="userSpaceOnUse" color-interpolation-filters="sRGB"><feFlood flood-opacity="0" result="BackgroundImageFix"/><feColorMatrix in="SourceAlpha" values="0 0 0 0 0 0 0 0 0 0 0 0 0 0 0 0 0 0 127 0"/><feOffset/><feGaussianBlur stdDeviation="2.5"/><feColorMatrix values="0 0 0 0 0.964706 0 0 0 0 0 0 0 0 0 0.698039 0 0 0 1 0"/><feBlend in2="BackgroundImageFix" result="effect1_dropShadow"/><feColorMatrix in="SourceAlpha" values="0 0 0 0 0 0 0 0 0 0 0 0 0 0 0 0 0 0 127 0"/><feOffset/><feGaussianBlur stdDeviation="5"/><feColorMatrix values="0 0 0 0 0.964706 0 0 0 0 0 0 0 0 0 0.698039 0 0 0 1 0"/><feBlend in2="effect1_dropShadow" result="effect2_dropShadow"/><feColorMatrix in="SourceAlpha" values="0 0 0 0 0 0 0 0 0 0 0 0 0 0 0 0 0 0 127 0"/><feOffset/><feGaussianBlur stdDeviation="7.5"/><feColorMatrix values="0 0 0 0 0.964706 0 0 0 0 0 0 0 0 0 0.698039 0 0 0 1 0"/><feBlend in2="effect2_dropShadow" result="effect3_dropShadow"/><feBlend in="SourceGraphic" in2="effect3_dropShadow" result="shape"/></filter><filter id="filter3_ddd" x="53.303" y="1.709" width="34.151" height="35.93" filterUnits="userSpaceOnUse" color-interpolation-filters="sRGB"><feFlood flood-opacity="0" result="BackgroundImageFix"/><feColorMatrix in="SourceAlpha" values="0 0 0 0 0 0 0 0 0 0 0 0 0 0 0 0 0 0 127 0"/><feOffset/><feGaussianBlur stdDeviation="2.5"/><feColorMatrix values="0 0 0 0 0.964706 0 0 0 0 0 0 0 0 0 0.698039 0 0 0 1 0"/><feBlend in2="BackgroundImageFix" result="effect1_dropShadow"/><feColorMatrix in="SourceAlpha" values="0 0 0 0 0 0 0 0 0 0 0 0 0 0 0 0 0 0 127 0"/><feOffset/><feGaussianBlur stdDeviation="5"/><feColorMatrix values="0 0 0 0 0.964706 0 0 0 0 0 0 0 0 0 0.698039 0 0 0 1 0"/><feBlend in2="effect1_dropShadow" result="effect2_dropShadow"/><feColorMatrix in="SourceAlpha" values="0 0 0 0 0 0 0 0 0 0 0 0 0 0 0 0 0 0 127 0"/><feOffset/><feGaussianBlur stdDeviation="7.5"/><feColorMatrix values="0 0 0 0 0.964706 0 0 0 0 0 0 0 0 0 0.698039 0 0 0 1 0"/><feBlend in2="effect2_dropShadow" result="effect3_dropShadow"/><feBlend in="SourceGraphic" in2="effect3_dropShadow" result="shape"/></filter><filter id="filter4_ddd" x="68.129" y="1.709" width="34.151" height="35.93" filterUnits="userSpaceOnUse" color-interpolation-filters="sRGB"><feFlood flood-opacity="0" result="BackgroundImageFix"/><feColorMatrix in="SourceAlpha" values="0 0 0 0 0 0 0 0 0 0 0 0 0 0 0 0 0 0 127 0"/><feOffset/><feGaussianBlur stdDeviation="2.5"/><feColorMatrix values="0 0 0 0 0.964706 0 0 0 0 0 0 0 0 0 0.698039 0 0 0 1 0"/><feBlend in2="BackgroundImageFix" result="effect1_dropShadow"/><feColorMatrix in="SourceAlpha" values="0 0 0 0 0 0 0 0 0 0 0 0 0 0 0 0 0 0 127 0"/><feOffset/><feGaussianBlur stdDeviation="5"/><feColorMatrix values="0 0 0 0 0.964706 0 0 0 0 0 0 0 0 0 0.698039 0 0 0 1 0"/><feBlend in2="effect1_dropShadow" result="effect2_dropShadow"/><feColorMatrix in="SourceAlpha" values="0 0 0 0 0 0 0 0 0 0 0 0 0 0 0 0 0 0 127 0"/><feOffset/><feGaussianBlur stdDeviation="7.5"/><feColorMatrix values="0 0 0 0 0.964706 0 0 0 0 0 0 0 0 0 0.698039 0 0 0 1 0"/><feBlend in2="effect2_dropShadow" result="effect3_dropShadow"/><feBlend in="SourceGraphic" in2="effect3_dropShadow" result="shape"/></filter><filter id="filter5_ddd" x="72.279" y="7.64" width="35.93" height="34.151" filterUnits="userSpaceOnUse" color-interpolation-filters="sRGB"><feFlood flood-opacity="0" result="BackgroundImageFix"/><feColorMatrix in="SourceAlpha" values="0 0 0 0 0 0 0 0 0 0 0 0 0 0 0 0 0 0 127 0"/><feOffset/><feGaussianBlur stdDeviation="2.5"/><feColorMatrix values="0 0 0 0 0.964706 0 0 0 0 0 0 0 0 0 0.698039 0 0 0 1 0"/><feBlend in2="BackgroundImageFix" result="effect1_dropShadow"/><feColorMatrix in="SourceAlpha" values="0 0 0 0 0 0 0 0 0 0 0 0 0 0 0 0 0 0 127 0"/><feOffset/><feGaussianBlur stdDeviation="5"/><feColorMatrix values="0 0 0 0 0.964706 0 0 0 0 0 0 0 0 0 0.698039 0 0 0 1 0"/><feBlend in2="effect1_dropShadow" result="effect2_dropShadow"/><feColorMatrix in="SourceAlpha" values="0 0 0 0 0 0 0 0 0 0 0 0 0 0 0 0 0 0 127 0"/><feOffset/><feGaussianBlur stdDeviation="7.5"/><feColorMatrix values="0 0 0 0 0.964706 0 0 0 0 0 0 0 0 0 0.698039 0 0 0 1 0"/><feBlend in2="effect2_dropShadow" result="effect3_dropShadow"/><feBlend in="SourceGraphic" in2="effect3_dropShadow" result="shape"/></filter><filter id="filter6_ddd" x="33.732" y="36.698" width="63.209" height="63.209" filterUnits="userSpaceOnUse" color-interpolation-filters="sRGB"><feFlood flood-opacity="0" result="BackgroundImageFix"/><feColorMatrix in="SourceAlpha" values="0 0 0 0 0 0 0 0 0 0 0 0 0 0 0 0 0 0 127 0"/><feOffset/><feGaussianBlur stdDeviation="2.5"/><feColorMatrix values="0 0 0 0 0.964706 0 0 0 0 0 0 0 0 0 0.698039 0 0 0 1 0"/><feBlend in2="BackgroundImageFix" result="effect1_dropShadow"/><feColorMatrix in="SourceAlpha" values="0 0 0 0 0 0 0 0 0 0 0 0 0 0 0 0 0 0 127 0"/><feOffset/><feGaussianBlur stdDeviation="5"/><feColorMatrix values="0 0 0 0 0.964706 0 0 0 0 0 0 0 0 0 0.698039 0 0 0 1 0"/><feBlend in2="effect1_dropShadow" result="effect2_dropShadow"/><feColorMatrix in="SourceAlpha" values="0 0 0 0 0 0 0 0 0 0 0 0 0 0 0 0 0 0 127 0"/><feOffset/><feGaussianBlur stdDeviation="7.5"/><feColorMatrix values="0 0 0 0 0.964706 0 0 0 0 0 0 0 0 0 0.698039 0 0 0 1 0"/><feBlend in2="effect2_dropShadow" result="effect3_dropShadow"/><feBlend in="SourceGraphic" in2="effect3_dropShadow" result="shape"/></filter><filter id="filter7_ddd" x="39.662" y="51.523" width="41.861" height="42.453" filterUnits="userSpaceOnUse" color-interpolation-filters="sRGB"><feFlood flood-opacity="0" result="BackgroundImageFix"/><feColorMatrix in="SourceAlpha" values="0 0 0 0 0 0 0 0 0 0 0 0 0 0 0 0 0 0 127 0"/><feOffset/><feGaussianBlur stdDeviation="2.5"/><feColorMatrix values="0 0 0 0 0.964706 0 0 0 0 0 0 0 0 0 0.698039 0 0 0 1 0"/><feBlend in2="BackgroundImageFix" result="effect1_dropShadow"/><feColorMatrix in="SourceAlpha" values="0 0 0 0 0 0 0 0 0 0 0 0 0 0 0 0 0 0 127 0"/><feOffset/><feGaussianBlur stdDeviation="5"/><feColorMatrix values="0 0 0 0 0.964706 0 0 0 0 0 0 0 0 0 0.698039 0 0 0 1 0"/><feBlend in2="effect1_dropShadow" result="effect2_dropShadow"/><feColorMatrix in="SourceAlpha" values="0 0 0 0 0 0 0 0 0 0 0 0 0 0 0 0 0 0 127 0"/><feOffset/><feGaussianBlur stdDeviation="7.5"/><feColorMatrix values="0 0 0 0 0.964706 0 0 0 0 0 0 0 0 0 0.698039 0 0 0 1 0"/><feBlend in2="effect2_dropShadow" result="effect3_dropShadow"/><feBlend in="SourceGraphic" in2="effect3_dropShadow" result="shape"/></filter><clipPath id="clip0"><path fill="#fff" transform="translate(9 9)" d="M0 0h102v102H0z"/></clipPath></defs></svg>