<svg width="120" height="120" fill="none" xmlns="http://www.w3.org/2000/svg"><g filter="url(#filter0_ddd)"><path d="M99.617 19H38.75a1.383 1.383 0 00-1.383 1.383v29.87A11.064 11.064 0 1026.3 68.276v3.29h-4.15a1.384 1.384 0 00-1.383 1.383v5.533a1.383 1.383 0 001.383 1.384h1.384v2.766H22.15a1.384 1.384 0 00-1.383 1.384v5.533a1.384 1.384 0 001.383 1.383V93.7a1.383 1.383 0 00-1.383 1.383v5.534A1.384 1.384 0 0022.15 102h77.467a1.386 1.386 0 001.383-1.383V20.383A1.385 1.385 0 0099.617 19zm-78.85 38.56a8.3 8.3 0 118.3 8.3 8.309 8.309 0 01-8.3-8.3zm15.409 8.473a11.18 11.18 0 001.19-1.164v1.164h-1.19zm-7.11 2.767H42.9v2.767H29.067V68.8zm24.9 8.3H40.135v-2.767h13.833V77.1zm-30.432-2.767h13.833V77.1H23.534v-2.767zm2.766 5.534h30.433v2.766h-9.291a11.036 11.036 0 00-14.617 0H26.3v-2.766zm24.9 11.066h4.15V93.7h-4.5c.233-.904.35-1.833.35-2.767zm-.35-2.766c-.252-.97-.635-1.9-1.139-2.767h4.256v2.767H50.85zM40.134 99.233a8.3 8.3 0 118.3-8.3 8.309 8.309 0 01-8.3 8.3zM23.534 85.4h7.022a11.004 11.004 0 00-1.139 2.767h-5.883V85.4zm1.383 5.533h4.15c0 .934.117 1.863.35 2.767h-4.5v-2.767zm-1.383 5.534h7.022a11.146 11.146 0 002.27 2.766h-9.292v-2.766zm23.908 2.766a11.137 11.137 0 002.375-2.95v.184h4.15v2.766h-6.525zm50.791 0h-41.5v-2.766a1.384 1.384 0 001.384-1.384V92.89l4.723-4.723h2.194c.314 0 .619-.107.864-.303l6.329-5.064 3.436 1.146a1.385 1.385 0 001.368-.289L91.317 70.67v3.663a1.383 1.383 0 102.766 0v-6.916a1.383 1.383 0 00-1.383-1.384h-6.917a1.384 1.384 0 000 2.767h3.477L75.769 81.065l-3.381-1.127a1.383 1.383 0 00-1.303.232l-6.537 5.23h-2.281a1.384 1.384 0 00-.978.405l-3.261 3.26a1.383 1.383 0 00-1.294-.898V85.4h1.383a1.383 1.383 0 001.383-1.383v-5.534a1.383 1.383 0 00-1.383-1.383h-1.383v-4.15a1.383 1.383 0 00-1.384-1.383h-9.683v-4.15a1.383 1.383 0 00-1.383-1.384h-4.15V21.767h58.1v77.466z" fill="#fff"/></g><g filter="url(#filter1_ddd)"><path d="M44.21 35.29h49.972c.368 0 .721-.143.981-.398.26-.254.407-.6.407-.96v-8.145c0-.36-.146-.705-.407-.96a1.405 1.405 0 00-.981-.397H44.21c-.368 0-.72.143-.981.398-.26.254-.407.6-.407.96v8.144c0 .36.146.706.407.96.26.255.613.398.981.398zm1.389-8.145h47.195v5.43H45.599v-5.43z" fill="#fff"/></g><g filter="url(#filter2_ddd)"><path d="M57.949 38.393c-2.225 0-4.4.636-6.249 1.83a10.951 10.951 0 00-4.143 4.873 10.512 10.512 0 00-.64 6.275 10.749 10.749 0 003.078 5.56 11.377 11.377 0 005.76 2.973 11.62 11.62 0 006.498-.619 11.171 11.171 0 005.048-4 10.595 10.595 0 001.895-6.033c-.003-2.879-1.189-5.64-3.298-7.675-2.108-2.036-4.967-3.181-7.95-3.184zm8.436 10.84l-7.03-1.13v-6.88a8.523 8.523 0 015.027 2.768 7.991 7.991 0 012.003 5.243zm-9.842-8.01v5.205l-4.207-3.25a8.54 8.54 0 014.207-1.955zm1.406 16.174a8.665 8.665 0 01-4.189-1.073 8.297 8.297 0 01-3.083-2.94 7.93 7.93 0 01-1.163-4.03 7.92 7.92 0 011.064-4.057l6.492 5.015c.188.145.41.241.647.28l8.203 1.32a8.19 8.19 0 01-3.079 3.97 8.656 8.656 0 01-4.892 1.515z" fill="#fff"/></g><g filter="url(#filter3_ddd)"><path d="M94.201 40.72H73.668c-.363 0-.712.163-.968.454-.257.29-.401.685-.401 1.097 0 .411.144.806.4 1.097.258.291.606.454.969.454H94.2c.363 0 .711-.163.968-.454.257-.29.4-.686.4-1.097a1.66 1.66 0 00-.4-1.097 1.293 1.293 0 00-.968-.454z" fill="#fff"/></g><g filter="url(#filter4_ddd)"><path d="M94.201 46.15H73.668c-.363 0-.712.163-.968.454a1.662 1.662 0 00-.401 1.097c0 .411.144.806.4 1.097a1.3 1.3 0 00.969.454H94.2c.363 0 .711-.163.968-.454.257-.291.4-.686.4-1.097a1.66 1.66 0 00-.4-1.097 1.293 1.293 0 00-.968-.454z" fill="#fff"/></g><g filter="url(#filter5_ddd)"><path d="M94.201 52.355H73.668a1.5 1.5 0 00-.968.34 1.083 1.083 0 00-.401.824c0 .308.144.604.4.822a1.5 1.5 0 00.969.341H94.2a1.5 1.5 0 00.968-.34c.257-.219.4-.515.4-.823a1.08 1.08 0 00-.4-.823 1.5 1.5 0 00-.968-.34z" fill="#fff"/></g><g filter="url(#filter6_ddd)"><path d="M94.201 57.785H73.668a1.5 1.5 0 00-.968.34 1.083 1.083 0 00-.401.824c0 .308.144.604.4.822a1.5 1.5 0 00.969.341H94.2a1.5 1.5 0 00.968-.34c.257-.219.4-.515.4-.823a1.08 1.08 0 00-.4-.823 1.5 1.5 0 00-.968-.341z" fill="#fff"/></g><g filter="url(#filter7_ddd)"><path d="M30.605 61.76v-.393a2.85 2.85 0 001.151-1.405 3.1 3.1 0 00.115-1.866 2.926 2.926 0 00-.97-1.554 2.597 2.597 0 00-1.653-.6h1.357c.36 0 .706-.152.96-.425.255-.273.398-.643.398-1.029 0-.385-.143-.755-.398-1.028a1.313 1.313 0 00-.96-.426c0-.386-.143-.756-.397-1.029a1.313 1.313 0 00-.96-.425c-.36 0-.705.153-.96.425a1.509 1.509 0 00-.397 1.029v.394c-.518.32-.922.813-1.151 1.405a3.1 3.1 0 00-.114 1.865c.154.618.495 1.165.97 1.554.474.39 1.055.6 1.652.6h-1.357c-.36 0-.705.153-.96.426a1.509 1.509 0 00-.398 1.028c0 .386.143.756.398 1.029.255.272.6.425.96.425 0 .386.143.756.397 1.029.255.273.6.426.96.426s.705-.153.96-.426a1.51 1.51 0 00.398-1.029z" fill="#fff"/></g><g filter="url(#filter8_ddd)"><path d="M42.822 87.843c0-.385-.143-.755-.397-1.028a1.313 1.313 0 00-.96-.426c0-.386-.143-.756-.398-1.028a1.313 1.313 0 00-.96-.426c-.36 0-.705.153-.96.426a1.509 1.509 0 00-.397 1.028v.394a2.85 2.85 0 00-1.15 1.405 3.1 3.1 0 00-.115 1.865c.155.618.496 1.165.97 1.554.474.39 1.055.6 1.653.6H38.75c-.36 0-.705.153-.96.426a1.509 1.509 0 00-.397 1.028c0 .386.143.756.397 1.029.255.272.6.426.96.426 0 .385.143.755.398 1.028.254.273.6.426.96.426s.705-.153.96-.426c.254-.273.397-.643.397-1.028v-.394c.517-.32.922-.814 1.15-1.405a3.1 3.1 0 00.115-1.865 2.925 2.925 0 00-.97-1.555 2.597 2.597 0 00-1.652-.6h1.357c.36 0 .705-.152.96-.425.254-.273.397-.643.397-1.029z" fill="#fff"/></g><defs><filter id="filter0_ddd" x="3" y="4" width="113" height="113" filterUnits="userSpaceOnUse" color-interpolation-filters="sRGB"><feFlood flood-opacity="0" result="BackgroundImageFix"/><feColorMatrix in="SourceAlpha" values="0 0 0 0 0 0 0 0 0 0 0 0 0 0 0 0 0 0 127 0"/><feOffset/><feGaussianBlur stdDeviation="2.5"/><feColorMatrix values="0 0 0 0 0.196078 0 0 0 0 0.709804 0 0 0 0 0.968627 0 0 0 1 0"/><feBlend in2="BackgroundImageFix" result="effect1_dropShadow"/><feColorMatrix in="SourceAlpha" values="0 0 0 0 0 0 0 0 0 0 0 0 0 0 0 0 0 0 127 0"/><feOffset/><feGaussianBlur stdDeviation="5"/><feColorMatrix values="0 0 0 0 0.196078 0 0 0 0 0.709804 0 0 0 0 0.968627 0 0 0 1 0"/><feBlend in2="effect1_dropShadow" result="effect2_dropShadow"/><feColorMatrix in="SourceAlpha" values="0 0 0 0 0 0 0 0 0 0 0 0 0 0 0 0 0 0 127 0"/><feOffset/><feGaussianBlur stdDeviation="7.5"/><feColorMatrix values="0 0 0 0 0.196078 0 0 0 0 0.709804 0 0 0 0 0.968627 0 0 0 1 0"/><feBlend in2="effect2_dropShadow" result="effect3_dropShadow"/><feBlend in="SourceGraphic" in2="effect3_dropShadow" result="shape"/></filter><filter id="filter1_ddd" x="27.822" y="9.43" width="82.748" height="40.86" filterUnits="userSpaceOnUse" color-interpolation-filters="sRGB"><feFlood flood-opacity="0" result="BackgroundImageFix"/><feColorMatrix in="SourceAlpha" values="0 0 0 0 0 0 0 0 0 0 0 0 0 0 0 0 0 0 127 0"/><feOffset/><feGaussianBlur stdDeviation="2.5"/><feColorMatrix values="0 0 0 0 0.964706 0 0 0 0 0 0 0 0 0 0.698039 0 0 0 1 0"/><feBlend in2="BackgroundImageFix" result="effect1_dropShadow"/><feColorMatrix in="SourceAlpha" values="0 0 0 0 0 0 0 0 0 0 0 0 0 0 0 0 0 0 127 0"/><feOffset/><feGaussianBlur stdDeviation="5"/><feColorMatrix values="0 0 0 0 0.964706 0 0 0 0 0 0 0 0 0 0.698039 0 0 0 1 0"/><feBlend in2="effect1_dropShadow" result="effect2_dropShadow"/><feColorMatrix in="SourceAlpha" values="0 0 0 0 0 0 0 0 0 0 0 0 0 0 0 0 0 0 127 0"/><feOffset/><feGaussianBlur stdDeviation="7.5"/><feColorMatrix values="0 0 0 0 0.964706 0 0 0 0 0 0 0 0 0 0.698039 0 0 0 1 0"/><feBlend in2="effect2_dropShadow" result="effect3_dropShadow"/><feBlend in="SourceGraphic" in2="effect3_dropShadow" result="shape"/></filter><filter id="filter2_ddd" x="31.701" y="23.393" width="52.495" height="51.72" filterUnits="userSpaceOnUse" color-interpolation-filters="sRGB"><feFlood flood-opacity="0" result="BackgroundImageFix"/><feColorMatrix in="SourceAlpha" values="0 0 0 0 0 0 0 0 0 0 0 0 0 0 0 0 0 0 127 0"/><feOffset/><feGaussianBlur stdDeviation="2.5"/><feColorMatrix values="0 0 0 0 0.964706 0 0 0 0 0 0 0 0 0 0.698039 0 0 0 1 0"/><feBlend in2="BackgroundImageFix" result="effect1_dropShadow"/><feColorMatrix in="SourceAlpha" values="0 0 0 0 0 0 0 0 0 0 0 0 0 0 0 0 0 0 127 0"/><feOffset/><feGaussianBlur stdDeviation="5"/><feColorMatrix values="0 0 0 0 0.964706 0 0 0 0 0 0 0 0 0 0.698039 0 0 0 1 0"/><feBlend in2="effect1_dropShadow" result="effect2_dropShadow"/><feColorMatrix in="SourceAlpha" values="0 0 0 0 0 0 0 0 0 0 0 0 0 0 0 0 0 0 127 0"/><feOffset/><feGaussianBlur stdDeviation="7.5"/><feColorMatrix values="0 0 0 0 0.964706 0 0 0 0 0 0 0 0 0 0.698039 0 0 0 1 0"/><feBlend in2="effect2_dropShadow" result="effect3_dropShadow"/><feBlend in="SourceGraphic" in2="effect3_dropShadow" result="shape"/></filter><filter id="filter3_ddd" x="57.299" y="25.72" width="53.271" height="33.103" filterUnits="userSpaceOnUse" color-interpolation-filters="sRGB"><feFlood flood-opacity="0" result="BackgroundImageFix"/><feColorMatrix in="SourceAlpha" values="0 0 0 0 0 0 0 0 0 0 0 0 0 0 0 0 0 0 127 0"/><feOffset/><feGaussianBlur stdDeviation="2.5"/><feColorMatrix values="0 0 0 0 0.964706 0 0 0 0 0 0 0 0 0 0.698039 0 0 0 1 0"/><feBlend in2="BackgroundImageFix" result="effect1_dropShadow"/><feColorMatrix in="SourceAlpha" values="0 0 0 0 0 0 0 0 0 0 0 0 0 0 0 0 0 0 127 0"/><feOffset/><feGaussianBlur stdDeviation="5"/><feColorMatrix values="0 0 0 0 0.964706 0 0 0 0 0 0 0 0 0 0.698039 0 0 0 1 0"/><feBlend in2="effect1_dropShadow" result="effect2_dropShadow"/><feColorMatrix in="SourceAlpha" values="0 0 0 0 0 0 0 0 0 0 0 0 0 0 0 0 0 0 127 0"/><feOffset/><feGaussianBlur stdDeviation="7.5"/><feColorMatrix values="0 0 0 0 0.964706 0 0 0 0 0 0 0 0 0 0.698039 0 0 0 1 0"/><feBlend in2="effect2_dropShadow" result="effect3_dropShadow"/><feBlend in="SourceGraphic" in2="effect3_dropShadow" result="shape"/></filter><filter id="filter4_ddd" x="57.299" y="31.149" width="53.271" height="33.103" filterUnits="userSpaceOnUse" color-interpolation-filters="sRGB"><feFlood flood-opacity="0" result="BackgroundImageFix"/><feColorMatrix in="SourceAlpha" values="0 0 0 0 0 0 0 0 0 0 0 0 0 0 0 0 0 0 127 0"/><feOffset/><feGaussianBlur stdDeviation="2.5"/><feColorMatrix values="0 0 0 0 0.964706 0 0 0 0 0 0 0 0 0 0.698039 0 0 0 1 0"/><feBlend in2="BackgroundImageFix" result="effect1_dropShadow"/><feColorMatrix in="SourceAlpha" values="0 0 0 0 0 0 0 0 0 0 0 0 0 0 0 0 0 0 127 0"/><feOffset/><feGaussianBlur stdDeviation="5"/><feColorMatrix values="0 0 0 0 0.964706 0 0 0 0 0 0 0 0 0 0.698039 0 0 0 1 0"/><feBlend in2="effect1_dropShadow" result="effect2_dropShadow"/><feColorMatrix in="SourceAlpha" values="0 0 0 0 0 0 0 0 0 0 0 0 0 0 0 0 0 0 127 0"/><feOffset/><feGaussianBlur stdDeviation="7.5"/><feColorMatrix values="0 0 0 0 0.964706 0 0 0 0 0 0 0 0 0 0.698039 0 0 0 1 0"/><feBlend in2="effect2_dropShadow" result="effect3_dropShadow"/><feBlend in="SourceGraphic" in2="effect3_dropShadow" result="shape"/></filter><filter id="filter5_ddd" x="57.299" y="37.355" width="53.271" height="32.327" filterUnits="userSpaceOnUse" color-interpolation-filters="sRGB"><feFlood flood-opacity="0" result="BackgroundImageFix"/><feColorMatrix in="SourceAlpha" values="0 0 0 0 0 0 0 0 0 0 0 0 0 0 0 0 0 0 127 0"/><feOffset/><feGaussianBlur stdDeviation="2.5"/><feColorMatrix values="0 0 0 0 0.964706 0 0 0 0 0 0 0 0 0 0.698039 0 0 0 1 0"/><feBlend in2="BackgroundImageFix" result="effect1_dropShadow"/><feColorMatrix in="SourceAlpha" values="0 0 0 0 0 0 0 0 0 0 0 0 0 0 0 0 0 0 127 0"/><feOffset/><feGaussianBlur stdDeviation="5"/><feColorMatrix values="0 0 0 0 0.964706 0 0 0 0 0 0 0 0 0 0.698039 0 0 0 1 0"/><feBlend in2="effect1_dropShadow" result="effect2_dropShadow"/><feColorMatrix in="SourceAlpha" values="0 0 0 0 0 0 0 0 0 0 0 0 0 0 0 0 0 0 127 0"/><feOffset/><feGaussianBlur stdDeviation="7.5"/><feColorMatrix values="0 0 0 0 0.964706 0 0 0 0 0 0 0 0 0 0.698039 0 0 0 1 0"/><feBlend in2="effect2_dropShadow" result="effect3_dropShadow"/><feBlend in="SourceGraphic" in2="effect3_dropShadow" result="shape"/></filter><filter id="filter6_ddd" x="57.299" y="42.785" width="53.271" height="32.327" filterUnits="userSpaceOnUse" color-interpolation-filters="sRGB"><feFlood flood-opacity="0" result="BackgroundImageFix"/><feColorMatrix in="SourceAlpha" values="0 0 0 0 0 0 0 0 0 0 0 0 0 0 0 0 0 0 127 0"/><feOffset/><feGaussianBlur stdDeviation="2.5"/><feColorMatrix values="0 0 0 0 0.964706 0 0 0 0 0 0 0 0 0 0.698039 0 0 0 1 0"/><feBlend in2="BackgroundImageFix" result="effect1_dropShadow"/><feColorMatrix in="SourceAlpha" values="0 0 0 0 0 0 0 0 0 0 0 0 0 0 0 0 0 0 127 0"/><feOffset/><feGaussianBlur stdDeviation="5"/><feColorMatrix values="0 0 0 0 0.964706 0 0 0 0 0 0 0 0 0 0.698039 0 0 0 1 0"/><feBlend in2="effect1_dropShadow" result="effect2_dropShadow"/><feColorMatrix in="SourceAlpha" values="0 0 0 0 0 0 0 0 0 0 0 0 0 0 0 0 0 0 127 0"/><feOffset/><feGaussianBlur stdDeviation="7.5"/><feColorMatrix values="0 0 0 0 0.964706 0 0 0 0 0 0 0 0 0 0.698039 0 0 0 1 0"/><feBlend in2="effect2_dropShadow" result="effect3_dropShadow"/><feBlend in="SourceGraphic" in2="effect3_dropShadow" result="shape"/></filter><filter id="filter7_ddd" x="11.533" y="36.58" width="35.43" height="41.636" filterUnits="userSpaceOnUse" color-interpolation-filters="sRGB"><feFlood flood-opacity="0" result="BackgroundImageFix"/><feColorMatrix in="SourceAlpha" values="0 0 0 0 0 0 0 0 0 0 0 0 0 0 0 0 0 0 127 0"/><feOffset/><feGaussianBlur stdDeviation="2.5"/><feColorMatrix values="0 0 0 0 0.964706 0 0 0 0 0 0 0 0 0 0.698039 0 0 0 1 0"/><feBlend in2="BackgroundImageFix" result="effect1_dropShadow"/><feColorMatrix in="SourceAlpha" values="0 0 0 0 0 0 0 0 0 0 0 0 0 0 0 0 0 0 127 0"/><feOffset/><feGaussianBlur stdDeviation="5"/><feColorMatrix values="0 0 0 0 0.964706 0 0 0 0 0 0 0 0 0 0.698039 0 0 0 1 0"/><feBlend in2="effect1_dropShadow" result="effect2_dropShadow"/><feColorMatrix in="SourceAlpha" values="0 0 0 0 0 0 0 0 0 0 0 0 0 0 0 0 0 0 127 0"/><feOffset/><feGaussianBlur stdDeviation="7.5"/><feColorMatrix values="0 0 0 0 0.964706 0 0 0 0 0 0 0 0 0 0.698039 0 0 0 1 0"/><feBlend in2="effect2_dropShadow" result="effect3_dropShadow"/><feBlend in="SourceGraphic" in2="effect3_dropShadow" result="shape"/></filter><filter id="filter8_ddd" x="22.393" y="69.935" width="35.43" height="41.636" filterUnits="userSpaceOnUse" color-interpolation-filters="sRGB"><feFlood flood-opacity="0" result="BackgroundImageFix"/><feColorMatrix in="SourceAlpha" values="0 0 0 0 0 0 0 0 0 0 0 0 0 0 0 0 0 0 127 0"/><feOffset/><feGaussianBlur stdDeviation="2.5"/><feColorMatrix values="0 0 0 0 0.964706 0 0 0 0 0 0 0 0 0 0.698039 0 0 0 1 0"/><feBlend in2="BackgroundImageFix" result="effect1_dropShadow"/><feColorMatrix in="SourceAlpha" values="0 0 0 0 0 0 0 0 0 0 0 0 0 0 0 0 0 0 127 0"/><feOffset/><feGaussianBlur stdDeviation="5"/><feColorMatrix values="0 0 0 0 0.964706 0 0 0 0 0 0 0 0 0 0.698039 0 0 0 1 0"/><feBlend in2="effect1_dropShadow" result="effect2_dropShadow"/><feColorMatrix in="SourceAlpha" values="0 0 0 0 0 0 0 0 0 0 0 0 0 0 0 0 0 0 127 0"/><feOffset/><feGaussianBlur stdDeviation="7.5"/><feColorMatrix values="0 0 0 0 0.964706 0 0 0 0 0 0 0 0 0 0.698039 0 0 0 1 0"/><feBlend in2="effect2_dropShadow" result="effect3_dropShadow"/><feBlend in="SourceGraphic" in2="effect3_dropShadow" result="shape"/></filter></defs></svg>