<svg width="120" height="120" fill="none" xmlns="http://www.w3.org/2000/svg"><g filter="url(#filter0_ddd)"><path d="M98.65 20H91.9a1.35 1.35 0 100 2.7h3.49l-5.4 5.4h-3.722a4.049 4.049 0 10-7.472 3.095l-25.651 25.65a4.048 4.048 0 00-5.563 2.305H34.968a4.052 4.052 0 00-6.725-1.483 4.051 4.051 0 00-.748 4.578l-8.1 8.1a1.35 1.35 0 101.91 1.91l8.1-8.1a4.048 4.048 0 005.563-2.305h12.614a4.05 4.05 0 107.472-3.095l25.651-25.65a4.048 4.048 0 005.563-2.305h4.282a1.351 1.351 0 00.955-.395l5.795-5.796V28.1a1.35 1.35 0 102.7 0v-6.75A1.35 1.35 0 0098.65 20zm-67.5 41.85a1.35 1.35 0 110-2.699 1.35 1.35 0 010 2.7zm20.25 0a1.35 1.35 0 110-2.699 1.35 1.35 0 010 2.7zM82.45 30.8a1.35 1.35 0 110-2.699 1.35 1.35 0 010 2.699z" fill="#fff"/></g><g filter="url(#filter1_ddd)"><path d="M35.2 101a1.347 1.347 0 001.35-1.35v-27a1.35 1.35 0 00-1.35-1.35h-8.1a1.35 1.35 0 00-1.35 1.35v27A1.348 1.348 0 0027.1 101h8.1zm-6.75-27h5.4v24.3h-5.4V74z" fill="#fff"/></g><g filter="url(#filter2_ddd)"><path d="M50.05 101a1.347 1.347 0 001.35-1.35V68.6a1.35 1.35 0 00-1.35-1.35h-8.1a1.35 1.35 0 00-1.35 1.35v31.05a1.348 1.348 0 001.35 1.35h8.1zM43.3 69.95h5.4V98.3h-5.4V69.95z" fill="#fff"/></g><g filter="url(#filter3_ddd)"><path d="M64.9 65.9h-8.1a1.35 1.35 0 00-1.35 1.35v32.4A1.352 1.352 0 0056.8 101h8.1a1.35 1.35 0 001.35-1.35v-32.4a1.35 1.35 0 00-1.35-1.35zm-1.35 32.4h-5.4V68.6h5.4v29.7z" fill="#fff"/></g><g filter="url(#filter4_ddd)"><path d="M81.096 99.65v-51.3a1.345 1.345 0 00-1.347-1.347h-8.1a1.346 1.346 0 00-1.346 1.347v51.3a1.347 1.347 0 001.346 1.346h8.1a1.348 1.348 0 001.347-1.346zm-2.693-1.347h-5.407V49.696h5.407v48.607z" fill="#fff"/></g><g filter="url(#filter5_ddd)"><path d="M95.947 99.65v-62.1a1.347 1.347 0 00-1.346-1.347h-8.1a1.347 1.347 0 00-1.347 1.347v62.1a1.347 1.347 0 001.347 1.346h8.1a1.348 1.348 0 001.346-1.346zm-2.693-1.347h-5.407V38.897h5.407v59.407z" fill="#fff"/></g><defs><filter id="filter0_ddd" x="4" y="5" width="111" height="82.65" filterUnits="userSpaceOnUse" color-interpolation-filters="sRGB"><feFlood flood-opacity="0" result="BackgroundImageFix"/><feColorMatrix in="SourceAlpha" values="0 0 0 0 0 0 0 0 0 0 0 0 0 0 0 0 0 0 127 0"/><feOffset/><feGaussianBlur stdDeviation="2.5"/><feColorMatrix values="0 0 0 0 0.964706 0 0 0 0 0 0 0 0 0 0.698039 0 0 0 1 0"/><feBlend in2="BackgroundImageFix" result="effect1_dropShadow"/><feColorMatrix in="SourceAlpha" values="0 0 0 0 0 0 0 0 0 0 0 0 0 0 0 0 0 0 127 0"/><feOffset/><feGaussianBlur stdDeviation="5"/><feColorMatrix values="0 0 0 0 0.964706 0 0 0 0 0 0 0 0 0 0.698039 0 0 0 1 0"/><feBlend in2="effect1_dropShadow" result="effect2_dropShadow"/><feColorMatrix in="SourceAlpha" values="0 0 0 0 0 0 0 0 0 0 0 0 0 0 0 0 0 0 127 0"/><feOffset/><feGaussianBlur stdDeviation="7.5"/><feColorMatrix values="0 0 0 0 0.964706 0 0 0 0 0 0 0 0 0 0.698039 0 0 0 1 0"/><feBlend in2="effect2_dropShadow" result="effect3_dropShadow"/><feBlend in="SourceGraphic" in2="effect3_dropShadow" result="shape"/></filter><filter id="filter1_ddd" x="10.75" y="56.3" width="40.8" height="59.7" filterUnits="userSpaceOnUse" color-interpolation-filters="sRGB"><feFlood flood-opacity="0" result="BackgroundImageFix"/><feColorMatrix in="SourceAlpha" values="0 0 0 0 0 0 0 0 0 0 0 0 0 0 0 0 0 0 127 0"/><feOffset/><feGaussianBlur stdDeviation="2.5"/><feColorMatrix values="0 0 0 0 0.196078 0 0 0 0 0.709804 0 0 0 0 0.968627 0 0 0 1 0"/><feBlend in2="BackgroundImageFix" result="effect1_dropShadow"/><feColorMatrix in="SourceAlpha" values="0 0 0 0 0 0 0 0 0 0 0 0 0 0 0 0 0 0 127 0"/><feOffset/><feGaussianBlur stdDeviation="5"/><feColorMatrix values="0 0 0 0 0.196078 0 0 0 0 0.709804 0 0 0 0 0.968627 0 0 0 1 0"/><feBlend in2="effect1_dropShadow" result="effect2_dropShadow"/><feColorMatrix in="SourceAlpha" values="0 0 0 0 0 0 0 0 0 0 0 0 0 0 0 0 0 0 127 0"/><feOffset/><feGaussianBlur stdDeviation="7.5"/><feColorMatrix values="0 0 0 0 0.196078 0 0 0 0 0.709804 0 0 0 0 0.968627 0 0 0 1 0"/><feBlend in2="effect2_dropShadow" result="effect3_dropShadow"/><feBlend in="SourceGraphic" in2="effect3_dropShadow" result="shape"/></filter><filter id="filter2_ddd" x="25.6" y="52.25" width="40.8" height="63.75" filterUnits="userSpaceOnUse" color-interpolation-filters="sRGB"><feFlood flood-opacity="0" result="BackgroundImageFix"/><feColorMatrix in="SourceAlpha" values="0 0 0 0 0 0 0 0 0 0 0 0 0 0 0 0 0 0 127 0"/><feOffset/><feGaussianBlur stdDeviation="2.5"/><feColorMatrix values="0 0 0 0 0.196078 0 0 0 0 0.709804 0 0 0 0 0.968627 0 0 0 1 0"/><feBlend in2="BackgroundImageFix" result="effect1_dropShadow"/><feColorMatrix in="SourceAlpha" values="0 0 0 0 0 0 0 0 0 0 0 0 0 0 0 0 0 0 127 0"/><feOffset/><feGaussianBlur stdDeviation="5"/><feColorMatrix values="0 0 0 0 0.196078 0 0 0 0 0.709804 0 0 0 0 0.968627 0 0 0 1 0"/><feBlend in2="effect1_dropShadow" result="effect2_dropShadow"/><feColorMatrix in="SourceAlpha" values="0 0 0 0 0 0 0 0 0 0 0 0 0 0 0 0 0 0 127 0"/><feOffset/><feGaussianBlur stdDeviation="7.5"/><feColorMatrix values="0 0 0 0 0.196078 0 0 0 0 0.709804 0 0 0 0 0.968627 0 0 0 1 0"/><feBlend in2="effect2_dropShadow" result="effect3_dropShadow"/><feBlend in="SourceGraphic" in2="effect3_dropShadow" result="shape"/></filter><filter id="filter3_ddd" x="40.449" y="50.9" width="40.8" height="65.1" filterUnits="userSpaceOnUse" color-interpolation-filters="sRGB"><feFlood flood-opacity="0" result="BackgroundImageFix"/><feColorMatrix in="SourceAlpha" values="0 0 0 0 0 0 0 0 0 0 0 0 0 0 0 0 0 0 127 0"/><feOffset/><feGaussianBlur stdDeviation="2.5"/><feColorMatrix values="0 0 0 0 0.196078 0 0 0 0 0.709804 0 0 0 0 0.968627 0 0 0 1 0"/><feBlend in2="BackgroundImageFix" result="effect1_dropShadow"/><feColorMatrix in="SourceAlpha" values="0 0 0 0 0 0 0 0 0 0 0 0 0 0 0 0 0 0 127 0"/><feOffset/><feGaussianBlur stdDeviation="5"/><feColorMatrix values="0 0 0 0 0.196078 0 0 0 0 0.709804 0 0 0 0 0.968627 0 0 0 1 0"/><feBlend in2="effect1_dropShadow" result="effect2_dropShadow"/><feColorMatrix in="SourceAlpha" values="0 0 0 0 0 0 0 0 0 0 0 0 0 0 0 0 0 0 127 0"/><feOffset/><feGaussianBlur stdDeviation="7.5"/><feColorMatrix values="0 0 0 0 0.196078 0 0 0 0 0.709804 0 0 0 0 0.968627 0 0 0 1 0"/><feBlend in2="effect2_dropShadow" result="effect3_dropShadow"/><feBlend in="SourceGraphic" in2="effect3_dropShadow" result="shape"/></filter><filter id="filter4_ddd" x="55.303" y="32.003" width="40.793" height="83.993" filterUnits="userSpaceOnUse" color-interpolation-filters="sRGB"><feFlood flood-opacity="0" result="BackgroundImageFix"/><feColorMatrix in="SourceAlpha" values="0 0 0 0 0 0 0 0 0 0 0 0 0 0 0 0 0 0 127 0"/><feOffset/><feGaussianBlur stdDeviation="2.5"/><feColorMatrix values="0 0 0 0 0.196078 0 0 0 0 0.709804 0 0 0 0 0.968627 0 0 0 1 0"/><feBlend in2="BackgroundImageFix" result="effect1_dropShadow"/><feColorMatrix in="SourceAlpha" values="0 0 0 0 0 0 0 0 0 0 0 0 0 0 0 0 0 0 127 0"/><feOffset/><feGaussianBlur stdDeviation="5"/><feColorMatrix values="0 0 0 0 0.196078 0 0 0 0 0.709804 0 0 0 0 0.968627 0 0 0 1 0"/><feBlend in2="effect1_dropShadow" result="effect2_dropShadow"/><feColorMatrix in="SourceAlpha" values="0 0 0 0 0 0 0 0 0 0 0 0 0 0 0 0 0 0 127 0"/><feOffset/><feGaussianBlur stdDeviation="7.5"/><feColorMatrix values="0 0 0 0 0.196078 0 0 0 0 0.709804 0 0 0 0 0.968627 0 0 0 1 0"/><feBlend in2="effect2_dropShadow" result="effect3_dropShadow"/><feBlend in="SourceGraphic" in2="effect3_dropShadow" result="shape"/></filter><filter id="filter5_ddd" x="70.154" y="21.203" width="40.793" height="94.793" filterUnits="userSpaceOnUse" color-interpolation-filters="sRGB"><feFlood flood-opacity="0" result="BackgroundImageFix"/><feColorMatrix in="SourceAlpha" values="0 0 0 0 0 0 0 0 0 0 0 0 0 0 0 0 0 0 127 0"/><feOffset/><feGaussianBlur stdDeviation="2.5"/><feColorMatrix values="0 0 0 0 0.196078 0 0 0 0 0.709804 0 0 0 0 0.968627 0 0 0 1 0"/><feBlend in2="BackgroundImageFix" result="effect1_dropShadow"/><feColorMatrix in="SourceAlpha" values="0 0 0 0 0 0 0 0 0 0 0 0 0 0 0 0 0 0 127 0"/><feOffset/><feGaussianBlur stdDeviation="5"/><feColorMatrix values="0 0 0 0 0.196078 0 0 0 0 0.709804 0 0 0 0 0.968627 0 0 0 1 0"/><feBlend in2="effect1_dropShadow" result="effect2_dropShadow"/><feColorMatrix in="SourceAlpha" values="0 0 0 0 0 0 0 0 0 0 0 0 0 0 0 0 0 0 127 0"/><feOffset/><feGaussianBlur stdDeviation="7.5"/><feColorMatrix values="0 0 0 0 0.196078 0 0 0 0 0.709804 0 0 0 0 0.968627 0 0 0 1 0"/><feBlend in2="effect2_dropShadow" result="effect3_dropShadow"/><feBlend in="SourceGraphic" in2="effect3_dropShadow" result="shape"/></filter></defs></svg>