<svg width="24" height="24" fill="none" xmlns="http://www.w3.org/2000/svg"><path d="M9.307 8.58c.384-.19 1.075-.213 1.875-.205.625.006.813.043 1.057.102.736.178.477.878.477 2.523 0 .526-.107 1.254.273 1.5.164.104.57.027 1.568-1.67.474-.806.819-1.74.819-1.74s.083-.166.204-.238c.123-.074.307-.068.307-.068h2.25s.675-.1.784.204c.115.32-.276 1.062-1.193 2.285-1.507 2.007-1.66 1.839-.41 3 1.195 1.108 1.426 1.638 1.467 1.704.494.82-.546.886-.546.886l-1.977.035s-.425.08-.989-.307c-.746-.512-1.463-1.844-2.011-1.67-.555.175-.546 1.363-.546 1.363s.025.273-.102.409c-.137.148-.409.17-.409.17h-.886s-1.98.134-3.716-1.67c-1.892-1.97-3.58-5.898-3.58-5.898s-.07-.25.034-.375c.117-.14.444-.136.444-.136l2.113-.034s.197.03.341.136c.119.087.205.273.205.273s.327.848.784 1.636c.891 1.54 1.3 1.904 1.602 1.739.44-.241.307-2.182.307-2.182s.025-.71-.205-1.023c-.178-.242-.533-.321-.682-.34-.12-.017.086-.284.341-.41z" fill="#fff"/><path d="M12.236 24h-.239a83.412 83.412 0 01-5.31-.146c-1.55-.095-2.964-.63-4.09-1.55-1.088-.886-1.83-2.085-2.208-3.562-.328-1.286-.345-2.549-.362-3.77-.012-.876-.024-1.914-.027-2.97.003-1.06.015-2.098.027-2.974.017-1.221.034-2.484.362-3.77.377-1.477 1.12-2.676 2.207-3.563C3.723.776 5.138.241 6.688.146c1.69-.102 3.429-.15 5.314-.146 1.882-.004 3.62.044 5.31.146 1.55.095 2.964.63 4.091 1.55 1.088.886 1.83 2.085 2.207 3.562.328 1.286.345 2.549.362 3.77.012.876.025 1.914.027 2.97v.004a258.853 258.853 0 01-.027 2.97c-.017 1.221-.034 2.484-.362 3.77-.377 1.477-1.12 2.676-2.207 3.563-1.127.919-2.541 1.454-4.091 1.549a82.999 82.999 0 01-5.076.146zm-.239-1.875a81.79 81.79 0 005.2-.143c1.173-.071 2.189-.452 3.021-1.13.77-.628 1.3-1.494 1.575-2.574.273-1.07.289-2.22.304-3.331.012-.87.024-1.901.027-2.947a265.01 265.01 0 00-.027-2.947c-.015-1.111-.03-2.261-.304-3.332-.276-1.08-.805-1.945-1.575-2.573-.832-.679-1.848-1.059-3.02-1.13-1.65-.1-3.35-.147-5.196-.143-1.85-.004-3.55.042-5.2.143-1.173.071-2.189.451-3.021 1.13-.77.628-1.3 1.493-1.575 2.573-.273 1.071-.289 2.22-.304 3.332-.012.871-.024 1.903-.027 2.95.003 1.041.015 2.073.027 2.944.015 1.111.03 2.26.304 3.331.276 1.08.806 1.946 1.575 2.574.832.678 1.848 1.058 3.02 1.13 1.651.1 3.35.147 5.196.143z" fill="#fff"/></svg>