<svg width="1539" height="1246" fill="none" xmlns="http://www.w3.org/2000/svg"><g clip-path="url(#clip0)" opacity=".5"><path d="M624.604 757.473l6.484 12.718 12.415 24.353c.866 1.699 2.538 2.764 4.187 1.923l11.941-6.087c-1.622-1.292-2.622-1.83-3.654-3.185-2.984-3.897-1.579-10.863 3.295-13.348 4.873-2.484 11.351.486 12.752 5.19.481 1.635.326 2.74.421 4.81l11.938-6.086c1.653-.842 1.817-2.843.951-4.542l-6.988-13.707c.899-.315.529.016.709.06.009.003.114-.043.124-.037 1.808.54 3.929.559 5.982-.037 4.597-1.309 7.024-6.788 4.468-11.801s-8.581-6.183-12.344-3.238c-1.856 1.448-2.84 3.236-3.848 5.422l-7.001-13.733c-.867-1.699-2.547-2.665-4.196-1.824l-36.693 18.706c-1.653.842-1.809 2.743-.943 4.443z" fill="#8C6FDD"/><path d="M625.547 753.029l12.246-6.243c4.283 7.187 9.888 13.787 17.489 17.53 4.596 2.264 9.715 3.339 14.805 3.717 4.003.294 8.198.124 12.076-1.035l3.171 6.221c.866 1.699.702 3.7-.951 4.542l-11.941 6.088c-.092-2.072.063-3.178-.421-4.811-1.401-4.704-7.879-7.674-12.752-5.189-4.871 2.483-6.276 9.449-3.295 13.347 1.034 1.353 2.035 1.892 3.654 3.185l-11.941 6.087c-1.652.843-3.321-.224-4.187-1.923l-12.415-24.353-6.484-12.718c-.863-1.701-.707-3.602.946-4.445z" fill="#6F58BF"/></g><g clip-path="url(#clip1)" opacity=".5"><path d="M1268.09 61.655l-12.7 24.915c-.06.12-24.32 47.708-24.32 47.708-1.7 3.329-4.97 5.415-8.2 3.768l-23.4-11.926c3.18-2.53 5.14-3.585 7.16-6.239 5.85-7.634 3.1-21.28-6.45-26.148-9.55-4.867-22.24.951-24.98 10.166-.95 3.203-.64 5.369-.83 9.425l-23.38-11.923c-3.24-1.65-3.56-5.57-1.87-8.898l13.69-26.853c-1.76-.617-1.03.032-1.39.118-.01.006-.22-.085-.24-.073-3.54 1.06-7.7 1.096-11.72-.072-9-2.565-13.76-13.298-8.75-23.119 5.01-9.82 16.81-12.112 24.18-6.343 3.64 2.838 5.56 6.34 7.54 10.622l13.72-26.903c1.69-3.33 4.98-5.22 8.21-3.573l71.89 36.644c3.23 1.65 3.54 5.376 1.84 8.704z" fill="#8C6FDD"/><path d="M1266.25 52.951l-23.99-12.23c-8.39 14.078-19.37 27.008-34.26 34.34-9.01 4.437-19.04 6.542-29.01 7.282-7.84.577-16.06.244-23.65-2.027l-6.22 12.186c-1.69 3.33-1.37 7.249 1.87 8.899l23.39 11.926c.18-4.059-.12-6.225.82-9.425 2.75-9.215 15.44-15.033 24.99-10.166 9.54 4.864 12.29 18.511 6.45 26.148-2.03 2.651-3.99 3.706-7.16 6.239l23.39 11.926c3.24 1.65 6.51-.439 8.21-3.768l24.32-47.708 12.7-24.915c1.69-3.331 1.39-7.056-1.85-8.707z" fill="#9B0371"/></g><g clip-path="url(#clip2)" opacity=".5"><path opacity=".75" d="M1458.68 369.755c10.02-18.018 2.79-41.161-16.15-51.69-18.94-10.529-42.42-4.458-52.43 13.561-6.08 10.935-5.81 23.758-.42 34.502 2.29 4.559 2.22 9.94-.26 14.394l-1.39 2.497c-3.01 5.424-1.06 12.269 4.37 15.287l8.43 4.684c5.43 3.018 12.27 1.068 15.29-4.357l1.39-2.497c2.47-4.454 7.01-7.352 12.09-7.817 11.97-1.094 23-7.629 29.08-18.564z" fill="#F4F7FA"/><path d="M1386.29 419.22c4.2 2.335 8.61 2.427 9.85.204 1.23-2.222-1.17-5.917-5.37-8.253-4.2-2.336-8.61-2.427-9.85-.205-1.23 2.223 1.17 5.918 5.37 8.254z" fill="url(#paint0_linear)"/><path d="M1382.42 402.388l-2.29 4.11a4.123 4.123 0 00.24 4.401c1.28 1.8 3.67 4.324 7.94 6.558 3.47 1.813 6.01 2.494 7.75 2.696a4.196 4.196 0 004.14-2.15l1.26-2.273-19.04-13.342z" fill="url(#paint1_linear)"/><path opacity=".3" d="M1380.42 405.988c.14.47.36.922.65 1.337 1.44 2.019 13.09 11.225 16.83 11.783.49.073.96.072 1.41.005.35-.313.65-.685.89-1.11l1.26-2.273-19.04-13.342-2 3.6z" fill="url(#paint2_linear)"/><path d="M1384.87 400.091a2.2 2.2 0 00-3.19.733l-.07.117a4.638 4.638 0 00.26 4.937c1.44 2.02 13.1 11.226 16.83 11.784 1.88.28 3.59-.518 4.51-2.179l.06-.094c.54-.987.26-2.23-.67-2.879l-17.73-12.419z" fill="url(#paint3_linear)"/><path opacity=".3" d="M1402.6 412.511l-17.73-12.42c-.7-.49-1.57-.512-2.28-.154a4.62 4.62 0 00.83 3.162c1.44 2.02 13.49 11.8 16.7 12.017 1.25.084 2.46-.271 3.41-.997a2.213 2.213 0 00-.93-1.608z" fill="url(#paint4_linear)"/><path d="M1387.84 393.023a1.598 1.598 0 00-2.17.618l-1.79 3.218a4.64 4.64 0 00.26 4.938c1.44 2.02 13.49 11.8 16.7 12.017 1.9.128 3.72-.752 4.64-2.412l2.87-5.154a1.6 1.6 0 00-.62-2.167l-19.89-11.058z" fill="url(#paint5_linear)"/><path d="M1395.77 402.167c6.11 3.395 11.71 4.978 12.51 3.536.8-1.443-3.5-5.365-9.6-8.76-6.11-3.396-11.71-4.979-12.52-3.536-.8 1.443 3.5 5.365 9.61 8.76z" fill="url(#paint6_linear)"/><path d="M1458.68 369.755c10.02-18.018 2.79-41.161-16.15-51.69-18.94-10.529-42.42-4.458-52.43 13.561-6.08 10.935-5.81 23.758-.42 34.502 2.29 4.559 2.22 9.94-.26 14.394l-1.39 2.497c-3.01 5.424-1.06 12.269 4.37 15.287l8.43 4.684c5.43 3.018 12.27 1.068 15.29-4.357l1.39-2.497c2.47-4.454 7.01-7.352 12.09-7.817 11.97-1.094 23-7.629 29.08-18.564z" fill="url(#paint7_linear)"/><path opacity=".5" d="M1397.31 399.406c4.47 2.485 8.56 3.643 9.15 2.587.59-1.055-2.56-3.925-7.03-6.41-4.47-2.484-8.57-3.642-9.15-2.587-.59 1.056 2.56 3.926 7.03 6.41z" fill="#F4F7FA"/><path d="M1395.61 397.491a.524.524 0 01-.23-.665l19.76-49.565a.531.531 0 01.69-.298c.28.108.41.42.3.695l-19.76 49.564a.539.539 0 01-.76.269z" fill="url(#paint8_linear)"/><path d="M1399.31 399.547a.528.528 0 01-.17-.786l31.66-42.946c.18-.237.52-.29.75-.112.24.175.29.51.12.747L1400 399.396a.536.536 0 01-.69.151z" fill="url(#paint9_linear)"/><path d="M1430.12 355.541a.559.559 0 01-.28-.427l-.25-3.403c-.01-.035-.02-.065-.05-.075-.04-.022-.07-.002-.09.004l-2.09 1.212c-.35.201-.76.211-1.12.026a1.144 1.144 0 01-.61-.935l-.25-3.059c0-.033-.02-.058-.05-.073-.03-.012-.05-.015-.08-.001l-2.36 1.162c-.34.168-.74.159-1.07-.023v-.001a1.167 1.167 0 01-.59-.897l-.38-3.749a.141.141 0 00-.05-.072.093.093 0 00-.09.005l-3.37 2.013a.532.532 0 01-.73-.185.539.539 0 01.18-.734l3.38-2.012a1.152 1.152 0 011.74.877l.39 3.748c0 .033.01.057.04.071.03.014.05.014.08 0l2.36-1.162a1.15 1.15 0 011.66.947l.25 3.058c.01.035.02.07.05.074.04.022.07.002.08-.004l2.1-1.212a1.151 1.151 0 011.73.915l.26 3.404a.536.536 0 01-.79.508z" fill="url(#paint10_linear)"/><path opacity=".3" d="M1410.71 376.771c7.72-12.167 30.57-3.314 36.73-14.595 3.79-6.948-1.79-16.772-3.02-18.802-9.05-14.956-30.24-15.279-30.17-23.35.02-2.009 1.34-3.47 2.1-4.301 1.14-1.258 2.66-2.177 4.48-2.776-12.6.623-24.38 7.244-30.73 18.679-6.08 10.935-5.81 23.757-.42 34.502 2.29 4.559 2.22 9.94-.26 14.394l-1.39 2.497c-3.01 5.424-1.05 12.269 4.37 15.287l8.43 4.684c5.43 3.018 12.28 1.067 15.29-4.357l1.11-1.997c-1.65.244-3.33.122-4.78-.701-5.05-2.859-5.59-13.109-1.74-19.164z" fill="url(#paint11_linear)"/></g><g clip-path="url(#clip3)" opacity=".5"><path opacity=".75" d="M114.749 284.144c-8.64-26.037-37.83-39.782-65.197-30.7-27.367 9.082-42.548 37.551-33.907 63.587 5.243 15.801 18.055 27.075 33.436 31.466 6.524 1.864 11.736 6.774 13.872 13.211l1.197 3.607c2.601 7.839 11.07 12.083 18.915 9.479l12.174-4.04c7.845-2.603 12.096-11.068 9.495-18.906l-1.197-3.608c-2.136-6.436-.894-13.489 3.222-18.883 9.703-12.716 13.234-29.412 7.99-45.213z" fill="#F4F7FA"/><path d="M98.057 399.609c6.071-2.014 10.128-6.251 9.062-9.462-1.065-3.212-6.851-4.182-12.922-2.168-6.07 2.015-10.128 6.252-9.062 9.463 1.066 3.212 6.85 4.182 12.922 2.167z" fill="url(#paint12_linear)"/><path d="M78.076 388.254l1.97 5.938a5.495 5.495 0 004.524 3.733c2.918.364 7.545.291 13.581-1.884 4.897-1.766 7.85-3.641 9.617-5.166 1.707-1.475 2.326-3.85 1.616-5.989l-1.09-3.285-30.218 6.653z" fill="url(#paint13_linear)"/><path opacity=".3" d="M79.802 393.455c.589.285 1.226.48 1.897.564 3.274.409 22.788-2.726 26.697-5.884.508-.41.933-.875 1.273-1.377a5.666 5.666 0 00-.284-1.872l-1.091-3.285-30.218 6.652 1.726 5.202z" fill="url(#paint14_linear)"/><path d="M78.033 383.783a2.937 2.937 0 00-2.157 3.792l.055.168a6.164 6.164 0 005.075 4.187c3.274.409 22.787-2.725 26.697-5.884 1.968-1.591 2.721-3.982 1.925-6.382l-.045-.135a2.935 2.935 0 00-3.419-1.941l-28.13 6.195z" fill="url(#paint15_linear)"/><path opacity=".3" d="M106.164 377.589l-28.132 6.195a2.932 2.932 0 00-2.198 2.091 6.125 6.125 0 003.838 2.039c3.274.409 23.706-2.595 26.809-5.546 1.208-1.149 1.953-2.66 2.096-4.243a2.932 2.932 0 00-2.413-.536z" fill="url(#paint16_linear)"/><path d="M73.775 374.516a2.12 2.12 0 00-1.346 2.679l1.544 4.65a6.167 6.167 0 005.075 4.188c3.273.408 23.705-2.596 26.808-5.548 1.833-1.744 2.609-4.319 1.813-6.718l-2.471-7.447a2.12 2.12 0 00-2.68-1.343l-28.743 9.538v.001z" fill="url(#paint17_linear)"/><path d="M89.881 374.969c8.825-2.929 15.419-6.993 14.727-9.077-.692-2.085-8.407-1.401-17.232 1.528-8.825 2.928-15.419 6.992-14.727 9.077.692 2.085 8.407 1.401 17.232-1.528z" fill="url(#paint18_linear)"/><path d="M114.749 284.144c-8.64-26.037-37.83-39.782-65.197-30.7-27.367 9.082-42.548 37.551-33.907 63.587 5.243 15.801 18.055 27.075 33.436 31.466 6.524 1.864 11.736 6.774 13.872 13.211l1.197 3.607c2.601 7.839 11.07 12.083 18.915 9.479l12.174-4.04c7.845-2.603 12.096-11.068 9.495-18.906l-1.197-3.608c-2.136-6.436-.894-13.489 3.222-18.883 9.703-12.716 13.234-29.412 7.99-45.213z" fill="url(#paint19_linear)"/><path opacity=".5" d="M88.557 370.98c6.457-2.143 11.282-5.117 10.776-6.642-.506-1.525-6.152-1.025-12.61 1.118-6.457 2.143-11.281 5.117-10.775 6.642.506 1.525 6.151 1.025 12.609-1.118z" fill="#F4F7FA"/><path d="M85.155 370.917a.712.712 0 01-.865-.367l-30.782-63.982a.712.712 0 011.284-.618l30.78 63.983a.712.712 0 01-.417.984z" fill="url(#paint20_linear)"/><path d="M90.496 369.144a.711.711 0 01-.924-.539l-13.577-69.692a.711.711 0 011.398-.272l13.577 69.692a.71.71 0 01-.474.811z" fill="url(#paint21_linear)"/><path d="M75.11 299.339a.71.71 0 01-.666-.116l-3.568-2.81c-.037-.029-.082-.038-.115-.023a.11.11 0 00-.072.088l-.697 3.143c-.116.52-.483.939-.982 1.118a1.53 1.53 0 01-1.47-.238l-3.222-2.51a.116.116 0 00-.111-.022c-.043.023-.062.038-.073.078l-.985 3.358c-.143.485-.512.87-.988 1.029l-.004.002a1.544 1.544 0 01-1.408-.231l-4.02-2.997a.13.13 0 00-.114-.019.116.116 0 00-.071.089l-1.064 5.116a.712.712 0 01-1.394-.289l1.064-5.116c.108-.521.467-.943.96-1.13a1.53 1.53 0 011.47.209l4.02 2.997a.113.113 0 00.182-.059l.985-3.358a1.537 1.537 0 012.426-.779l3.222 2.509c.036.028.082.047.113.021a.11.11 0 00.073-.086l.697-3.143a1.538 1.538 0 012.459-.876l3.568 2.811a.71.71 0 01-.216 1.234z" fill="url(#paint22_linear)"/><path opacity=".3" d="M78.437 337.475c-4.969-18.523 24.278-32.95 18.761-49.133-3.397-9.968-18.043-13.348-21.138-13.971-22.804-4.594-42.2 15.886-50.044 8.55-1.952-1.826-2.189-4.442-2.324-5.931-.203-2.251.26-4.564 1.314-6.889-10.73 12.906-14.844 30.407-9.36 46.93 5.243 15.801 18.055 27.075 33.435 31.466 6.525 1.864 11.737 6.774 13.872 13.211l1.198 3.607c2.6 7.839 11.07 12.083 18.914 9.479l12.175-4.04c7.845-2.603 12.096-11.068 9.495-18.906l-.958-2.885c-1.25 1.839-2.877 3.373-4.993 4.055-7.342 2.371-17.875-6.326-20.347-15.543z" fill="url(#paint23_linear)"/></g><g clip-path="url(#clip4)" opacity=".5"><path opacity=".75" d="M101.693 951.949c4.389-13.227 19.218-20.209 33.12-15.596 13.903 4.614 21.615 19.077 17.226 32.303-2.664 8.027-9.173 13.754-16.986 15.985-3.314.947-5.962 3.441-7.047 6.711l-.608 1.833a7.6 7.6 0 01-9.609 4.815l-6.185-2.052c-3.985-1.322-6.145-5.623-4.823-9.605l.608-1.832c1.085-3.27.454-6.853-1.637-9.593-4.929-6.46-6.723-14.942-4.059-22.969z" fill="#F4F7FA"/><path d="M110.172 1010.61c-3.084-1.03-5.145-3.18-4.604-4.81.542-1.63 3.481-2.13 6.565-1.1 3.084 1.02 5.145 3.17 4.604 4.81-.542 1.63-3.481 2.12-6.565 1.1z" fill="url(#paint24_linear)"/><path d="M120.324 1004.84l-1.001 3.01a2.776 2.776 0 01-2.298 1.9c-1.482.19-3.832.15-6.899-.96-2.488-.89-3.988-1.85-4.885-2.62a2.84 2.84 0 01-.822-3.04l.554-1.67 15.351 3.38z" fill="url(#paint25_linear)"/><path opacity=".3" d="M119.445 1007.48c-.299.14-.622.24-.963.29-1.663.2-11.576-1.39-13.562-2.99a3.396 3.396 0 01-.647-.7c-.005-.32.041-.64.144-.95l.554-1.67 15.351 3.38-.877 2.64z" fill="url(#paint26_linear)"/><path d="M120.345 1002.57a1.486 1.486 0 011.096 1.92l-.029.09a3.143 3.143 0 01-2.578 2.13c-1.663.2-11.576-1.39-13.562-2.99-1-.81-1.382-2.03-.978-3.25l.023-.06a1.49 1.49 0 011.737-.991l14.291 3.151z" fill="url(#paint27_linear)"/><path opacity=".3" d="M106.055 999.42l14.291 3.15c.564.12.975.55 1.117 1.06-.495.56-1.181.94-1.95 1.04-1.664.2-12.043-1.32-13.62-2.82-.613-.59-.992-1.35-1.064-2.157a1.485 1.485 0 011.226-.273z" fill="url(#paint28_linear)"/><path d="M122.509 997.859c.564.187.87.797.683 1.361l-.784 2.36a3.128 3.128 0 01-2.578 2.13c-1.663.21-12.043-1.32-13.619-2.82-.931-.88-1.325-2.193-.921-3.411l1.255-3.784a1.078 1.078 0 011.362-.682l14.602 4.845v.001z" fill="url(#paint29_linear)"/><path d="M114.327 998.089c-4.484-1.488-7.833-3.552-7.482-4.611.352-1.059 4.271-.712 8.754.776s7.833 3.552 7.481 4.611c-.351 1.059-4.27.712-8.753-.776z" fill="url(#paint30_linear)"/><path d="M101.693 951.949c4.389-13.227 19.218-20.209 33.12-15.596 13.903 4.614 21.615 19.077 17.226 32.303-2.664 8.027-9.173 13.754-16.986 15.985-3.314.947-5.962 3.441-7.047 6.711l-.608 1.833a7.6 7.6 0 01-9.609 4.815l-6.185-2.052c-3.985-1.322-6.145-5.623-4.823-9.605l.608-1.832c1.085-3.27.454-6.853-1.637-9.593-4.929-6.46-6.723-14.942-4.059-22.969z" fill="url(#paint31_linear)"/><path opacity=".5" d="M114.998 996.063c-3.28-1.089-5.731-2.6-5.474-3.375.257-.775 3.125-.52 6.405.568 3.281 1.089 5.732 2.6 5.475 3.375-.258.775-3.125.52-6.406-.568z" fill="#F4F7FA"/><path d="M116.728 996.031a.362.362 0 00.439-.187l15.637-32.503a.362.362 0 10-.652-.314l-15.637 32.504a.362.362 0 00.213.5z" fill="url(#paint32_linear)"/><path d="M114.012 995.13a.362.362 0 00.47-.274l6.897-35.404a.36.36 0 00-.286-.423.36.36 0 00-.424.285l-6.897 35.404a.36.36 0 00.24.412z" fill="url(#paint33_linear)"/><path d="M121.829 959.669a.361.361 0 00.338-.059l1.813-1.428c.019-.014.041-.019.058-.011.03.01.035.036.037.044l.354 1.597a.78.78 0 001.246.447l1.636-1.275c.018-.014.037-.018.057-.011.022.012.031.019.037.04l.5 1.705c.073.247.26.442.502.523l.002.001c.242.08.509.036.716-.117l2.042-1.523a.065.065 0 01.057-.009c.02.007.032.022.037.045l.54 2.599a.362.362 0 00.708-.147l-.54-2.599a.78.78 0 00-1.235-.468l-2.042 1.523a.059.059 0 01-.055.01.056.056 0 01-.037-.04l-.501-1.706a.78.78 0 00-1.232-.396l-1.637 1.275c-.018.014-.042.023-.058.01a.053.053 0 01-.036-.044l-.354-1.596a.781.781 0 00-1.249-.445l-1.813 1.428a.36.36 0 00.109.627z" fill="url(#paint34_linear)"/><path opacity=".3" d="M120.14 979.041c2.524-9.409-12.334-16.738-9.531-24.959 1.726-5.064 9.166-6.781 10.738-7.098 11.585-2.333 21.438 8.071 25.423 4.344.992-.928 1.112-2.257 1.18-3.013.104-1.144-.132-2.319-.667-3.5 5.451 6.556 7.541 15.447 4.755 23.841-2.663 8.027-9.172 13.754-16.985 15.985-3.315.947-5.963 3.441-7.048 6.711l-.608 1.833c-1.321 3.982-5.623 6.138-9.609 4.815l-6.184-2.052a7.6 7.6 0 01-4.824-9.605l.487-1.465c.635.934 1.461 1.713 2.536 2.06 3.73 1.204 9.081-3.214 10.337-7.897z" fill="url(#paint35_linear)"/></g><g clip-path="url(#clip5)" opacity=".5"><path d="M1535.08 1148.71l-15.59 30.6c-.08.14-29.87 58.58-29.87 58.58-2.08 4.09-6.11 6.65-10.07 4.63l-28.73-14.65c3.9-3.11 6.31-4.4 8.79-7.66 7.18-9.37 3.8-26.13-7.92-32.11-11.73-5.98-27.31 1.17-30.68 12.49-1.16 3.93-.79 6.59-1.01 11.57l-28.72-14.64c-3.98-2.03-4.37-6.84-2.29-10.93l16.81-32.97c-2.16-.76-1.27.04-1.71.14-.02.01-.27-.1-.29-.09-4.35 1.3-9.45 1.35-14.39-.09-11.06-3.15-16.9-16.33-10.75-28.39 6.15-12.06 20.64-14.87 29.69-7.79 4.47 3.49 6.84 7.79 9.26 13.05l16.84-33.04c2.09-4.09 6.13-6.41 10.1-4.39l88.26 45c3.98 2.03 4.36 6.6 2.27 10.69z" fill="#8C6FDD"/><path d="M1532.82 1138.02l-29.46-15.02c-10.31 17.29-23.79 33.17-42.07 42.17-11.06 5.45-23.38 8.04-35.62 8.94-9.63.71-19.72.3-29.05-2.48l-7.63 14.96c-2.08 4.09-1.69 8.9 2.29 10.93l28.72 14.64c.22-4.98-.15-7.64 1.02-11.57 3.37-11.32 18.95-18.46 30.67-12.48 11.72 5.97 15.1 22.73 7.93 32.1-2.49 3.26-4.9 4.55-8.79 7.67l28.72 14.64c3.98 2.03 7.99-.54 10.08-4.63 0 0 29.79-58.43 29.86-58.58l15.6-30.6c2.08-4.09 1.7-8.66-2.27-10.69z" fill="#6F58BF"/></g><defs><linearGradient id="paint0_linear" x1="1384.64" y1="420.508" x2="1387.96" y2="415.978" gradientUnits="userSpaceOnUse"><stop offset=".004" stop-color="#26264F"/><stop offset="1" stop-color="#444B8C"/></linearGradient><linearGradient id="paint1_linear" x1="1384.6" y1="414.679" x2="1396.78" y2="407.102" gradientUnits="userSpaceOnUse"><stop offset=".004" stop-color="#26264F"/><stop offset="1" stop-color="#444B8C"/></linearGradient><linearGradient id="paint2_linear" x1="1380.6" y1="405.658" x2="1400.82" y2="416.896" gradientUnits="userSpaceOnUse"><stop offset=".004" stop-color="#26264F"/><stop offset="1" stop-color="#444B8C"/></linearGradient><linearGradient id="paint3_linear" x1="1386.85" y1="412.008" x2="1399.28" y2="403.78" gradientUnits="userSpaceOnUse"><stop offset=".004" stop-color="#26264F"/><stop offset="1" stop-color="#444B8C"/></linearGradient><linearGradient id="paint4_linear" x1="1381.59" y1="401.751" x2="1403.6" y2="413.99" gradientUnits="userSpaceOnUse"><stop offset=".004" stop-color="#26264F"/><stop offset="1" stop-color="#444B8C"/></linearGradient><linearGradient id="paint5_linear" x1="1383.47" y1="397.595" x2="1406.15" y2="410.202" gradientUnits="userSpaceOnUse"><stop offset=".004" stop-color="#26264F"/><stop offset="1" stop-color="#444B8C"/></linearGradient><linearGradient id="paint6_linear" x1="1395.2" y1="401.876" x2="1403.23" y2="392.669" gradientUnits="userSpaceOnUse"><stop offset=".004" stop-color="#26264F"/><stop offset="1" stop-color="#444B8C"/></linearGradient><linearGradient id="paint7_linear" x1="1423.31" y1="341.201" x2="1428.48" y2="436.119" gradientUnits="userSpaceOnUse"><stop stop-color="#6800D4"/><stop offset=".022" stop-color="#7B00CF"/><stop offset=".057" stop-color="#9400C9"/><stop offset=".097" stop-color="#A700C5"/><stop offset=".144" stop-color="#B400C1"/><stop offset=".203" stop-color="#BC00C0"/><stop offset=".318" stop-color="#BE00BF"/><stop offset=".391" stop-color="#C20BB7"/><stop offset=".518" stop-color="#CE28A0"/><stop offset=".684" stop-color="#E1577C"/><stop offset=".866" stop-color="#F8924F"/><stop offset="1" stop-color="#F8924F"/></linearGradient><linearGradient id="paint8_linear" x1="1385.13" y1="390.818" x2="1408.82" y2="369.458" gradientUnits="userSpaceOnUse"><stop offset=".494" stop-color="#EBEFF2"/><stop offset="1" stop-color="#fff"/></linearGradient><linearGradient id="paint9_linear" x1="1392.13" y1="398.574" x2="1415.81" y2="377.214" gradientUnits="userSpaceOnUse"><stop offset=".494" stop-color="#EBEFF2"/><stop offset="1" stop-color="#fff"/></linearGradient><linearGradient id="paint10_linear" x1="1382.59" y1="387.994" x2="1406.27" y2="366.634" gradientUnits="userSpaceOnUse"><stop offset=".494" stop-color="#EBEFF2"/><stop offset="1" stop-color="#fff"/></linearGradient><linearGradient id="paint11_linear" x1="1433.68" y1="326.223" x2="1384.43" y2="394.044" gradientUnits="userSpaceOnUse"><stop stop-color="#0049E9"/><stop offset=".023" stop-color="#004CCB"/><stop offset=".052" stop-color="#004FAD"/><stop offset=".084" stop-color="#005294"/><stop offset=".12" stop-color="#005481"/><stop offset=".162" stop-color="#005574"/><stop offset=".215" stop-color="#00566C"/><stop offset=".318" stop-color="#00566A"/><stop offset=".39" stop-color="#025B75"/><stop offset=".515" stop-color="#066A92"/><stop offset=".678" stop-color="#0C81C1"/><stop offset=".866" stop-color="#15A0FF"/><stop offset=".993" stop-color="#CA09AB"/><stop offset="1" stop-color="#D400A6"/></linearGradient><linearGradient id="paint12_linear" x1="97.833" y1="402.388" x2="96.377" y2="395.061" gradientUnits="userSpaceOnUse"><stop offset=".004" stop-color="#26264F"/><stop offset="1" stop-color="#444B8C"/></linearGradient><linearGradient id="paint13_linear" x1="92.087" y1="397.177" x2="95.621" y2="378.426" gradientUnits="userSpaceOnUse"><stop offset=".004" stop-color="#26264F"/><stop offset="1" stop-color="#444B8C"/></linearGradient><linearGradient id="paint14_linear" x1="79.644" y1="392.979" x2="108.853" y2="383.286" gradientUnits="userSpaceOnUse"><stop offset=".004" stop-color="#26264F"/><stop offset="1" stop-color="#444B8C"/></linearGradient><linearGradient id="paint15_linear" x1="91.49" y1="392.574" x2="94.623" y2="372.981" gradientUnits="userSpaceOnUse"><stop offset=".004" stop-color="#26264F"/><stop offset="1" stop-color="#444B8C"/></linearGradient><linearGradient id="paint16_linear" x1="76.704" y1="388.495" x2="108.515" y2="377.938" gradientUnits="userSpaceOnUse"><stop offset=".004" stop-color="#26264F"/><stop offset="1" stop-color="#444B8C"/></linearGradient><linearGradient id="paint17_linear" x1="74.325" y1="382.908" x2="107.094" y2="372.034" gradientUnits="userSpaceOnUse"><stop offset=".004" stop-color="#26264F"/><stop offset="1" stop-color="#444B8C"/></linearGradient><linearGradient id="paint18_linear" x1="89.078" y1="375.272" x2="87.29" y2="359.106" gradientUnits="userSpaceOnUse"><stop offset=".004" stop-color="#26264F"/><stop offset="1" stop-color="#444B8C"/></linearGradient><linearGradient id="paint19_linear" x1="54.929" y1="293.099" x2="152.591" y2="373.484" gradientUnits="userSpaceOnUse"><stop stop-color="#6800D4"/><stop offset=".022" stop-color="#7B00CF"/><stop offset=".057" stop-color="#9400C9"/><stop offset=".097" stop-color="#A700C5"/><stop offset=".144" stop-color="#B400C1"/><stop offset=".203" stop-color="#BC00C0"/><stop offset=".318" stop-color="#BE00BF"/><stop offset=".391" stop-color="#C20BB7"/><stop offset=".518" stop-color="#CE28A0"/><stop offset=".684" stop-color="#E1577C"/><stop offset=".866" stop-color="#F8924F"/><stop offset="1" stop-color="#F8924F"/></linearGradient><linearGradient id="paint20_linear" x1="69.184" y1="375.178" x2="69.572" y2="332.741" gradientUnits="userSpaceOnUse"><stop offset=".494" stop-color="#EBEFF2"/><stop offset="1" stop-color="#fff"/></linearGradient><linearGradient id="paint21_linear" x1="83.08" y1="375.305" x2="83.468" y2="332.868" gradientUnits="userSpaceOnUse"><stop offset=".494" stop-color="#EBEFF2"/><stop offset="1" stop-color="#fff"/></linearGradient><linearGradient id="paint22_linear" x1="64.123" y1="375.132" x2="64.51" y2="332.695" gradientUnits="userSpaceOnUse"><stop offset=".494" stop-color="#EBEFF2"/><stop offset="1" stop-color="#fff"/></linearGradient><linearGradient id="paint23_linear" x1="49.58" y1="269.461" x2="71.711" y2="378.772" gradientUnits="userSpaceOnUse"><stop stop-color="#0049E9"/><stop offset=".023" stop-color="#004CCB"/><stop offset=".052" stop-color="#004FAD"/><stop offset=".084" stop-color="#005294"/><stop offset=".12" stop-color="#005481"/><stop offset=".162" stop-color="#005574"/><stop offset=".215" stop-color="#00566C"/><stop offset=".318" stop-color="#00566A"/><stop offset=".39" stop-color="#025B75"/><stop offset=".515" stop-color="#066A92"/><stop offset=".678" stop-color="#0C81C1"/><stop offset=".866" stop-color="#15A0FF"/><stop offset=".993" stop-color="#CA09AB"/><stop offset="1" stop-color="#D400A6"/></linearGradient><linearGradient id="paint24_linear" x1="110.286" y1="1012.02" x2="111.025" y2="1008.3" gradientUnits="userSpaceOnUse"><stop offset=".004" stop-color="#26264F"/><stop offset="1" stop-color="#444B8C"/></linearGradient><linearGradient id="paint25_linear" x1="113.207" y1="1009.37" x2="111.411" y2="999.845" gradientUnits="userSpaceOnUse"><stop offset=".004" stop-color="#26264F"/><stop offset="1" stop-color="#444B8C"/></linearGradient><linearGradient id="paint26_linear" x1="119.526" y1="1007.24" x2="104.687" y2="1002.31" gradientUnits="userSpaceOnUse"><stop offset=".004" stop-color="#26264F"/><stop offset="1" stop-color="#444B8C"/></linearGradient><linearGradient id="paint27_linear" x1="113.509" y1="1007.03" x2="111.917" y2="997.079" gradientUnits="userSpaceOnUse"><stop offset=".004" stop-color="#26264F"/><stop offset="1" stop-color="#444B8C"/></linearGradient><linearGradient id="paint28_linear" x1="121.021" y1="1004.96" x2="104.86" y2="999.597" gradientUnits="userSpaceOnUse"><stop offset=".004" stop-color="#26264F"/><stop offset="1" stop-color="#444B8C"/></linearGradient><linearGradient id="paint29_linear" x1="122.229" y1="1002.12" x2="105.582" y2="996.598" gradientUnits="userSpaceOnUse"><stop offset=".004" stop-color="#26264F"/><stop offset="1" stop-color="#444B8C"/></linearGradient><linearGradient id="paint30_linear" x1="114.734" y1="998.243" x2="115.643" y2="990.031" gradientUnits="userSpaceOnUse"><stop offset=".004" stop-color="#26264F"/><stop offset="1" stop-color="#444B8C"/></linearGradient><linearGradient id="paint31_linear" x1="132.082" y1="956.498" x2="82.469" y2="997.335" gradientUnits="userSpaceOnUse"><stop stop-color="#6800D4"/><stop offset=".022" stop-color="#7B00CF"/><stop offset=".057" stop-color="#9400C9"/><stop offset=".097" stop-color="#A700C5"/><stop offset=".144" stop-color="#B400C1"/><stop offset=".203" stop-color="#BC00C0"/><stop offset=".318" stop-color="#BE00BF"/><stop offset=".391" stop-color="#C20BB7"/><stop offset=".518" stop-color="#CE28A0"/><stop offset=".684" stop-color="#E1577C"/><stop offset=".866" stop-color="#F8924F"/><stop offset="1" stop-color="#F8924F"/></linearGradient><linearGradient id="paint32_linear" x1="124.841" y1="998.195" x2="124.644" y2="976.637" gradientUnits="userSpaceOnUse"><stop offset=".494" stop-color="#EBEFF2"/><stop offset="1" stop-color="#fff"/></linearGradient><linearGradient id="paint33_linear" x1="117.78" y1="998.26" x2="117.583" y2="976.702" gradientUnits="userSpaceOnUse"><stop offset=".494" stop-color="#EBEFF2"/><stop offset="1" stop-color="#fff"/></linearGradient><linearGradient id="paint34_linear" x1="127.411" y1="998.172" x2="127.214" y2="976.614" gradientUnits="userSpaceOnUse"><stop offset=".494" stop-color="#EBEFF2"/><stop offset="1" stop-color="#fff"/></linearGradient><linearGradient id="paint35_linear" x1="134.799" y1="944.49" x2="123.556" y2="1000.02" gradientUnits="userSpaceOnUse"><stop stop-color="#0049E9"/><stop offset=".023" stop-color="#004CCB"/><stop offset=".052" stop-color="#004FAD"/><stop offset=".084" stop-color="#005294"/><stop offset=".12" stop-color="#005481"/><stop offset=".162" stop-color="#005574"/><stop offset=".215" stop-color="#00566C"/><stop offset=".318" stop-color="#00566A"/><stop offset=".39" stop-color="#025B75"/><stop offset=".515" stop-color="#066A92"/><stop offset=".678" stop-color="#0C81C1"/><stop offset=".866" stop-color="#15A0FF"/><stop offset=".993" stop-color="#CA09AB"/><stop offset="1" stop-color="#D400A6"/></linearGradient><clipPath id="clip0"><path fill="#fff" transform="scale(-1 1) rotate(27.012 -1850.606 -1049.582)" d="M0 0h62.371v48.753H0z"/></clipPath><clipPath id="clip1"><path fill="#fff" transform="rotate(27.012 581.19 2419.733)" d="M0 0h122.186v95.507H0z"/></clipPath><clipPath id="clip2"><path fill="#fff" transform="rotate(29.071 127.518 2865.159)" d="M0 0h78.472v115.736H0z"/></clipPath><clipPath id="clip3"><path fill="#fff" transform="rotate(-18.358 835.095 134.944)" d="M0 0h104.419v154.003H0z"/></clipPath><clipPath id="clip4"><path fill="#fff" transform="scale(-1 1) rotate(-18.358 2843.149 967.387)" d="M0 0h53.046v78.235H0z"/></clipPath><clipPath id="clip5"><path fill="#fff" transform="rotate(27.012 -1531.035 3461.858)" d="M0 0h150.041v117.28H0z"/></clipPath></defs></svg>