<svg width="1440" height="525" fill="none" xmlns="http://www.w3.org/2000/svg"><g opacity=".35" clip-path="url(#clip0)"><path d="M1182.81 13.881c-2.33-3.51-7.09-5.21-10.67-3.789l-79.6 28.748c-2.42.96-9.64 8.151-6.15 14.57l52.09 84.362c3.96 5.377 8.13 4.373 12.35 2.085l78.56-42.893c.83-.45 1.48-1.066 2.01-1.757 2.63-3.419 2.88-5.52 2.88-5.52l-51.47-75.806z" fill="url(#paint0_radial)"/><path d="M1231.33 93.315l-77 41.838c-4.21 2.288-9.79.73-12.41-3.491l-51.6-83.093c-2.47-3.981-.89-8.62 3.49-10.352l80.27-31.773c3.58-1.42 8.34.28 10.67 3.79l48.33 73.015c2.44 3.702 1.68 8.205-1.75 10.066z" fill="url(#paint1_radial)"/><path opacity=".32" d="M1141.54 132.041c1.23 1.987 3.12 3.369 5.22 4.054 11.65-23.736 47.92-105.592 48.93-108.31l-11.34-17.134c-2.32-3.509-7.08-5.208-10.66-3.788l-80.25 31.757c-4.38 1.73-5.96 6.369-3.49 10.348l51.59 83.073z" fill="#FBF9FA"/><path d="M1187.39 117.065l12.62-6.86-12.62 6.86z" fill="url(#paint2_linear)"/><path d="M1233.06 83.298l-48.36-73.074c-2.28-3.452-6.92-5.159-10.48-3.866-.06.02-.11.044-.18.07l-80.22 31.744c-4.38 1.73-5.96 6.37-3.49 10.355l51.63 83.157c2.39 3.841 7.22 5.482 11.24 4.02.4-.143.79-.321 1.17-.527l29.83-16.212 3.24-1.761 12.6-6.845 31.27-16.997c3.43-1.861 4.19-6.366 1.75-10.064zm-.09 5.867a4.584 4.584 0 01-2.3 3.008l-31.36 17.043-12.59 6.844-3.24 1.761-29.76 16.168c-.31.169-.64.321-.98.446-3.48 1.259-7.62-.226-9.63-3.459l-51.62-83.157c-.97-1.562-1.23-3.283-.71-4.844.52-1.592 1.78-2.85 3.54-3.55l80.23-31.744c.05-.019.09-.036.15-.054 2.97-1.079 6.95.42 8.88 3.337l48.35 73.074c1.07 1.62 1.45 3.49 1.04 5.127z" fill="#F600B2"/><path d="M1200.97 86.356c-.85 1.95-2.21 3.853-4.08 5.706-1.84 1.752-3.96 3.323-6.36 4.714-6.22 3.608-11.97 4.842-17.24 3.701-5.21-1.178-9.59-4.804-13.16-10.877l-12.45-22.615-9.4 3.894-5.4-9.3 8.07-4.68-7.38-12.562 16.85-6.79 5.69 10.557 13.51-5.495 5.57 11.294-12.32 5.709 12.32 21.001c1.27 2.174 2.82 3.548 4.63 4.124 1.84.474 3.8.11 5.88-1.093 2.39-1.39 4.06-3.213 5-5.47l10.27 8.182z" fill="url(#paint3_radial)"/></g><g opacity=".35" clip-path="url(#clip1)"><path d="M386.128 245.574c-1.923-2.917-5.871-4.328-8.846-3.144l-66.039 23.964c-2.012.8-7.999 6.786-5.112 12.122l43.149 70.123c3.279 4.469 6.74 3.631 10.238 1.725l65.192-35.727c.685-.374 1.224-.887 1.667-1.462 2.185-2.846 2.396-4.592 2.396-4.592l-42.645-63.009z" fill="url(#paint4_radial)"/><path d="M426.317 311.6l-63.892 34.849c-3.498 1.906-8.123.614-10.293-2.895l-42.745-69.069c-2.046-3.309-.732-7.168 2.903-8.611l66.604-26.481c2.971-1.183 6.918.227 8.846 3.144l40.036 60.691c2.022 3.076 1.386 6.822-1.459 8.372z" fill="url(#paint5_radial)"/><path opacity=".32" d="M351.825 343.868c1.021 1.652 2.586 2.8 4.323 3.368 9.68-19.752 39.828-87.864 40.671-90.125l-9.396-14.244c-1.923-2.917-5.87-4.328-8.844-3.143l-66.589 26.47c-3.635 1.443-4.949 5.302-2.903 8.611l42.738 69.063z" fill="#FBF9FA"/><path d="M390.384 298.694l1.774-2.916c-1.73-3.538-3.444-7.028-5.214-10.648-.668.314-1.275.6-1.878.886-2.382 1.14-7.938 3.749-7.938 3.749s-3.184-5.006-4.512-7.192c-.572-.948-.847-1.761-.878-2.473a9.33 9.33 0 01.803-.453c1.683-.832 3.424-1.559 5.134-2.336l.702-.317s1.49-2.788 1.774-2.916l-5.685-8.771c-.968.307-2.013.589-2.998.962-1.82.687-3.655 1.372-5.418 2.19-2.713 1.245-4.918 3.039-6.195 5.643-.114.23-.212.462-.306.69a10.52 10.52 0 00-1.468 2.226c-1.475 3.021-1.278 6.289.138 9.639.583 1.388 1.374 2.744 2.171 4.07 1.088 1.805 2.251 3.575 3.4 5.357l-6.255 2.956-1.774 2.916 6.627 10.476 8.947-4.404 15.248 23.936 2.694-1.468 10.457-5.704-14.988-23.317 5.638-2.781z" fill="url(#paint6_linear)"/><path d="M390.384 298.694l1.774-2.916c-1.73-3.538-3.444-7.028-5.214-10.648-.668.314-1.275.6-1.878.886-2.382 1.14-7.938 3.749-7.938 3.749s-3.184-5.006-4.512-7.192c-.572-.948-.847-1.761-.878-2.473a9.33 9.33 0 01.803-.453c1.683-.832 3.424-1.559 5.134-2.336l.702-.317s1.49-2.788 1.774-2.916l-5.685-8.771c-.968.307-2.013.589-2.998.962-1.82.687-3.655 1.372-5.418 2.19-2.713 1.245-4.918 3.039-6.195 5.643-.114.23-.212.462-.306.69a10.52 10.52 0 00-1.468 2.226c-1.475 3.021-1.278 6.289.138 9.639.583 1.388 1.374 2.744 2.171 4.07 1.088 1.805 2.251 3.575 3.4 5.357l-6.255 2.956-1.774 2.916 6.627 10.476 8.947-4.404 15.248 23.936 2.694-1.468 10.457-5.704-14.988-23.317 5.638-2.781z" fill="url(#paint7_linear)"/><path d="M392.151 295.782c-1.73-3.538-3.445-7.029-5.215-10.651-.668.314-1.275.6-1.877.886-2.38 1.139-7.933 3.747-7.933 3.747s-3.184-5.009-4.512-7.195c-1.814-2.994-.624-4.691 1.695-5.847 1.682-.832 5.545-2.518 5.828-2.646l-5.685-8.774c-.967.306-2.012.588-2.996.961-1.819.687-3.652 1.371-5.415 2.188-2.71 1.244-4.914 3.038-6.19 5.642-1.474 3.021-1.275 6.289.142 9.641.583 1.388 1.374 2.744 2.171 4.071 1.255 2.078 2.609 4.12 3.926 6.18l.491.772-9.045 4.273 6.627 10.479 8.941-4.401 16.174 25.392 10.451-5.702-15.987-24.877 8.409-4.139z" fill="url(#paint8_linear)"/><path d="M389.876 331.428l10.464-5.709-10.464 5.709z" fill="url(#paint9_linear)"/><path d="M427.765 303.25l-40.046-60.713c-1.892-2.869-5.736-4.284-8.689-3.205-.052.016-.099.036-.15.057l-66.584 26.47c-3.634 1.442-4.947 5.302-2.9 8.612l42.755 69.095c1.977 3.191 5.982 4.551 9.32 3.332a6.97 6.97 0 00.971-.439l24.759-13.508 2.692-1.467 10.457-5.703 25.958-14.161c2.848-1.551 3.483-5.297 1.457-8.37zm-.073 4.878c-.273 1.103-.939 1.97-1.918 2.504l-26.026 14.199-10.452 5.703-2.693 1.467-24.699 13.47a6.423 6.423 0 01-.818.372c-2.888 1.05-6.316-.181-7.978-2.867l-42.756-69.094c-.803-1.298-1.009-2.729-.58-4.027.436-1.325 1.482-2.371 2.941-2.955l66.584-26.469.122-.045c2.465-.899 5.767.342 7.367 2.767l40.045 60.713c.883 1.347 1.199 2.901.861 4.262z" fill="#F600B2"/></g><g opacity=".35" clip-path="url(#clip2)"><path d="M27.213 352.999l9.451-5.172h10.778l105.411 27.08c5.999.96 9.185 5.694 8.308 12.658l1.482 95.265c.101 7.626-.518 10.976-3.388 12.742-1.662 1.03-14.622 4.976-14.622 4.976-3.55 1.549-4.546.948-4.546.948l-101.333-5.922c-14.466-.669-19.997-3.775-19.012-17.72l4.157-119.482a6.4 6.4 0 013.314-5.373z" fill="url(#paint10_radial)"/><path d="M45.644 490.705l105.641 6.025c10.147.47 11.508-2.76 11.358-13.901l-1.477-95.256c.875-6.957-2.309-11.698-8.308-12.658l-105.41-27.08c-12.995-3.467-13.924 2.867-15.425 8.226l-4.962 118.448c-.992 13.944 4.116 15.527 18.583 16.196z" fill="url(#paint11_radial)"/><path d="M43.955 349.093c-7.684-1.47-8.45 1.368-9.73 6.07-.053.199-.107.405-.167.602l-4.99 119.298v.072c-.682 9.568 1.556 11.561 7.159 12.633 2.63.503 6.054.711 9.08.85l106.649 6.085c3.79.177 6.035-.209 7.063-1.209 1.425-1.378 1.67-5.038 1.6-10.106l-1.497-96.188v-.188l.022-.19c.392-3.148.163-8.593-5.836-9.741-.105-.02-.209-.04-.315-.053l-.127-.017-.123-.031-106.472-27.358a35.6 35.6 0 00-2.316-.529zm1-1.835c.773.148 1.602.335 2.48.575l105.413 27.084c.134.018.259.042.392.067 5.741 1.099 8.771 5.781 7.917 12.591l1.487 95.256c.151 11.14-1.209 14.363-11.357 13.9l-105.643-6.03c-3.712-.169-6.806-.4-9.34-.885-7.342-1.405-9.979-4.938-9.244-15.31l4.958-118.446c1.402-4.995 2.295-10.838 12.937-8.802z" fill="#82368C"/><path d="M60.315 381.685a20.405 20.405 0 013.779-1.916c.075-.051.142-.103.215-.146 5.302-3.428 11.522-4.04 18.155-2.887 11.008 1.897 35.764 7.124 44.015 10.347 9.19 3.59 15.056 10.344 17.472 20.122 1.859 7.523 1.333 41.038.172 48.243-1.327 8.262-5.465 13.794-12.379 16.452-2.393 1.611-5.256 2.736-8.611 3.342-6.913 1.252-42.98-2.21-51.577-4.374-11.69-2.935-19.165-10.473-21.833-22.218-2.03-9.005.477-45.184 1.65-52.567.983-6.122 3.807-11.083 8.942-14.398zm72.505 73.714c.987-5.955 1.45-35.74.367-43.814-1.013-7.571-5.714-13.135-12.98-15.506-7.537-2.466-36.187-8.683-44.281-9.215-2.422-.161-4.598.086-6.516.686-2.563 2.011-4.25 5.063-4.889 9.044-1.221 7.597-2.773 38.472-1.733 47.302 1.027 8.777 6.773 14.765 15.573 16.622 7.905 1.671 41.227 5.53 47.777 4.288a17.111 17.111 0 001.865-.472c2.585-2.015 4.173-5.035 4.817-8.935z" fill="url(#paint12_radial)"/><path d="M78.145 403.692c-6.378 3.402-13.317-4.718-8.276-9.767 1.007-.514 3.576-1.645 3.994-2.063 6.387-3.255 13.107 4.765 8.277 9.768-1.021.547-3.6 1.662-3.995 2.062z" fill="url(#paint13_radial)"/><path d="M101.356 452.089c-17.854-.048-33.335-20.208-25.02-37.437 1.602-3.327 4.213-6.08 7.355-8.024.712-.441 1.305-.789 1.515-.864a8.993 8.993 0 011.935-1.216c24.387-11.183 47.655 17.756 32.906 39.097-5.245 7.585-14.573 8.453-18.691 8.444zm-10.697-17.182c.162.248.37.482.592.676 5.944 5.175 12.059 6.324 16.858 4.841 5.39-4.153 7.284-12.631 1.561-21.6a3.367 3.367 0 00-.559-.663c-5.924-5.431-12.312-6.66-17.314-5.1-5.378 4.133-7.266 12.54-1.138 21.846z" fill="url(#paint14_radial)"/><path d="M55.365 394.013c.974-6.116 3.804-11.076 8.933-14.392 5.301-3.427 11.522-4.039 18.155-2.885 11.008 1.897 35.765 7.125 44.016 10.348 9.19 3.59 15.056 10.344 17.473 20.122 1.859 7.523 1.334 41.038.173 48.243-1.6 9.961-7.274 15.978-16.987 17.724-6.912 1.252-42.98-2.211-51.578-4.375-11.689-2.936-19.165-10.474-21.827-22.218-2.038-9.006.469-45.184 1.642-52.567zm7.434 49.884c1.035 8.779 6.774 14.766 15.574 16.623 7.906 1.671 41.228 5.531 47.778 4.29 6.138-1.162 9.621-5.19 10.663-11.472.986-5.955 1.448-35.74.365-43.814-1.014-7.57-5.714-13.135-12.981-15.506-7.537-2.466-36.188-8.684-44.282-9.216-8.521-.563-14.096 3.727-15.399 11.792-1.214 7.598-2.757 38.473-1.717 47.303zm24.34-39.362c24.388-11.182 48.217 18.153 32.907 39.105a8.843 8.843 0 01-2.841 2.52c-24.478 13.66-51.615-17.203-33.198-39.239a8.968 8.968 0 013.133-2.386zm4.11 31.049c16.086 14.016 33.473-1.498 22.412-18.821a3.3 3.3 0 00-.559-.662c-15.604-14.314-34.486.532-22.453 18.805.17.249.37.482.6.678zm-17.387-43.72c-5.048 5.047 1.892 13.167 8.277 9.767 4.83-5.002-1.89-13.023-8.277-9.767z" fill="#fff"/><path d="M55.365 394.013c.974-6.116 3.804-11.076 8.933-14.392 5.301-3.427 11.522-4.039 18.155-2.885 11.008 1.897 35.765 7.125 44.016 10.348 9.19 3.59 15.056 10.344 17.473 20.122 1.859 7.523 1.334 41.038.173 48.243-1.6 9.961-7.274 15.978-16.987 17.724-6.912 1.252-42.98-2.211-51.578-4.375-11.689-2.936-19.165-10.474-21.827-22.218-2.038-9.006.469-45.184 1.642-52.567zm7.434 49.884c1.035 8.779 6.774 14.766 15.574 16.623 7.906 1.671 41.228 5.531 47.778 4.29 6.138-1.162 9.621-5.19 10.663-11.472.986-5.955 1.448-35.74.365-43.814-1.014-7.57-5.714-13.135-12.981-15.506-7.537-2.466-36.188-8.684-44.282-9.216-8.521-.563-14.096 3.727-15.399 11.792-1.214 7.598-2.757 38.473-1.717 47.303zm24.34-39.362c24.388-11.182 48.217 18.153 32.907 39.105a8.843 8.843 0 01-2.841 2.52c-24.478 13.66-51.615-17.203-33.198-39.239a8.968 8.968 0 013.133-2.386zm4.11 31.049c16.086 14.016 33.473-1.498 22.412-18.821a3.3 3.3 0 00-.559-.662c-15.604-14.314-34.486.532-22.453 18.805.17.249.37.482.6.678zm-17.387-43.72c-5.048 5.047 1.892 13.167 8.277 9.767 4.83-5.002-1.89-13.023-8.277-9.767z" fill="#fff"/><path opacity=".32" d="M31.581 366.547l.44-10.487c1.5-5.359 2.42-11.686 15.423-8.225l105.412 27.083c6 .96 9.185 5.694 8.309 12.658l1.48 95.253L31.581 366.547z" fill="#FBF9FA"/></g><defs><radialGradient id="paint0_radial" cx="0" cy="0" r="1" gradientUnits="userSpaceOnUse" gradientTransform="matrix(8.0953 63.27435 -70.73305 9.04957 1160.59 75.564)"><stop stop-color="#F600B2"/><stop offset="1" stop-color="#32B5F7"/></radialGradient><radialGradient id="paint1_radial" cx="0" cy="0" r="1" gradientUnits="userSpaceOnUse" gradientTransform="rotate(-28.515 493.188 -2397.63) scale(218.003 241.921)"><stop offset=".092" stop-color="#fff"/><stop offset=".52" stop-color="#459FFF"/><stop offset=".539" stop-color="#4296F8"/><stop offset=".628" stop-color="#3574DD"/><stop offset=".719" stop-color="#2B59C8"/><stop offset=".81" stop-color="#2445B9"/><stop offset=".903" stop-color="#1F3AB0"/><stop offset="1" stop-color="#1E36AD"/></radialGradient><radialGradient id="paint3_radial" cx="0" cy="0" r="1" gradientUnits="userSpaceOnUse" gradientTransform="matrix(46.6188 -79.4471 49.6847 29.1545 1145.326 105.153)"><stop stop-color="#F600B2"/><stop offset="1" stop-color="#2062F5"/></radialGradient><radialGradient id="paint4_radial" cx="0" cy="0" r="1" gradientUnits="userSpaceOnUse" gradientTransform="matrix(6.67078 52.61632 -58.6911 7.44095 367.656 296.888)"><stop stop-color="#F600B2"/><stop offset="1" stop-color="#32B5F7"/></radialGradient><radialGradient id="paint5_radial" cx="0" cy="0" r="1" gradientUnits="userSpaceOnUse" gradientTransform="matrix(158.95589 -86.68716 96.2025 176.40392 404.12 187.925)"><stop offset=".092" stop-color="#fff"/><stop offset=".52" stop-color="#459FFF"/><stop offset=".539" stop-color="#4296F8"/><stop offset=".628" stop-color="#3574DD"/><stop offset=".719" stop-color="#2B59C8"/><stop offset=".81" stop-color="#2445B9"/><stop offset=".903" stop-color="#1F3AB0"/><stop offset="1" stop-color="#1E36AD"/></radialGradient><radialGradient id="paint10_radial" cx="0" cy="0" r="1" gradientUnits="userSpaceOnUse" gradientTransform="matrix(-237.84689 -45.5008 45.47825 -237.72903 1.133 484.397)"><stop offset=".044" stop-color="#C82091"/><stop offset=".264" stop-color="#8E1782"/><stop offset=".518" stop-color="#510D72"/><stop offset=".735" stop-color="#250666"/><stop offset=".902" stop-color="#0A025F"/><stop offset="1" stop-color="#00005C"/></radialGradient><radialGradient id="paint11_radial" cx="0" cy="0" r="1" gradientUnits="userSpaceOnUse" gradientTransform="matrix(-213.37663 -40.81957 40.79928 -213.27056 132.641 498.993)"><stop stop-color="#FFC658"/><stop offset=".255" stop-color="#F62B37"/><stop offset=".534" stop-color="#C82091"/><stop offset=".539" stop-color="#C32193"/><stop offset=".582" stop-color="#9E2AA8"/><stop offset=".628" stop-color="#7D31B9"/><stop offset=".678" stop-color="#6337C7"/><stop offset=".732" stop-color="#4E3CD2"/><stop offset=".793" stop-color="#403FDA"/><stop offset=".867" stop-color="#3841DF"/><stop offset=".989" stop-color="#3542E0"/></radialGradient><radialGradient id="paint12_radial" cx="0" cy="0" r="1" gradientUnits="userSpaceOnUse" gradientTransform="matrix(-48.38826 -9.2577 9.25252 -48.36125 97.379 427.698)"><stop offset=".004" stop-color="#FFF6F5"/><stop offset="1" stop-color="#F2B2D1"/></radialGradient><radialGradient id="paint13_radial" cx="0" cy="0" r="1" gradientUnits="userSpaceOnUse" gradientTransform="matrix(-7.20449 -1.37837 1.3776 -7.20046 75.968 397.806)"><stop offset=".004" stop-color="#FFF6F5"/><stop offset="1" stop-color="#F2B2D1"/></radialGradient><radialGradient id="paint14_radial" cx="0" cy="0" r="1" gradientUnits="userSpaceOnUse" gradientTransform="matrix(-24.76778 -4.7386 4.73595 -24.75393 99.35 426.982)"><stop offset=".004" stop-color="#FFF6F5"/><stop offset="1" stop-color="#F2B2D1"/></radialGradient><linearGradient id="paint2_linear" x1="1194.11" y1="112.143" x2="1207.79" y2="62.842" gradientUnits="userSpaceOnUse"><stop stop-color="#2062F5"/><stop offset="1" stop-color="#fff"/></linearGradient><linearGradient id="paint6_linear" x1="355.728" y1="301.727" x2="396.649" y2="296.551" gradientUnits="userSpaceOnUse"><stop stop-color="#F600B2"/><stop offset="1" stop-color="#2062F5"/></linearGradient><linearGradient id="paint7_linear" x1="355.728" y1="301.727" x2="396.649" y2="296.551" gradientUnits="userSpaceOnUse"><stop stop-color="#F600B2"/><stop offset="1" stop-color="#2062F5"/></linearGradient><linearGradient id="paint8_linear" x1="373.642" y1="321.311" x2="384.991" y2="280.375" gradientUnits="userSpaceOnUse"><stop stop-color="#F600B2"/><stop offset="1" stop-color="#32B5F7" stop-opacity=".54"/></linearGradient><linearGradient id="paint9_linear" x1="395.452" y1="327.333" x2="406.816" y2="286.353" gradientUnits="userSpaceOnUse"><stop stop-color="#2062F5"/><stop offset="1" stop-color="#fff"/></linearGradient><clipPath id="clip0"><path fill="#fff" transform="translate(1085)" d="M0 0h152v155H0z"/></clipPath><clipPath id="clip1"><path fill="#fff" transform="translate(305 234)" d="M0 0h126v129H0z"/></clipPath><clipPath id="clip2"><path fill="#fff" transform="translate(0 337)" d="M0 0h183v188H0z"/></clipPath></defs></svg>