<svg width="428" height="386" fill="none" xmlns="http://www.w3.org/2000/svg"><g opacity=".35" clip-path="url(#clip0)"><path d="M42.436 5.988c-1.009-1.52-3.075-2.257-4.63-1.644L3.278 16.75c-1.052.414-4.179 3.522-2.663 6.3l22.64 36.517c1.719 2.328 3.529 1.895 5.357.907L62.684 41.95c.358-.194.64-.46.871-.76 1.14-1.478 1.249-2.386 1.249-2.386L42.435 5.988z" fill="url(#paint0_radial)"/><path d="M63.528 40.372L30.135 58.44c-1.828.988-4.249.312-5.387-1.516L2.32 20.957c-1.073-1.723-.39-3.73 1.511-4.476l34.82-13.713c1.552-.613 3.618.124 4.63 1.643l21.001 31.607c1.06 1.602.732 3.55-.755 4.354z" fill="url(#paint1_radial)"/><path opacity=".32" d="M24.58 57.09a4.183 4.183 0 002.263 1.755c5.044-10.262 20.746-45.652 21.185-46.827L43.1 4.602c-1.008-1.518-3.073-2.255-4.627-1.642l-34.8 13.703c-1.899.747-2.582 2.752-1.51 4.474L24.58 57.09z" fill="#FBF9FA"/><path d="M44.462 50.602l5.473-2.965-5.473 2.965z" fill="url(#paint2_linear)"/><path d="M64.267 36.049L43.25 4.403c-.993-1.495-3.006-2.236-4.549-1.678-.027.008-.051.019-.078.03L3.838 16.449c-1.899.746-2.58 2.753-1.506 4.478l22.444 36.01c1.038 1.664 3.134 2.377 4.878 1.747a3.67 3.67 0 00.507-.228l12.93-7 1.407-.76 5.46-2.955 13.557-7.338c1.488-.804 1.815-2.752.752-4.354zm-.032 2.538a1.98 1.98 0 01-1 1.301l-13.592 7.358-5.459 2.955-1.406.76-12.9 6.98a3.28 3.28 0 01-.427.193c-1.509.543-3.303-.102-4.176-1.502L2.831 20.622c-.421-.677-.531-1.421-.308-2.097.226-.688.772-1.232 1.534-1.534L38.843 3.297c.023-.007.042-.015.064-.023 1.288-.465 3.016.185 3.856 1.449l21.016 31.646c.464.701.63 1.51.456 2.218z" fill="#F600B2"/><path d="M50.355 37.328c-.37.843-.96 1.666-1.771 2.467a14.585 14.585 0 01-2.76 2.037c-2.702 1.56-5.198 2.093-7.488 1.6-2.261-.51-4.166-2.077-5.713-4.702l-5.406-9.775-4.083 1.683-2.346-4.02 3.504-2.023-3.2-5.43 7.316-2.935 2.47 4.563 5.865-2.375L39.16 23.3l-5.35 2.468 5.35 9.078c.554.94 1.225 1.533 2.013 1.782.8.205 1.65.048 2.55-.472 1.042-.601 1.766-1.39 2.172-2.364l4.46 3.536z" fill="url(#paint3_radial)"/></g><g opacity=".35" clip-path="url(#clip1)"><path d="M87.339 309.496c-1.27-1.907-3.868-2.834-5.822-2.066l-43.39 15.534c-1.322.518-5.25 4.415-3.342 7.902l28.488 45.824c2.163 2.922 4.438 2.38 6.735 1.142l42.814-23.21c.45-.243.804-.577 1.094-.952 1.432-1.853 1.568-2.993 1.568-2.993l-28.145-41.181z" fill="url(#paint4_radial)"/><path d="M113.882 352.645l-41.96 22.638c-2.297 1.238-5.34.388-6.773-1.905l-28.22-45.135c-1.35-2.162-.492-4.678 1.896-5.614l43.756-17.174c1.951-.768 4.55.159 5.821 2.065l26.426 39.664c1.334 2.01.922 4.454-.946 5.461z" fill="url(#paint5_radial)"/><path opacity=".32" d="M64.932 373.586a5.264 5.264 0 002.847 2.203c6.33-12.867 26.036-57.242 26.587-58.716l-6.199-9.305c-1.268-1.905-3.865-2.831-5.818-2.064l-43.725 17.16c-2.387.936-3.244 3.45-1.894 5.611l28.202 45.111z" fill="#FBF9FA"/><path d="M90.228 344.139l1.163-1.899c-1.14-2.306-2.27-4.581-3.438-6.942-.439.204-.838.39-1.234.576-1.565.741-5.216 2.436-5.216 2.436s-2.099-3.265-2.974-4.691c-.377-.618-.558-1.148-.58-1.612.165-.103.34-.201.528-.294 1.106-.541 2.25-1.013 3.374-1.517l.461-.207s.978-1.815 1.164-1.898l-3.746-5.72c-.636.199-1.324.382-1.97.624-1.197.447-2.403.891-3.562 1.422-1.782.809-3.23 1.976-4.068 3.672a7.147 7.147 0 00-.2.449c-.377.435-.7.915-.964 1.449-.967 1.967-.834 4.096.1 6.281.385.904.906 1.789 1.431 2.653.717 1.177 1.483 2.332 2.24 3.494l-4.11 1.92-1.163 1.899 4.367 6.831 5.879-2.861 10.049 15.609 1.77-.954 6.871-3.707-9.877-15.206 3.705-1.807z" fill="url(#paint6_linear)"/><path d="M90.228 344.139l1.163-1.899c-1.14-2.306-2.27-4.581-3.438-6.942-.439.204-.838.39-1.234.576-1.565.741-5.216 2.436-5.216 2.436s-2.099-3.265-2.974-4.691c-.377-.618-.558-1.148-.58-1.612.165-.103.34-.201.528-.294 1.106-.541 2.25-1.013 3.374-1.517l.461-.207s.978-1.815 1.164-1.898l-3.746-5.72c-.636.199-1.324.382-1.97.624-1.197.447-2.403.891-3.562 1.422-1.782.809-3.23 1.976-4.068 3.672a7.147 7.147 0 00-.2.449c-.377.435-.7.915-.964 1.449-.967 1.967-.834 4.096.1 6.281.385.904.906 1.789 1.431 2.653.717 1.177 1.483 2.332 2.24 3.494l-4.11 1.92-1.163 1.899 4.367 6.831 5.879-2.861 10.049 15.609 1.77-.954 6.871-3.707-9.877-15.206 3.705-1.807z" fill="url(#paint7_linear)"/><path d="M91.373 342.252c-1.142-2.309-2.273-4.587-3.442-6.95-.438.203-.836.389-1.23.574-1.561.739-5.204 2.43-5.204 2.43s-2.098-3.27-2.974-4.697c-1.195-1.954-.417-3.059 1.104-3.808 1.103-.54 3.636-1.633 3.822-1.717l-3.746-5.728c-.636.199-1.321.381-1.967.622-1.193.445-2.395.888-3.552 1.418-1.777.807-3.221 1.973-4.055 3.668-.963 1.967-.827 4.097.108 6.284.386.906.907 1.792 1.433 2.658.827 1.356 1.72 2.689 2.588 4.034l.323.504-5.932 2.771 4.368 6.841 5.864-2.855 10.661 16.577 6.853-3.7-10.537-16.241 5.515-2.685z" fill="url(#paint8_linear)"/><path d="M89.918 365.441l6.88-3.717-6.88 3.717z" fill="url(#paint9_linear)"/><path d="M114.803 347.232l-26.449-39.725c-1.25-1.877-3.779-2.808-5.718-2.111-.034.011-.064.024-.098.038l-43.704 17.144c-2.386.935-3.24 3.452-1.888 5.618l28.247 45.203c1.306 2.087 3.941 2.984 6.133 2.195.219-.078.429-.174.637-.285l16.243-8.768 1.766-.953 6.86-3.702 17.031-9.192c1.869-1.007 2.278-3.452.94-5.462zm-.038 3.185a2.483 2.483 0 01-1.255 1.631l-17.075 9.217-6.857 3.702-1.767.952-16.204 8.744a4.248 4.248 0 01-.536.241c-1.896.68-4.152-.131-5.25-1.888l-28.248-45.203c-.53-.849-.669-1.784-.39-2.631.284-.863.97-1.545 1.927-1.923l43.704-17.144.08-.029c1.619-.582 3.791.235 4.848 1.821l26.448 39.725c.584.881.794 1.897.575 2.785z" fill="#F600B2"/></g><g opacity=".35" clip-path="url(#clip2)"><path d="M348.858 92.196l5.474-2.982 6.237-.009 60.982 15.487c3.471.548 5.311 3.267 4.798 7.273l.779 54.783c.052 4.386-.309 6.313-1.971 7.33-.963.594-8.467 2.874-8.467 2.874-2.055.894-2.631.548-2.631.548l-58.639-3.323c-8.372-.373-11.57-2.154-10.989-10.174l2.505-68.714a3.69 3.69 0 011.922-3.093z" fill="url(#paint10_radial)"/><path d="M359.412 171.376l61.132 3.379c5.872.262 6.662-1.596 6.585-8.003l-.777-54.777c.513-4.002-1.326-6.726-4.797-7.273l-60.981-15.487c-7.517-1.983-8.06 1.66-8.933 4.743l-2.97 68.12c-.585 8.019 2.37 8.925 10.741 9.298z" fill="url(#paint11_radial)"/><path d="M358.611 89.938c-4.442-.836-4.889.798-5.636 3.505-.031.115-.062.234-.097.347l-3.047 68.656v.042c-.407 5.506.885 6.65 4.124 7.259 1.521.287 3.501.402 5.25.478l61.678 3.36c2.192.097 3.491-.128 4.087-.705.826-.795.973-2.901.939-5.817l-.737-55.349v-.108l.013-.11c.232-1.812.106-4.944-3.362-5.597-.06-.011-.121-.023-.182-.03l-.073-.01-.072-.017-61.546-15.603c-.469-.121-.92-.223-1.339-.301zm.581-1.058c.447.085.927.191 1.434.328l60.934 15.446c.078.01.15.024.226.038 3.32.625 5.066 3.315 4.563 7.235l.732 54.813c.072 6.41-.718 8.266-6.588 8.013l-61.095-3.33c-2.147-.092-3.936-.221-5.401-.497-4.245-.799-5.765-2.828-5.326-8.798l3.027-68.165c.817-2.877 1.342-6.24 7.494-5.082z" fill="#82368C"/><path d="M368.029 108.674a11.896 11.896 0 012.188-1.107c.043-.03.083-.06.125-.085 3.071-1.979 6.67-2.34 10.505-1.685 6.364 1.077 20.676 4.052 25.444 5.896 5.31 2.054 8.694 5.932 10.078 11.556 1.066 4.327.716 23.613.035 27.761-.779 4.756-3.179 7.945-7.182 9.483-1.387.931-3.044 1.582-4.985 1.935-4 .729-24.857-1.215-29.826-2.449-6.757-1.674-11.071-6.001-12.599-12.756-1.162-5.179.337-26.002 1.026-30.252.576-3.524 2.216-6.382 5.191-8.297zm41.838 42.322c.578-3.428.886-20.568.271-25.213-.576-4.355-3.288-7.55-7.487-8.905-4.356-1.409-20.919-4.949-25.6-5.244-1.401-.089-2.659.056-3.77.403-1.485 1.161-2.465 2.919-2.839 5.211-.717 4.373-1.656 22.142-1.067 27.222.583 5.049 3.898 8.487 8.986 9.544 4.57.951 23.838 3.128 27.628 2.405a9.947 9.947 0 001.079-.275c1.498-1.162 2.42-2.903 2.799-5.148z" fill="url(#paint12_radial)"/><path d="M378.253 121.316c-3.694 1.966-7.697-2.698-4.774-5.61.583-.297 2.07-.952 2.313-1.192 3.699-1.883 7.575 2.724 4.774 5.61-.591.316-2.084.961-2.313 1.192z" fill="url(#paint13_radial)"/><path d="M391.673 149.136c-10.326-.004-19.253-11.584-14.421-21.508.932-1.917 2.445-3.504 4.265-4.627.413-.255.756-.456.877-.499a5.25 5.25 0 011.121-.703c14.12-6.467 27.538 10.154 18.979 22.454-3.043 4.371-8.44 4.883-10.821 4.883zm-6.164-9.872c.093.142.213.276.341.388 3.431 2.97 6.966 3.622 9.744 2.763 3.123-2.397 4.23-7.278.932-12.431a1.886 1.886 0 00-.323-.38c-3.418-3.118-7.111-3.817-10.006-2.913-3.117 2.386-4.22 7.226-.688 12.573z" fill="url(#paint14_radial)"/><path d="M365.169 115.785c.574-3.522 2.219-6.382 5.189-8.3 3.071-1.981 6.669-2.344 10.502-1.691 6.361 1.075 20.667 4.043 25.432 5.885 5.308 2.052 8.688 5.93 10.069 11.555 1.063 4.328.703 23.622.02 27.772-.942 5.737-4.233 9.21-9.852 10.231-3.998.732-24.847-1.202-29.814-2.434-6.753-1.671-11.064-5.998-12.583-12.754-1.163-5.181.347-26.012 1.037-30.264zm4.215 28.705c.584 5.052 3.892 8.489 8.977 9.543 4.568.949 23.828 3.117 27.617 2.391 3.551-.679 5.572-3.003 6.185-6.621.58-3.43.897-20.577.284-25.223-.573-4.356-3.282-7.552-7.479-8.905-4.354-1.407-20.909-4.94-25.588-5.233-4.926-.31-8.156 2.169-8.923 6.813-.715 4.377-1.659 22.153-1.073 27.235zm14.139-22.7c14.119-6.477 27.848 10.371 18.961 22.457a5.144 5.144 0 01-1.647 1.456c-14.175 7.904-29.814-9.818-19.129-22.535a5.226 5.226 0 011.815-1.378zm2.324 17.867c9.278 8.042 19.356-.917 12.99-10.871a1.887 1.887 0 00-.322-.381c-8.998-8.214-19.94.363-13.013 10.863.097.143.213.277.345.389zm-9.979-25.14c-2.927 2.914 1.071 7.577 4.769 5.61 2.801-2.888-1.071-7.495-4.769-5.61z" fill="#fff"/><path d="M365.169 115.785c.574-3.522 2.219-6.382 5.189-8.3 3.071-1.981 6.669-2.344 10.502-1.691 6.361 1.075 20.667 4.043 25.432 5.885 5.308 2.052 8.688 5.93 10.069 11.555 1.063 4.328.703 23.622.02 27.772-.942 5.737-4.233 9.21-9.852 10.231-3.998.732-24.847-1.202-29.814-2.434-6.753-1.671-11.064-5.998-12.583-12.754-1.163-5.181.347-26.012 1.037-30.264zm4.215 28.705c.584 5.052 3.892 8.489 8.977 9.543 4.568.949 23.828 3.117 27.617 2.391 3.551-.679 5.572-3.003 6.185-6.621.58-3.43.897-20.577.284-25.223-.573-4.356-3.282-7.552-7.479-8.905-4.354-1.407-20.909-4.94-25.588-5.233-4.926-.31-8.156 2.169-8.923 6.813-.715 4.377-1.659 22.153-1.073 27.235zm14.139-22.7c14.119-6.477 27.848 10.371 18.961 22.457a5.144 5.144 0 01-1.647 1.456c-14.175 7.904-29.814-9.818-19.129-22.535a5.226 5.226 0 011.815-1.378zm2.324 17.867c9.278 8.042 19.356-.917 12.99-10.871a1.887 1.887 0 00-.322-.381c-8.998-8.214-19.94.363-13.013 10.863.097.143.213.277.345.389zm-9.979-25.14c-2.927 2.914 1.071 7.577 4.769 5.61 2.801-2.888-1.071-7.495-4.769-5.61z" fill="#fff"/><path opacity=".32" d="M351.399 100.003l.268-6.037c.875-3.087 1.417-6.731 8.935-4.756l60.956 15.453c3.47.545 5.306 3.266 4.79 7.276l.729 54.835-75.678-66.771z" fill="#FBF9FA"/></g><defs><radialGradient id="paint0_radial" cx="0" cy="0" r="1" gradientUnits="userSpaceOnUse" gradientTransform="matrix(3.53904 27.3763 -30.67852 3.96593 32.82 32.664)"><stop stop-color="#F600B2"/><stop offset="1" stop-color="#32B5F7"/></radialGradient><radialGradient id="paint1_radial" cx="0" cy="0" r="1" gradientUnits="userSpaceOnUse" gradientTransform="rotate(-28.414 -21.46 -114.296) scale(94.4549 104.811)"><stop offset=".092" stop-color="#fff"/><stop offset=".52" stop-color="#459FFF"/><stop offset=".539" stop-color="#4296F8"/><stop offset=".628" stop-color="#3574DD"/><stop offset=".719" stop-color="#2B59C8"/><stop offset=".81" stop-color="#2445B9"/><stop offset=".903" stop-color="#1F3AB0"/><stop offset="1" stop-color="#1E36AD"/></radialGradient><radialGradient id="paint3_radial" cx="0" cy="0" r="1" gradientUnits="userSpaceOnUse" gradientTransform="rotate(-59.483 52.874 -.199) scale(39.8636 24.9846)"><stop stop-color="#F600B2"/><stop offset="1" stop-color="#2062F5"/></radialGradient><radialGradient id="paint4_radial" cx="0" cy="0" r="1" gradientUnits="userSpaceOnUse" gradientTransform="matrix(4.47148 34.34404 -38.55083 5.0192 75.275 342.95)"><stop stop-color="#F600B2"/><stop offset="1" stop-color="#32B5F7"/></radialGradient><radialGradient id="paint5_radial" cx="0" cy="0" r="1" gradientUnits="userSpaceOnUse" gradientTransform="matrix(104.38824 -56.31543 62.48634 115.82685 99.092 271.916)"><stop offset=".092" stop-color="#fff"/><stop offset=".52" stop-color="#459FFF"/><stop offset=".539" stop-color="#4296F8"/><stop offset=".628" stop-color="#3574DD"/><stop offset=".719" stop-color="#2B59C8"/><stop offset=".81" stop-color="#2445B9"/><stop offset=".903" stop-color="#1F3AB0"/><stop offset="1" stop-color="#1E36AD"/></radialGradient><radialGradient id="paint10_radial" cx="0" cy="0" r="1" gradientUnits="userSpaceOnUse" gradientTransform="matrix(-137.61152 -25.97212 25.8334 -136.8765 333.657 167.781)"><stop offset=".044" stop-color="#C82091"/><stop offset=".264" stop-color="#8E1782"/><stop offset=".518" stop-color="#510D72"/><stop offset=".735" stop-color="#250666"/><stop offset=".902" stop-color="#0A025F"/><stop offset="1" stop-color="#00005C"/></radialGradient><radialGradient id="paint11_radial" cx="0" cy="0" r="1" gradientUnits="userSpaceOnUse" gradientTransform="rotate(-169.312 213.112 68.871) scale(125.632 124.961)"><stop stop-color="#FFC658"/><stop offset=".255" stop-color="#F62B37"/><stop offset=".534" stop-color="#C82091"/><stop offset=".539" stop-color="#C32193"/><stop offset=".582" stop-color="#9E2AA8"/><stop offset=".628" stop-color="#7D31B9"/><stop offset=".678" stop-color="#6337C7"/><stop offset=".732" stop-color="#4E3CD2"/><stop offset=".793" stop-color="#403FDA"/><stop offset=".867" stop-color="#3841DF"/><stop offset=".989" stop-color="#3542E0"/></radialGradient><radialGradient id="paint12_radial" cx="0" cy="0" r="1" gradientUnits="userSpaceOnUse" gradientTransform="rotate(-169.344 201.002 49.394) scale(28.466 28.3629)"><stop offset=".004" stop-color="#FFF6F5"/><stop offset="1" stop-color="#F2B2D1"/></radialGradient><radialGradient id="paint13_radial" cx="0" cy="0" r="1" gradientUnits="userSpaceOnUse" gradientTransform="rotate(-169.344 194 41.386) scale(4.23858 4.22325)"><stop offset=".004" stop-color="#FFF6F5"/><stop offset="1" stop-color="#F2B2D1"/></radialGradient><radialGradient id="paint14_radial" cx="0" cy="0" r="1" gradientUnits="userSpaceOnUse" gradientTransform="rotate(-169.345 201.553 49.137) scale(14.5696 14.5167)"><stop offset=".004" stop-color="#FFF6F5"/><stop offset="1" stop-color="#F2B2D1"/></radialGradient><linearGradient id="paint2_linear" x1="47.377" y1="48.474" x2="53.302" y2="27.134" gradientUnits="userSpaceOnUse"><stop stop-color="#2062F5"/><stop offset="1" stop-color="#fff"/></linearGradient><linearGradient id="paint6_linear" x1="67.442" y1="346.084" x2="94.328" y2="342.615" gradientUnits="userSpaceOnUse"><stop stop-color="#F600B2"/><stop offset="1" stop-color="#2062F5"/></linearGradient><linearGradient id="paint7_linear" x1="67.442" y1="346.084" x2="94.328" y2="342.615" gradientUnits="userSpaceOnUse"><stop stop-color="#F600B2"/><stop offset="1" stop-color="#2062F5"/></linearGradient><linearGradient id="paint8_linear" x1="79.26" y1="358.864" x2="86.657" y2="332.201" gradientUnits="userSpaceOnUse"><stop stop-color="#F600B2"/><stop offset="1" stop-color="#32B5F7" stop-opacity=".54"/></linearGradient><linearGradient id="paint9_linear" x1="93.582" y1="362.772" x2="101.019" y2="335.993" gradientUnits="userSpaceOnUse"><stop stop-color="#2062F5"/><stop offset="1" stop-color="#fff"/></linearGradient><clipPath id="clip0"><path fill="#fff" d="M0 0h66v67H0z"/></clipPath><clipPath id="clip1"><path fill="#fff" transform="translate(34 302)" d="M0 0h83v84H0z"/></clipPath><clipPath id="clip2"><path fill="#fff" transform="translate(322 83)" d="M0 0h106v108H0z"/></clipPath></defs></svg>