<svg width="1440" height="960" fill="none" xmlns="http://www.w3.org/2000/svg"><g opacity=".2" clip-path="url(#clip0)"><path d="M984.193 334.798a1.773 1.773 0 00-.426.454l.775-1.21c.007-.004.011-.015.011-.015.035-.054.077-.112.116-.159.046-.051.085-.098.135-.142l.157-.135.007-.003.007-.004.175-.117c.068-.044.133-.077.208-.107.072-.037.147-.067.226-.09l-.774 1.211a2.241 2.241 0 00-.617.317zm7.158 2.159a8.29 8.29 0 00-1.024-.959c-.011-.003-.018-.017-.029-.021a9.016 9.016 0 00-1.217-.788c-.011-.003-.025-.013-.036-.017a8.298 8.298 0 00-1.336-.564l.775-1.211c.152.048.301.106.45.165.139.054.281.116.423.178.12.056.244.118.364.173l.098.049c.011.003.026.014.037.017.065.038.127.069.193.108.102.055.208.118.307.184.095.059.193.125.288.185.095.059.187.129.278.199.048.038.096.077.15.112.011.003.019.017.03.021.029.021.062.049.091.07.092.07.176.143.26.217.089.081.177.162.261.235.092.088.184.176.268.268l.14.162c.015.01.026.032.041.042.029.039.066.074.092.106.107.134.214.268.31.399.137.19.26.389.364.587.519.985.527 1.865.133 2.483l-.775 1.21c.394-.618.387-1.497-.132-2.482a5.81 5.81 0 00-.76-1.096.144.144 0 01-.044-.032z" fill="#2062F5"/><path d="M983.251 326.072c-1.602-3.058-1.641-5.779-.412-7.701l.774-1.21c-1.228 1.922-1.193 4.635.412 7.701l4.466 8.532-.774 1.21-4.466-8.532z" fill="#F600B2"/><path d="M1012.19 336.481c.01-.004 0 0 0 0l.78-1.211c0-.004.01-.014.01-.014a.986.986 0 01.11-.16c.05-.05.09-.098.15-.145a1.3 1.3 0 01.15-.135l.01-.004.01-.003c.05-.037.11-.077.17-.118.07-.044.13-.077.22-.11.07-.037.14-.067.22-.09l-.77 1.211c-.23.082-.44.189-.62.317-.18.132-.33.288-.44.462zm8.4 2.835c-.2-.382-.46-.746-.76-1.095-.01-.011-.02-.032-.04-.043-.3-.342-.65-.658-1.02-.952-.01-.003-.02-.017-.03-.021-.38-.29-.79-.559-1.22-.788-.01-.003-.02-.013-.03-.017a8.377 8.377 0 00-1.34-.564l.78-1.211c.15.048.3.106.45.161.14.055.29.117.43.179.12.055.24.117.36.173.04.017.07.038.1.048.01.003.03.014.04.017.06.038.13.066.2.104.1.056.2.118.3.185.1.059.2.125.29.184.1.06.19.13.28.2.05.038.1.077.15.111.01.004.02.018.03.021.03.021.06.049.09.07.09.07.18.144.26.218.09.081.18.161.26.235.09.088.19.176.27.267.05.057.09.106.14.162l.04.043c.03.039.07.074.09.105.11.134.22.269.31.399.14.191.26.389.37.588.52.985.52 1.864.13 2.482l-.78 1.211c.38-.611.37-1.486-.15-2.472z" fill="#2062F5"/><path d="M1010.12 324.802c-.2-.289-.43-.579-.66-.858-.16-.197-.31-.398-.47-.592-.16-.184-.32-.353-.48-.532-.22-.247-.44-.494-.67-.733-.14-.137-.28-.274-.41-.411-.27-.268-.55-.531-.83-.791-.12-.102-.23-.214-.35-.316-.39-.355-.8-.702-1.22-1.035-.05-.038-.11-.08-.16-.119a26.57 26.57 0 00-1.16-.871c-.12-.091-.25-.178-.38-.265-.37-.266-.75-.52-1.14-.771-.08-.049-.15-.101-.23-.15-.46-.286-.93-.568-1.41-.835-.13-.077-.27-.149-.41-.222a25.42 25.42 0 00-1.051-.548c-.186-.093-.382-.19-.575-.28a31.826 31.826 0 00-.907-.407c-.259-.11-.51-.223-.765-.327-.243-.099-.491-.188-.731-.281-.418-.154-.832-.3-1.246-.429-.262-.082-.516-.167-.774-.242a22.172 22.172 0 00-.595-.161 20.053 20.053 0 00-.991-.238c-.196-.043-.392-.086-.584-.122-.355-.07-.703-.125-1.058-.176-.167-.022-.33-.055-.496-.078a25.97 25.97 0 00-1.528-.132 17.013 17.013 0 00-1.903.035 7.42 7.42 0 00-.57.06c-.343.041-.675.086-.999.145a8.723 8.723 0 00-.616.128c-.187.043-.366.099-.55.149-.237.068-.467.151-.69.229-.129.049-.258.098-.377.15a8.005 8.005 0 00-.788.388l-.172.089c-.29.194-.568.392-.829.589-.064.051-.124.109-.188.16a5.537 5.537 0 00-.559.532c-.06.058-.113.112-.17.178a5.826 5.826 0 00-.59.782l.774-1.211a.345.345 0 01.046-.069c.137-.206.293-.412.456-.604.028-.033.064-.069.092-.102.05-.061.11-.12.163-.174.089-.091.167-.185.256-.276.096-.095.203-.168.303-.255.064-.051.124-.11.189-.161.039-.029.067-.062.099-.087.214-.165.443-.319.686-.462l.043-.022.172-.089c.19-.107.38-.214.584-.31.064-.033.136-.052.205-.078.125-.056.254-.105.384-.153.122-.045.229-.101.362-.142.108-.038.223-.061.335-.091.18-.057.356-.103.55-.149.105-.027.198-.057.302-.084.098-.023.213-.028.321-.048.324-.059.652-.111.999-.145.119-.016.234-.04.353-.056.068-.008.144-.002.217-.004a17.985 17.985 0 011.903-.035c.503.021 1.01.066 1.528.132.166.023.336.052.503.074.348.055.696.11 1.047.173.192.036.392.086.595.126.33.073.66.146.991.237.199.05.403.108.606.165.12.038.243.064.37.098.131.041.269.095.4.136.418.136.828.276 1.247.43.134.048.265.089.392.14.113.041.226.1.339.141.254.103.513.213.771.323l.492.207c.142.062.273.138.415.2.193.09.379.184.576.28.126.063.256.121.386.187.23.111.45.239.67.361.14.073.27.145.42.225.05.035.11.059.16.094a35.472 35.472 0 011.24.741l.24.15c.26.171.53.338.78.513.13.08.24.174.37.255l.37.265c.11.081.22.15.33.231.28.206.56.423.83.644.04.038.1.073.15.119.02.01.03.021.04.031.35.273.68.561 1.01.842.06.052.11.105.17.154.12.102.24.214.35.316.16.144.33.291.48.439.11.113.23.232.35.345.13.137.28.278.41.418.08.085.17.173.25.257.15.152.28.317.42.469.16.18.33.356.48.539.05.063.11.123.16.187.11.134.2.265.31.392.23.285.45.575.66.865.06.077.13.158.18.24.05.081.09.159.14.233.46.658.89 1.33 1.24 2.014l4.46 8.532-.77 1.21-4.47-8.531c-.36-.681-.78-1.353-1.23-2.014a3.34 3.34 0 01-.37-.47z" fill="#2062F5"/><path d="M988.838 312.898c-8.65-.372-12.461 5.487-8.502 13.054l4.465 8.532c-1.293.451-1.712 1.712-.895 3.265 1.038 1.988 3.727 3.685 6.008 3.78 2.282.094 3.286-1.442 2.248-3.43-.807-1.549-2.615-2.907-4.442-3.488l-4.466-8.532c-3.223-6.171-.113-10.938 6.917-10.632 7.038.302 15.369 5.552 18.599 11.719l4.47 8.532c-1.3.45-1.73 1.709-.92 3.265 1.04 1.989 3.74 3.689 6.02 3.783 2.28.095 3.29-1.441 2.25-3.43-.81-1.549-2.62-2.906-4.44-3.487l-4.47-8.532c-3.95-7.572-14.203-14.031-22.842-14.399zm9.378 106.041l10.584-5.581.2-10.994-36.989-70.443-.24 11.048-10.545 5.527 36.99 70.443z" fill="#2062F5"/><path d="M972.012 331.921L1009 402.364l61.8 2.547-36.99-70.454-61.798-2.536z" fill="#D18AB7"/><path d="M961.227 348.496l36.989 70.443 61.804 2.542-36.99-70.45-61.803-2.535z" fill="#FF4AED"/><path d="M1060.02 421.481l-.38-7.14 11.16-9.434-36.99-70.443-11.22 9.517.44 7.058 36.99 70.442z" fill="#2062F5"/><path d="M975.053 352.833a1.74 1.74 0 00-.426.454l.774-1.211c.007-.003.011-.014.011-.014.035-.054.078-.112.116-.159.047-.051.086-.098.135-.142.05-.044.1-.088.157-.135l.007-.004.175-.117c.068-.044.133-.077.208-.107.072-.037.147-.067.226-.09l-.774 1.211a2.162 2.162 0 00-.609.314zm7.158 2.159a8.37 8.37 0 00-1.025-.959c-.01-.004-.018-.018-.029-.021a8.91 8.91 0 00-1.216-.788c-.011-.003-.026-.014-.037-.017a8.395 8.395 0 00-1.336-.565l.775-1.21c.153.047.302.106.451.164.138.055.28.117.422.179.12.055.244.117.364.173l.099.048c.011.004.025.014.036.017.066.039.128.07.193.108.103.056.208.118.307.184.095.06.194.126.289.185.095.059.186.129.278.199.047.039.095.077.15.112.011.004.018.018.029.021.029.021.062.049.092.07.091.07.175.144.26.218.088.08.176.161.26.235.092.088.184.176.269.267l.14.162c.014.011.026.032.04.043.03.038.066.073.092.105.107.134.214.268.311.399.136.191.259.389.364.588.519.985.526 1.864.132 2.482l-.775 1.211c.395-.618.387-1.498-.132-2.483a5.85 5.85 0 00-.759-1.096c-.011-.003-.029-.021-.044-.031z" fill="#F600B2"/><path d="M974.11 344.107c-1.602-3.059-1.641-5.779-.412-7.702l.775-1.21c-1.229 1.922-1.194 4.635.412 7.701l4.465 8.532-.774 1.211-4.466-8.532zm28.94 10.408c.01-.004.01-.004 0 0l.78-1.21c0-.004.01-.015.01-.015.03-.054.07-.112.11-.159.05-.051.09-.098.14-.146.05-.043.1-.087.16-.134l.01-.004.01-.004c.05-.036.11-.077.17-.117.07-.044.13-.077.22-.111.07-.037.14-.067.22-.089l-.77 1.21c-.23.083-.44.19-.62.318l-.01.003c-.17.129-.31.281-.43.458zm8.4 2.836c-.2-.383-.46-.747-.76-1.096-.01-.01-.02-.032-.04-.042a8.89 8.89 0 00-1.02-.952c-.01-.004-.02-.018-.03-.021a8.891 8.891 0 00-1.22-.788c-.01-.003-.02-.014-.03-.017a8.475 8.475 0 00-1.34-.565l.78-1.21c.15.047.3.106.45.16.14.055.28.117.43.179.12.056.24.118.36.173.04.017.07.038.1.048.01.004.02.014.04.018.06.038.13.065.2.104.1.055.2.118.3.184.1.059.2.126.29.185.1.059.19.129.28.199.05.039.09.077.15.112.01.003.02.018.03.021.03.021.06.049.09.07.09.07.18.144.26.217l.26.235c.09.088.18.176.27.268.05.056.09.106.14.162l.04.042c.03.039.07.074.09.106a6.099 6.099 0 01.68.986c.52.986.52 1.865.13 2.483l-.78 1.21c.38-.617.37-1.486-.15-2.471z" fill="#F600B2"/><path d="M1000.98 342.837c-.21-.29-.43-.579-.66-.858-.16-.198-.31-.399-.477-.593-.151-.183-.313-.352-.471-.532-.221-.246-.442-.493-.677-.732l-.409-.412a28.258 28.258 0 00-.826-.791c-.117-.101-.231-.214-.349-.316a34.755 34.755 0 00-1.22-1.038c-.048-.038-.107-.08-.154-.119a28.516 28.516 0 00-1.16-.871c-.121-.091-.249-.178-.377-.265a36.92 36.92 0 00-1.144-.772c-.081-.048-.154-.101-.234-.149-.46-.286-.927-.568-1.405-.835-.132-.077-.27-.149-.409-.222a26.848 26.848 0 00-1.053-.548c-.186-.093-.383-.19-.576-.28a30.615 30.615 0 00-.907-.407c-.258-.11-.509-.224-.764-.327-.244-.099-.491-.188-.731-.281a25.975 25.975 0 00-1.247-.43c-.262-.081-.516-.166-.774-.241a22.172 22.172 0 00-.595-.161c-.33-.092-.661-.165-.991-.238a22.535 22.535 0 00-.583-.123 21.828 21.828 0 00-1.059-.175c-.166-.022-.329-.055-.496-.078a25.937 25.937 0 00-1.527-.132 17.027 17.027 0 00-1.904.035 7.474 7.474 0 00-.57.06c-.343.041-.674.086-.998.145a8.607 8.607 0 00-.616.128c-.187.043-.367.099-.551.149-.237.068-.467.15-.69.229-.129.049-.258.097-.376.149a8.143 8.143 0 00-.789.389l-.172.088a6.67 6.67 0 00-.829.572c-.064.051-.124.109-.188.16a5.645 5.645 0 00-.559.532c-.06.058-.113.112-.17.178a6.767 6.767 0 00-.594.774l.774-1.21c.014-.025.028-.051.046-.069a6.73 6.73 0 01.456-.604c.029-.033.064-.069.092-.102.05-.062.11-.12.164-.174.089-.091.166-.185.255-.276.096-.095.203-.168.303-.256.064-.051.125-.109.189-.16.039-.029.067-.062.1-.087a6.52 6.52 0 01.686-.462.578.578 0 01.043-.022l.172-.089c.189-.107.379-.214.583-.31.065-.033.137-.052.205-.078a6.67 6.67 0 01.384-.153c.122-.045.23-.101.363-.142.107-.038.223-.061.334-.092.18-.056.356-.102.551-.148.104-.027.197-.057.302-.084.097-.023.212-.028.32-.048.325-.059.653-.111.999-.145.119-.016.234-.04.353-.056.069-.008.145-.002.217-.004a18.005 18.005 0 011.904-.035c.502.021 1.009.066 1.527.132.166.023.337.052.503.074.348.055.696.11 1.048.172.192.037.391.087.594.126.33.074.661.147.991.238.2.05.403.108.606.165.12.037.243.064.37.098.131.04.269.095.404.143.418.136.829.276 1.247.43.134.048.265.089.392.14.113.041.226.1.339.141.254.103.513.213.771.323l.492.207c.142.062.273.138.415.2.193.09.379.184.576.28.124.063.255.121.389.187.223.111.445.239.664.361.139.073.277.145.42.225.054.035.113.059.167.094.391.222.778.456 1.158.692.025.014.054.035.08.049.08.049.153.101.234.15.263.171.533.338.789.513.124.08.238.174.362.255.128.087.249.178.377.265.106.08.215.15.322.231.281.206.56.423.831.644.047.038.102.073.154.119l.043.031c.345.273.678.561 1.008.842.055.052.111.105.173.154.117.102.231.214.348.316.158.144.327.291.478.439l.345.345c.136.137.283.278.412.418.085.092.173.173.254.257.143.152.273.317.423.469.15.179.32.356.47.539.05.063.11.123.16.187.11.134.21.265.31.392.23.285.46.575.67.864.05.078.12.159.18.241.05.081.09.159.14.233.45.658.88 1.33 1.23 2.014l4.47 8.532-.78 1.21-4.46-8.531c-.36-.681-.79-1.353-1.24-2.014-.15-.13-.25-.293-.37-.448z" fill="#2062F5"/><path d="M979.705 330.929c-8.65-.372-12.461 5.486-8.502 13.054l4.466 8.532c-1.294.45-1.713 1.712-.896 3.265 1.039 1.988 3.727 3.685 6.009 3.779 2.281.095 3.285-1.441 2.247-3.43-.806-1.549-2.615-2.906-4.442-3.487l-4.477-8.535c-3.23-6.168-.109-10.932 6.921-10.626 7.038.302 15.369 5.552 18.599 11.72l4.47 8.531c-1.3.451-1.73 1.709-.92 3.265 1.04 1.989 3.74 3.689 6.02 3.784 2.28.094 3.29-1.442 2.25-3.43-.81-1.549-2.62-2.907-4.44-3.488l-4.47-8.532c-3.954-7.578-14.203-14.03-22.835-14.402z" fill="#2062F5"/><path d="M1022.59 343.981l.44 7.05 36.99 70.45-.38-7.14-37.05-70.36zm-61.363 4.515l9.689-5.076 2.917 5.59-12.606-.514z" fill="#32B5F7"/></g><g opacity=".15" clip-path="url(#clip1)"><path d="M1384.93 97.889c.29.225.53.467.71.755l-1.29-2.014c-.01-.006-.01-.024-.01-.024-.06-.09-.13-.186-.2-.265a2.249 2.249 0 00-.22-.235c-.08-.073-.17-.146-.26-.225l-.01-.006-.02-.006-.29-.195a1.92 1.92 0 00-.34-.179 2.172 2.172 0 00-.38-.149l1.29 2.014c.4.132.73.316 1.02.529zm-11.91 3.592a14.26 14.26 0 011.71-1.596c.02-.005.03-.029.05-.034.63-.484 1.3-.93 2.02-1.311.02-.006.04-.023.06-.03.72-.38 1.47-.695 2.22-.938l-1.29-2.014c-.25.08-.5.176-.75.273-.23.092-.46.195-.7.298-.2.092-.4.195-.6.287l-.17.08c-.02.007-.04.024-.06.03-.11.063-.21.115-.32.179-.17.092-.35.196-.51.306-.16.099-.32.21-.48.308-.16.098-.31.215-.46.331-.08.064-.16.128-.25.186-.02.006-.03.03-.05.035-.05.035-.1.082-.15.117-.16.116-.3.239-.44.362-.14.134-.29.268-.43.39-.15.147-.31.293-.45.446l-.23.27c-.02.017-.04.052-.07.07-.05.064-.11.123-.15.176-.18.223-.36.446-.52.663-.22.318-.43.647-.6.978-.87 1.639-.88 3.102-.22 4.13l1.29 2.014c-.66-1.028-.65-2.491.22-4.13.33-.637.76-1.243 1.26-1.823.02-.006.04-.024.07-.053z" fill="#2062F5"/><path d="M1386.5 83.37c2.67-5.089 2.73-9.615.69-12.813l-1.29-2.014c2.04 3.198 1.98 7.712-.69 12.814l-7.43 14.195 1.29 2.014 7.43-14.195z" fill="#F600B2"/><path d="M1338.35 100.688c-.01-.006 0 0 0 0l-1.29-2.014c-.01-.006-.02-.024-.02-.024a5.15 5.15 0 00-.19-.265c-.08-.085-.14-.163-.24-.242a4.608 4.608 0 00-.26-.224l-.01-.007-.01-.006-.29-.195a2.22 2.22 0 00-.36-.184 1.902 1.902 0 00-.38-.15l1.29 2.015c.38.137.73.315 1.03.528.31.22.55.479.73.768zm-13.97 4.718c.33-.637.76-1.242 1.26-1.823.02-.017.04-.053.07-.07.49-.569 1.07-1.095 1.7-1.584.01-.006.03-.03.04-.035.64-.483 1.31-.93 2.03-1.311.02-.006.04-.023.06-.029.71-.381 1.47-.695 2.22-.939l-1.29-2.014c-.25.08-.5.176-.76.267-.23.092-.47.195-.7.298-.2.092-.41.196-.61.287-.06.03-.11.064-.16.081-.02.006-.04.023-.06.029-.11.063-.23.11-.34.173a7.7 7.7 0 00-.51.306c-.15.099-.32.21-.48.308-.15.098-.31.215-.46.331-.08.064-.16.129-.25.187-.02.005-.03.029-.05.034-.05.035-.1.082-.15.117-.15.116-.29.239-.43.361-.15.135-.3.269-.44.392-.15.146-.3.292-.44.445-.08.093-.16.176-.24.269-.02.018-.04.053-.06.071-.05.064-.11.123-.16.176-.17.223-.35.446-.51.663a8.99 8.99 0 00-.61.978c-.86 1.639-.87 3.102-.22 4.13l1.29 2.014c-.63-1.015-.61-2.472.26-4.112z" fill="#2062F5"/><path d="M1341.79 81.257c.35-.482.72-.963 1.1-1.427.27-.329.52-.663.8-.986.25-.305.52-.586.78-.885a40.103 40.103 0 011.81-1.904c.44-.444.9-.883 1.37-1.315.2-.17.39-.357.58-.526.66-.59 1.34-1.168 2.04-1.721.08-.064.18-.134.26-.198.63-.501 1.27-.978 1.93-1.45.2-.15.41-.296.63-.441a54.91 54.91 0 011.9-1.283c.13-.081.26-.169.39-.25.77-.475 1.54-.944 2.34-1.389.22-.127.45-.248.68-.37a43.77 43.77 0 011.75-.91 44.896 44.896 0 012.47-1.143c.43-.183.85-.373 1.27-.544.4-.166.82-.314 1.22-.468.69-.256 1.38-.5 2.07-.715.43-.136.86-.277 1.29-.401.34-.096.66-.185.99-.27.55-.15 1.1-.273 1.65-.394.32-.072.65-.144.97-.204.59-.116 1.17-.207 1.76-.293.27-.037.55-.092.82-.129.86-.099 1.7-.174 2.54-.22a28.09 28.09 0 013.17.059c.33.017.64.058.95.099.57.069 1.12.143 1.66.242.35.059.69.13 1.03.213.31.07.61.165.91.247.4.114.78.25 1.15.382.21.08.43.162.63.248.46.192.89.413 1.31.646.09.05.19.099.28.148.49.323.95.652 1.38.98.11.085.21.182.32.267.34.28.64.57.93.884.1.097.19.188.28.296.36.41.7.839.98 1.301l-1.29-2.014c-.02-.042-.04-.084-.07-.114-.23-.343-.49-.686-.76-1.006l-.16-.169c-.08-.102-.18-.2-.27-.29-.14-.151-.27-.308-.42-.46-.16-.156-.34-.278-.51-.424-.1-.085-.2-.182-.31-.267-.07-.048-.11-.103-.17-.145-.35-.274-.73-.53-1.14-.769-.02-.012-.05-.024-.07-.037-.09-.049-.19-.098-.28-.147-.32-.178-.64-.355-.98-.516-.1-.055-.22-.087-.34-.13-.21-.093-.42-.174-.64-.255-.2-.075-.38-.167-.6-.236-.18-.062-.37-.101-.56-.152-.29-.094-.59-.17-.91-.247-.17-.044-.33-.095-.5-.14-.17-.037-.36-.047-.54-.08-.54-.097-1.08-.184-1.66-.24-.2-.028-.39-.067-.59-.094-.11-.014-.24-.004-.36-.006-1.01-.07-2.05-.1-3.16-.058-.84.034-1.68.109-2.55.22-.27.037-.56.086-.83.123-.58.091-1.16.183-1.75.286-.32.06-.65.144-.99.21-.54.121-1.09.243-1.64.395-.34.084-.67.18-1.01.275-.2.062-.41.106-.62.162-.22.068-.45.16-.66.227-.7.226-1.38.459-2.08.715-.22.08-.44.147-.65.233-.19.068-.38.166-.56.235-.43.171-.86.354-1.29.538-.27.114-.54.229-.82.343-.23.103-.45.23-.69.334-.32.149-.63.304-.95.466-.21.103-.43.2-.65.31-.37.184-.74.398-1.11.6-.23.122-.46.243-.7.376-.09.058-.18.098-.27.156-.65.37-1.3.757-1.93 1.152-.04.023-.09.058-.13.08-.14.082-.26.169-.39.25-.44.284-.89.562-1.32.853-.2.133-.39.29-.6.424-.21.145-.41.297-.62.442-.18.134-.36.25-.54.383-.47.344-.93.705-1.38 1.072-.08.064-.17.122-.26.198-.02.018-.05.035-.07.052-.57.455-1.13.934-1.68 1.4-.09.088-.18.176-.29.257-.19.17-.38.357-.58.526-.26.24-.54.485-.79.73-.19.188-.39.387-.57.574-.23.228-.48.462-.69.697-.13.14-.29.286-.42.427-.24.252-.46.528-.7.78-.26.299-.54.591-.79.897-.09.105-.18.205-.27.31-.18.224-.34.44-.51.652-.39.476-.76.957-1.11 1.44-.1.129-.21.263-.3.399-.09.135-.15.265-.23.389-.76 1.093-1.47 2.212-2.06 3.35l-7.43 14.196 1.29 2.014 7.43-14.196c.6-1.132 1.31-2.25 2.05-3.35.24-.252.43-.517.61-.782z" fill="#2062F5"/><path d="M1377.2 61.451c14.4-.619 20.74 9.129 14.15 21.72l-7.43 14.195c2.15.75 2.85 2.849 1.49 5.432-1.73 3.309-6.2 6.132-10 6.289-3.79.157-5.46-2.398-3.74-5.707 1.35-2.577 4.35-4.836 7.39-5.803l7.43-14.195c5.37-10.267.19-18.2-11.5-17.69-11.71.502-25.58 9.237-30.95 19.499l-7.43 14.195c2.15.749 2.87 2.843 1.52 5.432-1.73 3.309-6.22 6.137-10.01 6.295-3.8.157-5.47-2.399-3.74-5.707 1.34-2.578 4.35-4.836 7.39-5.803l7.43-14.195c6.57-12.597 23.63-23.344 38-23.957zm-15.6 176.431l-17.6-9.285-.34-18.291 61.54-117.204.4 18.382 17.55 9.195-61.55 117.203z" fill="#2062F5"/><path d="M1405.2 93.102l-61.54 117.204-102.82 4.237 61.54-117.222 102.82-4.219z" fill="#D18AB7"/><path d="M1423.15 120.679l-61.55 117.203-102.82 4.231 61.55-117.215 102.82-4.219z" fill="#FF4AED"/><path d="M1258.78 242.113l.63-11.881-18.58-15.696 61.55-117.203 18.67 15.834-.73 11.743-61.54 117.203z" fill="#2062F5"/><path d="M1400.14 127.895c.29.225.53.467.71.755l-1.29-2.014c-.01-.006-.01-.024-.01-.024-.06-.09-.13-.187-.2-.265-.08-.084-.14-.163-.22-.236-.09-.072-.17-.145-.26-.224l-.02-.006c-.08-.061-.19-.128-.29-.195a1.905 1.905 0 00-.34-.179 2.22 2.22 0 00-.38-.149l1.29 2.015c.39.125.72.309 1.01.522zm-11.91 3.592c.51-.562 1.09-1.106 1.71-1.596.01-.005.03-.029.05-.034.63-.484 1.3-.931 2.02-1.311.02-.006.04-.023.06-.029a13.98 13.98 0 012.22-.939l-1.29-2.014c-.25.079-.5.176-.75.273-.23.092-.46.195-.7.298-.2.092-.4.195-.6.287-.07.029-.11.052-.17.081-.02.005-.04.023-.06.029-.11.063-.21.115-.32.179-.17.092-.35.196-.51.307-.16.098-.32.208-.48.307-.16.098-.31.215-.46.331-.08.064-.16.129-.25.186-.02.006-.03.03-.05.035a1.96 1.96 0 00-.15.117c-.16.116-.3.239-.44.361-.14.135-.29.269-.43.392-.15.146-.31.292-.45.445l-.23.269c-.02.018-.04.053-.07.071-.05.064-.11.123-.15.176-.18.223-.36.446-.52.663-.22.318-.43.647-.6.978-.87 1.639-.88 3.102-.22 4.13l1.29 2.014c-.66-1.028-.65-2.491.22-4.13.33-.637.76-1.243 1.26-1.823.02-.006.05-.035.07-.053z" fill="#F600B2"/><path d="M1401.71 113.377c2.67-5.09 2.73-9.616.69-12.814l-1.29-2.014c2.04 3.198 1.98 7.712-.69 12.814l-7.43 14.195 1.29 2.014 7.43-14.195zm-48.15 17.317c-.01-.006-.01-.006 0 0l-1.29-2.014c-.01-.006-.02-.024-.02-.024-.05-.09-.12-.187-.19-.265-.08-.085-.14-.163-.24-.242a4.232 4.232 0 00-.26-.224l-.01-.007-.01-.006-.29-.195a1.896 1.896 0 00-.36-.184 1.878 1.878 0 00-.38-.149l1.29 2.014c.39.137.73.315 1.03.528l.01.006c.3.214.53.467.72.762zm-13.97 4.718c.33-.637.76-1.243 1.26-1.823.03-.018.04-.053.07-.07.51-.563 1.07-1.095 1.7-1.584.01-.006.03-.03.04-.035.64-.483 1.31-.93 2.03-1.311.02-.006.04-.023.06-.029.72-.381 1.47-.695 2.22-.939l-1.29-2.014c-.25.079-.5.176-.76.267-.23.092-.46.195-.7.298-.2.092-.41.195-.61.287-.06.029-.11.064-.16.081-.02.006-.04.023-.06.029-.11.063-.23.109-.34.173-.16.092-.34.196-.51.306-.15.099-.32.209-.48.308-.15.098-.31.215-.46.331-.08.064-.16.128-.25.186-.02.006-.03.03-.05.035-.04.035-.1.082-.15.117-.15.116-.29.239-.43.361-.15.135-.29.269-.44.392-.15.146-.3.292-.44.444l-.23.27c-.03.018-.05.053-.07.071-.05.064-.11.123-.16.175-.17.224-.35.447-.51.664a8.99 8.99 0 00-.61.978c-.86 1.639-.87 3.102-.22 4.13l1.29 2.014c-.62-1.027-.61-2.473.26-4.112z" fill="#F600B2"/><path d="M1357 111.263c.35-.482.72-.963 1.1-1.427.27-.329.52-.663.8-.986.25-.305.52-.586.78-.885.37-.411.74-.821 1.13-1.219.22-.228.45-.456.68-.685.44-.444.9-.883 1.37-1.315.2-.17.39-.357.58-.526.66-.59 1.34-1.168 2.03-1.727.08-.064.18-.134.26-.198.63-.502 1.27-.979 1.93-1.45.2-.151.41-.296.63-.441.62-.442 1.25-.866 1.9-1.283.13-.082.25-.169.39-.25.76-.475 1.54-.944 2.34-1.389.22-.127.45-.248.68-.37.57-.317 1.15-.617 1.75-.91a44.497 44.497 0 012.47-1.143c.43-.183.84-.373 1.27-.544.4-.166.81-.314 1.21-.468.7-.256 1.39-.5 2.08-.715.43-.136.86-.277 1.29-.401.33-.096.65-.186.99-.27.55-.15 1.09-.273 1.64-.395a34.747 34.747 0 012.74-.496c.27-.037.54-.092.82-.129.86-.099 1.7-.174 2.54-.22a28.16 28.16 0 013.17.059c.32.017.64.058.95.099.57.069 1.12.143 1.66.241.35.06.69.13 1.02.214.32.07.61.164.92.247.39.113.78.25 1.15.382.21.08.43.161.63.248.45.192.88.413 1.31.646.09.05.19.099.28.148.5.288.95.61 1.38.95.11.085.21.182.32.267.33.28.64.57.92.884.11.097.19.188.29.296.36.41.69.839.99 1.29l-1.29-2.014c-.03-.042-.05-.084-.08-.115-.23-.343-.49-.686-.76-1.006-.04-.054-.1-.114-.15-.169-.08-.102-.18-.199-.27-.29-.15-.15-.28-.308-.43-.459-.16-.157-.33-.279-.5-.424-.11-.086-.21-.182-.31-.268-.07-.048-.12-.103-.17-.145-.36-.274-.74-.53-1.14-.768a.446.446 0 01-.07-.037c-.1-.05-.19-.099-.29-.148-.32-.178-.63-.355-.97-.516-.11-.055-.23-.087-.34-.13-.21-.093-.43-.174-.64-.255-.2-.074-.38-.166-.6-.236-.18-.062-.38-.1-.56-.152a12.5 12.5 0 00-.92-.247c-.17-.044-.33-.094-.5-.139-.16-.038-.35-.047-.53-.08a20.9 20.9 0 00-1.66-.242c-.2-.027-.39-.066-.59-.093-.12-.013-.24-.004-.36-.005a29.6 29.6 0 00-3.17-.059c-.84.034-1.68.11-2.54.22-.28.037-.56.086-.84.123-.58.091-1.16.183-1.74.286-.32.06-.65.144-.99.21-.55.122-1.1.244-1.65.395-.33.084-.67.18-1.01.275-.2.062-.4.106-.61.162-.22.068-.45.16-.67.239-.7.226-1.38.459-2.08.715-.22.08-.44.148-.65.233-.19.069-.38.167-.57.235-.42.171-.85.355-1.28.538-.27.114-.54.229-.82.343-.23.103-.45.23-.69.334-.32.15-.63.305-.96.466-.2.103-.42.2-.64.31-.37.184-.74.398-1.11.6-.23.122-.46.243-.7.376-.09.058-.18.098-.28.156-.64.37-1.29.758-1.92 1.152-.04.023-.09.058-.13.08-.14.082-.26.169-.39.25-.44.284-.89.563-1.32.853-.2.133-.39.29-.6.424-.21.145-.41.297-.63.442-.17.134-.35.25-.53.384-.47.343-.93.704-1.38 1.071-.08.064-.17.122-.26.198-.02.018-.05.035-.07.053-.58.454-1.13.933-1.68 1.4-.09.087-.18.175-.29.257-.19.169-.38.356-.58.525-.26.24-.54.485-.79.731l-.58.573c-.22.228-.47.462-.68.697-.14.152-.29.286-.42.427-.24.252-.46.528-.7.78-.27.299-.54.591-.79.897-.09.105-.19.205-.27.31-.18.224-.34.441-.51.652-.39.476-.76.957-1.11 1.439-.1.13-.21.265-.3.4s-.15.265-.24.389c-.75 1.094-1.46 2.212-2.05 3.35l-7.43 14.196 1.29 2.014 7.43-14.196c.6-1.132 1.31-2.25 2.05-3.35.25-.216.43-.487.62-.746z" fill="#2062F5"/><path d="M1392.4 91.45c14.39-.618 20.74 9.13 14.15 21.721l-7.43 14.195c2.15.749 2.85 2.849 1.49 5.432-1.73 3.308-6.2 6.131-10 6.289-3.79.157-5.47-2.399-3.74-5.707 1.34-2.577 4.35-4.836 7.39-5.803l7.45-14.201c5.38-10.261.18-18.187-11.51-17.679-11.71.503-25.57 9.238-30.95 19.5l-7.43 14.195c2.15.749 2.87 2.843 1.52 5.432-1.73 3.309-6.22 6.137-10.01 6.295-3.8.157-5.47-2.399-3.74-5.707 1.34-2.578 4.35-4.836 7.39-5.803l7.43-14.195c6.58-12.609 23.63-23.344 37.99-23.963z" fill="#2062F5"/><path d="M1321.05 113.167l-.73 11.731-61.55 117.215.64-11.881 61.64-117.065zm102.1 7.512l-16.12-8.446-4.86 9.301 20.98-.855z" fill="#32B5F7"/></g><g opacity=".1" clip-path="url(#clip2)"><path d="M60.41 47.942a1.73 1.73 0 00-.081.614l-.079-1.43c.004-.007 0-.018 0-.018a1.784 1.784 0 01.002-.197c.008-.068.012-.128.027-.193.015-.064.03-.128.049-.2l.003-.007.004-.007.074-.196a1.15 1.15 0 01.107-.206 1.21 1.21 0 01.131-.203l.078 1.43a2.18 2.18 0 00-.315.613zm7.098-2.347c-.447-.1-.92-.168-1.397-.194-.01.004-.025-.003-.036 0a9.007 9.007 0 00-1.453.056c-.01.003-.029.003-.04.007-.484.06-.966.167-1.419.306l-.078-1.43c.152-.05.308-.087.464-.125.144-.035.297-.066.449-.097.13-.024.267-.044.398-.068l.108-.017c.01-.003.029-.003.04-.007.076-.006.145-.016.22-.023.116-.013.24-.023.358-.026.112-.006.232-.008.344-.014.112-.007.227-.002.343.002.061.004.123.008.188.005.01-.003.025.004.036 0 .036.001.08.005.116.005.115.005.227.017.339.028.12.016.238.03.35.042.126.02.253.038.375.064l.21.052c.017 0 .04.011.057.011.047.015.098.023.137.034.166.047.332.095.487.147.223.077.44.168.64.27 1 .505 1.522 1.217 1.563 1.947l.078 1.43c-.04-.73-.562-1.442-1.562-1.947a5.933 5.933 0 00-1.261-.457.134.134 0 01-.054 0z" fill="#2062F5"/><path d="M54.529 41.373c-3.098-1.574-4.723-3.768-4.848-6.04l-.078-1.43c.125 2.271 1.743 4.462 4.848 6.039l8.638 4.39.078 1.43-8.638-4.39z" fill="#F600B2"/><path d="M84.21 33.255c.003-.008 0 0 0 0l-.079-1.43c.004-.008 0-.019 0-.019a1.808 1.808 0 01.002-.196c.008-.068.012-.129.03-.2.016-.065.03-.129.05-.2l.003-.007.004-.007.074-.196c.03-.075.062-.14.11-.214a1.21 1.21 0 01.132-.203l.078 1.431a2.463 2.463 0 00-.316.612 1.603 1.603 0 00-.089.629zm8.506-2.507a5.938 5.938 0 00-1.261-.457c-.018 0-.04-.011-.058-.012a7.669 7.669 0 00-1.39-.19c-.01.004-.025-.004-.035 0a8.995 8.995 0 00-1.453.056c-.011.003-.03.003-.04.006-.485.06-.966.168-1.42.307l-.077-1.43c.152-.05.307-.088.467-.133.145-.034.297-.065.449-.096.13-.024.267-.044.398-.068.04-.007.076-.007.108-.017.011-.004.03-.004.04-.007.076-.007.148-.024.224-.03a3.84 3.84 0 01.358-.026c.112-.006.232-.009.344-.015a3.65 3.65 0 01.343.003c.061.004.123.008.188.005.01-.003.025.004.036 0 .036 0 .08.005.115.005.116.004.228.016.34.028a6.516 6.516 0 01.725.106l.21.052c.017 0 .039.01.057.01.047.015.097.023.137.034.166.048.332.096.487.147.223.077.439.168.64.27 1 .505 1.522 1.218 1.563 1.947l.078 1.43c-.048-.715-.573-1.42-1.573-1.925z" fill="#2062F5"/><path d="M75.68 24.926a16.797 16.797 0 00-1.04-.32c-.246-.07-.487-.147-.736-.21-.23-.063-.462-.108-.696-.163-.325-.074-.649-.149-.98-.208l-.575-.102c-.375-.064-.754-.12-1.136-.17-.155-.016-.314-.042-.47-.058a26.577 26.577 0 00-1.606-.138c-.062-.004-.134-.005-.195-.009-.484-.029-.968-.04-1.456-.044a10.04 10.04 0 00-.463 0c-.462 0-.921.01-1.384.027-.094.007-.184.006-.278.012a36.36 36.36 0 00-1.634.126c-.152.013-.308.033-.463.053a26.77 26.77 0 00-1.18.159 29.303 29.303 0 00-1.61.29c-.275.059-.546.11-.814.172-.257.059-.51.128-.76.19a26.88 26.88 0 00-1.268.365c-.261.084-.518.16-.772.247-.2.07-.388.137-.58.21-.323.115-.634.245-.946.375a19.131 19.131 0 00-1.513.699c-.149.077-.301.144-.45.221-.454.247-.893.5-1.322.768a17.23 17.23 0 00-1.53 1.12c-.153.121-.291.249-.43.376-.255.23-.499.457-.728.691a8.68 8.68 0 00-.427.458c-.128.142-.241.29-.361.437-.154.191-.293.39-.428.582-.077.114-.154.228-.22.338a7.97 7.97 0 00-.415.769l-.088.17c-.122.325-.233.646-.33.956-.022.078-.037.16-.06.239-.067.253-.112.5-.143.753a2.627 2.627 0 00-.035.243 5.87 5.87 0 00-.023.976l-.078-1.431a.32.32 0 01-.003-.082 6.564 6.564 0 01.018-.754l.015-.136c.005-.079.02-.16.031-.236.02-.125.028-.246.047-.371.023-.132.067-.253.097-.382.022-.078.038-.16.06-.239.015-.046.019-.09.03-.128a6.655 6.655 0 01.31-.813l.088-.17c.092-.197.184-.392.294-.588.034-.064.081-.121.121-.181.07-.118.147-.232.224-.345.073-.107.128-.214.212-.324.066-.092.146-.177.219-.266.113-.15.23-.288.361-.437.07-.082.128-.16.198-.241.065-.075.156-.146.233-.224.23-.234.466-.464.728-.69.088-.082.168-.167.255-.249.051-.046.117-.085.175-.127.47-.382.971-.757 1.53-1.12.422-.272.861-.526 1.322-.769.15-.077.305-.151.454-.228.316-.155.631-.31.954-.46.178-.082.37-.155.559-.24.311-.129.623-.259.946-.374.192-.073.391-.143.59-.213.12-.038.236-.087.36-.133.13-.042.275-.076.405-.118.42-.129.837-.25 1.268-.365.137-.038.268-.08.402-.11.116-.032.242-.049.358-.08.268-.062.543-.12.818-.18l.522-.113c.152-.03.303-.044.456-.075.21-.037.416-.068.633-.101.137-.02.278-.048.427-.072.246-.037.502-.06.752-.087.155-.02.311-.04.474-.057.065-.003.126-.016.191-.02.449-.042.9-.074 1.35-.099.028-.003.064-.003.093-.006.094-.007.184-.006.278-.012.315-.012.633-.03.944-.035.148-.006.296.006.444 0 .156-.003.307.002.463 0 .133.005.263-.001.397.003.35.007.704.024 1.055.048.061.005.126.002.195.01h.054c.44.025.881.068 1.314.107.076.011.152.023.231.027.156.016.314.042.47.058.213.026.436.05.646.084l.483.082c.191.034.393.064.58.105.116.023.243.042.358.064.206.041.411.1.617.141.234.056.472.104.703.167.08.022.162.037.241.059.166.048.321.1.48.143.357.1.71.206 1.048.324.094.03.199.055.289.091.09.037.169.077.252.11.756.274 1.498.577 2.185.933l8.638 4.39.078 1.431-8.638-4.39a21.792 21.792 0 00-2.185-.934c-.206-.04-.39-.107-.573-.172z" fill="#2062F5"/><path d="M51.363 27.432c-7.266 4.659-6.939 11.618.72 15.514l8.639 4.39c-.79 1.11-.393 2.378 1.183 3.174 2.011 1.025 5.196.866 7.11-.366 1.915-1.232 1.833-3.059-.178-4.084-1.565-.8-3.833-.868-5.663-.294l-8.638-4.39c-6.242-3.18-6.5-8.848-.593-12.632 5.91-3.79 15.775-4.29 22.02-1.117l8.639 4.39c-.79 1.109-.403 2.381 1.169 3.184 2.01 1.025 5.206.862 7.121-.37 1.915-1.231 1.833-3.058-.178-4.083-1.565-.8-3.834-.869-5.663-.294l-8.638-4.39c-7.656-3.904-19.795-3.286-27.05 1.368zm69.774 81.027l5.351-10.615-6.275-9.075-71.415-36.183 6.278 9.14-5.354 10.55 71.415 36.183z" fill="#2062F5"/><path d="M48.798 52.586l71.415 36.183L172.058 55.4l-71.419-36.194-51.841 33.38z" fill="#D18AB7"/><path d="M49.722 72.276l71.415 36.183 51.848-33.375-71.422-36.187-51.841 33.38z" fill="#FF4AED"/><path d="M172.984 75.084l-4.494-5.6 3.571-14.091-71.415-36.183-3.568 14.191 4.491 5.5 71.415 36.183z" fill="#2062F5"/><path d="M63.53 67.88c-.063.21-.093.41-.08.614l-.079-1.43c.004-.007 0-.018 0-.018a1.783 1.783 0 01.002-.197c.008-.068.012-.128.027-.193.015-.064.03-.128.049-.2l.004-.007.073-.195c.03-.075.063-.14.107-.207.037-.071.08-.139.132-.203l.078 1.431a2.141 2.141 0 00-.312.605zm7.099-2.347c-.447-.1-.92-.168-1.397-.194-.01.004-.025-.003-.036 0a8.995 8.995 0 00-1.453.056c-.01.003-.029.003-.04.007-.484.06-.966.167-1.419.306l-.078-1.43c.152-.05.308-.087.464-.125.144-.035.297-.066.449-.097.13-.024.267-.044.398-.068l.108-.017c.011-.003.03-.003.04-.007.076-.006.145-.016.22-.023.116-.013.24-.023.358-.025.113-.007.232-.01.344-.015.112-.007.227-.002.343.002.061.005.123.009.188.005.01-.003.025.004.036 0 .036.001.08.005.116.005.115.005.227.017.34.028.118.015.237.03.35.042.126.02.252.038.374.064.072.019.138.034.21.052.018 0 .04.011.057.011.047.015.098.023.137.034.166.047.332.095.487.147.223.077.44.168.64.27 1 .505 1.522 1.217 1.563 1.947l.078 1.43c-.04-.73-.562-1.442-1.562-1.947a5.93 5.93 0 00-1.26-.457c-.012.003-.037 0-.055 0z" fill="#F600B2"/><path d="M57.65 61.31c-3.097-1.573-4.723-3.767-4.848-6.038l-.078-1.431c.125 2.271 1.743 4.462 4.848 6.039l8.638 4.39.078 1.43-8.638-4.39zm29.679-8.117c.003-.008.003-.008 0 0l-.079-1.43c.004-.008 0-.019 0-.019a1.783 1.783 0 01.002-.196c.008-.068.012-.129.03-.2.016-.065.03-.129.05-.2l.003-.007.004-.007.074-.196c.03-.075.062-.14.11-.214.037-.071.08-.139.132-.203l.078 1.431a2.464 2.464 0 00-.316.612l-.004.007c-.07.207-.094.41-.084.622zm8.506-2.507a5.932 5.932 0 00-1.261-.457c-.018 0-.04-.011-.058-.012a8.407 8.407 0 00-1.39-.19c-.01.004-.025-.004-.035 0a9.007 9.007 0 00-1.453.056c-.011.003-.03.003-.04.007-.485.06-.966.167-1.42.306l-.077-1.43c.152-.05.308-.088.467-.133.145-.034.297-.065.449-.096.13-.024.267-.044.398-.068.04-.007.076-.007.108-.017.011-.004.03-.004.04-.007.076-.007.148-.024.224-.03.116-.014.24-.023.358-.026.112-.006.232-.009.344-.015.112-.006.227-.002.343.003.061.004.123.008.188.005.01-.004.025.004.036 0 .036 0 .08.005.116.005.115.004.227.016.339.028.12.015.238.03.35.042.126.019.253.038.375.064l.21.052c.017 0 .04.01.057.01.047.015.097.023.137.034.166.048.332.096.487.147.223.077.44.168.64.27 1 .505 1.522 1.218 1.563 1.947l.078 1.43c-.055-.718-.573-1.42-1.573-1.925z" fill="#F600B2"/><path d="M78.8 44.864a16.776 16.776 0 00-1.04-.32c-.246-.07-.488-.147-.736-.21-.23-.063-.462-.108-.696-.163-.325-.074-.65-.148-.981-.209l-.574-.1a29.09 29.09 0 00-1.137-.171c-.155-.016-.314-.042-.469-.058a34.21 34.21 0 00-1.603-.145c-.061-.004-.133-.005-.195-.009-.484-.03-.968-.04-1.456-.044a9.901 9.901 0 00-.462 0c-.463 0-.922.01-1.384.027-.094.006-.185.006-.279.012a36.22 36.22 0 00-1.634.126 10.76 10.76 0 00-.463.053 26.62 26.62 0 00-1.179.159 29.303 29.303 0 00-1.61.29c-.276.058-.547.11-.815.172-.257.059-.51.128-.76.19-.431.115-.855.233-1.268.365-.26.084-.518.16-.772.247-.199.07-.387.136-.58.21-.322.115-.634.245-.946.375a19.131 19.131 0 00-1.513.698c-.148.078-.3.145-.45.222-.453.246-.893.5-1.321.768-.556.357-1.061.739-1.53 1.12a6.885 6.885 0 00-.43.376c-.255.23-.5.457-.729.691a7.96 7.96 0 00-.427.458c-.127.142-.24.29-.361.436-.154.192-.292.391-.428.583-.077.114-.154.228-.22.338-.157.252-.29.509-.414.769l-.089.17a6.548 6.548 0 00-.34.941c-.022.079-.037.16-.06.24a5.514 5.514 0 00-.143.753 2.593 2.593 0 00-.035.242c-.032.325-.045.65-.03.972l-.078-1.43c-.003-.029-.007-.057-.003-.082a6.566 6.566 0 01.017-.755c.004-.042.012-.092.016-.135.004-.079.02-.161.03-.236.02-.125.028-.246.047-.371.023-.133.067-.254.097-.382.023-.078.038-.16.06-.24.015-.046.02-.088.03-.128.078-.256.175-.513.289-.77l.022-.042.088-.17a8.48 8.48 0 01.294-.588c.033-.064.08-.121.12-.182a6.99 6.99 0 01.224-.344c.073-.107.128-.214.212-.324.066-.093.146-.178.22-.266.113-.15.23-.288.36-.437.07-.082.129-.16.198-.241.066-.075.157-.146.233-.224.23-.234.467-.464.729-.69.087-.082.167-.167.255-.249.05-.046.116-.085.174-.127.47-.382.971-.757 1.531-1.12.421-.272.86-.526 1.322-.769.149-.077.305-.151.453-.229.316-.154.632-.309.955-.46.177-.08.37-.154.558-.238.312-.13.624-.26.946-.375.192-.073.392-.143.591-.213.12-.038.236-.088.359-.133.13-.042.275-.076.413-.114.42-.13.837-.25 1.267-.365.138-.038.269-.08.402-.111.116-.032.243-.048.359-.08.268-.062.543-.12.818-.179l.521-.113c.152-.031.304-.044.456-.075.21-.038.416-.068.633-.102.138-.02.279-.048.427-.072.246-.037.503-.06.753-.086.155-.02.31-.04.474-.057.064-.003.126-.017.191-.02.448-.043.9-.075 1.349-.1.029-.003.065-.003.094-.006.094-.006.184-.006.278-.012.314-.012.633-.03.943-.035.149-.006.297.006.445 0 .155-.002.307.003.462 0 .134.005.264 0 .398.004.35.006.704.024 1.054.048.062.004.127.001.195.009h.055c.44.025.88.068 1.314.108.076.011.151.022.23.027.156.015.315.042.47.057.213.027.437.05.646.084.159.026.325.056.484.083.19.034.393.064.58.105.123.026.242.041.358.064.205.04.41.1.616.14.235.056.473.105.703.167.08.022.163.037.242.06.166.047.32.099.48.143.356.1.71.206 1.048.323.094.03.198.055.288.092.09.036.17.076.252.11a18.4 18.4 0 012.186.933l8.638 4.39.078 1.43-8.638-4.39a21.802 21.802 0 00-2.185-.933c-.199-.02-.379-.093-.566-.151z" fill="#2062F5"/><path d="M54.486 47.363c-7.266 4.659-6.939 11.618.72 15.514l8.639 4.39c-.79 1.11-.393 2.378 1.183 3.174 2.011 1.025 5.196.866 7.11-.366 1.915-1.232 1.833-3.06-.178-4.084-1.565-.8-3.833-.868-5.663-.294l-8.649-4.387c-6.245-3.173-6.493-8.845-.586-12.628 5.91-3.79 15.776-4.29 22.021-1.117l8.638 4.39c-.79 1.109-.403 2.381 1.17 3.184 2.01 1.025 5.206.862 7.12-.37 1.915-1.231 1.833-3.058-.178-4.083-1.565-.8-3.834-.869-5.663-.294l-8.638-4.39c-7.663-3.907-19.794-3.286-27.046 1.361z" fill="#2062F5"/><path d="M97.08 33.401l4.484 5.496 71.422 36.187-4.494-5.6L97.08 33.401zM49.723 72.276l4.92-9.693 5.652 2.882-10.572 6.811z" fill="#32B5F7"/></g><g opacity=".1" clip-path="url(#clip3)"><path d="M187.155 731.517c.358.278.65.576.873.931l-1.588-2.482c-.015-.008-.022-.03-.022-.03a3.557 3.557 0 00-.239-.326c-.094-.105-.174-.201-.276-.291-.103-.09-.205-.179-.322-.277l-.015-.007-.014-.008a31.67 31.67 0 00-.359-.24 2.323 2.323 0 00-.426-.22 2.562 2.562 0 00-.464-.184l1.588 2.483a4.59 4.59 0 011.264.651zm-14.681 4.428a17.215 17.215 0 012.101-1.967c.022-.007.037-.036.06-.043a18.234 18.234 0 012.495-1.615c.022-.007.052-.029.074-.036a17.211 17.211 0 012.74-1.157l-1.589-2.483c-.313.098-.618.217-.924.337-.284.113-.575.24-.866.367-.247.113-.501.241-.747.354-.075.036-.127.064-.202.1-.022.006-.052.028-.075.035-.134.078-.262.142-.396.221-.21.114-.427.242-.629.378-.195.121-.397.257-.592.379-.195.121-.382.265-.57.408a3.524 3.524 0 01-.308.23c-.022.007-.038.036-.06.043-.06.043-.128.1-.188.143-.187.144-.36.295-.533.446-.181.166-.362.331-.535.483-.188.18-.376.36-.55.548-.098.115-.189.217-.287.332-.03.022-.053.065-.083.087-.061.079-.136.152-.189.217-.22.275-.439.55-.636.818-.281.391-.533.797-.747 1.204-1.064 2.021-1.08 3.825-.271 5.092l1.588 2.482c-.808-1.267-.793-3.07.271-5.091a11.95 11.95 0 011.558-2.247.281.281 0 00.09-.065z" fill="#2062F5"/><path d="M189.087 713.622c3.286-6.273 3.365-11.852.845-15.794l-1.588-2.483c2.52 3.943 2.448 9.507-.845 15.795l-9.159 17.497 1.589 2.482 9.158-17.497z" fill="#F600B2"/><path d="M129.735 734.968c-.014-.008 0 0 0 0l-1.588-2.483c-.015-.008-.022-.03-.022-.03a3.557 3.557 0 00-.239-.326c-.094-.104-.174-.201-.291-.298-.102-.09-.205-.18-.322-.277l-.014-.008-.015-.007-.359-.241a2.535 2.535 0 00-.441-.227 2.534 2.534 0 00-.464-.184l1.589 2.483c.471.169.897.389 1.264.651.38.271.679.591.902.947zm-17.224 5.815c.414-.785.938-1.531 1.557-2.247.03-.022.053-.065.083-.087.612-.701 1.327-1.349 2.093-1.952.023-.007.038-.036.061-.043a18.146 18.146 0 012.495-1.616c.022-.007.052-.028.074-.035.883-.47 1.816-.858 2.74-1.158l-1.589-2.482c-.313.097-.619.217-.939.329-.284.113-.575.24-.866.367-.246.113-.501.241-.747.354-.075.036-.135.079-.202.1-.022.006-.052.028-.075.035-.134.078-.276.135-.411.213a8.183 8.183 0 00-.629.378c-.194.122-.397.258-.591.379a7.491 7.491 0 00-.571.409 3.181 3.181 0 01-.307.229c-.023.007-.038.036-.06.043-.06.043-.128.101-.188.144a9.768 9.768 0 00-.534.446c-.18.165-.361.331-.534.482-.188.18-.377.36-.55.548-.099.116-.189.217-.288.333-.03.021-.053.065-.083.086-.06.08-.136.152-.188.217-.22.275-.44.55-.637.818a10.25 10.25 0 00-.746 1.205c-1.065 2.021-1.08 3.824-.272 5.091l1.589 2.483c-.779-1.252-.749-3.048.315-5.069z" fill="#2062F5"/><path d="M133.98 711.017c.425-.594.887-1.187 1.356-1.759.325-.405.636-.818.976-1.216.311-.376.643-.722.967-1.091.454-.505.907-1.011 1.389-1.502l.837-.844a59.403 59.403 0 011.695-1.622c.241-.208.474-.439.715-.648a53.745 53.745 0 012.519-2.121c.097-.079.217-.165.315-.244a56.734 56.734 0 012.379-1.786c.248-.187.51-.366.773-.545a73.439 73.439 0 012.346-1.582c.165-.1.315-.207.48-.307a72.645 72.645 0 012.882-1.712c.269-.157.553-.306.838-.455a53.74 53.74 0 012.16-1.123c.381-.192.785-.39 1.181-.575.62-.29 1.232-.566 1.859-.834.53-.226 1.046-.459 1.568-.671.5-.204 1.007-.386 1.499-.576a53.867 53.867 0 012.557-.882c.536-.167 1.058-.342 1.587-.494.417-.118.812-.229 1.221-.332a40.419 40.419 0 012.031-.487c.402-.089.804-.177 1.198-.251a44.193 44.193 0 012.17-.36c.341-.046.676-.114 1.018-.16a51.91 51.91 0 013.132-.27 34.577 34.577 0 013.904.071c.4.022.784.072 1.169.122.702.085 1.383.177 2.048.298.428.073.849.161 1.262.263.384.087.753.203 1.129.305.487.14.958.309 1.415.47a16.63 16.63 0 012.39 1.103l.353.182c.593.398 1.164.804 1.699 1.208.131.105.255.225.387.329.416.345.788.703 1.145 1.09.124.119.233.231.35.365.443.506.857 1.033 1.21 1.604l-1.588-2.483a.706.706 0 00-.094-.141 13.782 13.782 0 00-.935-1.24c-.059-.067-.131-.141-.19-.208-.101-.126-.225-.246-.334-.358-.183-.186-.342-.379-.524-.565-.197-.194-.417-.345-.622-.524-.131-.105-.255-.224-.387-.329-.08-.06-.138-.127-.204-.179a13.708 13.708 0 00-1.407-.947 7.77 7.77 0 00-.088-.046l-.353-.182a18.277 18.277 0 00-1.197-.635c-.132-.069-.28-.108-.42-.161-.257-.115-.522-.214-.788-.314-.25-.092-.47-.206-.743-.291-.221-.077-.458-.125-.686-.187-.369-.116-.73-.21-1.129-.305-.214-.055-.406-.117-.62-.171-.199-.048-.436-.059-.657-.099a25.076 25.076 0 00-2.048-.298c-.244-.033-.481-.081-.725-.115-.14-.017-.296-.005-.444-.007a36.224 36.224 0 00-3.904-.072c-1.031.042-2.07.135-3.132.271-.342.046-.691.106-1.033.152a109 109 0 00-2.148.353c-.394.074-.803.177-1.22.258-.676.15-1.353.3-2.031.487-.409.103-.826.221-1.243.339-.246.076-.499.131-.76.2-.268.083-.551.196-.819.28-.857.279-1.7.565-2.557.881-.276.098-.544.182-.806.288-.231.084-.462.204-.694.289a91.3 91.3 0 00-1.582.663l-1.008.423c-.291.127-.56.284-.851.411-.396.184-.777.376-1.181.575-.254.127-.523.248-.799.382-.456.227-.913.491-1.362.74-.284.15-.568.299-.86.463-.112.071-.232.121-.344.192a68.83 68.83 0 00-2.373 1.42c-.052.028-.113.071-.165.1-.165.1-.315.207-.479.307-.54.351-1.094.693-1.619 1.051-.255.165-.488.359-.742.523-.263.179-.51.366-.773.545-.218.165-.442.308-.66.473-.578.423-1.149.868-1.705 1.321-.097.079-.21.15-.315.244l-.09.064c-.706.56-1.39 1.15-2.067 1.726-.113.108-.226.216-.354.317-.24.208-.474.439-.715.648-.323.295-.669.597-.978.9-.234.231-.475.476-.709.707-.279.281-.58.569-.844.858-.166.174-.355.354-.521.527-.294.31-.567.651-.861.961-.325.369-.664.73-.974 1.106-.106.13-.227.253-.333.383-.22.275-.417.543-.629.803-.476.586-.939 1.18-1.364 1.774-.121.159-.265.326-.371.493-.107.166-.191.326-.29.479-.934 1.348-1.81 2.727-2.53 4.13l-9.159 17.497 1.589 2.483 9.159-17.498c.735-1.395 1.61-2.774 2.53-4.13.294-.31.522-.636.75-.963z" fill="#2062F5"/><path d="M177.626 686.605c17.74-.763 25.555 11.252 17.438 26.772l-9.159 17.497c2.652.924 3.512 3.512 1.836 6.695-2.13 4.078-7.643 7.558-12.322 7.752-4.68.194-6.739-2.956-4.61-7.034 1.655-3.177 5.363-5.961 9.111-7.153l9.159-17.497c6.609-12.656.23-22.433-14.187-21.806-14.432.62-31.518 11.387-38.142 24.035l-9.159 17.497c2.652.924 3.535 3.505 1.873 6.696-2.129 4.079-7.665 7.565-12.344 7.759-4.68.194-6.739-2.956-4.61-7.034 1.655-3.177 5.363-5.961 9.11-7.153l9.159-17.497c8.103-15.527 29.129-28.774 46.847-29.529zm-19.227 217.47L136.7 892.63l-.419-22.546 75.859-144.466.492 22.657 21.627 11.334-75.86 144.466z" fill="#2062F5"/><path d="M212.14 725.617l-75.859 144.466-126.733 5.223L85.4 730.818l126.74-5.201z" fill="#D18AB7"/><path d="M234.259 759.609L158.4 904.075l-126.748 5.214 75.867-144.48 126.74-5.2z" fill="#FF4AED"/><path d="M31.65 909.289l.782-14.644-22.9-19.347 75.86-144.466 23.015 19.518-.896 14.473-75.86 144.466z" fill="#2062F5"/><path d="M205.903 768.503c.358.277.65.575.874.931l-1.589-2.483c-.015-.007-.022-.029-.022-.029a3.717 3.717 0 00-.239-.327c-.094-.104-.174-.201-.276-.29-.103-.09-.205-.18-.322-.277l-.015-.007c-.109-.076-.234-.158-.359-.241a2.32 2.32 0 00-.426-.22 2.53 2.53 0 00-.464-.183l1.589 2.482c.479.155.883.381 1.249.644zm-14.683 4.428a17.133 17.133 0 012.101-1.967c.022-.007.037-.036.06-.043a18.24 18.24 0 012.495-1.616c.022-.007.052-.028.074-.035a17.12 17.12 0 012.74-1.157l-1.589-2.483c-.313.098-.618.217-.924.337-.284.112-.575.24-.866.367-.247.113-.501.241-.747.354-.075.035-.127.064-.202.099-.022.007-.052.029-.075.036-.134.078-.261.142-.396.22a7.83 7.83 0 00-.629.379c-.195.121-.397.257-.592.378a7.476 7.476 0 00-.57.409c-.098.079-.195.158-.308.23-.022.006-.037.036-.06.043-.06.043-.127.1-.188.143-.187.144-.36.295-.533.446-.181.165-.362.331-.535.482-.188.18-.376.361-.55.548-.098.116-.189.217-.287.333-.03.021-.053.065-.083.087-.061.079-.136.151-.189.216-.219.275-.439.55-.636.818a10.48 10.48 0 00-.747 1.205c-1.064 2.021-1.08 3.824-.271 5.092l1.588 2.482c-.808-1.267-.793-3.07.272-5.091.413-.785.937-1.532 1.557-2.247.022-.007.06-.043.09-.065z" fill="#F600B2"/><path d="M207.836 750.608c3.285-6.274 3.364-11.852.844-15.794l-1.588-2.483c2.52 3.942 2.448 9.506-.845 15.794l-9.159 17.497 1.589 2.483 9.159-17.497zm-59.352 21.345c-.015-.007-.015-.007 0 0l-1.589-2.482c-.015-.008-.022-.03-.022-.03a3.717 3.717 0 00-.239-.327c-.094-.104-.174-.2-.291-.298-.102-.089-.205-.179-.322-.276l-.014-.008-.015-.007c-.11-.076-.234-.158-.359-.241a2.468 2.468 0 00-.441-.227 2.534 2.534 0 00-.464-.184l1.589 2.483c.471.169.897.388 1.264.651l.014.008c.366.262.65.575.889.938zm-17.225 5.816c.414-.785.938-1.532 1.557-2.247.03-.022.053-.066.083-.087a16.971 16.971 0 012.094-1.953c.022-.006.037-.036.06-.043a18.234 18.234 0 012.495-1.615c.022-.007.052-.029.074-.036a17.211 17.211 0 012.74-1.157l-1.589-2.483c-.313.098-.619.218-.939.33-.284.112-.575.239-.866.367-.246.113-.501.241-.747.354-.075.035-.135.078-.202.099-.022.007-.052.029-.075.036-.134.078-.276.134-.411.213a8.183 8.183 0 00-.629.378c-.194.121-.397.257-.591.379-.195.121-.383.265-.571.408a3.362 3.362 0 01-.307.23c-.023.007-.038.036-.06.043-.06.043-.128.1-.188.143-.188.144-.361.295-.534.446-.18.166-.361.331-.534.483-.188.18-.377.36-.55.548l-.288.332c-.03.022-.053.065-.083.087-.06.079-.135.152-.188.217-.22.275-.44.55-.637.818-.281.391-.532.797-.746 1.204-1.065 2.021-1.08 3.825-.272 5.092l1.589 2.482c-.772-1.266-.749-3.047.315-5.068z" fill="#F600B2"/><path d="M152.726 748.003c.425-.594.887-1.188 1.357-1.759.325-.406.636-.818.976-1.216.31-.376.642-.723.967-1.091.453-.506.906-1.012 1.389-1.502l.837-.844a58.102 58.102 0 011.695-1.622c.24-.209.474-.439.715-.648a68.204 68.204 0 012.504-2.129c.097-.079.217-.165.315-.244a57.64 57.64 0 012.379-1.787c.248-.186.51-.365.773-.544a73.439 73.439 0 012.346-1.582c.165-.1.315-.207.48-.307a72.645 72.645 0 012.882-1.712c.269-.157.553-.306.837-.455a54.464 54.464 0 012.161-1.123c.381-.192.785-.391 1.181-.575.62-.29 1.232-.566 1.859-.834.53-.226 1.046-.459 1.568-.671.5-.204 1.007-.386 1.499-.576a53.867 53.867 0 012.557-.882c.536-.167 1.058-.342 1.587-.494.417-.118.812-.229 1.221-.332a40.419 40.419 0 012.031-.487c.402-.089.804-.177 1.198-.251a44.193 44.193 0 012.17-.36c.341-.046.676-.114 1.018-.16a51.91 51.91 0 013.132-.27 34.577 34.577 0 013.904.071c.4.022.784.072 1.169.122.702.085 1.383.177 2.048.298.428.073.849.161 1.262.263.384.087.753.203 1.129.305.487.14.958.309 1.415.47a16.63 16.63 0 012.39 1.103l.353.182c.616.355 1.173.752 1.699 1.172.132.105.256.224.387.329.417.344.789.702 1.146 1.089.124.12.233.231.349.365.444.506.857 1.034 1.218 1.589l-1.588-2.482a.678.678 0 00-.094-.141 13.642 13.642 0 00-.935-1.24c-.058-.067-.131-.141-.189-.208-.102-.127-.226-.246-.335-.358-.182-.186-.342-.379-.524-.566-.197-.194-.417-.344-.621-.523-.132-.105-.256-.224-.388-.329-.08-.06-.138-.127-.204-.18a13.872 13.872 0 00-1.407-.947l-.088-.045-.353-.182a18.779 18.779 0 00-1.197-.636c-.132-.068-.28-.107-.42-.161a14.156 14.156 0 00-.787-.313c-.251-.092-.471-.206-.744-.291-.221-.077-.457-.125-.686-.187-.369-.117-.73-.21-1.129-.305-.214-.055-.405-.117-.619-.172-.2-.047-.437-.058-.658-.098a25.076 25.076 0 00-2.048-.298c-.244-.034-.48-.082-.724-.115-.141-.017-.297-.005-.445-.007a36.214 36.214 0 00-3.904-.072c-1.031.041-2.07.134-3.132.271-.342.045-.691.106-1.033.151-.713.113-1.427.226-2.148.353-.394.075-.803.178-1.219.259-.677.15-1.354.3-2.032.487-.409.103-.826.221-1.243.339-.246.076-.499.131-.759.2-.269.083-.552.196-.828.294-.857.279-1.699.566-2.557.882-.276.098-.544.181-.805.287-.231.084-.463.205-.694.289a91.3 91.3 0 00-1.582.663l-1.008.423c-.291.127-.561.284-.852.411-.396.185-.777.376-1.18.575-.255.128-.523.248-.8.383-.456.227-.912.49-1.361.74-.284.149-.568.298-.86.462-.113.071-.232.121-.344.192-.801.456-1.595.934-2.374 1.42-.052.029-.112.072-.164.1-.165.1-.315.208-.48.307-.539.351-1.093.694-1.618 1.052-.255.164-.488.358-.743.523-.262.178-.51.365-.772.544-.218.165-.443.308-.66.473-.578.423-1.149.868-1.705 1.321-.098.079-.21.15-.315.244l-.09.065c-.707.56-1.391 1.15-2.068 1.725a5.155 5.155 0 01-.353.317c-.241.209-.475.439-.715.648-.324.295-.67.597-.979.9-.233.231-.475.476-.708.707-.279.281-.581.57-.845.859-.174.187-.354.353-.52.526-.294.311-.567.651-.861.961-.325.369-.665.73-.975 1.106-.106.13-.227.253-.332.383-.22.275-.417.543-.629.804a36.194 36.194 0 00-1.364 1.773c-.121.16-.265.326-.371.493-.107.167-.191.327-.29.479-.935 1.348-1.81 2.727-2.53 4.13l-9.159 17.497 1.588 2.483 9.159-17.497c.735-1.396 1.611-2.775 2.53-4.13.309-.267.522-.6.764-.919z" fill="#2062F5"/><path d="M196.36 723.583c17.74-.763 25.556 11.252 17.438 26.772l-9.159 17.497c2.652.924 3.513 3.512 1.836 6.695-2.129 4.078-7.642 7.558-12.322 7.752-4.679.194-6.738-2.956-4.609-7.034 1.654-3.177 5.362-5.961 9.11-7.153l9.181-17.504c6.624-12.648.223-22.418-14.194-21.791-14.432.619-31.518 11.386-38.142 24.035l-9.159 17.497c2.652.924 3.535 3.505 1.873 6.696-2.129 4.078-7.665 7.565-12.344 7.759-4.68.194-6.739-2.957-4.61-7.035 1.655-3.177 5.363-5.96 9.11-7.152l9.159-17.497c8.111-15.542 29.129-28.774 46.832-29.537z" fill="#2062F5"/><path d="M108.407 750.35l-.889 14.459-75.867 144.48.78-14.644 75.976-144.295zm125.85 9.259l-19.87-10.411-5.982 11.464 25.852-1.053z" fill="#32B5F7"/></g><defs><clipPath id="clip0"><path fill="#fff" transform="matrix(.88884 -.45822 .46598 .8848 951.098 329.471)" d="M0 0h70.864v131.697H0z"/></clipPath><clipPath id="clip1"><path fill="#fff" transform="matrix(-.88884 -.45822 -.46598 .8848 1440 89.026)" d="M0 0h117.903v219.119H0z"/></clipPath><clipPath id="clip2"><path fill="#fff" transform="matrix(.45859 -.88865 .89258 .45089 30.322 62.584)" d="M0 0h70.426v132.515H0z"/></clipPath><clipPath id="clip3"><path fill="#fff" transform="matrix(-.88884 -.45822 -.46598 .8848 255.029 720.593)" d="M0 0h145.329v270.088H0z"/></clipPath></defs></svg>