<svg width="442" height="1048" fill="none" xmlns="http://www.w3.org/2000/svg"><g opacity=".2" clip-path="url(#clip0)"><path d="M386.808 21.68a1.245 1.245 0 00-.435-.077l1.022-.01c.005.004.013.002.013.002.046 0 .097.002.14.007.048.008.091.013.136.025l.141.041.005.003.005.003.137.058a.798.798 0 01.144.082.898.898 0 01.14.1l-1.022.008a1.561 1.561 0 00-.426-.242zm1.446 5.079c.085-.312.149-.643.182-.979-.002-.007.004-.017.002-.025.028-.338.034-.682.006-1.026-.002-.008-.001-.02-.003-.028a5.89 5.89 0 00-.173-1.01l1.021-.01c.03.11.052.22.075.332.02.103.037.21.054.32.013.092.023.19.036.282l.008.077c.003.008.002.02.004.028.002.054.007.103.009.156.006.082.009.17.007.253v.243c.001.08-.006.16-.013.242-.005.043-.01.086-.01.132.003.008-.003.018-.001.026-.001.025-.006.055-.007.08-.007.082-.019.16-.031.24-.014.083-.029.166-.041.245a4.386 4.386 0 01-.057.262l-.044.146c-.001.012-.009.027-.01.04-.012.033-.019.068-.028.096-.039.115-.079.23-.12.338a3.602 3.602 0 01-.213.443c-.392.688-.916 1.033-1.437 1.038l-1.021.01c.521-.006 1.045-.35 1.437-1.04a4.2 4.2 0 00.366-.873c-.003-.008-.002-.02.002-.038z" fill="#2062F5"/><path d="M391.677 17.747c1.22-2.133 2.835-3.208 4.457-3.223l1.021-.008c-1.622.014-3.234 1.084-4.457 3.222l-3.403 5.947-1.022.009 3.404-5.947z" fill="#F600B2"/><path d="M396.512 38.928c.005.002 0 0 0 0l1.022-.01c.005.004.012.001.012.001.046 0 .097.003.14.008.049.008.092.012.142.028l.141.04.005.004.005.002.137.059a.836.836 0 01.148.084c.05.029.097.062.141.1l-1.022.009a1.758 1.758 0 00-.426-.243 1.154 1.154 0 00-.445-.082zm1.515 6.075c.152-.267.273-.56.366-.874.001-.012.009-.027.01-.04.091-.31.147-.638.18-.973-.002-.008.003-.018.001-.026.029-.338.034-.682.007-1.026l-.004-.028a5.795 5.795 0 00-.173-1.01l1.022-.009c.03.109.052.22.079.334.02.103.037.211.054.32.013.092.023.19.036.282.004.028.002.054.009.077.002.008.001.02.003.028.003.054.013.106.015.16.006.081.009.168.007.252.001.08-.001.164-.001.243.001.08-.006.16-.013.242-.004.043-.009.086-.009.132.002.008-.004.018-.002.025-.001.026-.005.056-.007.082-.006.081-.018.16-.03.238-.015.084-.03.167-.041.245-.018.089-.035.177-.058.263l-.043.146c-.001.012-.01.027-.01.04-.012.032-.019.068-.028.096-.04.115-.079.23-.121.338a3.605 3.605 0 01-.212.443c-.392.688-.916 1.033-1.437 1.038l-1.022.01c.511-.012 1.03-.36 1.422-1.048z" fill="#2062F5"/><path d="M402.719 33.185c.094-.235.182-.48.261-.724.058-.17.12-.338.173-.511.052-.16.091-.322.138-.486.064-.226.127-.452.18-.684l.091-.401c.057-.263.11-.528.157-.796.016-.109.04-.22.056-.329.061-.372.112-.75.15-1.128l.013-.137c.036-.34.059-.681.078-1.025.008-.107.011-.216.015-.326.014-.326.022-.65.024-.976-.002-.067.002-.13 0-.197a26.445 26.445 0 00-.037-1.156 7.55 7.55 0 00-.024-.328 18.24 18.24 0 00-.075-.836c-.015-.146-.032-.3-.052-.45a22.786 22.786 0 00-.103-.694c-.033-.196-.061-.39-.097-.58-.033-.183-.075-.364-.111-.542a18.71 18.71 0 00-.219-.905c-.052-.187-.098-.37-.152-.552a14.596 14.596 0 00-.131-.416 13.585 13.585 0 00-.237-.679 16.165 16.165 0 00-.149-.393 15.934 15.934 0 00-.3-.696c-.051-.107-.093-.216-.144-.324a16.944 16.944 0 00-.505-.956 11.811 11.811 0 00-.749-1.115 5.012 5.012 0 00-.254-.315 11.524 11.524 0 00-.469-.536 5.847 5.847 0 00-.312-.315c-.097-.095-.2-.18-.3-.27-.132-.113-.269-.218-.401-.32-.079-.057-.157-.115-.234-.165a5.699 5.699 0 00-.534-.317l-.119-.068a12.568 12.568 0 00-.67-.263c-.055-.018-.113-.032-.169-.05a3.944 3.944 0 00-.532-.126 1.876 1.876 0 00-.171-.032 4.236 4.236 0 00-.695-.047l1.022-.01a4.723 4.723 0 01.595.037l.096.016c.056.006.114.02.167.03.089.017.175.027.263.044.094.02.179.056.269.081.055.018.113.032.169.05.032.012.063.016.09.025a4.71 4.71 0 01.569.245l.119.068c.137.071.273.142.409.226.045.026.084.06.125.091.082.053.16.11.239.169.074.055.148.097.224.16.063.05.121.109.182.163.103.085.198.171.3.269.056.051.11.095.166.146.051.05.098.115.151.172.16.17.316.344.469.536.056.064.114.123.169.188.031.037.057.084.085.127.257.343.508.708.749 1.115.181.305.347.623.506.956.05.107.098.22.148.327.1.227.2.455.297.687.052.128.099.266.153.402.082.224.164.448.236.679.046.138.09.28.133.423.024.086.055.169.083.257.026.093.046.197.072.29.078.3.151.598.219.905.023.098.049.192.066.287.019.083.027.173.045.255.036.191.069.387.102.583l.064.37c.017.109.022.216.039.325.02.149.035.295.052.45.011.097.026.197.038.302.018.175.027.357.038.534.009.11.018.22.025.335 0 .046.008.09.008.136.016.317.024.637.028.954l.001.066c.002.067-.002.13 0 .197-.002.222.002.447-.005.666-.001.104-.014.208-.014.313-.004.11-.012.216-.015.326-.008.094-.008.186-.015.28-.016.247-.04.496-.068.742-.005.043-.005.089-.013.137a.489.489 0 01-.002.038c-.032.31-.076.619-.118.923a1.666 1.666 0 00-.027.162c-.016.109-.04.22-.056.329-.026.15-.049.306-.08.453l-.075.338c-.03.133-.058.275-.093.406-.02.08-.037.169-.057.25-.036.143-.084.286-.12.43-.047.163-.089.33-.141.49-.018.055-.032.113-.05.168-.039.115-.081.223-.117.333-.083.249-.17.494-.264.729-.024.065-.046.138-.075.2-.029.063-.06.117-.086.174a12.908 12.908 0 01-.734 1.51l-3.404 5.947-1.021.01 3.403-5.948c.271-.475.51-.988.735-1.51a2.66 2.66 0 01.141-.398z" fill="#2062F5"/><path d="M401.707 15.965c-3.086-5.272-8.055-5.265-11.074.008l-3.404 5.946c-.764-.592-1.681-.353-2.298.732-.795 1.385-.783 3.634.034 5.024.816 1.389 2.121 1.39 2.915.006.619-1.078.741-2.674.39-3.982l3.403-5.947c2.465-4.297 6.511-4.297 9.018-.011 2.511 4.288 2.553 11.257.093 15.557l-3.403 5.947c-.765-.593-1.683-.361-2.306.721-.794 1.384-.78 3.642.037 5.031.816 1.39 2.12 1.39 2.915.006.619-1.077.741-2.674.39-3.982l3.403-5.947c3.025-5.27 2.972-13.845-.113-19.11zM341.759 62.53l7.392 4.114 6.665-4.13 28.055-49.169-6.711 4.13-7.346-4.114-28.055 49.169z" fill="#2062F5"/><path d="M383.872 13.345l-28.055 49.169 22.118 37.618 28.062-49.171-22.125-37.616z" fill="#D18AB7"/><path d="M369.813 13.361L341.759 62.53l22.122 37.62 28.058-49.173-22.126-37.616z" fill="#FF4AED"/><path d="M363.882 100.15l4.133-2.987 9.925 2.971 28.054-49.168-9.996-2.973-4.061 2.989-28.055 49.168z" fill="#2062F5"/><path d="M372.506 23.235a1.252 1.252 0 00-.435-.077l1.021-.009c.005.003.013 0 .013 0 .046 0 .097.003.14.008.048.008.091.013.137.025l.14.041.005.003.138.058a.818.818 0 01.143.082c.05.028.096.061.14.1l-1.021.008a1.542 1.542 0 00-.421-.24zm1.445 5.079a5.97 5.97 0 00.183-.979c-.002-.007.003-.017.001-.025.028-.338.034-.682.007-1.026-.003-.008-.002-.02-.004-.028a5.795 5.795 0 00-.173-1.01l1.022-.01c.03.11.052.22.074.332.02.103.037.211.054.32.013.092.023.19.036.282l.009.077c.002.008.001.02.003.028.002.054.008.103.01.156.006.082.009.17.007.253 0 .08-.002.164-.001.243.001.08-.006.16-.013.242a1.13 1.13 0 00-.009.132c.002.008-.004.018-.002.026-.001.025-.005.055-.007.08-.007.082-.018.16-.03.24-.015.083-.03.166-.042.245a4.386 4.386 0 01-.057.262l-.044.146c0 .012-.009.027-.009.04-.012.033-.019.068-.029.096-.039.115-.078.23-.12.338a3.616 3.616 0 01-.213.443c-.391.688-.915 1.033-1.436 1.038l-1.022.01c.521-.006 1.045-.35 1.437-1.04a4.18 4.18 0 00.366-.873c-.002-.008.001-.026.002-.038z" fill="#F600B2"/><path d="M377.374 19.302c1.22-2.133 2.835-3.207 4.457-3.223l1.021-.009c-1.621.015-3.234 1.085-4.456 3.223l-3.404 5.947-1.021.009 3.403-5.947zm4.837 21.181c.005.003.005.003 0 0l1.022-.01c.005.004.013.001.013.001.046 0 .097.003.14.008.048.008.091.013.141.028l.141.04.005.004.005.002.137.059a.887.887 0 01.149.084.899.899 0 01.14.1l-1.022.009a1.757 1.757 0 00-.426-.243l-.005-.002a1.2 1.2 0 00-.44-.08zm1.513 6.075c.153-.267.273-.56.366-.874.001-.012.01-.027.01-.04.086-.312.147-.638.18-.973-.002-.008.004-.018.001-.026.029-.338.035-.682.007-1.026-.002-.007-.001-.02-.004-.028a5.887 5.887 0 00-.172-1.01l1.021-.009c.03.109.052.22.079.334.02.103.037.211.055.32l.035.282c.004.028.003.054.009.077l.004.028c.002.054.012.106.014.16.006.081.009.168.007.252v.243c.001.08-.006.16-.013.242-.005.043-.01.086-.01.132.002.008-.003.018-.001.025-.002.026-.006.056-.007.082-.007.081-.019.16-.031.238a9.588 9.588 0 00-.041.246c-.018.088-.035.176-.058.262l-.043.146c-.001.012-.009.027-.01.04-.012.033-.019.068-.028.096-.04.115-.079.23-.12.338a3.602 3.602 0 01-.213.443c-.392.688-.916 1.033-1.437 1.038l-1.022.01c.514-.017 1.031-.36 1.422-1.048z" fill="#F600B2"/><path d="M388.416 34.74c.094-.235.181-.48.261-.724.057-.17.12-.338.172-.511.053-.16.092-.322.139-.486.063-.226.126-.452.18-.684l.09-.401c.058-.263.11-.528.158-.796.016-.109.04-.22.056-.329.06-.372.111-.75.155-1.125.004-.043.007-.094.012-.137a19.327 19.327 0 00.093-1.35 24.5 24.5 0 00.024-.977c-.001-.067.002-.13.001-.197-.005-.383-.015-.77-.038-1.156-.004-.107-.014-.218-.023-.328a18.14 18.14 0 00-.075-.836 17.828 17.828 0 00-.156-1.144c-.033-.196-.061-.39-.096-.58-.034-.183-.075-.364-.112-.542-.067-.308-.138-.61-.219-.905-.051-.187-.098-.37-.152-.552a14.504 14.504 0 00-.13-.416c-.072-.231-.155-.455-.237-.679a12.902 12.902 0 00-.45-1.089c-.05-.107-.093-.216-.143-.324a17.657 17.657 0 00-.505-.956 11.612 11.612 0 00-.75-1.115c-.08-.112-.167-.213-.253-.315a12.57 12.57 0 00-.469-.536 6.259 6.259 0 00-.313-.315c-.097-.095-.2-.18-.299-.27-.132-.114-.269-.218-.402-.32a5.326 5.326 0 00-.768-.482l-.119-.068a4.69 4.69 0 00-.659-.27c-.055-.019-.113-.032-.169-.05a3.96 3.96 0 00-.532-.126 1.947 1.947 0 00-.171-.032 4.852 4.852 0 00-.692-.052l1.022-.01c.02 0 .041-.002.058.001.176.002.36.014.537.037l.096.015c.056.006.114.019.167.03.089.017.175.027.263.044.094.02.179.056.269.081.055.018.113.032.168.05.033.012.063.016.091.025.18.064.36.14.539.228l.03.017.119.068c.136.071.273.142.409.226.044.025.083.06.125.091.082.053.16.11.239.169.073.055.148.097.223.16.064.049.122.108.183.163.103.084.198.171.3.268.056.052.11.096.165.147.051.049.099.115.152.172.16.17.316.343.469.535.055.065.114.124.169.188.031.038.057.085.085.127.257.344.508.71.749 1.115.18.306.347.624.505.957.051.107.098.22.149.327.1.227.2.455.297.687.052.128.098.266.152.402.083.223.165.447.237.679.046.137.09.28.133.423.024.085.055.169.083.257.026.093.046.197.069.295.078.3.151.598.219.905.023.098.049.192.066.287.019.083.027.172.045.255.036.191.069.387.102.583l.064.37c.017.109.022.216.039.324.02.15.035.296.052.45.011.098.026.198.038.303.018.175.027.357.038.533.009.11.018.22.025.336 0 .046.008.09.008.136.016.317.024.637.028.953l.001.067c.002.066-.001.13 0 .197-.002.221.002.446-.005.666-.001.104-.014.208-.014.313-.004.11-.012.216-.015.326-.008.094-.008.186-.015.28-.016.247-.04.495-.068.742-.005.043-.005.089-.013.137l-.002.038c-.032.31-.076.619-.118.923a1.668 1.668 0 00-.027.162c-.016.109-.04.22-.056.329-.026.149-.049.306-.08.452l-.075.338c-.03.134-.058.276-.093.406-.022.086-.037.17-.057.25-.035.144-.084.287-.12.43-.047.164-.089.33-.141.49-.018.056-.032.114-.05.169-.039.115-.081.223-.117.333-.083.248-.17.494-.264.729-.024.065-.046.138-.075.2-.029.062-.06.117-.086.174a12.916 12.916 0 01-.734 1.51l-3.404 5.947-1.021.009 3.403-5.947c.271-.475.51-.988.735-1.51.02-.14.078-.264.126-.394z" fill="#2062F5"/><path d="M387.411 17.523c-3.087-5.272-8.055-5.265-11.075.008l-3.404 5.946c-.764-.592-1.681-.353-2.298.732-.794 1.385-.783 3.634.034 5.024.816 1.389 2.121 1.39 2.915.005.619-1.077.741-2.674.39-3.982l3.401-5.954c2.46-4.3 6.508-4.292 9.015-.006 2.511 4.288 2.553 11.257.094 15.557l-3.404 5.947c-.764-.592-1.683-.361-2.305.721-.795 1.385-.781 3.642.036 5.031.816 1.39 2.121 1.39 2.915.006.619-1.077.741-2.674.39-3.982l3.403-5.947c3.028-5.275 2.972-13.845-.107-19.106z" fill="#2062F5"/><path d="M395.999 47.993l-4.058 2.984-28.058 49.173 4.133-2.987 27.983-49.17zm-26.185-34.632l6.749 3.781-2.233 3.89-4.516-7.67z" fill="#32B5F7"/></g><g opacity=".2" clip-path="url(#clip1)"><path d="M71.62 161.208a.638.638 0 01.224-.039l-.528-.005h-.006a.843.843 0 00-.073.004c-.025.004-.047.007-.07.013l-.073.021-.003.002-.002.001-.071.03a.422.422 0 00-.074.043.4.4 0 00-.073.051l.528.005a.81.81 0 01.22-.126zm-.747 2.626a3.048 3.048 0 01-.095-.506v-.013a3.233 3.233 0 01-.004-.53l.002-.015c.014-.177.046-.355.09-.522l-.529-.005c-.015.057-.026.114-.038.171-.01.054-.02.11-.028.166l-.019.146-.004.04c-.001.004 0 .01-.002.014l-.005.081a1.413 1.413 0 00-.003.131v.125c0 .041.003.083.007.125.002.023.004.045.004.069 0 .004.002.009.001.013 0 .013.003.029.004.042.003.042.01.082.016.123l.021.127c.009.046.018.091.03.136l.022.075c0 .006.005.014.005.021.007.017.01.035.015.049a1.875 1.875 0 00.172.404c.203.356.473.534.743.537l.528.004c-.27-.002-.54-.18-.743-.536a2.174 2.174 0 01-.19-.452.048.048 0 000-.02z" fill="#2062F5"/><path d="M69.102 159.175c-.63-1.102-1.465-1.658-2.304-1.666l-.528-.005c.839.008 1.672.561 2.304 1.666l1.76 3.075.528.004-1.76-3.074z" fill="#F600B2"/><path d="M66.602 170.125c-.002.002 0 0 0 0l-.528-.004h-.007a.57.57 0 00-.072.004c-.025.004-.047.006-.073.014a9.392 9.392 0 00-.073.022l-.002.001-.003.001-.07.031a.476.476 0 00-.078.043.458.458 0 00-.072.052l.528.004a.906.906 0 01.22-.125.612.612 0 01.23-.043zm-.782 3.141a2.143 2.143 0 01-.19-.451c0-.007-.004-.015-.005-.021a2.768 2.768 0 01-.093-.503v-.013a3.244 3.244 0 01-.004-.531c.001-.004 0-.01.002-.015.014-.177.046-.354.09-.522l-.529-.004c-.015.056-.027.113-.04.172-.011.053-.02.109-.029.165l-.018.146c-.002.015-.001.028-.005.04 0 .004 0 .011-.002.015 0 .028-.006.054-.007.082a1.432 1.432 0 00-.004.131v.125c0 .041.004.083.007.125a.521.521 0 01.005.069c0 .004.002.009.001.013 0 .013.003.029.004.042.003.042.01.083.015.123.008.043.016.086.022.127.009.046.018.091.03.136l.022.075c0 .007.005.014.005.021l.015.049a1.89 1.89 0 00.172.404c.202.356.473.534.743.537l.528.005c-.265-.006-.533-.186-.735-.542z" fill="#2062F5"/><path d="M63.393 167.156a5.896 5.896 0 01-.135-.374c-.03-.088-.062-.175-.089-.264-.027-.083-.047-.167-.072-.251a7.842 7.842 0 01-.093-.354l-.046-.207c-.03-.136-.057-.273-.082-.412-.008-.056-.02-.113-.029-.17a9.434 9.434 0 01-.077-.583l-.007-.071a10.1 10.1 0 01-.04-.53 12.893 12.893 0 01-.02-.673v-.102a13.027 13.027 0 01.031-.767 9.672 9.672 0 01.066-.665c.016-.121.033-.239.053-.359.017-.101.032-.201.05-.299.017-.095.039-.189.058-.281.035-.159.071-.315.113-.468.027-.096.05-.191.079-.285.022-.074.043-.144.067-.215.037-.119.08-.235.123-.351a6.619 6.619 0 01.232-.563c.026-.055.048-.112.074-.167.083-.17.17-.334.261-.495a6.119 6.119 0 01.519-.739 5.69 5.69 0 01.404-.44c.05-.049.103-.093.155-.139.068-.059.139-.113.207-.166a2.88 2.88 0 01.397-.249 1.92 1.92 0 01.062-.035 6.11 6.11 0 01.346-.136c.029-.01.059-.017.087-.026a1.93 1.93 0 01.275-.065 2.159 2.159 0 01.448-.041l-.528-.005a2.601 2.601 0 00-.308.019l-.05.008c-.029.003-.059.01-.086.015-.046.009-.09.014-.136.023-.048.011-.092.029-.139.042-.028.01-.058.017-.087.026-.017.006-.032.008-.047.013a2.504 2.504 0 00-.279.118l-.015.009-.061.035c-.071.037-.142.073-.212.117-.023.013-.043.031-.065.047-.042.027-.082.057-.123.087-.038.028-.077.05-.116.083-.033.025-.063.056-.094.084a3.095 3.095 0 00-.155.139c-.029.026-.057.049-.086.076-.026.025-.05.059-.078.088a4.645 4.645 0 00-.242.277c-.03.034-.06.064-.088.097-.016.02-.029.044-.044.066a6.49 6.49 0 00-.387.577 6.07 6.07 0 00-.261.494l-.077.169a23.78 23.78 0 00-.154.356c-.027.066-.05.137-.078.207-.043.116-.086.232-.123.351-.024.071-.046.145-.069.219-.012.044-.028.087-.043.133-.013.048-.023.101-.036.15-.04.155-.079.309-.114.468-.012.051-.025.099-.034.148-.01.043-.014.089-.023.132-.019.099-.036.2-.053.301l-.033.192c-.009.056-.011.111-.02.167-.01.077-.018.153-.027.233-.005.05-.013.102-.02.157-.01.09-.013.184-.02.275-.004.057-.009.114-.012.174 0 .023-.004.046-.004.07-.009.164-.013.329-.015.493v.136c0 .115-.001.231.002.344 0 .054.007.108.008.162.001.057.006.112.007.169.004.048.004.096.008.144.008.128.02.257.035.384.003.022.003.046.007.071v.02c.017.16.04.32.062.477l.014.084c.008.056.02.113.029.17.013.077.025.158.041.234l.039.174c.015.069.03.143.048.21l.03.129c.018.075.043.148.061.223.025.084.047.17.073.253.01.029.017.059.026.087.02.06.042.115.06.172.043.129.088.256.137.377.013.034.024.072.039.104l.044.09c.114.271.238.536.38.781l1.76 3.074.528.005-1.76-3.075a7.886 7.886 0 01-.38-.781 1.466 1.466 0 00-.073-.206z" fill="#2062F5"/><path d="M63.917 158.254c1.596-2.726 4.165-2.722 5.726.004l1.76 3.074c.395-.306.869-.182 1.188.379.41.715.405 1.878-.018 2.597-.422.718-1.096.718-1.507.003-.32-.557-.383-1.383-.201-2.059l-1.76-3.074c-1.274-2.222-3.366-2.222-4.662-.006-1.298 2.217-1.32 5.82-.048 8.043l1.76 3.074c.395-.306.87-.186 1.191.373.41.716.404 1.883-.018 2.601-.422.719-1.097.719-1.508.003-.32-.557-.383-1.382-.201-2.058l-1.76-3.075c-1.563-2.724-1.536-7.158.058-9.879zm30.993 24.074l-3.821 2.127-3.446-2.136-14.504-25.42 3.47 2.136 3.797-2.127 14.504 25.42z" fill="#2062F5"/><path d="M73.14 156.899l14.503 25.42-11.434 19.449L61.7 176.346l11.44-19.447z" fill="#D18AB7"/><path d="M80.407 156.908l14.504 25.42-11.437 19.449-14.506-25.422 11.439-19.447z" fill="#FF4AED"/><path d="M83.473 201.777l-2.137-1.544-5.13 1.536-14.505-25.42 5.168-1.537 2.1 1.545 14.504 25.42z" fill="#2062F5"/><path d="M79.014 162.012a.639.639 0 01.225-.039l-.528-.005h-.007a.845.845 0 00-.072.004c-.025.004-.047.007-.07.013l-.073.021-.003.002-.071.03a.42.42 0 00-.074.042.462.462 0 00-.073.052l.528.004a.803.803 0 01.218-.124zm-.747 2.626a3.048 3.048 0 01-.094-.506c.001-.004-.002-.009 0-.013a3.244 3.244 0 01-.004-.53c0-.004 0-.011.002-.015.014-.177.045-.355.09-.522l-.53-.005a4.943 4.943 0 00-.066.337c-.006.047-.011.098-.018.146l-.005.04-.001.014-.005.081a1.413 1.413 0 00-.004.131v.125c0 .041.003.083.007.125a.583.583 0 01.005.069c-.001.004.002.009 0 .013.001.013.004.029.004.042.004.042.01.082.016.123l.022.127c.008.046.018.091.03.136l.022.075c0 .006.005.014.005.021.006.017.01.035.014.049.02.06.041.119.063.175.032.08.069.157.11.229.202.356.473.534.742.537l.529.004c-.27-.002-.54-.18-.743-.536a2.174 2.174 0 01-.19-.452v-.02z" fill="#F600B2"/><path d="M76.499 159.979c-.63-1.103-1.466-1.658-2.304-1.666l-.529-.005c.839.008 1.672.561 2.305 1.666l1.76 3.075.527.004-1.76-3.074zm-2.5 10.95c-.003.002-.003.002 0 0l-.528-.004h-.007a.57.57 0 00-.072.004c-.025.004-.048.006-.073.014l-.073.022-.003.001-.002.001-.071.031a.481.481 0 00-.077.043.461.461 0 00-.073.052l.529.004a.907.907 0 01.22-.125l.002-.001a.64.64 0 01.228-.042zm-.785 3.141a2.143 2.143 0 01-.19-.451c0-.007-.004-.015-.004-.021a3.05 3.05 0 01-.093-.503c0-.004-.002-.01 0-.014a3.243 3.243 0 01-.004-.53c0-.004 0-.011.002-.015.014-.177.045-.354.089-.522l-.528-.004c-.016.056-.027.113-.041.172-.01.053-.02.109-.028.165l-.019.146c-.002.015 0 .028-.004.04-.001.004 0 .011-.002.015-.001.028-.006.054-.007.082a1.388 1.388 0 00-.004.131v.125c0 .041.003.083.007.125.002.023.005.045.005.069-.001.004.002.009 0 .013l.004.042c.004.042.01.083.016.123l.021.127c.01.046.018.091.03.136l.023.075c0 .007.004.014.005.021.006.017.01.035.014.049a1.89 1.89 0 00.172.404c.203.356.474.534.743.537l.528.005c-.265-.009-.532-.186-.735-.542z" fill="#F600B2"/><path d="M70.79 167.96a5.834 5.834 0 01-.135-.374c-.03-.088-.063-.175-.09-.264-.027-.083-.047-.167-.071-.251a7.71 7.71 0 01-.093-.354l-.047-.207c-.03-.136-.057-.273-.082-.412-.008-.056-.02-.114-.028-.17a12.083 12.083 0 01-.08-.582l-.007-.07c-.019-.176-.03-.353-.04-.53-.005-.055-.006-.112-.008-.169a13.042 13.042 0 01-.013-.505v-.101c.003-.198.008-.398.02-.598a9.732 9.732 0 01.078-.834c.016-.121.033-.24.053-.359.017-.102.031-.201.05-.3.017-.095.038-.188.057-.28.035-.159.072-.316.114-.468.026-.097.05-.192.078-.286.023-.073.044-.143.068-.214.037-.12.08-.236.122-.352.025-.068.05-.137.078-.203.049-.123.1-.24.155-.359.026-.056.048-.112.074-.168a5.99 5.99 0 01.649-1.071c.041-.058.086-.11.13-.163.081-.096.16-.189.243-.277.052-.057.106-.111.162-.163.05-.049.103-.092.154-.139.069-.059.14-.113.208-.165a2.869 2.869 0 01.397-.25l.061-.035c.114-.058.227-.102.341-.14l.087-.025a1.99 1.99 0 01.275-.065 2.535 2.535 0 01.446-.044l-.527-.005a2.601 2.601 0 00-.358.027c-.029.003-.059.01-.086.015-.046.01-.09.015-.136.024-.049.01-.092.028-.14.041-.028.01-.058.017-.086.026-.017.006-.033.009-.047.013a2.497 2.497 0 00-.294.127l-.062.035c-.07.037-.14.074-.211.117-.023.013-.043.031-.065.047a2.1 2.1 0 00-.123.087c-.038.028-.077.05-.116.083-.033.025-.063.056-.094.084a3.095 3.095 0 00-.155.139c-.03.027-.057.049-.086.076-.026.025-.05.059-.078.089a4.091 4.091 0 00-.243.277c-.028.033-.058.063-.087.097-.016.019-.03.043-.044.065a6.512 6.512 0 00-.387.577c-.094.158-.18.322-.262.494-.026.056-.05.114-.076.169-.052.118-.104.236-.154.356-.027.066-.05.137-.079.207-.042.116-.085.232-.122.351a8.651 8.651 0 00-.069.219c-.012.044-.028.087-.043.133-.013.048-.023.102-.035.152-.04.156-.079.31-.114.468-.011.051-.025.099-.034.149-.01.043-.014.089-.023.132-.019.098-.036.2-.053.301l-.033.192c-.009.056-.011.111-.02.167-.01.077-.018.153-.027.232-.005.051-.013.103-.02.157-.01.091-.013.184-.019.276-.005.057-.01.114-.013.173 0 .024-.004.047-.004.071-.008.164-.013.329-.015.493v.136c0 .114-.001.231.002.344 0 .054.007.108.008.162.001.057.006.112.007.168.005.049.004.097.008.145.008.128.02.257.035.384.003.022.003.046.007.071v.019c.017.161.04.32.062.478a.718.718 0 01.014.083c.008.057.02.114.029.17.013.077.026.159.041.234l.039.175c.015.069.03.142.048.21.012.044.02.087.03.129.018.074.043.148.062.222.024.085.046.171.073.254l.025.087c.02.06.042.115.061.172.043.129.088.256.136.377.013.034.024.071.039.104.015.032.031.06.044.09.114.271.238.536.38.78l1.76 3.075.528.004-1.76-3.074a7.886 7.886 0 01-.38-.781c-.01-.072-.04-.136-.064-.204z" fill="#2062F5"/><path d="M71.31 159.059c1.596-2.725 4.165-2.722 5.726.004l1.76 3.075c.395-.307.868-.183 1.188.378.41.716.404 1.879-.018 2.597-.422.718-1.096.719-1.507.003-.32-.557-.383-1.382-.202-2.059l-1.758-3.078c-1.272-2.223-3.365-2.219-4.66-.003-1.299 2.217-1.32 5.82-.05 8.043l1.76 3.074c.396-.306.87-.186 1.192.373.411.716.404 1.883-.018 2.601-.422.719-1.097.719-1.507.003-.32-.557-.383-1.382-.202-2.058l-1.76-3.075c-1.565-2.727-1.536-7.158.056-9.878z" fill="#2062F5"/><path d="M66.87 174.812l2.098 1.543 14.505 25.422-2.136-1.544-14.468-25.421zm13.536-17.904l-3.49 1.954 1.155 2.012 2.335-3.966z" fill="#32B5F7"/></g><g opacity=".1" clip-path="url(#clip2)"><path d="M104.181 633.614c.2.156.362.324.486.524l-.884-1.397a2.02 2.02 0 00-.145-.2c-.053-.059-.097-.113-.154-.164l-.179-.155-.008-.004-.008-.005-.2-.135a1.337 1.337 0 00-.237-.124 1.427 1.427 0 00-.259-.103l.885 1.397c.274.091.499.219.703.366zm-8.172 2.492a9.504 9.504 0 011.17-1.107c.012-.004.02-.02.033-.024.434-.335.897-.645 1.389-.909.012-.004.029-.016.041-.02a9.432 9.432 0 011.525-.651l-.884-1.397c-.174.055-.344.122-.515.189-.158.064-.32.135-.482.207-.137.063-.278.135-.416.199l-.112.056c-.012.004-.03.016-.041.02-.076.044-.146.08-.221.124a4.248 4.248 0 00-.35.213c-.109.068-.221.145-.33.213a3.975 3.975 0 00-.317.23c-.054.044-.109.089-.171.129-.013.004-.021.02-.034.024-.033.024-.07.057-.104.081-.105.081-.201.166-.297.251-.101.093-.202.186-.298.271-.105.102-.21.203-.306.309l-.16.187c-.017.012-.03.036-.046.048-.034.045-.076.086-.105.122-.123.155-.245.31-.355.461-.156.22-.296.449-.415.678-.593 1.137-.601 2.151-.151 2.864l.884 1.397c-.45-.713-.442-1.728.151-2.865.23-.441.522-.861.867-1.264a.154.154 0 00.05-.036z" fill="#2062F5"/><path d="M105.256 623.546c1.829-3.53 1.873-6.669.47-8.887l-.884-1.396c1.403 2.218 1.363 5.348-.47 8.886l-5.099 9.845.885 1.396 5.098-9.844z" fill="#F600B2"/><path d="M72.218 635.555c-.008-.004 0 0 0 0l-.884-1.396c-.008-.005-.012-.017-.012-.017a2.105 2.105 0 00-.133-.184c-.053-.058-.097-.113-.162-.167a7.904 7.904 0 00-.18-.156l-.008-.004-.008-.005c-.06-.042-.13-.088-.2-.135a1.397 1.397 0 00-.245-.128 1.434 1.434 0 00-.258-.103l.884 1.397c.263.095.5.218.704.366.212.152.378.332.502.532zm-9.588 3.273a6.73 6.73 0 01.866-1.265c.017-.012.03-.036.046-.049a8.66 8.66 0 011.166-1.098c.012-.004.02-.02.033-.024.435-.335.898-.645 1.389-.909.013-.004.03-.016.042-.02a9.426 9.426 0 011.525-.651l-.885-1.397c-.174.055-.344.122-.523.185-.157.063-.32.135-.482.207-.137.063-.278.135-.416.199-.041.02-.075.044-.112.056-.012.004-.029.016-.041.02-.075.044-.154.075-.23.12a4.547 4.547 0 00-.35.212c-.108.069-.22.145-.329.214-.108.068-.213.149-.317.229a1.73 1.73 0 01-.172.129c-.012.004-.02.021-.033.025-.033.024-.071.056-.104.08-.105.081-.201.166-.297.251-.101.093-.202.187-.298.272-.105.101-.21.202-.306.308l-.16.187c-.017.012-.03.037-.046.049-.034.045-.076.085-.105.122a14.34 14.34 0 00-.355.46c-.156.22-.296.449-.415.678-.593 1.137-.601 2.152-.151 2.865l.884 1.396c-.434-.704-.417-1.714.175-2.851z" fill="#2062F5"/><path d="M74.58 622.08c.237-.334.494-.668.755-.99.182-.228.355-.46.544-.684.173-.211.358-.406.538-.614.253-.284.505-.569.774-.845l.465-.475c.307-.308.621-.612.944-.912.134-.117.264-.247.398-.365.452-.409.921-.809 1.402-1.193.054-.045.121-.093.175-.138.431-.347.874-.678 1.325-1.005.138-.105.284-.205.43-.306.43-.306.864-.6 1.306-.89.092-.056.175-.117.267-.173a42.375 42.375 0 011.604-.963c.15-.088.308-.172.467-.256.395-.221.795-.428 1.203-.632a32.027 32.027 0 011.692-.793c.295-.127.582-.258.872-.377.279-.115.56-.218.835-.324.477-.178.95-.347 1.423-.496.299-.094.59-.193.884-.278.232-.067.451-.129.68-.187.376-.105.753-.19 1.13-.274.224-.05.447-.1.667-.142.405-.079.802-.143 1.208-.202.19-.026.376-.064.566-.09a28.298 28.298 0 011.744-.152 19.175 19.175 0 012.173.04c.223.012.437.041.651.069.391.048.77.099 1.14.167.238.042.473.091.703.148.213.049.419.115.628.172.271.079.533.174.788.265.147.056.295.112.43.172.315.133.61.286.9.448l.196.102c.331.224.649.453.946.68.073.059.142.126.216.185.232.194.439.395.637.613.069.067.13.13.195.206.247.284.477.581.674.902l-.885-1.397a.386.386 0 00-.052-.079 7.53 7.53 0 00-.521-.698l-.105-.117c-.056-.071-.125-.138-.186-.201-.102-.105-.191-.214-.292-.318-.11-.11-.232-.194-.346-.295-.073-.059-.142-.126-.215-.185-.045-.034-.077-.072-.114-.101a7.68 7.68 0 00-.783-.533l-.049-.025a18.588 18.588 0 00-.197-.103 10.231 10.231 0 00-.666-.357c-.074-.039-.156-.061-.234-.091-.143-.064-.291-.12-.438-.176-.14-.052-.262-.116-.414-.164-.123-.043-.255-.07-.382-.105a8.3 8.3 0 00-.628-.172c-.119-.031-.226-.066-.345-.096-.111-.027-.243-.033-.366-.056a14.19 14.19 0 00-1.14-.168c-.136-.018-.268-.045-.404-.064-.078-.01-.165-.003-.247-.004a20.111 20.111 0 00-2.173-.041c-.574.024-1.153.076-1.744.153-.19.025-.385.059-.575.085-.397.064-.794.127-1.195.199-.22.041-.448.099-.68.145-.376.085-.753.169-1.13.274-.228.058-.46.124-.692.191-.137.043-.278.073-.423.112-.15.047-.307.111-.456.158-.477.157-.946.318-1.424.496-.153.055-.302.102-.448.161-.129.048-.258.116-.386.163-.291.119-.586.246-.881.373l-.56.238c-.163.072-.313.16-.475.232-.22.103-.433.211-.657.323-.142.072-.291.139-.445.215-.254.128-.508.276-.758.416-.158.084-.316.168-.479.261-.062.04-.129.068-.191.108a36.68 36.68 0 00-1.322.799c-.029.016-.062.04-.091.056-.092.056-.175.117-.267.173-.3.197-.609.39-.901.591-.142.093-.272.202-.413.294-.146.101-.284.206-.43.307-.122.093-.247.173-.368.266-.322.238-.64.488-.949.743-.054.045-.117.085-.175.137l-.05.037c-.394.315-.775.647-1.151.971-.063.06-.126.121-.197.178-.134.117-.264.247-.398.364-.18.167-.373.337-.545.507l-.394.398c-.156.158-.323.32-.47.483-.093.097-.198.199-.29.296-.164.175-.316.366-.48.541-.18.207-.37.41-.542.622-.059.073-.126.142-.185.215-.122.155-.232.306-.35.453-.265.329-.523.663-.76.998-.067.089-.147.183-.206.277-.06.093-.106.183-.161.269a20.895 20.895 0 00-1.409 2.324l-5.098 9.845.884 1.396 5.099-9.844c.409-.785.896-1.561 1.408-2.324.164-.175.29-.358.418-.542z" fill="#2062F5"/><path d="M98.877 608.345c9.875-.43 14.225 6.33 9.707 15.063l-5.099 9.844c1.477.52 1.956 1.976 1.022 3.767-1.185 2.295-4.254 4.252-6.859 4.362-2.605.109-3.75-1.664-2.566-3.958.921-1.788 2.985-3.354 5.072-4.024l5.098-9.845c3.679-7.121.128-12.621-7.897-12.269-8.034.349-17.545 6.407-21.233 13.523l-5.098 9.845c1.476.519 1.968 1.972 1.043 3.767-1.185 2.295-4.267 4.256-6.872 4.365-2.605.11-3.75-1.663-2.566-3.957.921-1.788 2.985-3.354 5.072-4.025l5.098-9.844c4.51-8.737 16.215-16.189 26.078-16.614zM88.174 730.701l-12.078-6.439-.234-12.685 42.228-81.282.274 12.748 12.039 6.377-42.229 81.281z" fill="#2062F5"/><path d="M118.089 630.295l-42.228 81.282-70.547 2.938 42.224-81.294 70.551-2.926z" fill="#D18AB7"/><path d="M130.402 649.419l-42.228 81.282-70.556 2.935 42.232-81.291 70.552-2.926z" fill="#FF4AED"/><path d="M17.618 733.636l.434-8.24-12.747-10.885 42.229-81.282 12.811 10.981-.499 8.144-42.228 81.282z" fill="#2062F5"/><path d="M114.619 654.424c.199.156.361.324.486.524l-.884-1.397c-.009-.004-.012-.017-.012-.017a2.35 2.35 0 00-.134-.184c-.052-.058-.097-.113-.154-.163-.056-.05-.113-.101-.179-.156l-.008-.004c-.061-.042-.13-.089-.2-.135a1.303 1.303 0 00-.237-.124 1.375 1.375 0 00-.258-.103l.884 1.397c.267.087.492.214.696.362zm-8.173 2.491c.349-.39.743-.767 1.17-1.106.012-.004.021-.021.033-.025.435-.335.898-.645 1.389-.909.013-.004.029-.016.042-.02a9.486 9.486 0 011.525-.651l-.885-1.397c-.174.055-.344.123-.514.19-.158.063-.32.135-.482.206-.137.064-.279.136-.416.2-.042.02-.071.036-.112.055-.013.004-.03.016-.042.02-.075.045-.146.08-.221.125a4.725 4.725 0 00-.35.212c-.108.069-.221.145-.329.214-.109.068-.213.149-.318.229a1.783 1.783 0 01-.171.13c-.012.003-.021.02-.033.024-.034.024-.071.056-.105.08a6.134 6.134 0 00-.297.251c-.101.094-.201.187-.297.272-.105.101-.21.202-.307.308-.054.065-.105.122-.16.187-.016.012-.029.037-.046.049-.034.045-.075.085-.105.122-.122.155-.244.309-.354.46-.156.22-.296.449-.416.678-.592 1.137-.601 2.152-.151 2.865l.884 1.396c-.45-.712-.441-1.727.151-2.864.231-.442.522-.862.867-1.265.013-.003.034-.024.05-.036z" fill="#F600B2"/><path d="M115.694 644.355c1.828-3.529 1.873-6.668.47-8.886l-.884-1.397c1.402 2.218 1.362 5.349-.471 8.887l-5.098 9.844.884 1.397 5.099-9.845zm-33.038 12.01c-.009-.004-.009-.004 0 0l-.885-1.397a1.964 1.964 0 00-.145-.2c-.052-.059-.097-.113-.162-.168-.057-.05-.114-.101-.179-.156l-.008-.004-.008-.004c-.061-.042-.13-.089-.2-.135a1.333 1.333 0 00-.246-.128 1.437 1.437 0 00-.258-.104l.885 1.397c.262.095.5.219.703.367l.008.004c.204.148.362.324.495.528zm-9.589 3.272c.23-.442.522-.862.867-1.264.017-.012.03-.037.046-.049a9.6 9.6 0 011.165-1.099c.013-.003.021-.02.034-.024.434-.335.897-.645 1.388-.909.013-.004.03-.016.042-.02a9.516 9.516 0 011.525-.651l-.884-1.397c-.174.055-.345.122-.523.185-.158.064-.32.135-.482.207-.137.064-.279.136-.416.199-.042.02-.075.044-.112.056-.013.004-.03.016-.042.02-.075.044-.154.076-.229.12a4.265 4.265 0 00-.35.213c-.108.068-.221.145-.33.213-.108.068-.212.149-.317.23-.054.044-.108.089-.171.129-.013.004-.021.02-.033.024-.034.024-.072.057-.105.081-.104.081-.2.166-.297.251-.1.093-.201.186-.297.271-.105.102-.21.203-.307.309l-.16.187c-.016.012-.03.036-.046.048-.034.045-.076.086-.105.122-.122.155-.244.31-.354.461a5.81 5.81 0 00-.416.677c-.592 1.137-.601 2.152-.15 2.865l.883 1.397c-.43-.713-.416-1.715.176-2.852z" fill="#F600B2"/><path d="M85.018 642.89c.236-.335.493-.669.755-.99.18-.228.354-.46.543-.684.173-.212.358-.407.539-.614.252-.285.504-.569.773-.845l.466-.475c.306-.308.62-.613.943-.913.134-.117.264-.247.398-.364.452-.409.921-.81 1.394-1.198.054-.044.121-.093.175-.137.431-.348.874-.679 1.325-1.005.138-.105.284-.206.43-.307.43-.306.864-.6 1.306-.89.092-.056.175-.116.267-.173a42.375 42.375 0 011.604-.963c.15-.088.308-.172.467-.256.395-.22.795-.428 1.202-.632.213-.108.437-.219.658-.323.345-.163.686-.318 1.035-.469.295-.128.582-.259.872-.378.279-.115.561-.217.835-.324.477-.178.95-.347 1.423-.496.299-.094.589-.192.884-.278.232-.066.451-.129.679-.187.377-.105.754-.189 1.131-.274.224-.05.447-.1.667-.141.405-.08.802-.144 1.208-.203.19-.026.376-.064.566-.09.587-.068 1.166-.12 1.744-.152a18.938 18.938 0 012.173.041c.223.011.437.04.651.068.391.048.77.1 1.14.168.238.041.473.09.703.148.213.049.419.114.628.171.271.079.533.174.788.265.147.056.295.112.43.172.315.133.61.287.9.448l.196.102c.344.2.653.424.946.66.074.059.143.126.216.185.232.194.439.395.637.613.069.067.13.13.195.205.247.285.477.582.678.894l-.884-1.396c-.016-.029-.032-.059-.052-.08a7.843 7.843 0 00-.521-.697c-.032-.038-.073-.08-.105-.117-.057-.072-.126-.139-.187-.202-.101-.104-.19-.213-.291-.318-.11-.109-.232-.194-.346-.295-.073-.059-.142-.126-.216-.185-.044-.033-.077-.071-.113-.101a7.8 7.8 0 00-.784-.532l-.049-.026-.196-.102a10.02 10.02 0 00-.666-.358c-.074-.038-.156-.06-.234-.091a8.032 8.032 0 00-.439-.176c-.139-.052-.262-.116-.414-.164-.123-.043-.254-.07-.381-.105a8.978 8.978 0 00-.629-.171c-.119-.031-.226-.066-.345-.097-.111-.027-.242-.033-.366-.056-.37-.068-.744-.128-1.14-.167-.136-.019-.267-.046-.403-.065-.078-.009-.165-.002-.247-.004a20.132 20.132 0 00-2.174-.04c-.574.023-1.152.075-1.743.152-.19.026-.385.06-.575.085-.397.064-.794.127-1.196.199-.219.042-.447.1-.679.146-.377.084-.753.168-1.131.274-.227.058-.459.124-.692.19-.136.043-.277.074-.422.113-.15.047-.307.11-.461.165-.477.157-.946.319-1.423.496-.154.055-.303.102-.449.162-.128.047-.257.115-.386.163a53.6 53.6 0 00-.88.373l-.562.238c-.162.071-.312.16-.474.231-.22.104-.432.212-.657.323-.141.072-.291.14-.445.216-.254.127-.508.276-.758.416-.158.084-.316.168-.478.26-.063.04-.13.068-.192.108-.446.257-.888.526-1.321.799-.03.016-.063.04-.092.056-.092.057-.175.117-.267.173-.3.198-.609.39-.9.592-.143.092-.272.202-.414.294-.146.101-.284.206-.43.306-.121.093-.246.174-.368.267a23.3 23.3 0 00-.948.743c-.055.044-.117.084-.176.137l-.05.036c-.393.316-.774.647-1.15.971a2.552 2.552 0 01-.198.178c-.134.118-.264.248-.398.365-.18.166-.372.336-.544.507-.13.129-.265.267-.395.397-.155.159-.323.321-.47.483-.097.106-.197.199-.29.297-.163.174-.315.366-.479.54-.18.208-.37.411-.542.622-.06.074-.127.143-.186.216-.122.155-.232.306-.35.452-.265.33-.522.664-.759.998-.067.09-.147.183-.207.277-.059.094-.106.184-.16.27a20.803 20.803 0 00-1.41 2.324l-5.098 9.844.885 1.397 5.098-9.845a24.68 24.68 0 011.408-2.323c.172-.15.29-.338.426-.517z" fill="#2062F5"/><path d="M109.306 629.15c9.875-.429 14.226 6.331 9.707 15.063l-5.098 9.844c1.476.52 1.955 1.976 1.022 3.767-1.185 2.295-4.254 4.253-6.859 4.362-2.605.109-3.751-1.664-2.566-3.958.921-1.787 2.985-3.354 5.071-4.024l5.111-9.849c3.687-7.116.124-12.613-7.901-12.26-8.034.348-17.545 6.406-21.233 13.523l-5.098 9.844c1.476.52 1.968 1.972 1.042 3.768-1.185 2.294-4.266 4.256-6.871 4.365-2.605.109-3.751-1.663-2.566-3.958.921-1.787 2.985-3.353 5.071-4.024l5.099-9.845c4.515-8.744 16.215-16.189 26.069-16.618z" fill="#2062F5"/><path d="M60.346 644.21l-.495 8.135-42.232 81.291.434-8.24 42.293-81.186zm70.057 5.21l-11.061-5.858-3.33 6.45 14.391-.592z" fill="#32B5F7"/></g><g opacity=".1" clip-path="url(#clip3)"><path d="M364.701 415.977a1.467 1.467 0 00-.356.384l.648-1.024c.006-.003.009-.013.009-.013a1.71 1.71 0 01.098-.134c.038-.043.071-.083.113-.12.041-.037.083-.074.131-.114l.006-.003.006-.003.146-.1a.956.956 0 01.174-.09.97.97 0 01.189-.076l-.648 1.024c-.201.067-.366.16-.516.269zm5.992 1.826a7.111 7.111 0 00-.857-.811c-.009-.003-.016-.015-.025-.018a7.337 7.337 0 00-1.018-.666c-.009-.003-.021-.012-.03-.015a6.893 6.893 0 00-1.118-.477l.648-1.024c.128.04.252.089.377.138.116.047.235.099.354.152l.304.146.083.041c.009.003.021.012.03.015.055.032.107.058.162.091.086.047.174.1.257.156l.241.156c.08.05.156.109.233.168.04.033.08.066.126.095.009.003.015.015.024.018l.077.059c.076.059.147.122.218.184.073.068.147.137.218.199.076.074.153.149.224.226l.117.137c.013.009.022.027.034.036.025.033.056.063.077.089.09.114.18.227.26.338.115.161.217.329.305.497.434.833.441 1.577.111 2.1l-.649 1.024c.33-.523.324-1.267-.11-2.1a4.932 4.932 0 00-.636-.927.121.121 0 01-.037-.027z" fill="#2062F5"/><path d="M363.914 408.595c-1.341-2.588-1.373-4.889-.345-6.515l.648-1.025c-1.028 1.627-.999 3.922.345 6.516l3.738 7.217-.648 1.025-3.738-7.218z" fill="#F600B2"/><path d="M388.136 417.4c.006-.003 0 0 0 0l.648-1.024a1.56 1.56 0 01.107-.147c.038-.043.071-.083.119-.123.041-.037.083-.074.131-.114l.006-.003.006-.003.146-.1c.057-.037.111-.065.18-.093a.97.97 0 01.189-.076l-.648 1.024a2.1 2.1 0 00-.516.269 1.358 1.358 0 00-.368.39zm7.03 2.399a4.926 4.926 0 00-.635-.927c-.013-.009-.022-.027-.034-.036a6.37 6.37 0 00-.855-.805c-.009-.003-.015-.015-.024-.018a7.397 7.397 0 00-1.018-.666c-.009-.003-.022-.012-.031-.015a6.855 6.855 0 00-1.118-.477l.648-1.024c.128.04.253.089.384.135.116.047.234.099.353.152.101.046.205.099.305.146.031.014.055.032.082.041.01.003.022.011.031.014.055.033.113.056.168.088.085.047.174.1.256.156.08.05.163.106.242.157.079.05.156.109.233.168.04.033.079.065.125.095.009.003.016.015.025.018.024.017.052.041.076.059.077.059.148.121.218.184l.218.199c.077.074.154.148.225.226l.117.137c.012.009.022.027.034.036.025.032.055.062.077.089.09.114.179.227.26.338.114.161.217.329.304.497.435.833.441 1.577.111 2.1l-.648 1.024c.318-.517.306-1.257-.129-2.091z" fill="#2062F5"/><path d="M386.404 407.52c-.173-.245-.362-.49-.553-.725-.133-.168-.26-.338-.399-.502-.126-.155-.262-.298-.395-.45-.185-.209-.369-.417-.566-.62l-.342-.348a24.405 24.405 0 00-.692-.669c-.098-.086-.193-.181-.292-.267-.331-.3-.675-.594-1.027-.875-.04-.033-.089-.068-.129-.101a24.27 24.27 0 00-1.286-.961c-.316-.225-.634-.44-.958-.653-.067-.041-.129-.085-.196-.127-.385-.241-.776-.48-1.176-.706-.11-.065-.226-.126-.342-.188a22.34 22.34 0 00-.882-.463 24.533 24.533 0 00-1.241-.581c-.216-.093-.426-.19-.639-.277-.204-.084-.411-.159-.612-.237-.35-.131-.697-.255-1.044-.364-.219-.069-.432-.141-.647-.204a18.882 18.882 0 00-.499-.137 16.376 16.376 0 00-.829-.201c-.164-.036-.328-.073-.488-.104a18.387 18.387 0 00-.886-.148c-.14-.019-.276-.047-.416-.066-.43-.05-.854-.088-1.278-.111a13.912 13.912 0 00-1.593.029c-.163.009-.32.03-.477.05-.287.036-.565.073-.836.123-.175.03-.347.067-.516.109-.156.036-.307.084-.46.125-.199.058-.391.128-.578.195a6.757 6.757 0 00-.975.454l-.144.075c-.242.165-.475.332-.693.499-.054.043-.105.092-.158.136-.17.142-.322.289-.468.449a4.965 4.965 0 00-.636.812l.648-1.024c.012-.021.023-.043.038-.058.115-.174.245-.349.382-.511l.077-.086c.042-.052.092-.102.137-.148.074-.077.139-.156.214-.233.08-.08.17-.142.253-.216.054-.043.104-.093.158-.136.033-.025.057-.052.084-.074.179-.139.37-.269.574-.391l.036-.018.144-.075c.158-.091.317-.181.488-.263.054-.028.114-.044.172-.066.105-.047.213-.088.321-.129.102-.038.192-.085.304-.12.09-.032.186-.052.28-.078.15-.048.297-.086.46-.125.088-.023.166-.048.253-.071.081-.02.178-.024.269-.041.271-.05.545-.094.835-.123.1-.013.196-.033.296-.047.057-.007.121-.002.181-.003a14.618 14.618 0 011.594-.03c.421.017.845.056 1.278.112.14.019.282.044.422.063.291.046.582.093.876.145.161.031.328.073.498.107.276.062.552.124.829.201.167.042.337.091.507.139.101.032.204.055.31.083.11.034.225.081.335.115.35.116.693.234 1.043.364.113.041.222.075.329.119.094.034.189.084.283.119.214.087.43.18.646.273l.411.175c.119.052.229.117.348.17.162.076.317.155.482.237.104.052.213.102.326.157.186.094.373.203.556.306.116.061.232.123.351.19.046.03.094.05.14.08.327.188.651.385.969.585l.067.042c.067.041.128.085.196.126.22.145.446.286.66.434.104.068.199.148.303.216.107.074.208.151.316.224.088.068.18.127.269.195.236.175.469.359.696.545.04.033.085.062.128.101l.037.027c.288.231.568.474.844.711.046.045.092.09.144.131.098.086.194.181.292.267.132.122.273.247.399.372l.29.291c.113.117.236.235.344.355.068.071.145.145.213.217.12.128.231.268.351.396.133.152.271.301.398.456.043.054.092.105.135.158.09.114.171.224.257.332.195.242.383.486.557.732.049.065.108.134.151.203.044.069.078.135.119.197a15.43 15.43 0 011.032 1.704l3.738 7.218-.648 1.024-3.738-7.218c-.3-.576-.657-1.144-1.033-1.704a3.268 3.268 0 01-.306-.397z" fill="#2062F5"/><path d="M368.591 397.45c-7.24-.315-10.43 4.641-7.117 11.043l3.738 7.218c-1.082.381-1.433 1.449-.749 2.762.869 1.682 3.119 3.118 5.029 3.198 1.91.08 2.75-1.22 1.881-2.902-.675-1.311-2.188-2.459-3.718-2.95l-3.738-7.218c-2.697-5.221-.094-9.254 5.79-8.995 5.89.255 12.864 4.697 15.567 9.914l3.738 7.218c-1.082.381-1.443 1.446-.764 2.762.869 1.682 3.128 3.121 5.038 3.201 1.909.08 2.75-1.22 1.881-2.902-.675-1.311-2.189-2.459-3.718-2.95l-3.738-7.218c-3.307-6.405-11.889-11.87-19.12-12.181zm7.848 89.708l8.856-4.721.171-9.301-30.961-59.593-.2 9.346-8.827 4.676 30.961 59.593z" fill="#2062F5"/><path d="M354.506 413.543l30.96 59.593 51.723 2.155-30.957-59.603-51.726-2.145z" fill="#D18AB7"/><path d="M345.478 427.565l30.961 59.593 51.729 2.151-30.964-59.599-51.726-2.145z" fill="#FF4AED"/><path d="M428.167 489.309l-.318-6.041 9.345-7.98-30.96-59.594-9.393 8.051.366 5.971 30.96 59.593z" fill="#2062F5"/><path d="M357.051 431.234a1.467 1.467 0 00-.356.384l.648-1.024a1.397 1.397 0 01.106-.147c.039-.043.071-.083.113-.12l.131-.114.006-.003.147-.1a.956.956 0 01.174-.09.97.97 0 01.189-.076l-.648 1.024a1.8 1.8 0 00-.51.266zm5.992 1.826a7.047 7.047 0 00-.858-.811c-.009-.003-.015-.015-.024-.018a7.397 7.397 0 00-1.018-.666c-.01-.003-.022-.012-.031-.015a6.855 6.855 0 00-1.118-.477l.648-1.025c.128.041.253.09.378.139.116.047.234.099.353.152.101.046.204.099.305.146.031.014.052.026.082.041.01.003.022.012.031.014.055.033.107.059.162.091.085.047.174.1.256.157.08.05.162.106.242.156.079.05.156.109.233.168.04.033.079.065.125.095.009.003.016.015.025.018.024.017.052.041.076.059.077.059.148.121.218.184l.218.199c.077.074.154.148.225.226l.117.137c.012.009.022.027.034.036.025.033.055.062.077.089.09.114.179.227.26.338.114.161.217.329.304.497.435.833.441 1.577.111 2.1l-.648 1.024c.33-.523.323-1.267-.111-2.1a4.926 4.926 0 00-.635-.927c-.01-.003-.025-.018-.037-.027z" fill="#F600B2"/><path d="M356.262 423.852c-1.341-2.588-1.374-4.889-.345-6.516l.648-1.024c-1.028 1.627-.999 3.922.345 6.516l3.738 7.217-.648 1.024-3.738-7.217zm24.224 8.805c.006-.003.006-.003 0 0l.648-1.024c.006-.003.009-.013.009-.013.029-.045.065-.094.097-.134.039-.043.071-.083.119-.123l.131-.114.006-.003.006-.004.147-.099c.057-.037.111-.065.18-.094.06-.031.123-.056.189-.075l-.648 1.024c-.193.07-.367.16-.516.269l-.006.003a1.416 1.416 0 00-.362.387zm7.03 2.399a4.932 4.932 0 00-.636-.927c-.012-.009-.021-.027-.034-.036a6.894 6.894 0 00-.854-.805c-.009-.003-.015-.015-.024-.018a7.508 7.508 0 00-1.019-.667c-.009-.002-.021-.011-.03-.014a6.95 6.95 0 00-1.118-.478l.648-1.024c.128.041.253.09.383.136.116.047.235.099.354.151.1.047.204.1.305.147.03.014.055.032.082.041.009.002.021.011.031.014.055.033.112.056.167.088.086.047.174.1.257.156.08.05.162.106.242.156.079.051.156.11.232.169.04.033.08.065.126.095.009.003.015.014.024.017.025.018.052.042.077.06.077.059.147.121.218.183.074.069.147.137.218.199.077.075.154.149.224.227.041.047.078.089.118.137.012.009.021.027.034.035.024.033.055.063.077.09.089.113.179.227.259.337.115.162.218.329.305.497.434.834.441 1.578.111 2.101l-.649 1.024c.315-.523.306-1.258-.128-2.091z" fill="#F600B2"/><path d="M378.753 422.777c-.173-.245-.362-.49-.553-.726-.133-.167-.26-.337-.399-.501-.127-.155-.262-.298-.395-.45a19.307 19.307 0 00-.908-.968 24.405 24.405 0 00-.692-.669c-.098-.086-.193-.181-.292-.267a27.59 27.59 0 00-1.021-.878c-.04-.033-.089-.069-.129-.101a23.36 23.36 0 00-1.287-.962c-.315-.224-.633-.44-.957-.652-.067-.041-.129-.086-.196-.127-.385-.241-.776-.48-1.176-.706-.11-.065-.226-.126-.342-.188a22.34 22.34 0 00-.882-.463 22.374 22.374 0 00-1.241-.581c-.216-.093-.426-.19-.639-.277-.204-.084-.411-.159-.612-.238-.35-.13-.697-.254-1.044-.363-.219-.069-.432-.141-.647-.204a15.683 15.683 0 00-.499-.137c-.276-.077-.553-.139-.829-.201a15.886 15.886 0 00-1.374-.252c-.14-.019-.276-.047-.416-.066-.43-.05-.854-.089-1.278-.112a13.905 13.905 0 00-1.593.03c-.164.009-.32.029-.477.05-.287.035-.565.073-.836.123-.175.03-.347.066-.516.109-.156.035-.307.083-.46.125-.199.058-.391.128-.578.194a6.757 6.757 0 00-.975.455l-.144.075a5.623 5.623 0 00-.694.484c-.053.043-.104.092-.158.135-.17.142-.322.29-.467.45a2.27 2.27 0 00-.143.15 5.89 5.89 0 00-.497.656l.648-1.024a.255.255 0 01.039-.058c.115-.175.245-.349.381-.512.024-.027.054-.058.078-.086.041-.052.092-.101.136-.147.075-.077.14-.157.214-.234.08-.08.17-.142.254-.216.053-.043.104-.092.158-.135.033-.025.056-.053.083-.074.179-.139.371-.27.574-.391l.036-.019.144-.075c.159-.09.318-.18.489-.262.054-.028.114-.044.171-.066.105-.047.213-.089.322-.13.102-.038.192-.085.303-.12.09-.032.187-.051.28-.077.15-.048.298-.087.461-.126.087-.022.165-.048.253-.07.081-.02.178-.025.268-.041.272-.05.546-.094.836-.123.099-.014.196-.034.296-.047.057-.007.12-.002.181-.003a14.595 14.595 0 011.593-.03c.421.017.845.055 1.279.112.139.019.282.043.421.062.291.047.582.093.877.146.16.03.328.073.497.106.277.062.553.124.83.201.167.043.337.092.507.14.1.032.204.054.31.083.109.034.225.081.338.121.349.115.693.233 1.043.364.113.04.222.075.329.118.094.035.189.085.283.119.213.088.43.181.646.274l.411.175c.119.052.229.117.348.169.161.076.317.155.482.237.103.053.213.102.326.158.186.094.372.203.555.305.116.062.232.123.351.191.046.03.095.05.141.079.327.188.651.386.968.586.022.012.046.03.068.041.067.042.128.086.195.127.221.145.447.286.661.434.104.067.199.148.303.215.107.074.208.151.315.225.089.068.181.127.27.195.236.175.468.358.695.545.04.033.086.062.129.101l.037.026c.288.231.567.475.844.712.046.045.092.089.144.131.098.086.193.181.292.267.132.122.273.247.399.372l.289.291c.114.116.237.235.345.354.071.078.144.146.212.218.12.128.232.268.352.396.132.152.271.301.397.456.044.054.093.104.136.158.09.114.17.224.257.332.194.241.383.486.556.731.05.066.109.135.152.203.044.069.078.135.118.198.382.556.739 1.125 1.033 1.704l3.738 7.218-.648 1.024-3.738-7.218c-.3-.576-.658-1.145-1.033-1.704-.126-.11-.213-.247-.312-.379z" fill="#2062F5"/><path d="M360.945 412.703c-7.24-.314-10.43 4.642-7.117 11.044l3.738 7.218c-1.083.381-1.434 1.448-.749 2.762.869 1.682 3.119 3.117 5.029 3.197 1.909.08 2.75-1.219 1.881-2.901-.675-1.311-2.189-2.459-3.718-2.951l-3.748-7.22c-2.703-5.218-.091-9.248 5.794-8.989 5.89.255 12.863 4.697 15.567 9.914l3.738 7.218c-1.083.381-1.443 1.446-.765 2.762.869 1.682 3.128 3.121 5.038 3.201 1.91.08 2.75-1.22 1.881-2.902-.675-1.311-2.188-2.459-3.718-2.951l-3.738-7.217c-3.31-6.412-11.888-11.87-19.113-12.185z" fill="#2062F5"/><path d="M396.842 423.745l.363 5.965 30.964 59.599-.319-6.041-31.008-59.523zm-51.365 3.82l8.11-4.295 2.441 4.729-10.551-.434z" fill="#32B5F7"/></g><g opacity=".2" clip-path="url(#clip4)"><path d="M373.696 963.507c-.13.102-.236.212-.317.342l.577-.913c.006-.002.008-.01.008-.01a1.63 1.63 0 01.087-.121c.035-.038.064-.073.101-.106.037-.033.074-.066.117-.102l.005-.003.006-.003.13-.088a.914.914 0 01.155-.081.995.995 0 01.169-.068l-.578.913c-.18.06-.326.143-.46.24zm5.343 1.628a6.332 6.332 0 00-.764-.723c-.009-.003-.014-.013-.022-.016a6.69 6.69 0 00-.908-.594c-.008-.003-.019-.011-.027-.013a6.24 6.24 0 00-.997-.426l.578-.913c.114.036.225.08.336.124.104.042.21.088.315.135.09.042.183.089.272.13l.074.037.027.013c.049.029.095.052.144.081.076.042.155.089.229.139.071.045.144.095.215.14.071.044.139.097.208.15.035.029.071.058.112.084.008.003.013.013.022.016l.068.053c.068.053.131.108.194.164.066.061.131.122.194.177.069.066.137.133.201.202l.104.122c.011.008.019.024.03.032.022.029.05.056.069.08.08.101.16.202.232.3.102.144.193.294.271.444.387.743.393 1.406.099 1.872l-.578.913c.294-.466.289-1.129-.099-1.873a4.41 4.41 0 00-.566-.826.1.1 0 01-.033-.024z" fill="#2062F5"/><path d="M372.994 956.926c-1.195-2.307-1.224-4.358-.307-5.808l.577-.913c-.916 1.45-.89 3.496.308 5.808l3.332 6.435-.578.913-3.332-6.435z" fill="#F600B2"/><path d="M394.589 964.776c.006-.003 0 0 0 0l.578-.913a1.425 1.425 0 01.095-.131c.035-.039.064-.074.106-.11l.117-.102.006-.002.005-.003.131-.089a.86.86 0 01.16-.083.891.891 0 01.169-.068l-.578.913a1.837 1.837 0 00-.46.24 1.217 1.217 0 00-.329.348zm6.267 2.138a4.417 4.417 0 00-.567-.826c-.011-.008-.019-.024-.03-.032a5.667 5.667 0 00-.762-.718c-.008-.002-.013-.013-.022-.016a6.68 6.68 0 00-.907-.594c-.009-.002-.019-.01-.028-.013a6.225 6.225 0 00-.996-.425l.578-.913c.113.035.225.079.341.121.104.041.21.088.315.135.09.041.183.088.272.13.027.013.049.029.074.036.008.003.019.011.027.013.049.029.1.05.149.079.077.042.156.089.229.139.071.045.145.095.216.139.07.045.139.098.207.15.036.03.071.059.112.085.008.002.014.013.022.016.022.015.046.037.068.052.068.053.131.109.194.164.066.061.132.122.195.178.068.066.137.132.2.201.036.043.069.08.104.123.011.008.02.024.031.032.022.029.049.055.068.079.08.101.16.203.232.301.102.144.194.293.272.443.387.743.392 1.407.098 1.873l-.578.912c.284-.46.273-1.12-.114-1.864z" fill="#2062F5"/><path d="M393.046 955.968a12.573 12.573 0 00-.494-.647c-.118-.149-.231-.301-.355-.447-.113-.138-.234-.266-.352-.401-.165-.186-.33-.372-.505-.553l-.305-.31c-.2-.202-.406-.4-.616-.596-.088-.077-.173-.162-.261-.239a19.698 19.698 0 00-.916-.78c-.035-.029-.079-.061-.115-.09a21.594 21.594 0 00-.865-.657 27.29 27.29 0 00-1.135-.781c-.06-.037-.115-.077-.175-.113a26.66 26.66 0 00-1.048-.63c-.098-.058-.202-.113-.305-.168-.259-.144-.52-.279-.786-.412a15.63 15.63 0 00-.43-.212 24.133 24.133 0 00-.676-.307c-.193-.083-.381-.168-.571-.246-.182-.075-.366-.142-.545-.212a18.74 18.74 0 00-.931-.324c-.195-.062-.385-.126-.577-.182-.152-.043-.295-.084-.444-.122a14.415 14.415 0 00-.739-.179 15.536 15.536 0 00-.436-.093 16.856 16.856 0 00-.789-.132c-.125-.017-.247-.042-.371-.059a17.934 17.934 0 00-1.139-.099 12.3 12.3 0 00-1.421.026 5.312 5.312 0 00-.425.045c-.256.031-.503.065-.745.11a6.245 6.245 0 00-.46.096c-.139.032-.274.075-.41.112-.178.052-.349.114-.515.173a5.963 5.963 0 00-.87.406 7.853 7.853 0 00-.128.067c-.216.146-.424.295-.618.444-.048.039-.093.083-.141.121a4.17 4.17 0 00-.417.401 2.024 2.024 0 00-.127.134c-.161.186-.312.38-.44.59l.577-.913c.011-.019.021-.038.035-.052.102-.155.218-.311.34-.456.021-.025.048-.052.069-.077.037-.046.082-.09.122-.131.066-.069.124-.14.19-.208.072-.072.152-.127.226-.193.048-.038.093-.082.141-.121.029-.022.051-.046.074-.066.16-.124.331-.24.512-.348l.032-.017.129-.067c.141-.08.283-.161.435-.233.048-.025.102-.04.153-.06.094-.042.19-.078.287-.115.091-.034.171-.076.27-.107.081-.028.167-.046.25-.069a6.24 6.24 0 01.41-.112c.078-.02.148-.043.226-.063.072-.017.159-.021.239-.036.242-.045.487-.084.745-.11.089-.012.175-.03.264-.042.051-.006.108-.002.162-.003.452-.031.921-.045 1.42-.026.375.015.753.049 1.14.1.124.016.251.039.376.055.259.042.519.083.781.13.143.027.292.065.444.095.246.055.492.111.739.179.149.038.301.082.452.125.09.028.182.048.277.073.097.031.2.073.298.103.312.103.618.208.93.325.1.036.198.066.293.105.084.031.169.076.253.107a135.504 135.504 0 01.942.399c.106.047.204.105.31.151.144.068.283.138.429.211.093.047.191.092.291.141.166.084.332.181.496.272.103.055.206.11.313.17.04.027.084.045.125.071.291.168.58.344.863.522.019.011.041.027.06.037.06.037.115.076.175.113.196.129.398.255.589.387.092.06.177.131.27.192.095.066.185.134.281.2.079.061.161.113.24.174.21.156.418.319.62.486.036.029.077.055.115.09l.033.023c.257.206.506.423.752.635.041.04.082.079.128.116.088.077.173.162.261.239.117.108.243.219.356.331l.257.26c.102.103.212.209.308.316.06.063.129.13.189.193.107.114.206.239.313.354.119.135.242.268.355.406.038.048.082.093.121.141.08.101.152.2.229.296.173.215.341.433.496.652.044.059.096.12.135.181.039.061.07.12.105.176.34.496.659 1.003.921 1.519l3.333 6.435-.578.913-3.333-6.435a16.294 16.294 0 00-.92-1.519c-.108-.114-.19-.234-.273-.354z" fill="#2062F5"/><path d="M377.164 946.99c-6.455-.28-9.299 4.138-6.345 9.846l3.332 6.434c-.965.34-1.278 1.292-.668 2.462.775 1.5 2.781 2.78 4.484 2.851 1.702.071 2.451-1.087 1.677-2.587-.602-1.168-1.951-2.192-3.315-2.63l-3.332-6.435c-2.405-4.654-.084-8.249 5.161-8.019 5.251.228 11.468 4.188 13.878 8.839l3.333 6.435c-.965.339-1.287 1.289-.682 2.462.775 1.5 2.789 2.782 4.491 2.853 1.703.072 2.452-1.087 1.678-2.587-.602-1.168-1.952-2.191-3.315-2.63l-3.333-6.434c-2.948-5.711-10.598-10.582-17.044-10.86zm6.995 79.97l7.895-4.2.153-8.3-27.601-53.123-.179 8.333-7.869 4.168 27.601 53.122z" fill="#2062F5"/><path d="M364.605 961.337l27.601 53.123 46.111 1.93-27.598-53.14-46.114-1.913z" fill="#D18AB7"/><path d="M356.558 973.838l27.601 53.122 46.117 1.92-27.604-53.13-46.114-1.912z" fill="#FF4AED"/><path d="M430.276 1028.88l-.284-5.38 8.332-7.12-27.601-53.125-8.374 7.178.326 5.322 27.601 53.125z" fill="#2062F5"/><path d="M366.876 977.108c-.13.102-.236.212-.318.343l.578-.913a1.231 1.231 0 01.095-.131c.034-.038.064-.074.101-.107.037-.033.074-.066.117-.102l.005-.002c.04-.028.085-.059.131-.089a.844.844 0 01.155-.081.879.879 0 01.168-.067l-.578.913a1.64 1.64 0 00-.454.236zm5.343 1.629a6.276 6.276 0 00-.765-.724c-.008-.002-.013-.013-.022-.015a6.686 6.686 0 00-.907-.595c-.009-.002-.019-.01-.028-.013a6.225 6.225 0 00-.996-.425l.578-.913c.114.036.225.08.336.124.103.041.209.088.315.135.09.041.182.088.272.13l.073.036c.008.003.019.011.028.013l.144.082c.076.042.155.089.229.139.07.044.144.094.215.139.071.045.139.098.207.15.036.029.071.058.112.085.009.002.014.013.022.016.022.015.047.037.069.052.068.053.131.109.194.164.065.061.131.122.194.178.069.066.137.132.2.201l.105.123c.011.007.019.023.03.031.022.03.049.056.069.08.08.101.16.202.231.301.102.144.194.293.272.443.387.743.393 1.406.099 1.872l-.578.913c.294-.466.288-1.129-.099-1.872a4.338 4.338 0 00-.567-.826c-.008-.003-.021-.016-.032-.024z" fill="#F600B2"/><path d="M366.174 970.527c-1.196-2.307-1.225-4.358-.308-5.808l.578-.913c-.917 1.45-.891 3.496.308 5.809l3.332 6.434-.578.913-3.332-6.435zm21.593 7.85c.006-.003.006-.003 0 0l.578-.913a1.534 1.534 0 01.095-.131c.034-.038.064-.074.106-.109.037-.033.074-.066.117-.102l.005-.003.006-.003.13-.088a.975.975 0 01.161-.084.879.879 0 01.168-.067l-.577.913a1.868 1.868 0 00-.46.239l-.006.003a1.29 1.29 0 00-.323.345zm6.268 2.139a4.378 4.378 0 00-.566-.826c-.011-.008-.02-.024-.03-.032a6.277 6.277 0 00-.762-.718c-.008-.003-.014-.014-.022-.016a6.597 6.597 0 00-.908-.594c-.008-.003-.019-.011-.027-.013a6.113 6.113 0 00-.997-.426l.578-.913c.114.036.225.08.342.121.103.042.209.088.315.135.09.042.182.089.272.13.027.013.049.029.073.037.009.002.019.01.028.013.049.029.1.049.149.078.076.042.155.089.229.139.071.045.144.095.215.14.071.044.139.097.208.15.035.029.071.058.112.084.008.003.013.014.022.016l.068.053c.068.053.131.108.194.164.066.061.132.122.194.177.069.067.137.133.201.202l.104.122c.011.008.019.024.03.032.022.029.05.056.069.08.08.101.16.202.232.301.102.143.193.293.271.443.387.743.393 1.406.099 1.872l-.578.913c.281-.466.273-1.121-.115-1.864z" fill="#F600B2"/><path d="M386.223 969.57a12.689 12.689 0 00-.493-.647c-.119-.149-.232-.301-.356-.447-.113-.139-.233-.266-.352-.402a14.461 14.461 0 00-.505-.552l-.304-.31a21.812 21.812 0 00-.617-.597c-.088-.077-.173-.161-.26-.238a25.199 25.199 0 00-.911-.783l-.115-.09a21.628 21.628 0 00-1.147-.857c-.281-.2-.565-.392-.853-.582-.06-.036-.115-.076-.175-.113a25.968 25.968 0 00-1.049-.629c-.098-.058-.201-.113-.304-.168-.259-.144-.52-.28-.787-.413a21.608 21.608 0 00-1.106-.518c-.192-.083-.38-.169-.57-.246-.182-.076-.366-.143-.546-.212a19.092 19.092 0 00-.93-.325c-.195-.061-.385-.125-.577-.181a14.955 14.955 0 00-.444-.122c-.247-.069-.493-.124-.74-.18-.146-.032-.292-.065-.435-.092a15.489 15.489 0 00-.79-.132c-.124-.017-.246-.042-.37-.059a18.672 18.672 0 00-1.14-.1 12.505 12.505 0 00-1.42.027 5.289 5.289 0 00-.426.045c-.255.031-.503.065-.745.109a6.114 6.114 0 00-.459.097c-.14.032-.274.075-.411.112-.177.051-.348.114-.515.173-.096.037-.193.073-.281.113a5.963 5.963 0 00-.588.293l-.128.066a5.032 5.032 0 00-.619.431c-.048.039-.093.083-.141.121a4.274 4.274 0 00-.416.401 2.337 2.337 0 00-.128.134c-.161.186-.311.38-.443.585l.578-.913c.011-.019.021-.038.034-.052a4.96 4.96 0 01.341-.456l.068-.077c.037-.046.082-.09.122-.131.066-.069.125-.14.191-.208.072-.072.151-.127.226-.193.048-.038.093-.082.141-.121.029-.022.05-.047.074-.066.16-.124.331-.24.512-.348l.032-.017.128-.067c.142-.08.284-.161.436-.233.048-.026.102-.04.153-.06.093-.042.19-.078.286-.115.091-.034.172-.076.271-.107.08-.028.166-.046.25-.069.134-.043.265-.077.41-.112.078-.02.148-.043.226-.063.072-.017.158-.021.239-.036.242-.045.487-.084.745-.11.089-.012.175-.03.264-.042.051-.006.107-.002.161-.003.453-.031.922-.045 1.421-.026.375.015.753.049 1.139.099.125.017.252.039.376.056.26.042.519.083.782.13.143.027.292.065.443.095.247.055.493.111.74.179.148.038.3.081.452.125.089.028.181.048.276.073.098.031.201.073.301.109.312.102.619.208.931.324.1.036.198.067.293.105.084.031.168.076.252.107.19.078.383.161.576.244l.366.155c.106.047.204.105.31.152.144.067.283.138.43.211.092.047.19.091.291.14.166.084.332.181.495.273.103.055.207.109.313.17.041.026.084.044.125.07.292.168.58.344.864.523.019.01.041.026.06.036.06.037.114.077.174.113.196.129.398.255.589.387.093.06.177.132.27.192.096.066.186.135.281.2.079.061.161.114.24.174.211.156.418.32.621.486.035.029.076.055.114.09l.033.024c.257.206.506.423.752.634.041.04.082.08.129.117.087.076.172.161.26.238.118.109.244.22.356.331l.258.26c.101.104.211.21.307.316.063.069.129.13.189.193.108.115.207.24.314.354.118.135.242.268.354.406.039.048.083.093.121.141.08.101.152.2.229.296.174.215.342.434.496.652.045.059.097.12.136.181.038.062.069.12.105.176.34.496.658 1.003.921 1.519l3.332 6.435-.578.913-3.332-6.435a16.306 16.306 0 00-.921-1.519c-.112-.097-.19-.22-.278-.337z" fill="#2062F5"/><path d="M370.347 960.589c-6.454-.281-9.298 4.138-6.344 9.845l3.332 6.435c-.965.34-1.278 1.291-.668 2.462.775 1.5 2.781 2.78 4.483 2.851 1.703.071 2.452-1.087 1.677-2.587-.602-1.168-1.951-2.192-3.314-2.63l-3.341-6.437c-2.41-4.652-.081-8.245 5.165-8.014 5.251.228 11.467 4.187 13.877 8.839l3.333 6.434c-.965.34-1.286 1.289-.682 2.463.775 1.499 2.789 2.782 4.492 2.853 1.702.071 2.451-1.087 1.677-2.587-.602-1.168-1.951-2.192-3.315-2.63l-3.332-6.435c-2.951-5.715-10.599-10.581-17.04-10.862z" fill="#2062F5"/><path d="M402.348 970.433l.324 5.317 27.603 53.13-.284-5.38-27.643-53.067zm-45.79 3.405l7.23-3.829 2.176 4.216-9.406-.387z" fill="#32B5F7"/></g><defs><clipPath id="clip0"><path fill="#fff" transform="rotate(29.639 188.669 713.103)" d="M0 0h50.111v93.701H0z"/></clipPath><clipPath id="clip1"><path fill="#fff" transform="scale(-1 1) rotate(29.639 -321.733 -69.605)" d="M0 0h25.907v48.443H0z"/></clipPath><clipPath id="clip2"><path fill="#fff" transform="scale(-1 1) rotate(-27.522 1210.062 603.571)" d="M0 0h81.082v151.613H0z"/></clipPath><clipPath id="clip3"><path fill="#fff" transform="rotate(-27.522 1008.561 -482.288)" d="M0 0h59.447v111.158H0z"/></clipPath><clipPath id="clip4"><path fill="#fff" transform="rotate(-27.522 2133.405 -232.777)" d="M0 0h52.997v99.097H0z"/></clipPath></defs></svg>