<svg width="1318" height="960" fill="none" xmlns="http://www.w3.org/2000/svg"><g opacity=".2" clip-path="url(#clip0)"><path d="M866.745 334.798a1.756 1.756 0 00-.422.454l.767-1.21c.007-.004.01-.015.01-.015.035-.054.077-.112.115-.159.046-.051.084-.098.134-.142.049-.043.098-.087.155-.135l.007-.003.007-.004.173-.117a1.06 1.06 0 01.206-.107 1.22 1.22 0 01.224-.09l-.767 1.211a2.19 2.19 0 00-.609.317zm7.084 2.159a8.338 8.338 0 00-1.014-.959c-.011-.003-.018-.017-.029-.021a8.867 8.867 0 00-1.203-.788c-.011-.003-.026-.014-.036-.017a8.194 8.194 0 00-1.322-.564l.766-1.211c.151.048.299.106.446.164.137.055.278.117.418.179.119.056.242.118.361.173.036.017.061.031.097.049.011.003.025.013.036.017.065.038.126.069.191.107.101.056.206.119.304.185.094.059.191.125.285.185.094.059.185.129.275.199.047.038.094.077.149.112.01.003.018.017.029.021.029.021.061.049.09.07.091.07.174.143.258.217.087.081.174.162.257.235.091.088.182.176.266.268.047.056.091.105.138.162.015.01.026.031.04.042.03.039.066.074.092.106.106.134.211.268.307.399.135.19.256.389.36.587.513.985.521 1.865.131 2.483l-.767 1.21c.39-.618.383-1.497-.131-2.482a5.803 5.803 0 00-.751-1.096.132.132 0 01-.043-.032z" fill="#2062F5"/><path d="M865.814 326.072c-1.585-3.059-1.624-5.779-.408-7.701l.766-1.211c-1.215 1.923-1.181 4.636.408 7.702l4.418 8.532-.766 1.21-4.418-8.532z" fill="#F600B2"/><path d="M894.446 336.481c.007-.004 0 0 0 0l.767-1.211c.007-.004.01-.014.01-.014.035-.055.077-.113.115-.16.046-.051.085-.098.141-.145.049-.044.099-.088.155-.135l.007-.004.007-.003.173-.118c.068-.044.131-.077.213-.11.071-.037.146-.067.224-.09l-.767 1.211a2.452 2.452 0 00-.609.317 1.614 1.614 0 00-.436.462zm8.309 2.835a5.764 5.764 0 00-.751-1.095c-.015-.011-.026-.032-.04-.043a7.51 7.51 0 00-1.01-.952c-.011-.003-.018-.017-.029-.021a8.877 8.877 0 00-1.204-.788c-.011-.003-.025-.013-.036-.017a8.184 8.184 0 00-1.321-.564l.766-1.211c.151.048.299.106.453.161.137.055.277.117.418.179.119.055.241.117.36.172.036.018.065.039.098.049.01.003.025.014.036.017.065.038.133.066.198.104.101.056.206.118.303.185.094.059.192.125.286.184.094.059.184.129.275.199.047.039.094.078.148.112.011.004.019.018.029.021.029.021.062.049.091.07.091.07.174.144.257.218.088.08.175.161.258.235.091.088.182.176.266.267.047.057.091.106.138.162.015.011.026.032.04.043.03.038.066.074.091.105.106.134.212.269.307.399.136.191.257.389.361.588.513.985.521 1.864.13 2.482l-.766 1.211c.376-.611.361-1.486-.152-2.472z" fill="#2062F5"/><path d="M892.398 324.802a17.047 17.047 0 00-.654-.858c-.157-.197-.307-.398-.471-.592-.15-.184-.31-.353-.466-.532-.219-.247-.438-.494-.671-.733l-.403-.411a27.879 27.879 0 00-.818-.791c-.116-.102-.229-.214-.345-.316a25.77 25.77 0 00-1.215-1.035c-.047-.038-.105-.08-.152-.119a27.45 27.45 0 00-1.148-.871c-.119-.091-.246-.178-.373-.265-.372-.266-.748-.52-1.132-.771-.079-.049-.151-.102-.231-.15a34.3 34.3 0 00-1.39-.835c-.13-.077-.267-.149-.404-.222a26.43 26.43 0 00-1.043-.548c-.184-.093-.378-.19-.569-.28a31.262 31.262 0 00-.897-.407c-.256-.11-.505-.224-.757-.327-.241-.099-.485-.188-.723-.281a25.887 25.887 0 00-1.233-.43c-.259-.081-.511-.166-.766-.241a21.813 21.813 0 00-.589-.161 19.65 19.65 0 00-.98-.238 19.88 19.88 0 00-1.625-.298c-.164-.022-.326-.055-.491-.078a25.336 25.336 0 00-1.511-.132 16.66 16.66 0 00-1.883.035 7.263 7.263 0 00-.564.06c-.339.041-.667.086-.988.145-.207.036-.41.078-.609.128-.186.043-.363.099-.545.149-.235.068-.462.15-.682.229-.128.049-.256.097-.373.149a7.983 7.983 0 00-.78.389l-.171.089c-.286.194-.561.391-.819.589-.064.051-.123.109-.187.16-.201.168-.38.343-.552.532a2.39 2.39 0 00-.169.178 5.784 5.784 0 00-.584.782l.766-1.211a.345.345 0 01.046-.069 6.49 6.49 0 01.451-.604c.028-.033.063-.069.091-.102.049-.062.109-.12.162-.174.087-.091.164-.185.252-.276.095-.095.201-.168.3-.255.063-.052.123-.11.187-.161.039-.029.067-.062.098-.087.212-.165.438-.319.679-.462a.578.578 0 01.043-.022l.17-.089a8.52 8.52 0 01.577-.31c.064-.033.135-.052.203-.078.124-.056.252-.105.38-.153.121-.045.227-.101.359-.142.106-.038.22-.061.331-.092.177-.056.352-.102.544-.148.103-.027.196-.057.299-.084.096-.023.21-.028.317-.048.321-.059.646-.111.988-.145.118-.016.232-.04.35-.056.068-.008.143-.002.214-.004a17.63 17.63 0 011.884-.035c.497.021.998.066 1.511.132.165.023.333.052.498.074.344.055.688.11 1.036.173.19.036.388.086.588.126.327.073.654.146.981.237.197.05.398.108.599.165.119.038.241.064.367.098.129.04.266.095.395.136.414.136.82.276 1.234.43.133.048.262.089.388.14.112.041.223.1.335.141.252.103.508.213.763.323l.486.207c.141.062.271.138.411.2.191.09.375.184.57.28.123.063.252.121.386.187.22.111.44.239.656.361.137.073.274.145.415.225.054.035.112.059.166.094.387.222.769.456 1.145.692.025.014.054.035.08.049.079.049.152.101.231.15.26.171.528.338.781.513.123.08.235.174.358.255.127.087.246.178.373.265.105.08.213.15.318.231.279.206.554.423.823.644.047.038.101.073.152.119l.043.031c.341.273.671.561.997.842.055.052.109.105.171.154.116.102.229.214.345.316.156.144.323.291.472.439l.342.345c.134.137.28.278.407.418.08.085.171.173.251.257.142.152.274.317.416.469.156.179.32.356.47.539.051.063.109.123.16.187.106.134.201.265.304.392.23.285.453.575.658.864.058.078.127.159.179.241.051.081.092.159.14.233.45.658.873 1.33 1.22 2.014l4.419 8.532-.767 1.21-4.418-8.531a21.397 21.397 0 00-1.221-2.014c-.142-.152-.252-.311-.362-.47z" fill="#2062F5"/><path d="M871.343 312.898c-8.558-.372-12.329 5.487-8.413 13.055l4.419 8.531c-1.28.451-1.695 1.713-.886 3.265 1.027 1.989 3.687 3.685 5.945 3.78 2.257.094 3.25-1.442 2.223-3.43-.798-1.549-2.587-2.907-4.395-3.488l-4.418-8.532c-3.189-6.171-.112-10.938 6.844-10.632 6.962.302 15.205 5.552 18.401 11.719l4.418 8.532c-1.279.451-1.705 1.709-.903 3.265 1.027 1.989 3.697 3.689 5.955 3.783 2.257.095 3.251-1.441 2.224-3.43-.799-1.549-2.587-2.906-4.396-3.487l-4.418-8.532c-3.909-7.571-14.053-14.03-22.6-14.399zm9.275 106.041l10.468-5.581.202-10.994-36.597-70.443-.237 11.048-10.433 5.527 36.597 70.443z" fill="#2062F5"/><path d="M854.691 331.921l36.597 70.443 61.139 2.547-36.593-70.454-61.143-2.536z" fill="#D18AB7"/><path d="M844.021 348.496l36.597 70.443 61.147 2.542-36.601-70.45-61.143-2.535z" fill="#FF4AED"/><path d="M941.764 421.481l-.377-7.14 11.048-9.434-36.597-70.443-11.103 9.517.432 7.057 36.597 70.443z" fill="#2062F5"/><path d="M857.702 352.833a1.74 1.74 0 00-.422.454l.767-1.211c.007-.004.01-.014.01-.014.035-.055.077-.112.115-.16.046-.05.085-.097.134-.141.049-.044.098-.088.155-.135l.007-.004.173-.117c.067-.044.131-.077.206-.107a1.22 1.22 0 01.224-.09l-.767 1.211a2.134 2.134 0 00-.602.314zm7.082 2.159a8.338 8.338 0 00-1.014-.959c-.01-.004-.018-.018-.029-.021a8.773 8.773 0 00-1.203-.788c-.011-.004-.026-.014-.036-.017a8.29 8.29 0 00-1.322-.565l.766-1.21c.151.047.299.106.446.164.137.055.278.117.418.179.119.055.242.117.361.173l.097.048c.011.003.025.014.036.017.065.039.126.07.191.108.101.055.206.118.304.184.094.06.191.126.285.185.094.059.185.129.275.199.047.039.095.077.149.112.011.004.018.018.029.021.029.021.061.049.09.07.091.07.174.144.258.218.087.08.174.161.257.235.091.088.182.176.266.267l.138.162c.015.011.026.032.041.042.029.039.065.074.091.106.106.134.212.268.307.399.135.191.256.389.36.588.513.985.521 1.864.131 2.482l-.767 1.211c.39-.618.383-1.498-.13-2.483a5.856 5.856 0 00-.752-1.096c-.01-.003-.029-.021-.043-.031z" fill="#F600B2"/><path d="M856.769 344.107c-1.585-3.059-1.624-5.779-.408-7.702l.766-1.21c-1.215 1.922-1.181 4.635.408 7.701l4.419 8.532-.767 1.211-4.418-8.532zm28.632 10.408c.007-.004.007-.004 0 0l.767-1.21c.007-.004.01-.015.01-.015.035-.054.077-.112.115-.159.046-.051.085-.098.141-.146.049-.043.099-.087.155-.134l.007-.004.007-.004.173-.117c.068-.044.131-.077.213-.111.071-.037.146-.067.224-.089l-.766 1.21c-.228.082-.433.19-.61.318l-.007.003a1.682 1.682 0 00-.429.458zm8.309 2.836a5.803 5.803 0 00-.751-1.096c-.015-.01-.026-.032-.04-.042a8.249 8.249 0 00-1.01-.952c-.011-.004-.018-.018-.029-.021a8.783 8.783 0 00-1.204-.788c-.01-.004-.025-.014-.036-.017a8.241 8.241 0 00-1.321-.565l.766-1.21c.151.047.299.106.453.16.137.055.277.117.418.179.119.055.241.118.36.173.036.017.065.038.098.048.011.004.025.014.036.018.065.038.133.065.198.104.101.055.206.118.304.184.093.059.191.126.285.185.094.059.185.129.275.199.047.038.094.077.149.112.01.003.018.017.029.021.028.021.061.049.09.07.091.07.174.144.258.217.087.081.174.162.257.235.091.088.182.176.266.268.047.056.091.105.138.162.015.01.026.032.04.042.03.039.066.074.092.106.105.134.211.268.307.399.135.191.256.389.36.587.513.986.521 1.865.131 2.483l-.767 1.21c.372-.617.362-1.486-.152-2.471z" fill="#F600B2"/><path d="M883.354 342.837c-.205-.29-.428-.579-.654-.858-.157-.198-.307-.399-.471-.593-.15-.183-.31-.352-.467-.532a19.937 19.937 0 00-.67-.732l-.403-.412a29.236 29.236 0 00-.818-.791c-.116-.101-.229-.214-.345-.316a34.343 34.343 0 00-1.208-1.038c-.047-.038-.105-.08-.152-.119a27.45 27.45 0 00-1.148-.871 8.841 8.841 0 00-.373-.265 32.676 32.676 0 00-1.132-.772c-.079-.048-.151-.101-.231-.149a34.3 34.3 0 00-1.39-.835 9.137 9.137 0 00-.404-.222 27.15 27.15 0 00-1.043-.548c-.184-.093-.378-.19-.569-.28-.3-.141-.595-.276-.897-.407-.256-.11-.505-.224-.757-.327-.241-.099-.486-.188-.723-.281a25.538 25.538 0 00-1.234-.43c-.258-.081-.51-.166-.765-.241a26.329 26.329 0 00-.589-.162c-.327-.091-.654-.164-.98-.237a23.114 23.114 0 00-.578-.123 20.965 20.965 0 00-1.047-.175c-.165-.022-.326-.056-.491-.078a25.336 25.336 0 00-1.511-.132 16.66 16.66 0 00-1.883.035 7.263 7.263 0 00-.564.06c-.339.041-.667.086-.988.145a7.91 7.91 0 00-.609.128c-.186.042-.363.099-.545.149-.235.068-.462.15-.682.229-.128.049-.256.097-.373.149a7.983 7.983 0 00-.78.389l-.171.088a6.636 6.636 0 00-.82.572c-.063.051-.123.109-.186.16a5.683 5.683 0 00-.553.531c-.06.059-.112.113-.168.178a6.811 6.811 0 00-.588.775l.766-1.21c.014-.025.028-.051.046-.069a6.49 6.49 0 01.451-.604c.028-.033.063-.069.091-.102.049-.062.109-.12.161-.174.088-.091.165-.185.253-.276.095-.095.201-.168.3-.256.063-.051.123-.109.187-.16.039-.029.067-.062.098-.087.212-.165.438-.319.679-.462a9.094 9.094 0 01.213-.111 8.52 8.52 0 01.577-.31c.064-.033.135-.052.203-.079.124-.055.252-.104.38-.152.121-.045.227-.101.359-.142.106-.038.22-.061.331-.092.177-.056.352-.102.544-.148.103-.027.196-.057.299-.084.096-.023.21-.028.317-.048.321-.059.646-.111.988-.145.118-.017.232-.04.35-.056.068-.008.143-.003.214-.004a17.63 17.63 0 011.884-.035c.497.021.998.066 1.511.132.165.023.333.052.498.074.344.055.688.11 1.036.172.19.037.388.087.588.126.327.074.654.147.98.238.198.05.399.108.6.165.119.037.241.064.367.098.129.04.266.095.399.143.413.136.82.276 1.233.43.133.048.263.089.389.14.111.041.223.1.335.141.252.103.507.213.763.323l.486.207c.141.062.271.138.411.2.191.09.375.183.57.28.122.063.252.121.385.187.22.111.44.239.657.361.137.073.274.145.415.225.054.035.112.059.166.094.386.222.769.456 1.145.692.025.014.054.035.079.049.08.049.152.101.232.15.26.171.527.338.78.512.123.081.236.175.359.255.126.088.246.179.372.266.105.08.214.15.319.231.279.206.554.423.822.644.047.038.102.073.152.119l.044.031c.34.273.671.561.997.842.055.052.109.105.171.154.116.102.228.214.345.316.156.144.323.291.472.439l.342.345c.134.137.279.277.407.418.084.092.171.173.251.257.142.152.273.317.415.469.157.179.321.355.471.539.051.063.109.123.16.187.106.134.201.264.303.391.23.286.453.576.658.865.059.078.128.159.179.241.052.081.093.159.14.233.451.658.873 1.33 1.221 2.014l4.418 8.532-.766 1.21-4.418-8.531a21.397 21.397 0 00-1.221-2.014c-.149-.13-.252-.293-.369-.448z" fill="#2062F5"/><path d="M862.304 330.929c-8.558-.372-12.329 5.487-8.413 13.054l4.419 8.532c-1.28.451-1.695 1.712-.886 3.265 1.027 1.988 3.687 3.685 5.944 3.78 2.258.094 3.251-1.442 2.224-3.43-.798-1.549-2.587-2.907-4.395-3.488l-4.429-8.535c-3.196-6.168-.108-10.931 6.848-10.626 6.962.302 15.205 5.552 18.401 11.72l4.418 8.532c-1.279.45-1.705 1.709-.904 3.265 1.028 1.988 3.698 3.688 5.956 3.783 2.257.094 3.251-1.442 2.223-3.43-.798-1.549-2.587-2.907-4.395-3.488l-4.418-8.531c-3.913-7.579-14.053-14.031-22.593-14.403z" fill="#2062F5"/><path d="M904.735 343.981l.429 7.05 36.6 70.45-.377-7.14-36.652-70.36zm-60.713 4.515l9.586-5.076 2.885 5.59-12.471-.514z" fill="#32B5F7"/></g><g opacity=".15" clip-path="url(#clip1)"><path d="M1263.23 97.889c.28.225.52.467.7.755l-1.28-2.014c-.01-.006-.01-.024-.01-.024-.06-.09-.13-.186-.2-.265a2.249 2.249 0 00-.22-.235 4.647 4.647 0 00-.26-.225l-.01-.006-.01-.006-.29-.195a1.92 1.92 0 00-.34-.179 2.074 2.074 0 00-.37-.149l1.27 2.014c.4.132.72.316 1.02.529zm-11.79 3.592c.51-.562 1.07-1.106 1.69-1.596.02-.005.03-.029.05-.034.62-.484 1.29-.93 2-1.311.02-.006.04-.023.06-.03.71-.38 1.46-.695 2.2-.938l-1.28-2.014c-.25.08-.49.176-.74.273-.23.092-.46.195-.69.298-.2.092-.4.195-.6.287-.06.029-.1.052-.16.08a.415.415 0 00-.06.03c-.11.063-.21.115-.32.179-.17.092-.35.196-.51.306l-.47.308c-.16.098-.31.215-.46.331-.08.064-.16.128-.25.186-.02.006-.03.03-.05.035-.04.035-.1.082-.15.117-.15.116-.29.239-.42.362-.15.134-.29.268-.43.39-.15.147-.31.293-.45.446-.07.093-.15.175-.23.27-.02.017-.04.052-.06.07-.05.064-.11.123-.15.176-.18.223-.36.446-.51.663-.23.318-.43.647-.6.978-.86 1.639-.87 3.102-.22 4.13l1.27 2.014c-.65-1.028-.63-2.491.22-4.13.33-.637.75-1.243 1.25-1.823.02-.006.04-.024.07-.053z" fill="#2062F5"/><path d="M1264.78 83.37c2.63-5.089 2.7-9.615.68-12.813l-1.28-2.014c2.02 3.198 1.97 7.712-.68 12.814l-7.35 14.195 1.28 2.014 7.35-14.195z" fill="#F600B2"/><path d="M1217.14 100.688c-.01-.006 0 0 0 0l-1.28-2.014c-.01-.006-.01-.024-.01-.024-.06-.09-.13-.187-.2-.265a2.019 2.019 0 00-.23-.242 4.608 4.608 0 00-.26-.224l-.01-.007-.01-.006-.29-.195a2.114 2.114 0 00-.35-.184 1.902 1.902 0 00-.38-.15l1.28 2.015c.38.137.72.315 1.01.528.31.22.55.479.73.768zm-13.83 4.718c.33-.637.75-1.242 1.25-1.823.03-.017.04-.053.07-.07.49-.569 1.06-1.095 1.68-1.584.02-.006.03-.03.05-.035.62-.483 1.29-.93 2-1.311.02-.006.04-.023.06-.029a13.81 13.81 0 012.2-.939l-1.28-2.014c-.25.08-.49.176-.75.267-.23.092-.46.195-.7.298-.19.092-.4.196-.59.287-.06.03-.11.064-.17.081a.338.338 0 01-.06.029c-.1.063-.22.11-.33.173a7.52 7.52 0 00-.5.306c-.16.099-.32.21-.48.308-.15.098-.3.215-.45.331-.08.064-.16.129-.25.187-.02.005-.03.029-.05.034-.05.035-.1.082-.15.117-.15.116-.29.239-.43.361-.14.135-.29.269-.43.392-.15.146-.3.292-.44.445l-.23.269c-.02.018-.04.053-.07.071-.04.064-.11.123-.15.176-.17.223-.35.446-.51.663-.22.318-.43.647-.6.978-.85 1.639-.86 3.102-.22 4.13l1.28 2.014c-.63-1.015-.6-2.472.25-4.112z" fill="#2062F5"/><path d="M1220.54 81.257c.35-.482.72-.963 1.09-1.427.26-.329.51-.663.79-.986.25-.305.51-.586.77-.885.37-.41.73-.82 1.12-1.219.22-.228.45-.456.67-.685.44-.444.9-.883 1.36-1.315.19-.17.38-.357.57-.526a44.03 44.03 0 012.03-1.721c.07-.064.17-.134.25-.198a46.49 46.49 0 011.91-1.45c.2-.15.41-.296.62-.441.62-.442 1.24-.866 1.88-1.283.13-.081.26-.169.39-.25a52 52 0 012.31-1.389c.22-.127.44-.248.67-.37.57-.317 1.15-.616 1.74-.91.3-.156.63-.317.95-.466.49-.236.98-.46 1.49-.677.42-.183.84-.373 1.26-.544.4-.166.8-.314 1.2-.468.69-.256 1.37-.5 2.05-.715.43-.136.85-.277 1.28-.401.33-.096.65-.185.98-.27a30.04 30.04 0 011.63-.394 33.537 33.537 0 012.7-.496c.27-.038.54-.093.82-.13.84-.099 1.68-.174 2.51-.22a27.38 27.38 0 013.13.059c.32.017.63.058.94.099.57.069 1.11.143 1.65.242.34.059.68.13 1.01.213.31.07.6.165.91.247.39.114.76.25 1.13.382.21.08.43.162.62.248.46.192.88.413 1.3.646.09.05.19.099.28.148.48.323.94.652 1.37.98.1.085.2.182.31.267.33.28.63.57.92.884.1.097.18.188.28.296.35.41.68.839.97 1.301l-1.28-2.014c-.02-.042-.04-.084-.07-.114-.23-.343-.48-.686-.75-1.006-.05-.054-.11-.115-.15-.169-.09-.102-.19-.2-.27-.29-.15-.151-.28-.308-.42-.46-.16-.156-.34-.278-.5-.424-.11-.085-.21-.182-.31-.267-.07-.048-.11-.103-.17-.145-.35-.274-.73-.53-1.13-.769a.445.445 0 00-.07-.037c-.09-.049-.19-.098-.28-.147-.31-.178-.63-.355-.96-.516-.11-.055-.23-.087-.34-.13-.2-.093-.42-.174-.63-.255-.2-.075-.38-.167-.6-.236-.17-.062-.36-.101-.55-.152-.29-.094-.58-.17-.9-.247-.18-.044-.33-.095-.5-.14-.16-.037-.35-.047-.53-.08-.53-.097-1.07-.184-1.64-.24-.2-.028-.39-.067-.58-.094-.12-.014-.24-.004-.36-.006-1-.07-2.03-.1-3.14-.058-.82.034-1.66.109-2.51.22-.27.037-.55.086-.83.123-.57.091-1.14.183-1.72.286-.32.06-.65.144-.98.21-.54.121-1.09.243-1.63.395-.33.084-.66.18-1 .275-.2.062-.4.106-.61.162-.21.068-.44.16-.66.227-.69.226-1.36.459-2.05.715-.22.08-.44.147-.65.233-.18.068-.37.166-.55.235-.42.171-.85.354-1.27.538l-.81.343c-.24.103-.45.23-.69.334-.31.149-.62.304-.94.466-.21.103-.42.2-.64.31-.37.184-.74.398-1.1.6-.23.122-.45.243-.69.376-.09.058-.18.098-.27.156-.65.37-1.28.757-1.91 1.152-.04.023-.09.058-.13.08-.13.082-.25.169-.39.25-.43.284-.87.562-1.3.853-.2.133-.39.29-.59.424-.21.145-.41.297-.62.442-.18.134-.36.25-.53.383-.47.344-.92.705-1.37 1.072-.08.064-.17.122-.25.198-.03.018-.05.035-.07.052-.57.455-1.12.934-1.66 1.4-.09.088-.19.176-.29.257-.19.17-.38.357-.57.526-.26.24-.54.485-.79.73-.18.188-.38.387-.57.574-.22.228-.46.462-.67.697-.14.14-.29.286-.42.427-.24.252-.46.528-.69.78-.26.299-.54.591-.79.897-.08.105-.18.205-.26.31-.18.224-.34.44-.51.652-.38.476-.75.957-1.09 1.44-.1.129-.21.263-.3.399-.09.135-.15.265-.23.389-.75 1.093-1.45 2.212-2.03 3.35l-7.35 14.195 1.27 2.015 7.35-14.196c.59-1.132 1.29-2.25 2.03-3.35.24-.252.42-.517.6-.782z" fill="#2062F5"/><path d="M1255.58 61.451c14.24-.618 20.51 9.13 13.99 21.72l-7.35 14.196c2.13.749 2.82 2.848 1.48 5.431-1.71 3.309-6.14 6.132-9.89 6.289-3.76.158-5.41-2.398-3.7-5.707 1.32-2.577 4.3-4.835 7.31-5.802l7.35-14.195c5.31-10.268.19-18.2-11.39-17.691-11.58.502-25.3 9.237-30.61 19.499l-7.35 14.195c2.13.75 2.83 2.843 1.5 5.433-1.71 3.308-6.15 6.137-9.91 6.294-3.75.157-5.41-2.398-3.7-5.707 1.33-2.577 4.31-4.835 7.31-5.802l7.36-14.196c6.5-12.597 23.38-23.344 37.6-23.957zm-15.43 176.431l-17.42-9.285-.34-18.291 60.89-117.204.4 18.382 17.36 9.195-60.89 117.203z" fill="#2062F5"/><path d="M1283.28 93.102l-60.89 117.204-101.72 4.237 60.88-117.222 101.73-4.219z" fill="#D18AB7"/><path d="M1301.04 120.679l-60.89 117.203-101.74 4.231 60.9-117.215 101.73-4.219z" fill="#FF4AED"/><path d="M1138.41 242.113l.63-11.881-18.38-15.696 60.89-117.203 18.47 15.834-.72 11.743-60.89 117.203z" fill="#2062F5"/><path d="M1278.27 127.895c.29.225.53.467.71.755l-1.28-2.014c-.01-.006-.02-.024-.02-.024-.06-.09-.13-.187-.19-.265-.08-.085-.14-.163-.22-.236-.08-.072-.17-.145-.26-.224l-.01-.006-.29-.195a1.905 1.905 0 00-.34-.179 2.12 2.12 0 00-.37-.149l1.27 2.014c.39.126.71.31 1 .523zm-11.78 3.592a13.32 13.32 0 011.69-1.596c.01-.005.03-.029.04-.035.63-.483 1.3-.93 2.01-1.31.02-.006.04-.024.06-.029.71-.381 1.45-.696 2.2-.939l-1.28-2.014c-.25.079-.5.176-.74.273-.23.091-.46.195-.7.298-.19.092-.4.195-.6.287-.06.029-.1.052-.16.081-.02.005-.04.023-.06.029-.11.063-.21.115-.32.179-.16.092-.34.196-.5.306-.16.099-.32.209-.48.308-.15.098-.3.215-.45.331-.08.064-.16.128-.25.186-.02.006-.03.03-.05.035-.05.035-.1.082-.15.117-.15.116-.29.239-.43.361-.14.135-.29.269-.43.392-.15.146-.3.292-.44.445l-.23.269c-.02.018-.04.053-.07.071-.04.064-.1.123-.15.175-.17.224-.35.447-.51.664-.22.318-.43.647-.6.978-.85 1.639-.86 3.102-.21 4.13l1.27 2.014c-.65-1.028-.64-2.491.22-4.13.33-.637.75-1.243 1.25-1.824.02-.005.05-.034.07-.052z" fill="#F600B2"/><path d="M1279.83 113.377c2.63-5.09 2.7-9.616.67-12.814l-1.27-2.014c2.02 3.198 1.96 7.712-.68 12.814l-7.35 14.195 1.27 2.014 7.36-14.195zm-47.64 17.317c-.02-.006-.02-.006 0 0l-1.28-2.014c-.01-.006-.02-.024-.02-.024-.05-.09-.12-.187-.19-.265a1.997 1.997 0 00-.23-.242c-.08-.073-.17-.146-.26-.224l-.01-.007-.01-.006-.29-.195a1.896 1.896 0 00-.36-.184 1.789 1.789 0 00-.37-.149l1.28 2.014c.38.137.72.315 1.01.528l.01.006c.3.214.52.467.72.762zm-13.83 4.718c.33-.637.75-1.243 1.25-1.823.03-.018.04-.053.07-.07.5-.563 1.06-1.095 1.68-1.584.02-.006.03-.03.05-.035.62-.484 1.29-.93 2-1.311.02-.006.04-.023.06-.029.71-.381 1.46-.695 2.2-.939l-1.28-2.014c-.25.079-.49.176-.75.267-.23.092-.46.195-.7.298-.19.092-.4.195-.6.287-.06.029-.1.064-.16.081-.02.006-.04.023-.06.029-.11.063-.22.109-.33.173-.17.092-.34.196-.5.306-.16.099-.32.209-.48.308-.15.098-.3.215-.46.331a1.81 1.81 0 01-.24.186c-.02.006-.03.03-.05.035-.05.035-.1.082-.15.117-.15.116-.29.239-.43.361-.14.135-.29.269-.43.392-.15.146-.3.292-.44.444l-.23.27c-.02.018-.04.053-.07.07-.05.065-.11.124-.15.176-.18.224-.35.447-.51.664-.23.318-.43.647-.6.977-.85 1.64-.87 3.103-.22 4.131l1.28 2.014c-.62-1.027-.6-2.473.25-4.112z" fill="#F600B2"/><path d="M1235.59 111.263c.34-.482.72-.963 1.09-1.427.26-.329.51-.664.79-.986.24-.305.51-.586.77-.885.37-.411.73-.821 1.12-1.219.22-.228.44-.457.67-.685.44-.445.89-.883 1.36-1.315.19-.17.38-.357.57-.526.65-.59 1.33-1.168 2.01-1.727.08-.065.18-.134.26-.198.62-.502 1.25-.979 1.91-1.45.19-.151.4-.296.62-.441a54.68 54.68 0 011.88-1.284c.13-.08.25-.168.38-.249.76-.475 1.53-.944 2.32-1.389.21-.127.44-.248.67-.37.57-.317 1.15-.617 1.73-.91.31-.156.63-.317.95-.466.5-.236.99-.46 1.49-.677.43-.183.84-.373 1.26-.544.4-.166.81-.314 1.21-.468.68-.256 1.37-.5 2.05-.715.43-.136.85-.277 1.27-.401.34-.096.65-.186.98-.27.55-.151 1.09-.273 1.63-.395.32-.072.65-.144.96-.204.59-.115 1.16-.206 1.75-.292.27-.037.54-.092.81-.129.85-.099 1.68-.174 2.52-.22 1.09-.047 2.13-.012 3.13.059.32.017.63.058.94.099.56.069 1.11.143 1.64.241.35.06.68.13 1.02.214.3.07.6.164.9.247.39.113.77.25 1.14.381.21.081.42.162.62.249.45.192.88.413 1.3.646.09.05.18.098.28.148.49.288.94.61 1.36.95.11.085.21.182.31.267.34.28.64.57.92.884.1.097.19.188.28.296.36.41.69.839.98 1.29l-1.27-2.014c-.03-.043-.05-.085-.08-.115a11.45 11.45 0 00-.75-1.006c-.05-.054-.1-.114-.15-.169-.08-.102-.18-.2-.27-.29-.15-.15-.27-.308-.42-.459-.16-.157-.34-.28-.5-.425-.11-.085-.2-.181-.31-.267-.06-.048-.11-.103-.16-.145-.36-.274-.73-.53-1.13-.768-.03-.013-.05-.025-.07-.037-.1-.05-.19-.099-.29-.148a13.41 13.41 0 00-.96-.516c-.1-.055-.22-.087-.34-.13a8.35 8.35 0 00-.63-.255c-.2-.074-.38-.166-.59-.236-.18-.062-.37-.1-.56-.152a11.7 11.7 0 00-.9-.247c-.17-.044-.33-.094-.5-.139-.16-.038-.35-.047-.53-.08-.53-.098-1.07-.184-1.64-.242-.2-.027-.39-.066-.58-.093-.11-.013-.24-.004-.36-.006-1-.07-2.03-.099-3.13-.058-.83.034-1.66.11-2.52.22-.27.037-.55.086-.83.123-.57.091-1.14.183-1.72.286-.32.06-.64.144-.98.21-.54.122-1.08.244-1.63.395-.33.084-.66.18-1 .275-.19.062-.4.106-.61.162-.21.068-.44.16-.66.239-.69.226-1.36.459-2.05.715-.22.08-.44.148-.65.233-.18.069-.37.166-.56.235-.42.171-.84.355-1.27.538l-.81.343c-.23.103-.45.23-.68.334-.32.15-.62.305-.95.466-.2.103-.42.2-.64.31-.36.184-.73.398-1.09.6-.23.122-.46.243-.69.376-.09.058-.19.098-.28.156-.64.37-1.28.758-1.9 1.152-.04.023-.09.058-.13.08-.14.082-.26.169-.39.25-.43.284-.88.562-1.3.853-.2.133-.39.29-.59.424-.22.145-.41.297-.62.442-.18.134-.36.25-.53.383-.47.344-.93.705-1.37 1.072-.08.064-.17.122-.26.198a.425.425 0 01-.07.053c-.56.454-1.11.933-1.66 1.399-.09.088-.18.176-.28.257-.19.17-.38.357-.58.526-.25.24-.53.485-.78.731-.19.187-.38.386-.57.573-.22.228-.47.462-.68.697-.14.152-.28.286-.41.427-.24.252-.46.528-.7.78-.26.299-.53.591-.78.897-.08.105-.18.205-.27.31-.17.224-.33.441-.5.652-.38.476-.75.957-1.09 1.439-.1.13-.22.264-.3.4-.09.135-.16.265-.24.389-.75 1.093-1.45 2.212-2.03 3.35l-7.35 14.196 1.28 2.014 7.35-14.196c.59-1.132 1.29-2.25 2.03-3.35.25-.216.42-.487.61-.746z" fill="#2062F5"/><path d="M1270.62 91.451c14.23-.618 20.51 9.129 13.99 21.72l-7.35 14.195c2.13.75 2.82 2.849 1.47 5.432-1.7 3.309-6.13 6.132-9.89 6.289-3.75.157-5.41-2.398-3.7-5.707 1.33-2.577 4.31-4.836 7.32-5.802l7.37-14.201c5.31-10.262.17-18.188-11.4-17.68-11.58.503-25.3 9.238-30.61 19.5l-7.35 14.195c2.12.75 2.83 2.843 1.5 5.432-1.71 3.309-6.15 6.138-9.91 6.295-3.76.157-5.41-2.398-3.7-5.707 1.33-2.577 4.3-4.836 7.31-5.803l7.35-14.195c6.51-12.609 23.39-23.344 37.6-23.963z" fill="#2062F5"/><path d="M1200.02 113.167l-.71 11.731-60.9 117.215.63-11.881 60.98-117.065zm101.02 7.512l-15.95-8.446-4.8 9.301 20.75-.855z" fill="#32B5F7"/></g><g opacity=".1" clip-path="url(#clip2)"><path d="M12.85 108.459l5.295-10.615-6.208-9.075-70.656-36.183 6.21 9.14-5.297 10.55 70.657 36.183z" fill="#2062F5"/><path d="M-58.72 52.586l70.656 36.183L63.231 55.4-7.43 19.206l-51.291 33.38z" fill="#D18AB7"/><path d="M-57.806 72.276L12.85 108.46l51.298-33.375-70.663-36.187-51.291 33.38z" fill="#FF4AED"/><path d="M64.15 75.084l-4.447-5.6 3.533-14.091L-7.421 19.21l-3.53 14.191 4.444 5.5L64.15 75.084z" fill="#2062F5"/><path d="M-10.953 33.401l4.437 5.496 70.664 36.187-4.447-5.6-70.654-36.083z" fill="#32B5F7"/></g><g opacity=".1" clip-path="url(#clip3)"><path d="M78.168 731.517c.355.278.643.576.864.931l-1.571-2.482c-.015-.008-.022-.03-.022-.03a3.597 3.597 0 00-.236-.326c-.094-.105-.173-.201-.274-.291-.101-.09-.202-.179-.318-.277l-.015-.007-.014-.008a25.818 25.818 0 00-.355-.24 2.248 2.248 0 00-.422-.22 2.507 2.507 0 00-.459-.184l1.572 2.483a4.53 4.53 0 011.25.651zm-14.526 4.428a17.148 17.148 0 012.079-1.967c.022-.007.037-.036.06-.043a18.107 18.107 0 012.468-1.615c.022-.007.052-.029.074-.036a16.904 16.904 0 012.71-1.157l-1.572-2.483c-.31.098-.612.217-.914.337-.28.113-.569.24-.857.367-.244.113-.495.241-.74.354-.073.036-.125.064-.199.1-.022.006-.052.028-.074.035-.133.078-.259.142-.392.221a7.878 7.878 0 00-.622.378c-.193.121-.393.257-.586.379-.192.121-.378.265-.564.408-.097.079-.193.158-.304.23-.022.007-.038.036-.06.043-.06.043-.126.1-.185.143-.186.144-.357.295-.528.446-.18.166-.358.331-.53.483-.185.18-.372.36-.544.548-.097.115-.186.217-.284.332-.03.022-.052.065-.082.087-.06.079-.134.152-.187.217-.217.275-.434.55-.63.818-.277.391-.526.797-.738 1.204-1.053 2.021-1.068 3.825-.268 5.092l1.571 2.482c-.8-1.267-.784-3.07.269-5.091.409-.785.927-1.532 1.54-2.247a.272.272 0 00.09-.065z" fill="#2062F5"/><path d="M80.079 713.622c3.25-6.273 3.329-11.852.836-15.794l-1.572-2.483c2.493 3.943 2.422 9.507-.836 15.795l-9.062 17.497 1.572 2.482 9.062-17.497z" fill="#F600B2"/><path d="M21.358 734.968c-.014-.008 0 0 0 0l-1.571-2.483c-.015-.008-.022-.03-.022-.03a3.636 3.636 0 00-.236-.326c-.094-.104-.173-.201-.288-.298-.102-.09-.203-.18-.318-.277l-.015-.007-.015-.008c-.108-.075-.232-.158-.355-.241a2.497 2.497 0 00-.436-.227 2.51 2.51 0 00-.459-.184l1.572 2.483c.466.169.888.389 1.25.651.377.271.672.591.893.947zm-17.042 5.815c.41-.785.928-1.531 1.54-2.247.03-.022.053-.065.083-.087a15.408 15.408 0 012.071-1.952c.022-.007.037-.036.06-.043a18.017 18.017 0 012.468-1.616c.022-.007.052-.028.074-.035a16.82 16.82 0 012.71-1.158l-1.571-2.482c-.31.097-.613.217-.93.329-.28.113-.568.24-.856.367-.244.113-.496.241-.74.354-.074.036-.133.079-.2.1-.021.006-.051.028-.073.035-.133.078-.274.135-.407.213a7.886 7.886 0 00-.622.378c-.193.122-.393.258-.586.379a7.392 7.392 0 00-.564.409 3.135 3.135 0 01-.304.229c-.022.007-.038.036-.06.043-.06.043-.126.101-.185.144a9.797 9.797 0 00-.528.446c-.18.165-.358.331-.53.482-.185.18-.372.36-.543.548l-.285.333c-.03.021-.052.065-.082.086-.06.08-.134.152-.187.217-.217.275-.434.55-.63.818a10.35 10.35 0 00-.738 1.205c-1.053 2.021-1.068 3.824-.268 5.091l1.571 2.483c-.77-1.252-.74-3.048.312-5.069z" fill="#2062F5"/><path d="M25.556 711.017a34.05 34.05 0 011.342-1.759c.322-.405.63-.818.966-1.216.307-.376.635-.722.957-1.091.448-.505.897-1.011 1.374-1.502l.828-.844a58.506 58.506 0 011.677-1.622c.238-.208.47-.439.707-.648a53.23 53.23 0 012.492-2.121c.097-.079.215-.165.312-.244a55.95 55.95 0 012.354-1.786c.245-.187.505-.366.765-.545a72.931 72.931 0 012.32-1.582c.164-.099.312-.207.475-.307a72.082 72.082 0 012.852-1.712c.266-.157.548-.306.829-.455a53.178 53.178 0 012.137-1.123c.378-.192.777-.39 1.169-.575.613-.29 1.219-.566 1.84-.834.523-.226 1.033-.459 1.55-.671.495-.204.996-.386 1.483-.576.849-.316 1.69-.617 2.53-.882.53-.167 1.047-.342 1.57-.494.413-.118.803-.229 1.208-.332.67-.187 1.34-.337 2.01-.487.398-.089.795-.177 1.185-.251a43.44 43.44 0 012.147-.36c.338-.046.669-.114 1.007-.16a50.89 50.89 0 013.099-.27 33.85 33.85 0 013.862.071c.396.022.776.072 1.157.122.695.085 1.368.177 2.026.298.424.073.84.161 1.25.263.38.087.744.203 1.116.305.482.14.948.309 1.4.47.262.1.525.2.765.306.56.237 1.084.51 1.6.797l.349.182a36.3 36.3 0 011.68 1.208c.13.105.253.225.383.329.413.345.78.703 1.134 1.09.122.119.23.231.345.365.44.506.848 1.033 1.198 1.604l-1.572-2.483a.679.679 0 00-.093-.141 13.704 13.704 0 00-.925-1.24c-.057-.067-.13-.141-.187-.208-.1-.126-.223-.246-.331-.358-.18-.186-.338-.379-.519-.565-.194-.194-.412-.345-.614-.524-.13-.105-.253-.224-.383-.329-.08-.06-.137-.127-.203-.179a13.55 13.55 0 00-1.392-.947 3.663 3.663 0 00-.087-.046l-.349-.182c-.385-.219-.77-.438-1.184-.635-.131-.069-.277-.108-.415-.161-.255-.115-.517-.214-.78-.314-.247-.092-.465-.206-.735-.291-.22-.077-.453-.125-.68-.187-.364-.116-.722-.21-1.116-.305-.212-.055-.401-.117-.613-.171-.197-.048-.432-.059-.65-.099a24.533 24.533 0 00-2.027-.298c-.241-.033-.475-.081-.716-.115-.14-.017-.294-.005-.44-.007a35.46 35.46 0 00-3.863-.072c-1.02.042-2.048.135-3.099.271-.338.046-.684.106-1.022.152-.705.112-1.411.225-2.125.353-.39.074-.794.177-1.206.258-.67.15-1.34.3-2.01.487-.405.103-.818.221-1.23.339-.244.076-.494.131-.752.2-.265.083-.545.196-.81.28-.849.279-1.682.565-2.53.881-.273.098-.539.182-.797.288-.229.084-.458.204-.687.289a88.49 88.49 0 00-1.565.663l-.997.423c-.288.127-.555.284-.843.411-.392.184-.769.376-1.168.575-.252.127-.517.248-.791.382-.451.227-.903.491-1.347.74-.281.15-.562.299-.85.463-.112.071-.23.121-.341.192-.792.456-1.578.934-2.348 1.42-.052.028-.111.071-.163.1-.163.1-.312.207-.475.307-.533.351-1.082.693-1.601 1.051-.252.165-.483.359-.735.523-.26.179-.504.366-.764.545-.215.165-.438.308-.653.473-.572.423-1.136.868-1.687 1.321-.096.079-.207.15-.312.244l-.089.064c-.698.56-1.375 1.15-2.045 1.726a4.937 4.937 0 01-.35.317c-.238.208-.469.439-.707.648-.32.295-.663.597-.968.9-.232.231-.47.476-.701.707-.276.281-.575.569-.836.858-.164.174-.35.354-.515.527-.29.31-.56.651-.852.961-.321.369-.657.73-.964 1.106-.105.13-.224.253-.329.383-.217.275-.412.543-.622.803a36.47 36.47 0 00-1.35 1.774c-.12.159-.262.326-.367.493-.105.166-.189.326-.287.479-.924 1.348-1.79 2.727-2.503 4.13l-9.062 17.497 1.572 2.483 9.062-17.498c.727-1.395 1.593-2.774 2.503-4.13.291-.31.517-.636.742-.963z" fill="#2062F5"/><path d="M68.74 686.604c17.552-.762 25.284 11.252 17.253 26.772l-9.062 17.498c2.624.923 3.476 3.511 1.817 6.695-2.107 4.078-7.562 7.558-12.191 7.752-4.63.193-6.667-2.957-4.56-7.035 1.636-3.177 5.305-5.96 9.013-7.152l9.061-17.497c6.54-12.656.229-22.433-14.036-21.806-14.278.619-31.183 11.386-37.737 24.035l-9.062 17.497c2.625.924 3.498 3.505 1.854 6.696-2.107 4.078-7.584 7.565-12.214 7.759-4.63.193-6.666-2.957-4.56-7.035 1.637-3.177 5.305-5.96 9.014-7.152l9.061-17.497c8.017-15.528 28.82-28.774 46.35-29.53zM49.718 904.075L28.25 892.63l-.415-22.546 75.054-144.466.486 22.657 21.397 11.334-75.054 144.466z" fill="#2062F5"/><path d="M102.888 725.618L27.834 870.084l-125.387 5.222 75.047-144.488 125.394-5.2z" fill="#D18AB7"/><path d="M124.771 759.609L49.717 904.075l-125.402 5.215L-.623 764.809l125.394-5.2z" fill="#FF4AED"/><path d="M-75.685 909.289l.773-14.644-22.656-19.347 75.054-144.466L.256 750.35l-.886 14.473-75.055 144.466z" fill="#2062F5"/><path d="M96.715 768.503c.355.277.643.575.864.931l-1.571-2.483c-.015-.007-.022-.029-.022-.029a3.803 3.803 0 00-.236-.327c-.094-.104-.173-.201-.274-.29-.101-.09-.203-.18-.318-.277l-.015-.007c-.108-.076-.232-.158-.355-.241a2.308 2.308 0 00-.422-.22 2.503 2.503 0 00-.458-.183l1.571 2.482c.474.155.874.381 1.236.644zm-14.525 4.428c.62-.694 1.32-1.364 2.078-1.967.022-.007.037-.036.06-.043a18.107 18.107 0 012.468-1.616c.022-.007.052-.028.074-.035a16.81 16.81 0 012.71-1.157l-1.572-2.483c-.31.098-.612.217-.914.337-.281.112-.569.24-.857.367-.244.113-.495.241-.74.354-.073.035-.125.064-.199.099-.022.007-.052.029-.074.036-.133.078-.259.142-.392.22a7.892 7.892 0 00-.622.379c-.193.121-.393.257-.586.378a7.386 7.386 0 00-.564.409 3.389 3.389 0 01-.304.23c-.022.006-.038.036-.06.043-.06.043-.126.1-.186.143-.185.144-.356.295-.528.446-.178.165-.357.331-.528.482-.186.18-.373.361-.545.548-.097.116-.187.217-.284.333-.03.021-.052.065-.082.087-.06.079-.134.151-.187.216-.217.275-.434.55-.63.818a10.44 10.44 0 00-.738 1.205c-1.053 2.021-1.069 3.824-.269 5.092l1.572 2.482c-.8-1.267-.784-3.07.269-5.091.409-.785.927-1.532 1.54-2.247.022-.007.06-.043.09-.065z" fill="#F600B2"/><path d="M98.628 750.608c3.25-6.274 3.328-11.852.835-15.794l-1.571-2.483c2.493 3.942 2.422 9.506-.836 15.794l-9.062 17.498 1.572 2.482 9.062-17.497zm-58.721 21.345c-.014-.007-.014-.007 0 0l-1.571-2.482c-.015-.008-.022-.03-.022-.03a3.76 3.76 0 00-.236-.327c-.094-.104-.173-.2-.289-.298-.1-.089-.202-.179-.318-.276l-.014-.008-.015-.007c-.108-.076-.232-.158-.355-.241a2.433 2.433 0 00-.436-.227 2.51 2.51 0 00-.459-.184l1.572 2.483a5.06 5.06 0 011.25.651l.014.008c.363.262.643.575.88.938zm-17.042 5.816c.41-.785.928-1.532 1.54-2.247.03-.022.053-.066.083-.087a16.908 16.908 0 012.07-1.953c.023-.006.038-.036.06-.043a18.107 18.107 0 012.469-1.615c.022-.007.052-.029.074-.036a16.904 16.904 0 012.71-1.157l-1.572-2.483c-.31.098-.612.218-.929.33-.28.112-.569.239-.857.367-.244.113-.495.241-.739.354-.074.035-.133.078-.2.099-.022.007-.051.029-.073.036-.134.078-.274.134-.407.213a7.896 7.896 0 00-.622.378c-.193.121-.393.257-.586.379-.193.121-.378.265-.564.408-.097.079-.193.158-.305.23-.022.007-.037.036-.059.043-.06.043-.126.1-.186.143-.185.144-.356.295-.528.446-.178.166-.357.331-.528.483-.187.18-.373.36-.545.548-.097.115-.187.217-.284.332-.03.022-.052.065-.082.087-.06.079-.134.152-.187.217-.217.275-.434.55-.63.818-.277.391-.526.797-.738 1.204-1.053 2.021-1.069 3.825-.268 5.092l1.571 2.482c-.763-1.266-.74-3.047.312-5.068z" fill="#F600B2"/><path d="M44.105 748.003c.42-.594.878-1.188 1.342-1.759.322-.406.63-.818.966-1.216.307-.376.636-.723.957-1.091.449-.506.897-1.012 1.374-1.502l.828-.844a58.637 58.637 0 011.677-1.622c.238-.209.47-.439.708-.648a68.945 68.945 0 012.477-2.129c.096-.079.215-.165.312-.244a56.774 56.774 0 012.354-1.787c.245-.186.505-.365.764-.544a72.931 72.931 0 012.322-1.582c.163-.1.311-.207.474-.307a72.082 72.082 0 012.852-1.712 21.3 21.3 0 01.828-.455 53.178 53.178 0 012.138-1.123 41.47 41.47 0 011.168-.575c.614-.29 1.22-.566 1.84-.834.524-.226 1.034-.459 1.55-.671.496-.204.997-.386 1.484-.576.849-.316 1.69-.617 2.53-.882.53-.167 1.047-.342 1.57-.494.413-.118.803-.229 1.208-.332a39.83 39.83 0 012.01-.487c.397-.089.795-.177 1.184-.251a43.436 43.436 0 012.147-.36c.339-.046.67-.114 1.008-.16a50.89 50.89 0 013.098-.27 33.85 33.85 0 013.863.071c.396.022.776.072 1.157.122.695.085 1.368.177 2.026.298.424.073.84.161 1.25.263.379.087.744.203 1.116.305.481.14.948.309 1.4.47a16.398 16.398 0 012.364 1.103l.349.182c.61.355 1.161.752 1.682 1.172.13.105.253.224.383.329.412.344.78.702 1.133 1.089.123.12.231.231.346.365a13.98 13.98 0 011.205 1.589l-1.572-2.482a.639.639 0 00-.093-.141 13.527 13.527 0 00-.925-1.24c-.057-.067-.129-.141-.187-.208-.1-.127-.223-.246-.331-.358-.18-.186-.338-.379-.519-.566-.194-.194-.412-.344-.614-.523-.13-.105-.253-.224-.383-.329-.08-.06-.137-.127-.203-.18a13.682 13.682 0 00-1.391-.947l-.088-.045-.349-.182c-.385-.219-.77-.438-1.184-.636-.131-.068-.277-.107-.415-.161a14.068 14.068 0 00-.78-.313c-.248-.092-.466-.206-.735-.291-.22-.077-.453-.125-.68-.187-.364-.117-.722-.21-1.116-.305-.212-.055-.401-.117-.613-.172-.197-.047-.432-.058-.65-.098a24.54 24.54 0 00-2.027-.298c-.241-.034-.475-.082-.717-.115-.139-.017-.293-.005-.44-.007a35.458 35.458 0 00-3.862-.072c-1.02.041-2.048.134-3.099.271-.338.045-.684.106-1.022.151-.705.113-1.411.226-2.125.353-.39.075-.794.178-1.206.259-.67.15-1.34.3-2.01.487-.405.103-.818.221-1.23.339-.244.076-.494.131-.752.2-.265.083-.545.196-.818.294-.848.279-1.682.566-2.53.882-.273.098-.538.181-.797.287-.228.084-.458.205-.686.289a88.49 88.49 0 00-1.566.663l-.997.423c-.288.127-.555.284-.843.411-.391.185-.768.376-1.168.575-.251.128-.517.248-.79.383-.452.227-.903.49-1.348.74-.28.149-.562.298-.85.462-.112.071-.23.121-.34.192a68.12 68.12 0 00-2.349 1.42c-.052.029-.111.072-.163.1-.163.1-.311.208-.474.307-.534.351-1.082.694-1.602 1.052-.252.164-.482.358-.734.523-.26.178-.505.365-.765.544-.215.165-.437.308-.653.473-.571.423-1.136.868-1.686 1.321-.097.079-.208.15-.312.244l-.09.065c-.698.56-1.375 1.15-2.044 1.725a4.937 4.937 0 01-.35.317c-.239.209-.47.439-.708.648-.32.295-.662.597-.968.9-.231.231-.47.476-.701.707-.276.281-.574.57-.836.859-.171.187-.35.353-.514.526-.291.311-.561.651-.852.961-.322.369-.658.73-.965 1.106-.104.13-.224.253-.329.383-.217.275-.412.543-.622.804a36.306 36.306 0 00-1.349 1.773c-.12.16-.262.326-.367.493-.106.167-.19.327-.287.479-.925 1.348-1.79 2.727-2.503 4.13l-9.062 17.497 1.572 2.483 9.061-17.497c.727-1.396 1.594-2.775 2.504-4.13.304-.267.515-.6.755-.919z" fill="#2062F5"/><path d="M87.275 723.582c17.552-.762 25.284 11.252 17.253 26.772l-9.062 17.498c2.624.923 3.476 3.511 1.817 6.695-2.107 4.078-7.561 7.558-12.191 7.752-4.63.194-6.667-2.957-4.56-7.035 1.636-3.177 5.305-5.96 9.013-7.152l9.084-17.504c6.553-12.649.22-22.418-14.044-21.791-14.279.619-31.183 11.386-37.737 24.034l-9.062 17.498c2.624.923 3.498 3.504 1.853 6.696-2.106 4.078-7.583 7.564-12.213 7.758-4.63.194-6.667-2.956-4.56-7.034 1.637-3.177 5.305-5.961 9.013-7.152l9.062-17.498c8.024-15.542 28.82-28.774 46.334-29.537z" fill="#2062F5"/><path d="M.256 750.35l-.88 14.459-75.061 144.48.772-14.644L.256 750.35zm124.516 9.259l-19.66-10.411-5.918 11.464 25.578-1.053z" fill="#32B5F7"/></g><defs><clipPath id="clip0"><path fill="#fff" transform="rotate(-27.522 1089.651 -1537.968)" d="M0 0h70.27v131.395H0z"/></clipPath><clipPath id="clip1"><path fill="#fff" transform="scale(-1 1) rotate(-27.522 -477.099 2734.762)" d="M0 0h116.915v218.616H0z"/></clipPath><clipPath id="clip2"><path fill="#fff" transform="rotate(-62.952 12.612 94.177)" d="M0 0h70.27v131.395H0z"/></clipPath><clipPath id="clip3"><path fill="#fff" transform="scale(-1 1) rotate(-27.523 1398.487 656.982)" d="M0 0h144.111v269.468H0z"/></clipPath></defs></svg>