<svg width="771" height="503" fill="none" xmlns="http://www.w3.org/2000/svg"><g clip-path="url(#clip0)"><g opacity=".6"><path opacity=".5" d="M727.261 222.548c-19.906-29.067-60.317-43.413-63.038-88.1-1.031-16.923 9.703-30.999 4.017-47.398-38.152-110.001-195.71-27.007-264.107-.588-28.48 10.998-62.591 23.349-93.663 23.206-35.772-.167-69.679-18.085-105.171-20.24-10.931-.668-21.073.716-30.48 3.881-35.279 11.881-65.305 52.241-75.531 96.116-8.293 35.573 5.299 69.785-8.498 104.849-14.706 37.377-45.437 64.186-51.827 106.9-7.664 51.263 30.61 93.985 69.982 93.738 25.061-.159 71.286-6.632 91.89-25.09 25.083-22.475 50.485-24.94 80.7-25.37 57.505-.819 115.502 11.516 172.598 19.644 48.924 6.966 97.317 18.275 146.619 17.917 36.212-.262 66.92-.97 84.81-46.491 21.369-54.389 83.46-151.992 41.699-212.974z" fill="url(#paint0_linear)"/><path opacity=".5" d="M701.534 232.696c-14.077-19.747-46.862-20.272-67.238-30.976-37.622-19.762-4.837-56.886-16.2-88.243-9.172-25.306-37.318-48.607-65.653-42.81-20.058 4.104-36.477 16.479-54.579 25.147-17.442 8.35-36.469 13.79-55.117 18.84-41.055 11.11-84.021 18.601-126.66 18.474-33.096-.095-64.441-15.945-97.272-17.806-10.112-.573-19.496.668-28.206 3.491-32.657 10.601-60.492 46.476-70.013 85.452-7.716 31.596 4.806 61.943-8.012 93.102-13.66 33.203-42.124 57.061-48.097 94.987-7.164 45.529 28.183 83.392 64.615 83.114 23.188-.175 65.964-5.997 85.051-22.419 23.242-19.993 46.741-22.22 74.69-22.649 53.199-.819 106.838 10.044 159.65 17.17 45.255 6.107 90.002 16.072 135.621 15.682 33.497-.286 61.916-.97 78.525-41.401 19.86-48.329 77.433-135.077 38.895-189.155z" fill="url(#paint1_linear)"/></g><g opacity=".6"><path opacity=".6" d="M628.147 479.993c-2.009 5.09.925 10.823 6.087 11.865 27.107 5.464 107.156 8.891 136.667-130.488.841-3.96-3.859-6.521-6.451-3.515-12.144 14.085-33.74 38.022-52.085 45.394-56.845 22.832-77.426 59.55-84.218 76.744z" fill="url(#paint2_linear)"/><path opacity=".6" d="M632.043 488.248c-.144.04-.281.063-.425.063-.659 0-1.258-.453-1.455-1.145-.235-.843.227-1.726 1.031-1.972 39.562-12.072 68.602-35.286 85.999-52.639 18.837-18.792 28.419-34.88 28.51-35.04.439-.747 1.372-.978 2.084-.516.713.461.933 1.439.493 2.187-.098.167-9.885 16.605-29.002 35.675-17.64 17.592-47.09 41.14-87.235 53.387z" fill="#2A6FAE"/></g><g opacity=".6"><path opacity=".6" d="M696.083 254.351c3.086 26.021 18.512 186.483-62.841 237.69-2.463 1.551-5.624-.175-5.829-3.181-1.319-19.126-2.145-79.901 31.314-151.634 24.144-51.756 32.99-75.081 35.78-83.066.288-.843 1.47-.7 1.576.191z" fill="url(#paint3_linear)"/><path opacity=".6" d="M627.405 490.451c-.243 0-.493-.064-.721-.191-.735-.422-1.008-1.384-.606-2.156 41.018-79.113 58.21-172.772 58.278-177.416-.106-.764.326-1.511 1.046-1.742.796-.262 1.653.207 1.903 1.042.993 3.324-17.716 100.856-58.559 179.635a1.53 1.53 0 01-1.341.828z" fill="#24286C"/></g><g opacity=".7"><g opacity=".7"><path opacity=".7" d="M145.984 344.455s25.455-43.207 12.758-66.755c-12.69-23.548-45.179-53.354-11.424-117.111 19.762-37.33 27.881-53.967 31.216-61.347 1.304-2.88 4.859-3.666 7.148-1.575 16.207 14.792 67.125 65.976 55.875 115.99-13.333 59.272-95.573 130.798-95.573 130.798z" fill="url(#paint4_linear)"/><path opacity=".7" d="M190.048 123.816s.258.811.713 2.362c.439 1.542 1.084 3.801 1.781 6.712a263.986 263.986 0 012.343 10.537c.416 2.044.856 4.215 1.25 6.521.197 1.153.402 2.338.614 3.547.19 1.217.379 2.457.569 3.73.189 1.272.386 2.569.591 3.889.167 1.328.341 2.68.516 4.048.166 1.375.341 2.775.515 4.199.144 1.423.281 2.871.432 4.334.144 1.463.303 2.95.432 4.461.114 1.511.22 3.038.334 4.581.098 1.543.227 3.11.303 4.684.061 1.583.129 3.173.197 4.78.061 1.606.144 3.229.182 4.867.015 1.638.038 3.284.053 4.938.015 1.655.038 3.325.03 5.003-.038 1.678-.083 3.364-.121 5.05-.038 1.694-.083 3.388-.121 5.089-.099 1.702-.197 3.404-.288 5.114l-.296 5.137-.038.645-.03.365-.03.319-.122 1.272-.242 2.545a173.771 173.771 0 01-3.442 20.383 189.882 189.882 0 01-5.541 19.118c-2.092 6.092-4.465 11.841-6.875 17.202-2.411 5.36-4.943 10.298-7.399 14.776-2.448 4.485-4.882 8.477-7.103 11.96a214.992 214.992 0 01-5.988 8.868 132.11 132.11 0 01-4.147 5.495l-1.144 1.416c-.273.326-.41.493-.41.493a1.58 1.58 0 01-2.304.159 1.78 1.78 0 01-.212-2.346l.03-.04s.121-.159.349-.469c.235-.326.583-.803 1.031-1.424.902-1.256 2.183-3.149 3.79-5.567a208.648 208.648 0 005.549-8.915c2.062-3.499 4.275-7.515 6.579-11.961 2.297-4.445 4.624-9.352 6.914-14.617 2.289-5.264 4.457-10.927 6.473-16.859a192.03 192.03 0 005.261-18.594c1.486-6.417 2.638-13.018 3.358-19.643l.25-2.545.129-1.272.053-.589.046-.628c.114-1.686.235-3.364.348-5.042l.342-5.018.182-5.002.181-4.963c.016-1.646.031-3.292.038-4.922l.046-4.86c0-1.606-.053-3.204-.084-4.795l-.091-4.716c-.045-1.559-.136-3.094-.204-4.62-.061-1.527-.129-3.038-.19-4.526-.083-1.487-.197-2.958-.288-4.413-.098-1.456-.197-2.887-.288-4.295-.129-1.407-.258-2.791-.379-4.159-.121-1.36-.235-2.704-.356-4.024-.144-1.312-.288-2.601-.425-3.865-.144-1.265-.28-2.497-.416-3.706-.16-1.201-.311-2.378-.463-3.531a224.01 224.01 0 00-.894-6.513 268.965 268.965 0 00-1.759-10.538 293.723 293.723 0 00-1.342-6.736c-.333-1.534-.53-2.361-.53-2.361-.129-.517.174-1.05.667-1.185.47-.128.955.151 1.106.628l-.015.032z" fill="#222669"/></g><g opacity=".7"><path opacity=".7" d="M157.559 418.511c3.138 2.537-24.008-53.371-20.778-131.379 1.523-36.765 10.104-81.396-5.898-102.717-13.319-17.742-69.83-20.398-88.417-20.788-2.32-.048-3.654 2.759-2.206 4.668 7.125 9.408 22.044 31.183 23.347 50.205 1.713 25.067 20.285 44.75 38.736 52.942 18.451 8.191 28.389 14.442 31.504 48.726 3.116 34.292 14.797 91.138 23.712 98.343z" fill="url(#paint5_linear)"/><path opacity=".7" d="M65.73 179.015s.554.12 1.555.398c1 .278 2.471.692 4.313 1.336a89.65 89.65 0 016.542 2.561c2.486 1.089 5.276 2.401 8.194 4.072a90.2 90.2 0 019.15 5.94c3.115 2.322 6.284 4.987 9.271 8.08 2.986 3.094 5.821 6.577 8.308 10.41a65.395 65.395 0 016.238 12.446l.599 1.654c.205.549.394 1.106.553 1.67.326 1.13.675 2.251.971 3.38.561 2.219 1.122 4.422 1.675 6.617.538 2.203 1.069 4.382 1.6 6.545.5 2.163.985 4.302 1.47 6.402a501.97 501.97 0 012.608 12.168 480.032 480.032 0 012.1 10.95c.295 1.702.583 3.333.856 4.883.25 1.559.485 3.03.705 4.422.425 2.776.781 5.201 1.061 7.197.288 1.996.463 3.571.584 4.653.121 1.081.182 1.654.182 1.654.038.366-.212.7-.561.739a.64.64 0 01-.697-.54v-.016s-.099-.565-.288-1.615c-.198-1.057-.493-2.6-.865-4.573-.735-3.944-1.917-9.551-3.358-16.279-.75-3.356-1.554-6.99-2.41-10.831-.902-3.833-1.85-7.873-2.828-12.057a7515.47 7515.47 0 01-3.168-12.851c-.561-2.187-1.13-4.39-1.698-6.609-.288-1.081-.622-2.139-.925-3.213a16.933 16.933 0 00-.516-1.59l-.553-1.575c-3.062-8.382-7.99-15.929-13.637-21.957a78.792 78.792 0 00-8.74-8.072 86.598 86.598 0 00-8.733-6.076c-2.82-1.702-5.458-3.173-7.86-4.358a88.586 88.586 0 00-6.308-2.847c-1.781-.716-3.183-1.249-4.154-1.583-.97-.334-1.485-.493-1.485-.493a.539.539 0 01-.357-.66.522.522 0 01.607-.382z" fill="#1F5AA9"/></g><g opacity=".7"><path opacity=".7" d="M155.808 417.095c2.251 1.09-13.599-24.335-15.889-47.382-2.281-23.047-9.248-62.214-29.442-84.744-20.186-22.538-41.1-23.532-66.222-.62-20.937 19.094-34.104 28.868-42.01 30.991-1.956.525-2.85 2.927-1.79 4.732 5.625 9.615 21.264 31.557 45.513 28.598 30.928-3.769 67.465-27.031 79.822-10.012 12.356 17.018 11.385 26.975 12.158 35.326.774 8.342 2.957 35.898 17.86 43.111z" fill="url(#paint6_linear)"/><path opacity=".7" d="M54.504 312.191s.31-.334.887-.97c.576-.62 1.44-1.519 2.592-2.609a74.399 74.399 0 0110.226-8.151c2.267-1.487 4.814-2.959 7.656-4.255 2.843-1.272 5.974-2.386 9.377-2.974.842-.175 1.714-.231 2.585-.342l1.32-.072c.439-.031.886-.039 1.334-.016.447.016.894.024 1.349.032l1.357.128c.454.031.902.119 1.356.198.463.096.872.128 1.388.271a52.898 52.898 0 0110.173 3.555 44.457 44.457 0 019.119 6.099l1.963 1.893c.319.318.66.612.963.954l.887 1.018c.583.684 1.19 1.328 1.736 2.02.523.716 1.038 1.424 1.554 2.124.257.35.508.699.765 1.049.228.366.455.732.682 1.09.448.724.895 1.447 1.342 2.155.834 1.447 1.569 2.911 2.32 4.318.652 1.456 1.281 2.863 1.895 4.231.561 1.384 1.054 2.744 1.546 4.032.258.644.478 1.289.667 1.917.197.628.395 1.248.584 1.853.371 1.201.766 2.33 1.039 3.427.288 1.09.553 2.1.803 3.038.25.939.478 1.798.637 2.593.674 3.149 1.061 4.946 1.061 4.946.068.319-.121.645-.432.716a.563.563 0 01-.667-.405l-.008-.024s-.508-1.75-1.402-4.812c-.417-1.534-1.084-3.348-1.751-5.455-.318-1.058-.766-2.147-1.183-3.308-.454-1.146-.841-2.394-1.41-3.619-.538-1.241-1.068-2.537-1.66-3.865-.644-1.296-1.304-2.632-1.986-4.008-.773-1.32-1.508-2.704-2.342-4.064-.44-.66-.887-1.336-1.334-2.012-.228-.342-.447-.676-.675-1.018-.25-.318-.5-.644-.75-.97l-1.524-1.956c-.531-.637-1.107-1.233-1.66-1.861l-.842-.931c-.288-.31-.606-.58-.909-.867-.614-.572-1.236-1.145-1.857-1.725a45.165 45.165 0 00-8.513-5.528 49.155 49.155 0 00-9.62-3.276c-1.493-.318-3.13-.589-4.7-.581a9.928 9.928 0 00-1.182.008 58.46 58.46 0 00-1.183.056c-.78.095-1.569.135-2.334.286-3.093.47-6.034 1.4-8.748 2.537-2.729 1.098-5.223 2.402-7.467 3.722-2.259 1.296-4.26 2.64-6.01 3.857a104.139 104.139 0 00-4.45 3.316 127.684 127.684 0 00-2.775 2.275c-.622.541-.948.835-.948.835l-.015.016a.572.572 0 01-.834-.08.604.604 0 01.008-.811z" fill="#222669"/></g></g><path d="M475.708 209.884c-.083 6.009-7.435 12.418-15.932 12.418-8.498 0-14.919-4.698-15.384-10.692-1.104-14.29 6.886-14.144 15.384-14.144 8.49 0 16.133-2.44 15.932 12.418z" fill="url(#paint7_linear)"/><path d="M481.949 201.108c.25 3.248-9.163 6.7-21.021 7.706-11.857 1.005-21.673-.823-21.923-4.072-.25-3.248 9.164-6.7 21.021-7.705 11.857-1.005 21.674.823 21.923 4.071z" fill="url(#paint8_linear)"/><path d="M481.949 195.39c.25 3.249-9.163 6.701-21.021 7.706-11.857 1.005-21.673-.823-21.923-4.071-.25-3.249 9.164-6.701 21.021-7.706 11.857-1.005 21.674.823 21.923 4.071z" fill="url(#paint9_linear)"/><path d="M481.949 189.673c.25 3.248-9.163 6.701-21.021 7.706-11.857 1.005-21.673-.823-21.923-4.072-.25-3.248 9.164-6.7 21.021-7.705 11.857-1.005 21.674.823 21.923 4.071z" fill="url(#paint10_linear)"/><path d="M481.949 183.956c.25 3.248-9.163 6.7-21.021 7.705-11.857 1.006-21.673-.823-21.923-4.071-.25-3.248 9.164-6.7 21.021-7.705 11.857-1.006 21.674.823 21.923 4.071z" fill="url(#paint11_linear)"/><path d="M454.541 209.389c-3.52 0-6.748-.27-9.407-.809-.153-.029-.257-.189-.229-.349a.29.29 0 01.333-.24c4.165.837 9.733 1.019 15.669.517 4.859-.408 9.406-1.231 13.141-2.375a.283.283 0 01.354.204c.042.16-.041.328-.194.372-3.777 1.158-8.358 1.988-13.253 2.396a75.464 75.464 0 01-6.414.284z" fill="url(#paint12_linear)"/><path d="M454.597 203.664c-4.575 0-8.664-.451-11.552-1.311-.153-.044-.236-.211-.194-.371a.282.282 0 01.354-.204c4.109 1.231 10.725 1.609 17.702 1.019 6.901-.582 13.336-2.053 17.217-3.933a.275.275 0 01.375.146c.062.153.007.328-.139.393-3.936 1.909-10.441 3.394-17.404 3.984a73.26 73.26 0 01-6.359.277z" fill="url(#paint13_linear)"/><path d="M454.542 197.954c-4.943 0-9.261-.531-12.177-1.536-.153-.051-.229-.219-.181-.379a.28.28 0 01.361-.189c4.048 1.398 10.914 1.857 18.363 1.23 6.9-.582 13.336-2.053 17.216-3.932a.28.28 0 01.375.145c.063.153.007.328-.139.393-3.936 1.909-10.441 3.394-17.404 3.984-2.207.19-4.366.284-6.414.284z" fill="url(#paint14_linear)"/><path d="M454.576 192.237c-3.923 0-7.484-.335-10.254-.976a.3.3 0 01-.215-.357.285.285 0 01.34-.226c4.165.969 10.17 1.224 16.46.692 6.838-.575 13.239-2.032 17.126-3.889a.28.28 0 01.375.146.305.305 0 01-.139.393c-3.943 1.886-10.413 3.358-17.314 3.94a77.05 77.05 0 01-6.379.277z" fill="url(#paint15_linear)"/><path d="M465.497 181.887l10.17-69.409c.208-1.434.882-2.396 1.5-2.148.618.248.951 1.609.743 3.044l-.021.124-11.587 68.768c-.09.517-.34.845-.562.728-.208-.123-.32-.611-.243-1.107z" fill="url(#paint16_linear)"/><path d="M454.938 182.434l-10.171-69.409c-.208-1.435-.881-2.397-1.499-2.149-.618.248-.951 1.61-.743 3.044l.021.124 11.586 68.768c.091.517.341.845.563.729.201-.117.312-.605.243-1.107z" fill="url(#paint17_linear)"/><path d="M475.59 106.514c-.257-.437-.854-.598-1.333-.365l-5.665 2.775-1.965-5.877a1.26 1.26 0 00-.687-.729c-.653-.284-1.43-.029-1.743.561l-.007.022-4.658 8.907-4.325-12.687-.007-.022a1.385 1.385 0 00-.652-.772c-.722-.415-1.68-.218-2.139.445l-6.511 9.402a.849.849 0 00.229 1.187c.43.306 1.048.233 1.381-.16l5.735-6.708 5.165 12.068.007.008a.892.892 0 00.458.466c.486.24 1.09.073 1.353-.364l4.985-8.391 1.874 4.239.014.037a.546.546 0 00.049.087c.257.437.854.597 1.333.364l6.72-3.292a.841.841 0 00.389-1.201zm19.979 29.824c-.215 0-.43-.073-.617-.218-.459-.357-.556-1.042-.216-1.53a79.917 79.917 0 004.735-7.545 1.016 1.016 0 011.423-.401c.5.299.667.969.382 1.493a80.667 80.667 0 01-4.867 7.757 1.03 1.03 0 01-.84.444zm8.366-15.069c-.139 0-.278-.029-.417-.087-.527-.241-.77-.881-.541-1.435 10.795-26.074 1.479-47.982 1.381-48.2a1.117 1.117 0 01.514-1.45c.528-.247 1.139-.007 1.382.54.097.225 9.795 23.022-1.368 49.977a1.034 1.034 0 01-.951.655z" fill="#fff"/><path d="M317.004 470.036s-1.121 6.323-1.705 12.581c-.228 2.45 1.554 4.589 3.896 4.716 7.952.43 24.955 1.273 31.065 1.05.917-.032 1.523-1.01 1.197-1.909a3.075 3.075 0 00-1.516-1.709l-27.979-13.83-4.958-.899z" fill="url(#paint18_linear)"/><path d="M316.162 466.314l.788 7.579s4.905 2.458 8.286-.222l-1.964-8.462-7.11 1.105z" fill="url(#paint19_linear)"/><path d="M318.104 323.977c-.387 1.972-2.881 98.645 6.572 142.075.152.708-.197 1.431-.834 1.702-1.516.636-4.487 1.542-8.035 1.63-1.099.024-2.077-.732-2.38-1.845-2.722-10.084-15.76-60.584-17.086-108.713-1.479-53.784.015-1.83.015-1.83l1.455-33.218 20.293.199z" fill="url(#paint20_linear)"/><path d="M284.652 473.019s-1.728 3.181-3.441 11.65c-.311 1.527.697 3.006 2.183 3.173 2.623.295 6.663.684 9.9.692 1.493.008 2.668-1.352 2.501-2.902-.333-3.102-1.402-8.2-4.821-12.2l-6.322-.413z" fill="url(#paint21_linear)"/><path d="M283.248 463.268l1.895 11.468s1.963 1.567 5.89.485l-.841-12.326-6.944.373z" fill="url(#paint22_linear)"/><path d="M279.088 326.554c-8.521 50.929.598 126.098 3.775 140.826.197.899.879 1.598 1.751 1.757 1.47.271 3.903.509 6.306-.198.827-.247 1.418-1.018 1.456-1.917.553-11.873.417-84.807 8.187-113.549a6.564 6.564 0 012.441-3.586l14.668-10.72 1.273-17.552-39.857 4.939z" fill="url(#paint23_linear)"/><path d="M331.301 230.413c-24.144-.66-50.849 6.14-50.849 6.14-7.596 43.986-2.123 94.86-2.123 94.86 18.648 5.328 39.805-2.744 39.805-2.744 3.275-18.387 18.238-70.063 18.238-70.063 11.81-1.416 21.559-4.891 29.609-9.536-6.034-7.483-8.831-16.963-10.029-22.553-8.55 2.696-17.2 4.095-24.651 3.896z" fill="url(#paint24_linear)"/><path d="M402.965 193.815c-2.342-3.03-5.359-1.638-5.359-1.638-3.699 15.714-22.446 28.288-41.639 34.34 1.197 5.598 3.995 15.07 10.029 22.554 31.936-18.419 36.969-55.256 36.969-55.256z" fill="url(#paint25_linear)"/><path d="M402.383 194.571c.242.827-2.646 2.059-4.306-1.344-.045-1.623-.925-8.581.015-9.893 4.988-6.991 14.608-15.723 14.608-15.723 1.599 1.686.258 3.316.258 3.316l-4.678 5.011c.956 1.845 2.115 3.403 2.654 5.63.401 1.686.128 3.483-.69 5.002-.827 1.527-1.956 3.515-3.017 5.066-2.017 2.943-4.844 2.935-4.844 2.935z" fill="url(#paint26_linear)"/><path d="M406.227 179.206l-4.253 3.706-1.357 3.722 3.722 4.414s1.334-7.396 2.289-8.995c.948-1.59.47-2.37-.401-2.847z" fill="url(#paint27_linear)"/><path d="M289.495 261.175l-9.036-24.622s-22.695 15.85-26.592 36.193c4.26.373 12 1.614 19.558 5.71 1.751-9.607 16.07-17.281 16.07-17.281z" fill="url(#paint28_linear)"/><path d="M308.992 284.452s-25.455 14.76-33.884 1.853c-1.751-2.68-2.153-5.328-1.691-7.849-7.55-4.096-15.297-5.336-19.557-5.71-1.175 6.131-.644 12.676 2.736 19.317 14.706 28.868 55.686-1.034 55.686-1.034l-3.29-6.577z" fill="url(#paint29_linear)"/><path d="M307.036 209.601l-7.892 23.23a.868.868 0 00.357 1.018c2.084 1.233 9.596 4.819 18.746-1.137a3.945 3.945 0 001.759-2.807l2.668-20.153-15.638-.151z" fill="url(#paint30_linear)"/><path d="M323.948 188.185s8.285 16.748 7.141 23.46c-1.145 6.72-11.591 6.131-20.672.573l-6.216-18.053 19.747-5.98z" fill="url(#paint31_linear)"/><path d="M310.902 203.39a.702.702 0 00.296-1.002c-.667-1.089-1.91-3.316-2.297-5.249 0 0-1.508-1.033 3.881-2.33 5.39-1.296 13.425-3.308 15.154-8.096 1.682-4.668-2.525-16.478-9.499-7.165a.636.636 0 01-1.038 0c-1.114-1.551-4.056-4.78-8.195-2.887-3.873 1.774-4.335 4.74-4.298 6.235.016.437-.363.779-.78.692-1.949-.414-6.626-.795-8.854 4.223-1.835 4.127-.69 6.489.364 7.65.341.374.182.986-.288 1.138-1.289.397-2.949 1.519-2.813 4.676.19 4.358 4.837 4.016 6.155 3.833a.62.62 0 01.577.223c1.122 1.328 6.178 6.966 11.696 7.69.478.064.857-.43.698-.907l-2.328-7.316a.705.705 0 01.364-.851l1.205-.557z" fill="url(#paint32_linear)"/><path d="M311.849 204.432s-5.965-4.382-6.435-.748c-.47 3.635 5.359 5.329 8.27 4.001l-1.835-3.253z" fill="url(#paint33_linear)"/><path d="M303.792 307.777l13.865-50.809a1.435 1.435 0 011.197-1.066c2.509-.31 9.794-1.169 18.201-1.917 10.127-.898 21.884-1.63 28.911-1.01 1.001.088 1.6 1.193 1.16 2.14-3.995 8.477-20.429 42.976-28.661 54.285a1.396 1.396 0 01-1.145.588l-32.179-.31c-.94-.016-1.607-.954-1.349-1.901z" fill="url(#paint34_linear)"/><path d="M307.143 295.498s-1.933-8.334-1.153-11.292c.781-2.959 2.29-6.76 7.323-5.917s10.969 3.07 10.969 3.07-.303 3.849-4.124 2.608l2.373 1.925s-.341 3.085-3.571 1.439l2.206 2.553s-1.387 2.529-3.767.906c-2.38-1.614-3.517 5.718-10.256 4.708z" fill="url(#paint35_linear)"/><path d="M336.131 269.151c0 2.362 1.819 4.271 4.071 4.271 2.251 0 4.07-1.909 4.07-4.271s-1.819-4.27-4.07-4.27c-2.252 0-4.071 1.916-4.071 4.27z" fill="url(#paint36_linear)"/><path d="M319.073 271.919l-.727-.223 2.82-10.044c.439-1.575 1.652-2.76 3.161-3.086 8.937-1.956 33.247-2.37 33.49-2.37l.015.796c-.243 0-24.485.413-33.346 2.354-1.236.27-2.229 1.24-2.593 2.536l-2.82 10.037z" fill="#fff"/><path d="M155.103 414.161c-1.478 2.298-7.353 54.253-8.27 73.443-.061 1.296.925 2.378 2.168 2.378 1.069 0 1.978-.819 2.145-1.925l10.749-72.25-6.792-1.646z" fill="url(#paint37_linear)"/><path d="M202.345 414.161c1.478 2.298 7.353 54.253 8.27 73.443.061 1.296-.925 2.378-2.168 2.378-1.069 0-1.979-.819-2.145-1.925l-10.749-72.25 6.792-1.646z" fill="url(#paint38_linear)"/><path d="M146.219 410.105l-.008.564c-.038 4.08 3.313 7.42 7.505 7.492l49.674.883c4.131.071 7.573-3.062 7.777-7.07l.023-.517c.212-4.183-3.176-7.714-7.489-7.794l-49.697-.93c-4.253-.08-7.755 3.236-7.785 7.372z" fill="url(#paint39_linear)"/><path d="M250.851 485.719c-8.831 0-12.735-.796-14.486-1.519.341 1.519 1.63 2.72 3.26 2.72h31.239c1.053 0 1.713-1.058 1.463-2.012-3.556.302-11.113.811-21.476.811z" fill="url(#paint40_linear)"/><path d="M272.333 484.908a1.529 1.529 0 00-.258-.557c-2.38-3.189-7.163-8.191-13.66-8.096-9.528.143-12.848 1.225-20.247.064l-1.743 6.075a3.684 3.684 0 00-.053 1.814c1.743.723 5.654 1.519 14.486 1.519 10.354-.008 17.912-.517 21.475-.819z" fill="url(#paint41_linear)"/><path d="M240.315 469.774l-2.145 7.65s4.745 2.267 8.922.446l.819-6.625-7.596-1.471z" fill="url(#paint42_linear)"/><path d="M305.058 480.9c-6.883 5.805-10.4 7.754-12.197 8.342 1.168.954 2.888 1.042 4.162-.032l24.348-20.526c.819-.692.713-1.948-.053-2.521-2.592 2.569-8.187 7.929-16.26 14.737z" fill="url(#paint43_linear)"/><path d="M321.319 466.155a1.357 1.357 0 00-.531-.262c-3.752-.907-10.445-1.654-15.464 2.696-7.345 6.37-9.286 9.392-15.752 13.352l2.244 5.862a3.354 3.354 0 001.039 1.439c1.789-.589 5.313-2.537 12.196-8.342 8.081-6.808 13.675-12.168 16.268-14.745z" fill="url(#paint44_linear)"/><path d="M194.46 382.628s52.865 4.525 63.713 9.885c10.848 5.352-8.846 80.426-8.846 80.426s-2.949 1.487-9.521-.652c0 0 6.739-55.399 1.721-67.407l-57.24-9.822 10.173-12.43z" fill="url(#paint45_linear)"/><path d="M284.326 471.396c.493.469 5.253 10.545 5.253 10.545s5.299-1.201 6.383-4.724l-4.768-9.09-6.868 3.269z" fill="url(#paint46_linear)"/><path d="M162.615 382.167s-1.72 4.35-1.652 10.132c.098 7.992 6.223 14.481 13.834 14.879l62.493 2.99c1.319.064 2.433 1.018 2.767 2.362 1.47 5.957 8.649 24.264 43.738 60.775a2.73 2.73 0 003.502.397l4.996-3.308c.523-.35.69-1.066.379-1.63l-36.386-65.189c-1.91-3.308-4.98-5.702-8.558-6.656l-53.267-14.283-31.846-.469z" fill="url(#paint47_linear)"/><path d="M224.205 280.333s-6.693 12.422-13.523 18.434l14.107 8.255s3.176-13.146 10.445-16.995l-11.029-9.694z" fill="url(#paint48_linear)"/><path d="M161.479 382.628s16.873 4.31 32.974 0c0 0 22.537-31.779 31.254-40.431 0 0 13.902 23.023 44.861 26.283l1.728-4.048s-24.644-11.913-32.224-30.228c-7.588-18.307-10.635-26.116-17.534-30.896-4.298-2.974-6.875-5.01-8.202-6.116a2.122 2.122 0 00-2.524-.167c-7.33 4.684-41.798 29.449-50.333 85.603z" fill="url(#paint49_linear)"/><path d="M268.703 362.325l3.487-.978 10.575-2.569a4.688 4.688 0 013.714.66l9.097 6.004-25.114-.047-1.759-3.07z" fill="url(#paint50_linear)"/><path d="M234.832 261.715s6.504 11.349 7.634 17.616c1.129 6.274 2.941 10.195-3.859 12.43-6.807 2.234-13.129-.597-17.093-6.45 0 0-6.201-9.01-5.58-13.138.622-4.119 18.898-10.458 18.898-10.458z" fill="url(#paint51_linear)"/><path d="M223.326 280.46l.879-.12s-4.609-7.3-1.592-9.113c3.017-1.814 15.297-6.259 17.435-11.333 2.054-4.891-1.023-10.418-4.73-11.571-.235-.072-.485.072-.569.31l-.219.612a.47.47 0 01-.887.024c-.167-.389-.698-.405-.864-.016-.66 1.519-2.631 4.12-8.536 6.124-8.384 2.847-13.607 7.285-12.962 13.535.037.398-.334.668-.683.509-.682-.318-1.72-.365-2.933 1.018-2.1 2.41-.455 7.675 5.276 11.397.273.175.318.58.075.795-.856.771-2.061 2.489 1.812 4.016 3.965 1.567 6.133 1.034 6.929.7a.51.51 0 00.295-.565l-1.015-5.479c-.054-.287.136-.557.409-.589l1.88-.254z" fill="url(#paint52_linear)"/><path d="M223.69 281.581s-2.873-7.428-5.89-4.819c-3.017 2.608 2.79 8.382 5.466 8.302l.424-3.483z" fill="url(#paint53_linear)"/><path d="M259 370.612h.122l53.661-.056c1.327 0 2.403-1.129 2.396-2.521 0-1.392-1.084-2.537-2.403-2.513l-53.662.056c-1.326 0-2.403 1.129-2.395 2.521.007 1.351 1.016 2.449 2.281 2.513z" fill="url(#paint54_linear)"/><path d="M333.562 315.483a.785.785 0 00-.053.12l-22.575 51.072c-.561 1.264-.038 2.759 1.168 3.34 1.205.589 2.653.04 3.183-1.225l22.575-51.064c.561-1.264.038-2.76-1.168-3.34-1.159-.581-2.531-.088-3.13 1.097z" fill="url(#paint55_linear)"/><path d="M474.071 421.93h-5.663v64.25h5.663v-64.25z" fill="url(#paint56_linear)"/><path d="M496.046 487.429h-49.607c0-2.14 1.653-3.865 3.685-3.865h42.23c2.039-.008 3.692 1.725 3.692 3.865z" fill="url(#paint57_linear)"/><path d="M503.407 419.704c0 3.515-2.744 6.386-6.087 6.386h-50.182c-3.351 0-6.087-2.879-6.087-6.386v-5.774c0-3.515 2.744-6.386 6.087-6.386h50.182c3.35 0 6.087 2.879 6.087 6.386v5.774z" fill="url(#paint58_linear)"/><path d="M429.43 379.089s-8.414 1.368-17.874 8.001c-1.486 1.041-2.305 2.863-2.085 4.731 1.129 9.416 5.791 39.891 21.149 69.65a7.762 7.762 0 01.682 5.138l-2.668 13.026-4.95 4.867h12.75l8.49-24.097-3.631-1.2c-2.812-.931-4.745-3.651-4.798-6.744l-.425-25.847c.364-11.515-6.731-19.46-6.731-19.46l20.361-1.042-20.27-27.023z" fill="url(#paint59_linear)"/><path d="M418.72 486.864c-1.16 1.591 12.492 3.698 19.398.215 0 0 9.567-17.456 9.567-26.443 0 0-.759-1.829-6.376-1.415 0 0-3.214 20.669-6.602 22.983-3.389 2.314-9.491.23-9.491.23s-4.783 2.084-6.496 4.43z" fill="url(#paint60_linear)"/><path d="M447.13 407.536c-.106-.199-21.922-2.752-21.922-2.752s.712 6.959-1.516 16.534c-2.229 9.575-34.256 51.072-34.256 51.072l3.358 11.166c-10.385 3.793-20.596 4.397-30.64 1.932l20.808-13.098s19.474-69.626 31.406-82.048l21.862-7.937 10.9 25.131z" fill="url(#paint61_linear)"/><path d="M496.047 367.025s12.568 19.611 13.599 28.55c1.031 8.947-3.441 12.581-16.624 13.178-13.182.596-48.385.588-48.385.588l-30.041-26.936s21.892-8.199 27.585-10.513c5.685-2.314 53.866-4.867 53.866-4.867z" fill="url(#paint62_linear)"/><path d="M391.528 479.794s3.616 3.674 1.175 7.762c0 0-28.638 5.328-36.408 2.91 0 0 1.615-3.865 10.37-8.262l-.644.517c-.819.66-.342 2.027.689 1.964 5.761-.342 17.701-1.448 24.818-4.891z" fill="url(#paint63_linear)"/><path d="M441.611 242.669c25.69-4.581 37.781 17.4 36.894 22.013-.114.612.432 1.129 1.008.97 2.949-.835 9.46-1.885 13.501 3.428 3.562 4.684.902 9.113-1.274 11.539-.523.588-.083 1.535.675 1.439 5.42-.715 17.2-.89 19.133 10.689 1.796 10.799-5.367 13.845-9.612 14.704-.721.143-.887 1.138-.266 1.551 2.123 1.408 4.579 4.326 3.586 10.076-1.554 9.018-18.405 8.279-20.376 8.16a.784.784 0 01-.349-.112l-26.986-16.152a.831.831 0 01-.394-.596l-5.451-33.012a.87.87 0 01.213-.731l-17.594-26.053c-6.391-.987 6.989-7.858 7.292-7.913z" fill="url(#paint64_linear)"/><path d="M462.064 364.424s-14.63-14.617-21.839-24.303c-3.896-5.233-5.117-12.128-3.313-18.49 3.29-11.627 9.135-23.659 9.665-25.536.819-2.871 17.223-2.752 17.223-2.752s32.285 21.981 44.974 59.224l-14.243 4.652s-8.43-14.839-16.76-24.271c0 0 14.41 19.977 14.918 28.152l-30.625 3.324z" fill="url(#paint65_linear)"/><path d="M444.592 280.054c.174.596 4.457 15.492 4.791 15.802.333.31 9.392.819 13.652-2.235l-10.575-21.703-7.868 8.136z" fill="url(#paint66_linear)"/><path d="M427.421 260.912s-2.069 8.533 3.654 20.009 12.212 11.468 15.752 7.794c3.54-3.674 7.914-9.909 6.875-21.003-1.038-11.094-23.294-17.655-26.281-6.8z" fill="url(#paint67_linear)"/><path d="M445.781 268.316s-9.498-15.237-18.413-3.245l-.159 4.358s-10.43-1.296-8.611-11.34c1.827-10.036 10.847-16.311 22.453-11.961 11.613 4.35 18.269 8.804 19.019 17.536.75 8.732-5.875 6.815-5.875 6.815s-2.16-6.147-5.23-6.783c-3.07-.637-2.274 4.151-2.274 4.151l-.91.469z" fill="url(#paint68_linear)"/><path d="M448.215 268.109s-4.927-7.801.121-8.963c5.049-1.161 4.268 7.603 3.722 10.848l-3.843-1.885z" fill="url(#paint69_linear)"/><path d="M432.25 365.514l10.749-10.872 14.873 6.593s14.804 2.41 23.279 0l8.475-2.409 19.148-6.251 3.009 8.915c.766 2.266-.007 4.779-1.872 6.171-1.66 1.233-3.601 2.593-4.836 3.157-2.525 1.161-62.159-.803-62.159-.803l-10.666-4.501z" fill="url(#paint70_linear)"/><path d="M472.934 370.635h-.144l-62.364-.071c-1.539 0-2.789-1.312-2.789-2.935 0-1.614 1.258-2.958 2.797-2.926l62.364.071c1.538 0 2.789 1.312 2.789 2.935 0 1.574-1.175 2.855-2.653 2.926z" fill="url(#paint71_linear)"/><path d="M354.362 311.229h51.94c3.828 0 7.323 2.322 8.953 5.956l24.014 53.419h-64.547c-2.471 0-4.684-1.583-5.594-3.993l-18.617-49.426c-1.084-2.855.925-5.956 3.851-5.956z" fill="url(#paint72_linear)"/><path d="M390.951 338.618c1.122 3.666.296 7.229-1.857 7.96-2.153.724-4.806-1.662-5.935-5.328-1.122-3.666-.296-7.229 1.857-7.96 2.153-.724 4.813 1.662 5.935 5.328z" fill="url(#paint73_linear)"/><path d="M544.037 479.325s.652 3.809.909 8.342c.114 1.933-1.25 3.603-3.085 3.794-6.383.652-20.914 1.845-30.193.445-1.296-.199-1.819-1.869-.856-2.807 3.828-3.738 13.061-11.015 28.275-12.605l4.95 2.831z" fill="url(#paint74_linear)"/><path d="M547.213 470.736l-3.229 8.303c-.44 1.137-1.539 1.845-2.706 1.718a14.213 14.213 0 01-2.638-.533c-1.819-.581-2.85-2.609-2.304-4.517l2.433-8.55 8.444 3.579z" fill="url(#paint75_linear)"/><path d="M602.39 485.942s-6.466 5.67-8.983 12.947c-.689 2.004.774 4.111 2.805 4.111h13.304c1.948 0 3.441-1.837 3.1-3.849-.857-5.026-3.298-13.193-10.226-13.209z" fill="url(#paint76_linear)"/><path d="M610.396 478.554s-1.304 6.06-2.312 10.068c-.182.723-.925 1.129-1.6.875-2.016-.756-3.654-1.09-4.844-.923-.553.08-1.031-.406-1.038-.986l-.122-10.068 9.916 1.034z" fill="url(#paint77_linear)"/><path d="M576.027 342.149l-39.312 125.82s7.542 5.177 11.135 4.962l46.696-101.118s8.171 62.301 4.214 107.035l13.372 1.073s21.748-114.304 5.276-153.455l-41.381 15.683z" fill="url(#paint78_linear)"/><path d="M594.288 370.731h.045c.213-.024.357-.231.334-.445l-1.524-12.701a.388.388 0 00-.424-.35c-.213.024-.357.231-.334.446l1.524 12.7a.39.39 0 00.379.35z" fill="url(#paint79_linear)"/><path d="M568.65 231.431s31.853 2.967 27.343 26.777c0 0 17.609 34.761 25.834 75.702.265 1.336-.584 2.632-1.865 2.863l-53.04 9.527c-1.463.263-2.873-.692-3.244-2.203l-12.675-51.382-4.935 23.89-15.691-4.287 13.213-70.198c0-.008 1.849-10.251 25.06-10.689z" fill="url(#paint80_linear)"/><path d="M550.746 290.417c.031 0 .053 0 .084-.008a.418.418 0 00.303-.493l-4.419-21.298a.398.398 0 00-.47-.318.418.418 0 00-.304.493l4.42 21.298c.038.19.204.326.386.326z" fill="url(#paint81_linear)"/><path d="M553.945 353.792a7.26 7.26 0 015.481-.748l3.691.962c.789.207 1.562-.357 1.653-1.2l3.82-35.66c4.776 2.378 11.667 2.091 13.933 1.916L573.73 361.1h-30.761l10.976-7.308z" fill="url(#paint82_linear)"/><path d="M472.221 276.444l.932-3.245c.538-1.869 1.85-3.372 3.57-4.104l16.814-7.093s.25-2.259-3.555-3.802c-3.806-1.535-2.919-6.012-2.919-6.012s5.2 2.489 12.811 6.434c4.351 2.258 6.799 6.243 8.096 9.241l38.099 48.726-4.473 3.221c-5.882 4.239-13.97 2.155-17.313-4.462l-20.642-41.521c-10.354 3.285-20.846 3.913-31.42 2.617z" fill="url(#paint83_linear)"/><path d="M558.334 208.703l9.794 28.765s-8.672 7.117-15.002 4.708l-4.935-16.486c0-.008 3.768-20.153 10.143-16.987z" fill="url(#paint84_linear)"/><path d="M542.794 188.59c-.265.39-8.247 30.753-8.247 30.753l16.624 4.414 11.643-27.596s-15.638-14.084-20.02-7.571z" fill="url(#paint85_linear)"/><path d="M556.56 200.36l-5.048 15.031a2.383 2.383 0 01-.265.541c-.683 1.026-3.29 4.366-6.383 1.36-2.805-2.728-5.413-5.17-7.808-5.615-1.076-.199-2.122.493-2.411 1.598-.727 2.76-2.251 9.011-2.781 14.649-.107 1.146.644 2.179 1.72 2.394 3.245.644 10.128 1.805 15.874 1.368.78-.056 1.463-.549 1.789-1.296 1.584-3.635 6.42-14.649 8.224-17.496 1.691-2.672 5.845-2.601 7.581-2.442a2.013 2.013 0 001.561-.54c1.524-1.4 4.42-4.979.341-9.257a2.298 2.298 0 01.046-3.205c1.751-1.726 3.623-4.796.697-8.589-2.971-3.857-6.883-3.245-9.278-2.322-.971.373-2.024-.056-2.555-.987-.303-.532-.826-.93-1.728-.851-1.221.112-2.251-.962-2.229-2.242.038-2.474-.803-5.599-4.897-6.935-7.262-2.362-11.78 4.994-12.227 10.49-.447 5.487 7.565 7.587 12.28 7.213 3.578-.287 6.239 3.435 7.315 5.241.326.556.395 1.256.182 1.892z" fill="url(#paint86_linear)"/><path d="M557.576 218.349s1.168-9.535 4.943-10.004c3.782-.469 7.459 2.783 3.706 8.135-4.662 6.665-8.649 1.869-8.649 1.869z" fill="url(#paint87_linear)"/><path d="M579.429 319.603c2.176 0 3.722-.175 3.896-.191l.281-.032 11.598-56.726a.418.418 0 00-.303-.493.397.397 0 00-.47.318l-11.477 56.138c-1.728.159-10.946.803-15.805-2.815l10.044-49.283-2.1-4.143a.388.388 0 00-.531-.175.43.43 0 00-.166.556l1.963 3.881-10.089 49.514.204.159c3.51 2.767 9.172 3.292 12.955 3.292z" fill="url(#paint88_linear)"/><path d="M231.747 492.558c-.265 0-.538-.064-.796-.191-1.023-.509-1.501-1.869-1.061-3.038l42.382-112.809c.44-1.177 1.63-1.717 2.653-1.208 1.023.501 1.501 1.868 1.061 3.037l-42.381 112.809c-.326.875-1.069 1.4-1.858 1.4z" fill="url(#paint89_linear)"/><path d="M279.488 492.558c-.781 0-1.532-.525-1.857-1.4L235.249 378.35c-.44-1.177.03-2.537 1.061-3.038 1.023-.509 2.213.039 2.653 1.208l42.382 112.809c.44 1.177-.03 2.537-1.061 3.038a1.794 1.794 0 01-.796.191z" fill="url(#paint90_linear)"/><path d="M519.363 492.558c-.266 0-.539-.064-.796-.191-1.024-.509-1.501-1.869-1.062-3.038l42.382-112.809c.44-1.177 1.63-1.717 2.653-1.208 1.024.501 1.501 1.868 1.062 3.037L521.22 491.158c-.326.875-1.077 1.4-1.857 1.4z" fill="url(#paint91_linear)"/><path d="M567.103 492.558c-.781 0-1.531-.525-1.857-1.4L522.864 378.35c-.44-1.177.03-2.537 1.061-3.038 1.023-.509 2.214.039 2.653 1.208l42.382 112.809c.44 1.177-.03 2.537-1.061 3.038a1.794 1.794 0 01-.796.191z" fill="url(#paint92_linear)"/><path d="M513.217 368.552h61.378v-6.648h-61.378c1.311 0 1.311 6.648 0 6.648z" fill="url(#paint93_linear)"/><path d="M573.836 368.552c.417 0 .758-.358.758-.795v-5.058c0-.438-.341-.795-.758-.795h-61.734a.759.759 0 01-.758-.748c0-.414.341-.748.758-.748h66.01c1.463 0 2.653 1.249 2.653 2.784v4.247c0 1.447-1.122 2.624-2.502 2.624h-66.161a.759.759 0 01-.758-.748c0-.413.341-.747.758-.747h61.734v-.016z" fill="url(#paint94_linear)"/><path d="M583.493 373.029c.205-.739-.076-1.511-.766-2.091-.69-.581-1.72-.923-2.804-.923H212.138c-1.425 0-2.759.509-3.525 1.344-.766.835-.872 1.893-.273 2.792l3.987 6.004c.91 1.376 2.889 2.258 5.064 2.258h360.007c2.024 0 3.768-1.002 4.147-2.385l1.948-6.999z" fill="url(#paint95_linear)"/><path d="M698.335 456.827c-.962 0-1.849-.573-2.281-1.495l-2.441-5.265a29.777 29.777 0 01-7.558-2.219l-4.692 3.181a2.434 2.434 0 01-2.949-.143l-6.292-5.169c-.856-.7-1.19-1.893-.833-2.967l1.826-5.535a33.024 33.024 0 01-3.858-7.173l-5.458-1.233c-1.061-.238-1.857-1.153-1.986-2.282l-.963-8.326c-.129-1.13.432-2.219 1.41-2.712l5.019-2.561a33.657 33.657 0 012.114-7.929l-3.032-4.923a2.774 2.774 0 01.137-3.085l4.927-6.601c.667-.891 1.804-1.249 2.827-.875l5.284 1.917a30.687 30.687 0 016.837-4.048l1.175-5.726c.228-1.113 1.107-1.949 2.176-2.084l7.937-1.01c1.084-.143 2.107.454 2.585 1.472l2.448 5.272c2.6.398 5.132 1.145 7.558 2.219l4.692-3.181a2.459 2.459 0 012.941.135l6.292 5.177c.849.7 1.182 1.893.834 2.967l-1.827 5.543a33.005 33.005 0 013.858 7.173l5.458 1.233c1.061.238 1.857 1.153 1.986 2.282l.963 8.327c.129 1.129-.432 2.218-1.41 2.719l-5.018 2.561a33.659 33.659 0 01-2.115 7.929l3.032 4.923a2.77 2.77 0 01-.137 3.085l-4.927 6.601c-.667.891-1.796 1.249-2.827.875l-5.284-1.917a30.687 30.687 0 01-6.837 4.048l-1.175 5.726c-.228 1.114-1.107 1.949-2.176 2.084l-7.936 1.01c-.099-.008-.198 0-.304 0zM685.714 443.1l.993.486a25.981 25.981 0 008.437 2.473l1.092.127 2.941 6.346 5.89-.747 1.41-6.903 1.031-.398a26.651 26.651 0 007.633-4.517l.857-.724 6.367 2.307 3.661-4.899-3.653-5.933.462-1.05a29.295 29.295 0 002.358-8.851l.121-1.145 6.049-3.086-.713-6.179-6.579-1.479-.379-1.082a28.65 28.65 0 00-4.306-8.008l-.69-.899 2.199-6.68-4.67-3.841-5.655 3.833-1.001-.485a25.936 25.936 0 00-8.437-2.474l-1.091-.127-2.941-6.346-5.89.748-1.41 6.902-1.031.398a26.522 26.522 0 00-7.626 4.517l-.857.724-6.367-2.306-3.661 4.899 3.653 5.932-.462 1.05a29.303 29.303 0 00-2.358 8.851l-.121 1.146-6.049 3.085.713 6.179 6.579 1.48.379 1.081a28.54 28.54 0 004.306 8.001l.69.898-2.199 6.681 4.67 3.841 5.655-3.826zm-6.519 4.414s0 .008 0 0zm18.769-7.611c-4.73 0-9.301-1.646-13.084-4.755-4.472-3.682-7.315-8.963-7.997-14.888-1.41-12.223 6.913-23.365 18.564-24.852 5.64-.716 11.212.915 15.684 4.589 4.472 3.682 7.315 8.962 7.997 14.887.182 1.575.205 3.173.069 4.748-.099 1.145-1.069 1.996-2.168 1.885-1.092-.104-1.903-1.122-1.797-2.275.114-1.28.091-2.576-.053-3.865-.553-4.811-2.865-9.106-6.504-12.096-3.639-2.99-8.172-4.318-12.75-3.73-9.468 1.201-16.237 10.267-15.093 20.2.554 4.812 2.866 9.106 6.504 12.096 3.639 2.991 8.172 4.311 12.75 3.73a16.88 16.88 0 008.521-3.674c.864-.708 2.115-.549 2.797.366.675.914.515 2.227-.349 2.934a20.761 20.761 0 01-10.483 4.525c-.88.12-1.744.175-2.608.175z" fill="#fff"/><path d="M698.145 427.219a8.733 8.733 0 01-3.684-.827c-2.221-1.034-3.919-2.911-4.798-5.289a9.894 9.894 0 01.174-7.292c.986-2.33 2.775-4.112 5.041-5.034a8.632 8.632 0 016.951.183c2.221 1.033 3.919 2.91 4.799 5.288 1.804 4.907-.539 10.434-5.208 12.327a8.781 8.781 0 01-3.275.644zm0-14.903c-.621 0-1.243.119-1.842.357-1.273.517-2.281 1.519-2.835 2.824a5.575 5.575 0 00-.098 4.095c.492 1.336 1.447 2.394 2.691 2.975a4.84 4.84 0 003.904.103c2.63-1.066 3.941-4.167 2.926-6.927-.493-1.336-1.448-2.386-2.691-2.966a4.744 4.744 0 00-2.055-.461zm-56.853-9.703c-.212 0-.424-.04-.636-.127l-3.586-1.455c-.697-.287-1.145-1.002-1.122-1.782l.091-2.529a15.888 15.888 0 01-2.418-2.425l-2.395.206c-.751.072-1.448-.373-1.751-1.089l-1.554-3.698a1.91 1.91 0 01.417-2.1l1.766-1.709a16.928 16.928 0 01-.076-3.508l-1.842-1.63c-.576-.509-.773-1.344-.5-2.076l1.387-3.761c.273-.732.978-1.201 1.705-1.177l2.403.095a16.07 16.07 0 012.312-2.537l-.204-2.513c-.061-.787.364-1.527 1.046-1.837l3.517-1.63a1.698 1.698 0 012.001.437l1.63 1.845a14.66 14.66 0 013.343-.079l1.554-1.925c.493-.604 1.281-.811 1.979-.525l3.585 1.456c.697.278 1.145.994 1.122 1.781l-.091 2.529a15.85 15.85 0 012.418 2.426l2.396-.207c.742-.072 1.455.374 1.758 1.097l1.547 3.682a1.907 1.907 0 01-.41 2.092l-1.766 1.718c.144 1.161.174 2.338.076 3.507l1.842 1.63c.576.509.773 1.344.5 2.076l-1.387 3.754c-.273.731-.955 1.2-1.698 1.177l-2.411-.096a15.889 15.889 0 01-2.312 2.537l.197 2.513c.061.779-.356 1.519-1.038 1.837l-3.517 1.63a1.697 1.697 0 01-2.002-.437l-1.629-1.845a14.717 14.717 0 01-3.343.08l-1.554 1.932c-.349.43-.842.66-1.35.66zm10.06-2.95l.007.008-.007-.008zm-1.388-.295c-.007 0-.007 0 0 0zm-10.991-.93l1.948.795 2.039-2.529.819.12c1.349.198 2.706.167 4.04-.096l.811-.159 2.145 2.426 1.911-.883-.258-3.292.659-.517a12.667 12.667 0 002.79-3.062l.462-.716 3.154.127.758-2.044-2.411-2.139.114-.859c.19-1.415.159-2.839-.091-4.238l-.152-.851 2.312-2.251-.841-2.004-3.138.278-.493-.692a12.448 12.448 0 00-2.926-2.926l-.682-.485.121-3.301-1.948-.795-2.039 2.521-.819-.119a11.889 11.889 0 00-4.04.095l-.811.159-2.146-2.425-1.91.882.266 3.293-.66.517a12.57 12.57 0 00-2.79 3.069l-.462.716-3.153-.127-.758 2.044 2.41 2.131-.114.859a13.725 13.725 0 00.091 4.239l.152.851-2.312 2.242.841 2.004 3.139-.278.492.692a12.613 12.613 0 002.919 2.927l.682.485-.121 3.316zm13.773.589v.007-.007zm-22.096-10.578l.007.008s0-.008-.007-.008zm29.897-.707s0 .008 0 0zm-.182-8.629c0 .008 0 .008 0 0zm-.319-2.919c-.007 0-.007 0 0 0zm-1.235-.763c0 .008.007.008.007.016l-.007-.016zm1.106-.803h.008-.008zm-22.369-4.796c-.008 0-.008 0 0 0zm15.312-.366c.008 0 .008 0 0 0zm-13.197-1.566l.007.008-.007-.008zm5.768 27.166c-1.319 0-2.63-.254-3.896-.771-2.683-1.09-4.798-3.213-5.958-5.973a11.745 11.745 0 01-.19-8.644c1.039-2.816 3.063-5.034 5.693-6.251 5.435-2.513 11.803.079 14.198 5.781.311.74.546 1.503.698 2.291.166.851-.357 1.678-1.16 1.853-.804.175-1.6-.374-1.766-1.217a8.521 8.521 0 00-.508-1.654c-1.736-4.12-6.338-5.997-10.264-4.175-1.903.882-3.366 2.481-4.116 4.517a8.482 8.482 0 00.136 6.251c.842 1.996 2.365 3.531 4.306 4.318a7.4 7.4 0 005.958-.143 7.898 7.898 0 003.214-2.752c.478-.708 1.41-.875 2.085-.374.674.501.833 1.48.356 2.187a10.94 10.94 0 01-4.442 3.81c-1.387.62-2.866.946-4.344.946z" fill="#fff"/><path d="M69.346 397.778l6.315 55.072c.394 3.436 3.668 6.092 7.663 6.219l95.885 2.943c3.987.119 7.466-2.314 8.148-5.718 2.472-12.295 7.475-40.98 4.549-59.685-.493-3.149-3.381-5.615-7.042-5.965-38.372-3.698-74.887-4.326-108.635-.389-4.268.501-7.307 3.825-6.883 7.523z" fill="url(#paint96_linear)"/><path opacity=".5" d="M75.41 400.633l5.815 50.73c.364 3.166 3.38 5.615 7.057 5.726l88.327 2.712c3.676.112 6.875-2.131 7.504-5.264 2.282-11.325 6.883-37.752 4.192-54.985-.455-2.903-3.115-5.17-6.481-5.496-35.347-3.411-68.981-3.984-100.076-.358-3.927.462-6.724 3.531-6.337 6.935z" fill="#fff"/><path d="M180.377 430.686a3.26 3.26 0 01-.614-.055c-29.329-5.559-88.91-4.486-89.51-4.478-1.894.064-3.44-1.535-3.471-3.515-.038-1.972 1.463-3.61 3.35-3.642 2.472-.048 60.856-1.098 90.851 4.588 1.857.35 3.085 2.211 2.752 4.16-.303 1.733-1.744 2.942-3.358 2.942zm-25.191 22.872c-.273 0-.554-.032-.834-.111-20.937-5.511-63.653-4.438-64.077-4.43-1.865.072-3.45-1.511-3.495-3.483-.045-1.972 1.44-3.619 3.32-3.666 1.79-.048 44.088-1.106 65.912 4.644 1.827.485 2.933 2.426 2.479 4.342-.387 1.615-1.774 2.704-3.305 2.704zm25.191-10.529c-.205 0-.41-.016-.614-.056-29.336-5.567-88.91-4.485-89.51-4.477h-.06c-1.857 0-3.373-1.559-3.411-3.515-.038-1.973 1.463-3.611 3.35-3.643 2.472-.047 60.856-1.097 90.851 4.589 1.857.35 3.085 2.211 2.752 4.159-.303 1.726-1.744 2.943-3.358 2.943z" fill="#fff"/><path d="M30.564 341.147l7.012 74.262c.44 4.637 4.079 8.215 8.513 8.382l106.535 3.969c4.434.167 8.293-3.126 9.058-7.707 2.752-16.581 8.301-55.263 5.049-80.489-.546-4.246-3.76-7.571-7.823-8.048-42.632-4.986-83.202-5.829-120.71-.517-4.73.668-8.111 5.154-7.634 10.148z" fill="url(#paint97_linear)"/><path opacity=".5" d="M37.304 344.996l6.458 68.409c.402 4.271 3.752 7.571 7.846 7.722l98.143 3.658c4.086.151 7.641-2.879 8.346-7.101 2.532-15.27 7.649-50.906 4.654-74.143-.5-3.913-3.464-6.975-7.201-7.412-39.274-4.597-76.645-5.376-111.189-.478-4.374.613-7.49 4.748-7.057 9.345z" fill="#fff"/><path d="M56.39 362.667c-2.547 0-4.707-2.06-4.904-4.764-.212-2.847 1.82-5.336 4.525-5.559 2.942-.238 72.166-5.877 87.357-3.746 2.698.382 4.593 2.983 4.23 5.806-.364 2.831-2.843 4.811-5.534 4.438-11.757-1.655-65.548 2.187-85.287 3.801-.129.024-.258.024-.387.024zm1 19.19c-2.622 0-4.805-2.171-4.919-4.955-.113-2.855 1.994-5.265 4.715-5.384l67.587-2.99c2.714-.127 5.018 2.091 5.132 4.947.113 2.855-1.994 5.264-4.715 5.383l-67.587 2.991c-.076.008-.144.008-.212.008zm.843 16.247c-2.668 0-4.866-2.243-4.927-5.058-.06-2.855 2.1-5.217 4.821-5.281l29.996-.684c2.744-.095 4.972 2.203 5.033 5.058.06 2.855-2.1 5.217-4.821 5.281l-29.996.684h-.106zM236.932 217.84c-8.809 0-18.398-.708-24.742-2.068-4.784-1.018-7.3-2.29-7.679-3.888-1.327-5.504-5.648-46.762 1.501-53.244a.482.482 0 01.318-.119c5.92.223 57.929 2.282 61.113 6.664 3.449 4.748-6.019 45.052-9.278 49.554-1.517 2.107-10.825 3.101-21.233 3.101zm-30.45-58.333c-6.163 6.179-2.631 45.665-1.077 52.146.129.533 1.061 1.909 6.966 3.173 14.077 3.006 42.708 2.585 45.051-.66 1.531-2.115 4.593-12.836 6.981-24.399 2.646-12.836 3.548-22.252 2.297-23.977-2.198-3.038-37.144-5.416-60.218-6.283z" fill="#fff"/><path d="M218.473 206.754h-4.177c-.516 0-.925-.437-.925-.97v-13.098c0-.541.417-.97.925-.97h4.177c.515 0 .924.437.924.97v13.098c0 .541-.416.97-.924.97zm-3.245-1.94h2.32v-11.15h-2.32v11.15zm11.47 1.94h-5.701c-.515 0-.925-.437-.925-.97V184.16c0-.54.417-.97.925-.97h5.701c.515 0 .924.438.924.97v21.624c0 .541-.417.97-.924.97zm-4.776-1.94h3.851v-19.675h-3.851v19.675zm15.526 1.94h-7.914c-.515 0-.925-.437-.925-.97v-26.196c0-.541.417-.971.925-.971h7.914c.516 0 .925.438.925.971v26.196c0 .541-.409.97-.925.97zm-6.989-1.94h6.064v-24.248h-6.064v24.248zm21.324 1.94H242.3c-.516 0-.925-.437-.925-.97v-31.692c0-.54.417-.97.925-.97h9.483c.515 0 .925.437.925.97v31.692c0 .541-.417.97-.925.97zm-8.558-1.94h7.625V175.07h-7.625v29.744z" fill="#fff"/><path d="M650.373 166.171l-3.176 53.228h19.019v-51.74c0-1.488-.902-2.808-2.243-3.285-2.517-.899-6.792-2.028-11-1.248-1.432.27-2.509 1.526-2.6 3.045z" fill="url(#paint98_linear)"/><path d="M626.563 165.917l2.108 53.426h18.011l1.364-54.03c.038-1.488-.864-2.832-2.221-3.253-5.86-1.845-11.674-2.028-17.42.732-1.16.556-1.895 1.789-1.842 3.125z" fill="url(#paint99_linear)"/><path opacity=".57" d="M631.394 202.237l.136 1.861c.038.564.508.986 1.046.954l9.438-.573c.493-.031.894-.437.932-.962l.091-1.288c.046-.605-.409-1.114-.985-1.114h-9.665c-.584.008-1.039.517-.993 1.122zm.385 4.453v.676c0 .525.417.947.918.923l9.035-.398c.47-.024.842-.429.842-.922v-.724c0-.525-.417-.946-.917-.923l-9.036.438a.92.92 0 00-.842.93zm12.387-40.558c-.364-.414-.849-.637-1.357-.613l-11.022.533c-.993.048-1.773 1.01-1.743 2.171l.568 26.53c.023 1.098.774 1.997 1.713 2.06l9.711.66c.493.032.97-.167 1.334-.548.364-.382.576-.923.591-1.496l.751-27.723c.007-.596-.19-1.161-.546-1.574zm8.657 38.125l.114 1.861c.037.564.432.986.894.954l8.043-.573c.424-.031.758-.437.796-.962l.076-1.288c.038-.605-.349-1.114-.842-1.114h-8.24c-.492 0-.879.517-.841 1.122zm.333 4.453v.676c0 .525.357.947.781.923l7.709-.398c.402-.024.72-.429.72-.922v-.724c0-.525-.356-.946-.788-.922l-7.709.437c-.394.032-.713.437-.713.93z" fill="#fff"/><path opacity=".5" d="M661.775 167.46l-6.277-.756a2.38 2.38 0 00-1.88.613 2.638 2.638 0 00-.849 1.861l-.75 25.568a2.618 2.618 0 00.713 1.892 2.408 2.408 0 001.804.756l5.965-.175c1.281-.04 2.32-1.106 2.381-2.45l1.053-24.645c.061-1.344-.887-2.505-2.16-2.664z" fill="#fff"/><path d="M691.725 166.171l-3.176 53.228h19.019v-51.74c0-1.488-.902-2.808-2.244-3.285-2.517-.899-6.792-2.028-10.999-1.248-1.433.27-2.509 1.526-2.6 3.045z" fill="url(#paint100_linear)"/><path d="M667.907 165.917l2.107 53.426h18.011l1.365-54.03c.038-1.488-.864-2.832-2.221-3.253-5.86-1.845-11.674-2.028-17.42.732-1.16.556-1.895 1.789-1.842 3.125z" fill="url(#paint101_linear)"/><path opacity=".57" d="M672.741 202.237l.137 1.861c.038.564.508.986 1.046.954l9.438-.573c.492-.031.894-.437.932-.962l.091-1.288c.045-.605-.409-1.114-.986-1.114h-9.665c-.583.008-1.038.517-.993 1.122zm.388 4.453v.676c0 .525.417.947.917.923l9.036-.398c.47-.024.841-.429.841-.922v-.724c0-.525-.416-.946-.917-.923l-9.036.438c-.47.032-.841.437-.841.93zm12.379-40.558c-.356-.414-.849-.637-1.357-.613l-11.022.533c-.993.048-1.774 1.01-1.743 2.171l.568 26.53c.023 1.098.773 1.997 1.713 2.06l9.711.66c.493.032.97-.167 1.334-.548.364-.382.576-.923.591-1.496l.751-27.723c.007-.596-.182-1.161-.546-1.574zm8.666 38.125l.114 1.861c.038.564.432.986.895.954l8.042-.573c.425-.031.758-.437.796-.962l.076-1.288c.038-.605-.349-1.114-.841-1.114h-8.24c-.493 0-.879.517-.842 1.122zm.334 4.453v.676c0 .525.356.947.781.923l7.709-.398c.402-.024.72-.429.72-.922v-.724c0-.525-.356-.946-.788-.922l-7.71.437c-.401.032-.712.437-.712.93z" fill="#fff"/><path opacity=".5" d="M703.119 167.46l-6.277-.756a2.38 2.38 0 00-1.88.613 2.638 2.638 0 00-.849 1.861l-.75 25.568a2.621 2.621 0 00.712 1.892c.478.501 1.13.772 1.804.756l5.966-.175c1.281-.04 2.32-1.106 2.38-2.45l1.054-24.645c.068-1.344-.879-2.505-2.16-2.664z" fill="#fff"/><path d="M723.584 219.343c0-1.559-1.205-2.831-2.699-2.831H614.851c-1.486 0-2.699 1.264-2.699 2.831v2.298c0 1.559 1.206 2.832 2.699 2.832h106.042c1.486 0 2.698-1.265 2.698-2.832v-2.298h-.007z" fill="url(#paint102_linear)"/><path d="M626.98 287.538a4.729 4.729 0 01-3.298-1.368 5.19 5.19 0 01-1.508-3.666v-30.308c0-.875.682-1.591 1.516-1.591s1.516.716 1.516 1.591v30.308c0 .517.197.994.553 1.352.357.357.827.532 1.319.501l34.233-2.14c.933-.055 1.66-.874 1.66-1.853v-29.751c0-.533-.204-1.018-.583-1.376a1.682 1.682 0 00-1.365-.469l-28.472 2.959c-.917.095-1.311.787-1.44 1.081a1.874 1.874 0 00.182 1.845l10.863 15.723c.333.485.849.763 1.417.763.592.024 1.092-.262 1.433-.739l11.962-16.725c.5-.7 1.455-.843 2.122-.318.667.525.804 1.527.303 2.227l-11.961 16.724c-.918 1.281-2.312 2.012-3.836 2.012h-.046c-1.538-.016-2.941-.771-3.843-2.083l-10.862-15.723a5.18 5.18 0 01-.493-5.018c.712-1.662 2.175-2.767 3.904-2.942l28.472-2.959a4.688 4.688 0 013.699 1.281 5.17 5.17 0 011.577 3.729v29.751c0 2.657-1.986 4.867-4.518 5.026l-34.233 2.14a2.97 2.97 0 01-.273.016z" fill="#fff"/><path d="M433.55 160.829c-1.452-5.643-3.928-10.917-7.252-15.508-7.134-9.843-18.771-29.85-20.202-57.166-2.083-39.722 30.106-59.614 59.482-56.912 29.377 2.702 58.36 26.64 55.183 63.591-1.95 22.741-13.58 39.992-22.243 49.895-5.499 6.288-9.42 13.996-11.546 22.388-2.595 10.264-8.782 23.062-23.477 23.845-19.016 1.006-26.914-18.395-29.945-30.133z" fill="url(#paint103_linear)" fill-opacity=".5"/></g><defs><linearGradient id="paint0_linear" x1="2.194" y1="609.682" x2="733.121" y2="39.475" gradientUnits="userSpaceOnUse"><stop stop-color="#A737D5"/><stop offset="1" stop-color="#EF497A"/></linearGradient><linearGradient id="paint1_linear" x1="645.011" y1="162.984" x2="16.672" y2="489.034" gradientUnits="userSpaceOnUse"><stop stop-color="#ED539F"/><stop offset="1" stop-color="#A061C2"/></linearGradient><linearGradient id="paint2_linear" x1="677.235" y1="405.826" x2="736.437" y2="448.049" gradientUnits="userSpaceOnUse"><stop stop-color="#2B3582"/><stop offset="1" stop-color="#150E42"/></linearGradient><linearGradient id="paint3_linear" x1="651.016" y1="441.443" x2="709.666" y2="260.67" gradientUnits="userSpaceOnUse"><stop stop-color="#233894"/><stop offset=".996" stop-color="#DD397A"/></linearGradient><linearGradient id="paint4_linear" x1="125.658" y1="197.123" x2="225.901" y2="251.251" gradientUnits="userSpaceOnUse"><stop stop-color="#233894"/><stop offset=".996" stop-color="#DD397A"/></linearGradient><linearGradient id="paint5_linear" x1="39.656" y1="291.111" x2="157.812" y2="291.111" gradientUnits="userSpaceOnUse"><stop stop-color="#2B3582"/><stop offset="1" stop-color="#150E42"/></linearGradient><linearGradient id="paint6_linear" x1="1.534" y1="348.787" x2="152.189" y2="341.166" gradientUnits="userSpaceOnUse"><stop stop-color="#233894"/><stop offset=".996" stop-color="#DD397A"/></linearGradient><linearGradient id="paint7_linear" x1="446.504" y1="185.408" x2="474.909" y2="229.457" gradientUnits="userSpaceOnUse"><stop stop-color="#53D8FF"/><stop offset="1" stop-color="#3840F7"/></linearGradient><linearGradient id="paint8_linear" x1="450.379" y1="185.684" x2="476.817" y2="226.684" gradientUnits="userSpaceOnUse"><stop stop-color="#53D8FF"/><stop offset="1" stop-color="#3840F7"/></linearGradient><linearGradient id="paint9_linear" x1="452.81" y1="184.117" x2="479.249" y2="225.116" gradientUnits="userSpaceOnUse"><stop stop-color="#53D8FF"/><stop offset="1" stop-color="#3840F7"/></linearGradient><linearGradient id="paint10_linear" x1="455.241" y1="182.549" x2="481.68" y2="223.549" gradientUnits="userSpaceOnUse"><stop stop-color="#53D8FF"/><stop offset="1" stop-color="#3840F7"/></linearGradient><linearGradient id="paint11_linear" x1="457.672" y1="180.981" x2="484.111" y2="221.981" gradientUnits="userSpaceOnUse"><stop stop-color="#53D8FF"/><stop offset="1" stop-color="#3840F7"/></linearGradient><linearGradient id="paint12_linear" x1="458.378" y1="212.248" x2="438.041" y2="282.865" gradientUnits="userSpaceOnUse"><stop stop-color="#53D8FF"/><stop offset="1" stop-color="#3840F7"/></linearGradient><linearGradient id="paint13_linear" x1="457.69" y1="212.049" x2="437.353" y2="282.666" gradientUnits="userSpaceOnUse"><stop stop-color="#53D8FF"/><stop offset="1" stop-color="#3840F7"/></linearGradient><linearGradient id="paint14_linear" x1="455.96" y1="211.551" x2="435.623" y2="282.169" gradientUnits="userSpaceOnUse"><stop stop-color="#53D8FF"/><stop offset="1" stop-color="#3840F7"/></linearGradient><linearGradient id="paint15_linear" x1="455.496" y1="211.418" x2="435.159" y2="282.035" gradientUnits="userSpaceOnUse"><stop stop-color="#53D8FF"/><stop offset="1" stop-color="#3840F7"/></linearGradient><linearGradient id="paint16_linear" x1="471.273" y1="132.376" x2="475.87" y2="271.604" gradientUnits="userSpaceOnUse"><stop stop-color="#FDF53F"/><stop offset="1" stop-color="#D93C65"/></linearGradient><linearGradient id="paint17_linear" x1="448.262" y1="133.135" x2="452.86" y2="272.364" gradientUnits="userSpaceOnUse"><stop stop-color="#FDF53F"/><stop offset="1" stop-color="#D93C65"/></linearGradient><linearGradient id="paint18_linear" x1="349.613" y1="461.617" x2="240.325" y2="572.788" gradientUnits="userSpaceOnUse"><stop stop-color="#2B3582"/><stop offset="1" stop-color="#150E42"/></linearGradient><linearGradient id="paint19_linear" x1="316.132" y1="470.005" x2="325.272" y2="470.087" gradientUnits="userSpaceOnUse"><stop stop-color="#F9B776"/><stop offset="1" stop-color="#F47960"/></linearGradient><linearGradient id="paint20_linear" x1="358.923" y1="328.891" x2="264.73" y2="448.191" gradientUnits="userSpaceOnUse"><stop stop-color="#FDF53F"/><stop offset="1" stop-color="#D93C65"/></linearGradient><linearGradient id="paint21_linear" x1="326.73" y1="439.118" x2="217.438" y2="550.293" gradientUnits="userSpaceOnUse"><stop stop-color="#2B3582"/><stop offset="1" stop-color="#150E42"/></linearGradient><linearGradient id="paint22_linear" x1="283.193" y1="469.183" x2="291.085" y2="469.254" gradientUnits="userSpaceOnUse"><stop stop-color="#F9B776"/><stop offset="1" stop-color="#F47960"/></linearGradient><linearGradient id="paint23_linear" x1="343.426" y1="316.655" x2="249.234" y2="435.954" gradientUnits="userSpaceOnUse"><stop stop-color="#FDF53F"/><stop offset="1" stop-color="#D93C65"/></linearGradient><linearGradient id="paint24_linear" x1="306.514" y1="227.031" x2="365.692" y2="444.2" gradientUnits="userSpaceOnUse"><stop stop-color="#CB236D"/><stop offset="1" stop-color="#4C246D"/></linearGradient><linearGradient id="paint25_linear" x1="356.021" y1="220.199" x2="402.721" y2="220.622" gradientUnits="userSpaceOnUse"><stop stop-color="#F9B776"/><stop offset="1" stop-color="#F47960"/></linearGradient><linearGradient id="paint26_linear" x1="392.394" y1="212.349" x2="357.748" y2="285.59" gradientUnits="userSpaceOnUse"><stop stop-color="#F9B776"/><stop offset="1" stop-color="#F47960"/></linearGradient><linearGradient id="paint27_linear" x1="402.798" y1="187.54" x2="416.964" y2="167.206" gradientUnits="userSpaceOnUse"><stop stop-color="#F9B776"/><stop offset="1" stop-color="#F47960"/></linearGradient><linearGradient id="paint28_linear" x1="264.619" y1="238.447" x2="323.797" y2="455.616" gradientUnits="userSpaceOnUse"><stop stop-color="#CB236D"/><stop offset="1" stop-color="#4C246D"/></linearGradient><linearGradient id="paint29_linear" x1="253.205" y1="288.571" x2="312.303" y2="289.107" gradientUnits="userSpaceOnUse"><stop stop-color="#F9B776"/><stop offset="1" stop-color="#F47960"/></linearGradient><linearGradient id="paint30_linear" x1="299.185" y1="222.744" x2="322.551" y2="222.955" gradientUnits="userSpaceOnUse"><stop stop-color="#F9B776"/><stop offset="1" stop-color="#F47960"/></linearGradient><linearGradient id="paint31_linear" x1="328.251" y1="207.437" x2="302.039" y2="191.872" gradientUnits="userSpaceOnUse"><stop stop-color="#F9B776"/><stop offset="1" stop-color="#F47960"/></linearGradient><linearGradient id="paint32_linear" x1="289.268" y1="173.279" x2="323.437" y2="199.509" gradientUnits="userSpaceOnUse"><stop stop-color="#2B3582"/><stop offset="1" stop-color="#150E42"/></linearGradient><linearGradient id="paint33_linear" x1="321.447" y1="213.5" x2="297.864" y2="199.495" gradientUnits="userSpaceOnUse"><stop stop-color="#F9B776"/><stop offset="1" stop-color="#F47960"/></linearGradient><linearGradient id="paint34_linear" x1="328.149" y1="249.177" x2="363.845" y2="390.947" gradientUnits="userSpaceOnUse"><stop stop-color="#2B3582"/><stop offset="1" stop-color="#150E42"/></linearGradient><linearGradient id="paint35_linear" x1="305.804" y1="286.888" x2="324.28" y2="286.888" gradientUnits="userSpaceOnUse"><stop stop-color="#F9B776"/><stop offset="1" stop-color="#F47960"/></linearGradient><linearGradient id="paint36_linear" x1="341.292" y1="264.381" x2="335.958" y2="285.568" gradientUnits="userSpaceOnUse"><stop stop-color="#53D8FF"/><stop offset="1" stop-color="#3840F7"/></linearGradient><linearGradient id="paint37_linear" x1="172.871" y1="404.297" x2="117.651" y2="523.419" gradientUnits="userSpaceOnUse"><stop stop-color="#FDF53F"/><stop offset=".664" stop-color="#E57A58"/><stop offset="1" stop-color="#D93C65"/></linearGradient><linearGradient id="paint38_linear" x1="214.965" y1="423.81" x2="159.744" y2="542.932" gradientUnits="userSpaceOnUse"><stop stop-color="#FDF53F"/><stop offset=".664" stop-color="#E57A58"/><stop offset="1" stop-color="#D93C65"/></linearGradient><linearGradient id="paint39_linear" x1="165.896" y1="475.335" x2="175.701" y2="430.47" gradientUnits="userSpaceOnUse"><stop stop-color="#FDF53F"/><stop offset=".664" stop-color="#E57A58"/><stop offset="1" stop-color="#D93C65"/></linearGradient><linearGradient id="paint40_linear" x1="236.369" y1="485.559" x2="272.388" y2="485.559" gradientUnits="userSpaceOnUse"><stop stop-color="#CB236D"/><stop offset="1" stop-color="#4C246D"/></linearGradient><linearGradient id="paint41_linear" x1="264.119" y1="412.898" x2="253.309" y2="484.085" gradientUnits="userSpaceOnUse"><stop stop-color="#CB236D"/><stop offset="1" stop-color="#4C246D"/></linearGradient><linearGradient id="paint42_linear" x1="238.169" y1="474.172" x2="247.915" y2="474.172" gradientUnits="userSpaceOnUse"><stop stop-color="#F9B776"/><stop offset="1" stop-color="#F47960"/></linearGradient><linearGradient id="paint43_linear" x1="292.862" y1="478.071" x2="321.943" y2="478.071" gradientUnits="userSpaceOnUse"><stop stop-color="#CB236D"/><stop offset="1" stop-color="#4C246D"/></linearGradient><linearGradient id="paint44_linear" x1="312.866" y1="420.3" x2="302.057" y2="491.487" gradientUnits="userSpaceOnUse"><stop stop-color="#CB236D"/><stop offset="1" stop-color="#4C246D"/></linearGradient><linearGradient id="paint45_linear" x1="184.28" y1="428.037" x2="261.426" y2="428.037" gradientUnits="userSpaceOnUse"><stop stop-color="#2B3582"/><stop offset="1" stop-color="#150E42"/></linearGradient><linearGradient id="paint46_linear" x1="284.328" y1="475.032" x2="295.963" y2="475.032" gradientUnits="userSpaceOnUse"><stop stop-color="#F9B776"/><stop offset="1" stop-color="#F47960"/></linearGradient><linearGradient id="paint47_linear" x1="254.357" y1="394.316" x2="165.07" y2="490.811" gradientUnits="userSpaceOnUse"><stop stop-color="#2B3582"/><stop offset="1" stop-color="#150E42"/></linearGradient><linearGradient id="paint48_linear" x1="219.699" y1="303.027" x2="225.928" y2="288.056" gradientUnits="userSpaceOnUse"><stop stop-color="#F9B776"/><stop offset="1" stop-color="#F47960"/></linearGradient><linearGradient id="paint49_linear" x1="195.974" y1="337.515" x2="263.666" y2="443.44" gradientUnits="userSpaceOnUse"><stop stop-color="#004394"/><stop offset=".491" stop-color="#55A7FF"/><stop offset="1" stop-color="#EF00FF"/></linearGradient><linearGradient id="paint50_linear" x1="268.706" y1="362.045" x2="295.581" y2="362.045" gradientUnits="userSpaceOnUse"><stop stop-color="#F9B776"/><stop offset="1" stop-color="#F47960"/></linearGradient><linearGradient id="paint51_linear" x1="237.212" y1="272.164" x2="210.311" y2="297.74" gradientUnits="userSpaceOnUse"><stop stop-color="#F9B776"/><stop offset="1" stop-color="#F47960"/></linearGradient><linearGradient id="paint52_linear" x1="214.881" y1="256.843" x2="246.553" y2="286.675" gradientUnits="userSpaceOnUse"><stop stop-color="#2B3582"/><stop offset="1" stop-color="#150E42"/></linearGradient><linearGradient id="paint53_linear" x1="233.062" y1="267.798" x2="206.16" y2="293.374" gradientUnits="userSpaceOnUse"><stop stop-color="#F9B776"/><stop offset="1" stop-color="#F47960"/></linearGradient><linearGradient id="paint54_linear" x1="-5490.52" y1="-6087.92" x2="-5390.83" y2="-5986.33" gradientUnits="userSpaceOnUse"><stop stop-color="#2B3582"/><stop offset="1" stop-color="#150E42"/></linearGradient><linearGradient id="paint55_linear" x1="8337.89" y1="-2430.22" x2="8204.8" y2="-2388.65" gradientUnits="userSpaceOnUse"><stop stop-color="#2B3582"/><stop offset="1" stop-color="#150E42"/></linearGradient><linearGradient id="paint56_linear" x1="466.822" y1="483.236" x2="480.261" y2="402.657" gradientUnits="userSpaceOnUse"><stop stop-color="#53D8FF"/><stop offset="1" stop-color="#3840F7"/></linearGradient><linearGradient id="paint57_linear" x1="471.729" y1="484.055" x2="485.169" y2="403.475" gradientUnits="userSpaceOnUse"><stop stop-color="#53D8FF"/><stop offset="1" stop-color="#3840F7"/></linearGradient><linearGradient id="paint58_linear" x1="462.273" y1="482.477" x2="475.712" y2="401.899" gradientUnits="userSpaceOnUse"><stop stop-color="#53D8FF"/><stop offset="1" stop-color="#3840F7"/></linearGradient><linearGradient id="paint59_linear" x1="409.438" y1="431.804" x2="449.706" y2="431.804" gradientUnits="userSpaceOnUse"><stop stop-color="#F9B776"/><stop offset="1" stop-color="#F47960"/></linearGradient><linearGradient id="paint60_linear" x1="434.077" y1="459.332" x2="427.561" y2="554.568" gradientUnits="userSpaceOnUse"><stop stop-color="#CB236D"/><stop offset="1" stop-color="#4C246D"/></linearGradient><linearGradient id="paint61_linear" x1="362.156" y1="434.69" x2="447.13" y2="434.69" gradientUnits="userSpaceOnUse"><stop stop-color="#F9B776"/><stop offset="1" stop-color="#F47960"/></linearGradient><linearGradient id="paint62_linear" x1="414.589" y1="388.185" x2="509.784" y2="388.185" gradientUnits="userSpaceOnUse"><stop stop-color="#0022E9"/><stop offset=".664" stop-color="#3F0055"/><stop offset="1" stop-color="#D40070"/></linearGradient><linearGradient id="paint63_linear" x1="376.922" y1="455.421" x2="370.406" y2="550.657" gradientUnits="userSpaceOnUse"><stop stop-color="#CB236D"/><stop offset="1" stop-color="#4C246D"/></linearGradient><linearGradient id="paint64_linear" x1="481.643" y1="221.377" x2="466.269" y2="298.364" gradientUnits="userSpaceOnUse"><stop stop-color="#2B3582"/><stop offset="1" stop-color="#150E42"/></linearGradient><linearGradient id="paint65_linear" x1="456.512" y1="305.49" x2="505.352" y2="406.811" gradientUnits="userSpaceOnUse"><stop stop-color="#5F00E9"/><stop offset=".664" stop-color="#AA00A1"/><stop offset="1" stop-color="#D93C65"/></linearGradient><linearGradient id="paint66_linear" x1="458.448" y1="318.035" x2="452.149" y2="279.514" gradientUnits="userSpaceOnUse"><stop stop-color="#F9B776"/><stop offset="1" stop-color="#F47960"/></linearGradient><linearGradient id="paint67_linear" x1="427.26" y1="277.103" x2="470.671" y2="263.145" gradientUnits="userSpaceOnUse"><stop stop-color="#F9B776"/><stop offset="1" stop-color="#F47960"/></linearGradient><linearGradient id="paint68_linear" x1="418.088" y1="236.832" x2="470.962" y2="292.707" gradientUnits="userSpaceOnUse"><stop stop-color="#2B3582"/><stop offset="1" stop-color="#150E42"/></linearGradient><linearGradient id="paint69_linear" x1="425.981" y1="273.122" x2="469.391" y2="259.163" gradientUnits="userSpaceOnUse"><stop stop-color="#F9B776"/><stop offset="1" stop-color="#F47960"/></linearGradient><linearGradient id="paint70_linear" x1="482" y1="361.878" x2="561.824" y2="361.878" gradientUnits="userSpaceOnUse"><stop stop-color="#F9B776"/><stop offset="1" stop-color="#F47960"/></linearGradient><linearGradient id="paint71_linear" x1="483.517" y1="353.254" x2="433.565" y2="368.871" gradientUnits="userSpaceOnUse"><stop stop-color="#2B3582"/><stop offset="1" stop-color="#150E42"/></linearGradient><linearGradient id="paint72_linear" x1="415.507" y1="319.198" x2="378.045" y2="356.939" gradientUnits="userSpaceOnUse"><stop stop-color="#2B3582"/><stop offset="1" stop-color="#150E42"/></linearGradient><linearGradient id="paint73_linear" x1="393.951" y1="329.042" x2="376.678" y2="353.837" gradientUnits="userSpaceOnUse"><stop stop-color="#53D8FF"/><stop offset="1" stop-color="#3840F7"/></linearGradient><linearGradient id="paint74_linear" x1="527.105" y1="548.377" x2="526.526" y2="606.923" gradientUnits="userSpaceOnUse"><stop stop-color="#2B3582"/><stop offset="1" stop-color="#150E42"/></linearGradient><linearGradient id="paint75_linear" x1="540.558" y1="482.994" x2="543.74" y2="459.282" gradientUnits="userSpaceOnUse"><stop stop-color="#F9B776"/><stop offset="1" stop-color="#F47960"/></linearGradient><linearGradient id="paint76_linear" x1="602.503" y1="549.123" x2="601.924" y2="607.669" gradientUnits="userSpaceOnUse"><stop stop-color="#2B3582"/><stop offset="1" stop-color="#150E42"/></linearGradient><linearGradient id="paint77_linear" x1="603.846" y1="491.134" x2="606.946" y2="468.027" gradientUnits="userSpaceOnUse"><stop stop-color="#F9B776"/><stop offset="1" stop-color="#F47960"/></linearGradient><linearGradient id="paint78_linear" x1="623.565" y1="403.19" x2="536.714" y2="403.19" gradientUnits="userSpaceOnUse"><stop stop-color="#2B3582"/><stop offset="1" stop-color="#150E42"/></linearGradient><linearGradient id="paint79_linear" x1="605.55" y1="389.211" x2="602.142" y2="382.714" gradientUnits="userSpaceOnUse"><stop stop-color="#53D8FF"/><stop offset="1" stop-color="#3840F7"/></linearGradient><linearGradient id="paint80_linear" x1="553.568" y1="249.989" x2="612.647" y2="417.289" gradientUnits="userSpaceOnUse"><stop stop-color="#CB236D"/><stop offset="1" stop-color="#4C246D"/></linearGradient><linearGradient id="paint81_linear" x1="541.307" y1="287.456" x2="521.106" y2="308.03" gradientUnits="userSpaceOnUse"><stop stop-color="#CB236D"/><stop offset="1" stop-color="#4C246D"/></linearGradient><linearGradient id="paint82_linear" x1="582.52" y1="339.127" x2="542.973" y2="339.127" gradientUnits="userSpaceOnUse"><stop stop-color="#F9B776"/><stop offset="1" stop-color="#F47960"/></linearGradient><linearGradient id="paint83_linear" x1="546.075" y1="287.117" x2="472.222" y2="287.117" gradientUnits="userSpaceOnUse"><stop stop-color="#F9B776"/><stop offset="1" stop-color="#F47960"/></linearGradient><linearGradient id="paint84_linear" x1="572.664" y1="243.661" x2="545.696" y2="217.289" gradientUnits="userSpaceOnUse"><stop stop-color="#F9B776"/><stop offset="1" stop-color="#F47960"/></linearGradient><linearGradient id="paint85_linear" x1="548.205" y1="192.849" x2="550.305" y2="252.729" gradientUnits="userSpaceOnUse"><stop stop-color="#F9B776"/><stop offset="1" stop-color="#F47960"/></linearGradient><linearGradient id="paint86_linear" x1="563.375" y1="218.17" x2="528.694" y2="194.875" gradientUnits="userSpaceOnUse"><stop stop-color="#2B3582"/><stop offset="1" stop-color="#150E42"/></linearGradient><linearGradient id="paint87_linear" x1="568.654" y1="254.275" x2="561.787" y2="213.379" gradientUnits="userSpaceOnUse"><stop stop-color="#F9B776"/><stop offset="1" stop-color="#F47960"/></linearGradient><linearGradient id="paint88_linear" x1="585.365" y1="303.628" x2="601.495" y2="348.931" gradientUnits="userSpaceOnUse"><stop stop-color="#CB236D"/><stop offset="1" stop-color="#4C246D"/></linearGradient><linearGradient id="paint89_linear" x1="229.729" y1="433.837" x2="276.15" y2="433.837" gradientUnits="userSpaceOnUse"><stop stop-color="#9CFFFB"/><stop offset="1" stop-color="#9BFFFA"/></linearGradient><linearGradient id="paint90_linear" x1="235.089" y1="433.837" x2="281.51" y2="433.837" gradientUnits="userSpaceOnUse"><stop stop-color="#9CFFFB"/><stop offset="1" stop-color="#9BFFFA"/></linearGradient><linearGradient id="paint91_linear" x1="517.343" y1="433.837" x2="563.765" y2="433.837" gradientUnits="userSpaceOnUse"><stop stop-color="#9CFFFB"/><stop offset="1" stop-color="#9BFFFA"/></linearGradient><linearGradient id="paint92_linear" x1="522.703" y1="433.837" x2="569.124" y2="433.837" gradientUnits="userSpaceOnUse"><stop stop-color="#9CFFFB"/><stop offset="1" stop-color="#9BFFFA"/></linearGradient><linearGradient id="paint93_linear" x1="535.792" y1="359.708" x2="590.884" y2="393.75" gradientUnits="userSpaceOnUse"><stop stop-color="#53D8FF"/><stop offset="1" stop-color="#3840F7"/></linearGradient><linearGradient id="paint94_linear" x1="545.456" y1="401.865" x2="545.745" y2="385.316" gradientUnits="userSpaceOnUse"><stop stop-color="#FDF53F"/><stop offset=".664" stop-color="#E57A58"/><stop offset="1" stop-color="#D93C65"/></linearGradient><linearGradient id="paint95_linear" x1="207.954" y1="376.213" x2="583.558" y2="376.213" gradientUnits="userSpaceOnUse"><stop stop-color="#9CFFFB"/><stop offset="1" stop-color="#9BFFFA"/></linearGradient><linearGradient id="paint96_linear" x1="214.652" y1="284.414" x2="123.938" y2="419.791" gradientUnits="userSpaceOnUse"><stop stop-color="#A737D5"/><stop offset="1" stop-color="#EF497A"/></linearGradient><linearGradient id="paint97_linear" x1="147.569" y1="311.747" x2="-45.729" y2="542.706" gradientUnits="userSpaceOnUse"><stop stop-color="#CB236D"/><stop offset="1" stop-color="#4C246D"/></linearGradient><linearGradient id="paint98_linear" x1="673.62" y1="137.711" x2="640.019" y2="247.136" gradientUnits="userSpaceOnUse"><stop stop-color="#FDF53F"/><stop offset="1" stop-color="#D93C65"/></linearGradient><linearGradient id="paint99_linear" x1="671.874" y1="131.732" x2="611.08" y2="226.325" gradientUnits="userSpaceOnUse"><stop stop-color="#FDF53F"/><stop offset="1" stop-color="#D93C65"/></linearGradient><linearGradient id="paint100_linear" x1="714.968" y1="137.711" x2="681.367" y2="247.137" gradientUnits="userSpaceOnUse"><stop stop-color="#FDF53F"/><stop offset="1" stop-color="#D93C65"/></linearGradient><linearGradient id="paint101_linear" x1="713.222" y1="131.732" x2="652.428" y2="226.325" gradientUnits="userSpaceOnUse"><stop stop-color="#FDF53F"/><stop offset="1" stop-color="#D93C65"/></linearGradient><linearGradient id="paint102_linear" x1="697.77" y1="193.428" x2="649.673" y2="232.976" gradientUnits="userSpaceOnUse"><stop stop-color="#53D8FF"/><stop offset="1" stop-color="#3840F7"/></linearGradient><linearGradient id="paint103_linear" x1="464.041" y1="70.643" x2="457.148" y2="241.943" gradientUnits="userSpaceOnUse"><stop stop-color="#AA00A6"/><stop offset="1" stop-color="#D93C65"/></linearGradient><clipPath id="clip0"><path fill="#fff" d="M0 0h771v503H0z"/></clipPath></defs></svg>