<svg width="1440" height="840" viewBox="0 0 1440 820" fill="none" xmlns="http://www.w3.org/2000/svg"><path d="M-117.744 870.5S-353.096 415 99.5 415c239.137 0 146.335-58.644 308.917-212.942C570.999 47.759 1139.57-75.518 1260.59 222.44c121.02 297.957-178.05 524.178 110.94 485.368C1718.81 661.175 1854 836 1854 836H-119.745l2.001 34.5z" fill="url(#paint0_radial)" fill-opacity=".15"/><path d="M-7.5 836S-183.446 549.98 301 549.98c255.965 0 150.52-163.255 324.544-352.188C799.568 8.858 1408.15-142.091 1537.69 222.749 1667.22 587.589 1599 706 1581 749c-79.43 82.433-130 87-130 87H-7.5z" fill="url(#paint1_radial)" fill-opacity=".2"/><g clip-path="url(#clip0)"><path d="M258.244 788.814H68.714v42.79h189.53v-42.79z" fill="#4A75CB"/><path d="M199.802 788.814H10.277v42.794h189.525v-42.794z" fill="#699DEE"/><path d="M332.801 831.592h141.125V634.367H332.801v197.225z" fill="#3E0253"/><path d="M289.284 831.592h141.124V634.367H289.284v197.225z" fill="#570076"/><path d="M430.408 634.37l43.514 29.613V634.37h-43.514z" fill="#200039"/><path d="M556.328 355.93c-2.182-.334-8.757 5.748-8.757 5.748-14.037 1.623-34.564 5.349-41.951 6.771-5.237 1.009-19.321-3.792-33.081-9.305-16.365-6.56-32.265-14.124-32.265-14.124-9.081-.465-19.392 16.099-.976 26.634 2.811 1.609 13.375 4.349 25.535 6.855h.005c16.777 3.458 36.596 6.457 43.345 5.401 7.837-1.225 30.021-9.338 43.218-15.555 0 0 .014-.005.033-.019.051-.023.098-.047.145-.07.793-.371 4.022-1.807 6.176-1.68 2.473.145 7.978-4.378 8.147-5.584.165-1.211-7.391-4.744-9.574-5.072z" fill="#ED975D"/><path d="M539.19 564.59l-7.729 1.571s-35.372-39.734-40.83-56.458c-2.919-8.934-21.593-12.796-41.111-17.84-16.984-4.392-34.607-9.681-43.026-20.004-18.092-22.176 11.362-49.429 11.362-49.429s31.312 18.61 58.33 37.83c18.88 13.434 35.662 27.168 38.192 35.061 6.143 19.196 19.166 55.684 24.812 69.269z" fill="#2B478B"/><path d="M528.841 577.7h4.345c1.455-.23 2.53-.652 4.027-.845 2.267-.295 3.313.634 3.52.845l.042.042h18.467c.465-.661.019-2.2-.418-3.331a2.625 2.625 0 00-1.727-1.582c-1.957-.567-5.819-1.074-9.353-4.274-1.99-1.797-9.606-6.607-9.606-6.607l-.043-.01c-.169.005-.962.249-4.43 3.173-1.793 1.51-4.843-2.131-4.843-2.131s-.573.474-1 1.356a4.613 4.613 0 00-.399 2.834c.277 1.666-.615 4.758-1.323 6.847-.432 1.267-.793 2.167-.793 2.167s-.207 1.047 3.534 1.516z" fill="#233862"/><path d="M476.186 460.26l-26.666 31.603c-16.984-4.392-34.607-9.681-43.026-20.004-18.092-22.176 11.362-49.429 11.362-49.429s31.317 18.61 58.33 37.83z" fill="#1E3D70"/><path d="M451.955 443.756s-2.15 6.776-5.651 16.973c-4.425 12.894-11.014 31.251-18.167 48.275a419.685 419.685 0 01-4.777 10.961c-5.946 13.101-12.033 24.33-17.388 30.041-9.63 10.262-33.034 76.218-33.034 76.218l-5.834-1.614s-8.133-56.323 20.673-88.372c.31-.342.549-.736.582-1.196.005-.005.005-.01.005-.014.385-4.744 1.755-25.991 4.735-47.515.732-5.284 1.563-10.577 2.497-15.649.056-.324.122-.648.178-.967 4.383-23.462 8.579-33.898 13.995-39.144l39.825 11.337 2.361.666z" fill="#2B478B"/><path d="M366.451 634.323h4.346c1.455-.23 2.53-.652 4.027-.845 2.266-.295 3.313.634 3.52.845l.042.042h18.467c.465-.662.019-2.201-.418-3.332a2.628 2.628 0 00-1.727-1.581c-1.957-.568-5.819-1.07-9.353-4.27-1.99-1.797-9.607-6.607-9.607-6.607l-.042-.009c-.169.005-.962.249-4.43 3.172-1.793 1.511-4.843-2.13-4.843-2.13s-.573.474-1 1.356a4.565 4.565 0 00-.394 2.834c.277 1.666-.615 4.758-1.324 6.846-.432 1.267-.793 2.168-.793 2.168s-.211 1.046 3.529 1.511z" fill="#233862"/><path d="M374.993 367.154s-6.664 16.301-14.346 32.166c-6.463 13.34-13.643 26.371-18.195 29.149-6.42 3.923-24.104 14.982-35.578 23.232 0 0-8.955-.066-10.344 1.647-1.389 1.712-4.599 9.413-3.665 10.191.939.779 8.053.418 9.785-1.356 1.506-1.543 4.867-2.656 5.702-2.914.052-.014.103-.032.155-.047.023-.004.037-.009.037-.009 13.943-4.289 35.808-13.223 42.426-17.592 5.697-3.763 18.335-19.323 28.411-33.17h.005c7.307-10.037 13.267-19.178 14.262-22.26 6.528-20.182-12.249-25.489-18.655-19.037z" fill="#FFB27D"/><path d="M409.845 303.239a33.039 33.039 0 00-2.389-3.083c.985.019 2.055-.075 2.942-.441 2.338-.967 3.408-8.39 3.056-10.595-.352-2.201-3.6-8.569-7.608-9.207-4.008-.633-8.147 3.815-8.147 3.815.742-3.209 7.518-5.063 7.518-5.063-13.962 2.576-13.253 11.886-13.154 12.745-12.784-4.552-20.284 19.515-20.284 19.515l33.11 19.506s.084-5.316 3.247-4.974c4.923.535 9.025-11.557 1.709-22.218z" fill="#2C3A64"/><path d="M411.956 353.738c-7.598 3.581-17.678-1.576-17.622-1.632.652-.653.422-2.6-.174-5.153-.596-2.66-2.008-6.292-4.613-10.633-.544-.924-1.084-1.844-1.736-2.82l.868-.323 14.759-5.913s2.389 4.284 4.886 8.193c2.116 3.257 4.341 6.185 5.317 6.077.052-.057 9.818 6.667-1.685 12.204z" fill="#FFB27D"/><path d="M403.432 328.723c-.38 5.26-2.172 14.758-9.278 18.23-.596-2.661-2.008-6.292-4.613-10.633l13.891-7.597z" fill="#ED975D"/><path d="M388.679 342.313s19.213-7.574 14.314-19.464c-4.9-11.891-5.721-20.877-18.195-16.546-12.474 4.331-12.977 9.845-12.305 14.214.671 4.363 11.061 23.457 16.186 21.796z" fill="#FFB27D"/><path d="M395.848 320.136c8.87-1.253 11.461-4.838 11.461-4.838s-8.171-2.346-12.972-10.346c0 0-9.972-3.365-17.364 2.257a4.916 4.916 0 00-.934 2.083c-1.694-.553-4.242-.413-5.711 4.378-2.211 7.189 5.645 15.044 5.645 15.044 1.906-.54-.244-6.945-.544-10.365-.221-2.516 1.136-5.739 1.868-7.269.938 1.22 10.301 12.979 21.729 13.448 0 0-6.036-2.092-11.531-6.189 2.736 1.342 5.641 2.177 8.353 1.797z" fill="#2C3A64"/><path d="M448.538 378.237a151.56 151.56 0 00-.521-1.778c2.854-5.453 4.257-10.37 4.848-14.528 1.305-8.789-.92-14.213-.92-14.213s-13.328-7.067-19.213-7.968a.499.499 0 00-.075-.023c-.07-.01-.15-.019-.235-.024-5.941-.821-18.8 1.807-18.8 1.807s2.483 6.602-4.519 11.008c-6.998 4.402-14.474-1.126-14.474-1.126-.225.15-.464.319-.713.493 0 0-18.415 12.148-20.072 14.926-1.652 2.778-8.739 16.522-8.739 16.522s2.248 11.543 27.126 12.505c2.046 4.96 3.609 9.798 4.121 13.833 1.975 15.668-.319 28.023 1.985 37.168 2.304 9.146 43.814 3.933 51.332 2.173 7.519-1.76 5.829-9.784 6.406-17.582.728-9.803-5.087-44.55-7.537-53.193z" fill="#699DEE"/><path d="M452.864 361.931c-.596 4.177-2.008 9.113-4.885 14.594-.652-2.877-3.309-13.402-7.598-18.174.005-.005 7.222.648 12.483 3.58z" fill="#4A82D3"/><path d="M283.846 464.604s7.734-9.37 9.4-10.478c1.666-1.107 8.969-3.05 9.386-2.66.418.389.437.957-.469 1.755-.906.797-4.36 2.815-3.867 3.04.493.226 10.916-4.959 12.418-3.214 1.502 1.746-.85 8.949-4.867 12.402-4.017 3.454-16.003 4.927-16.759 5.406-6.392 4.091-5.242-6.251-5.242-6.251z" fill="#ED975D"/><path d="M147.686 442.964s11.108 13.181 25.258 7.667c0 0 3.045-7.362 3.088-12.787.004-.666.014-1.313.023-1.928.075-6.11.282-9.54.282-9.54s-.005 0-.014-.004c-.643-.268-21.631-8.883-21.612-8.17.361 16.531-7.025 24.762-7.025 24.762z" fill="#FFB27D"/><path d="M156.818 422.148c2.023 3.749 8.969 11.088 19.237 13.767.075-6.109.282-9.539.282-9.539s-.005 0-.014-.005c-.582-.155-20.105-5.331-19.505-4.223z" fill="#ED975D"/><path d="M180.735 425.742s-23.601 5.547-26.83-9.201c-3.229-14.748-8.448-23.964 6.481-28.131 14.933-4.167 19.101.821 21.377 5.481 2.276 4.659 5.026 30.026-1.028 31.851z" fill="#FFB27D"/><path d="M154.711 420.562c-.324.206-5.402 1.764-15.018-17.39-1.511-3.008-2.539-9.511.981-15.259 3.52-5.749 15.999-10.267 26.366-12.233 10.366-1.967 12.854 3.866 15.299 9.727 2.562 6.151 9.963 11.219 9.963 11.219-8.94 4.993-19.706-2.149-23.437-.976-3.731 1.173-5.05 7.053-5.327 8.939-.281 1.882-.708 3.449-5.401 1.764-4.693-1.684-2.121 6.65-1.371 8.24-.004 0 .634 4.242-2.055 5.969z" fill="#A9453D"/><path d="M93.918 788.814h-14.29c-2.995 0-6.327-3.04-7.157-8.601-.836-5.57-6.993-8.601-8.326-13.157-1.333-4.557 5.496-10.966 5.496-10.966l1.14-1.488 1.187-1.548 11.32 2.698s.277 2.731.455 6.208c.122 2.51.188 5.415.047 7.963-.333 6.076 1.68 12.613 7.002 13.795 5.332 1.178 3.126 5.096 3.126 5.096zm99.483.136h-37.878c-.361-.075-.638-.155-.802-.239-2.53-1.305-1.737-11.271-1.432-14.349.061-.568.099-.906.099-.906s13.319-10.966 15.154-2.571c.056.262.126.521.197.774v.005c2.313 7.859 12.648 11.425 18.617 12.42 4.557.765 5.74 3.501 6.045 4.866z" fill="#2C3A64"/><path d="M185.766 569.934s-2.023 25.236-4.402 55.567c-3.234 41.208-7.119 91.82-7.504 101.407-.667 16.648-3.332 43.282-3.332 43.282s-6.322 6.326-18.979 3.66c0 0-11.277-38.017-14.502-78.245-.051-.662-.098-1.323-.15-1.989-2.994-40.951-7.659-127.182-7.659-127.182l56.528 3.5z" fill="#4A75CB"/><path d="M185.765 569.934s-2.022 25.236-4.402 55.567l-44.312 70.109c-.051-.662-.098-1.323-.15-1.99-2.994-40.95-7.659-127.182-7.659-127.182l56.523 3.496z" fill="#3358A3"/><path d="M176.526 572.933s-36.461 91.388-60.438 134.337c-23.976 42.949-31.466 54.934-31.466 54.934s-13.737-5.495-14.985-9.239c0 0 9.17-82.915 25.225-103.129 9.072-11.422 19.729-45.695 20.227-57.679.497-11.984 3.247-35.709 3.247-35.709l58.19 16.485z" fill="#4A75CB"/><path d="M93.045 557.71s-.943 11.412-1.638 13.167c-.69 1.75-5.303 7.184-5.833 7.109-.535-.08-.854-.507-.582-1.61.272-1.107 1.858-4.523 1.356-4.434-.502.089-5.782 9.713-7.88 9.169-2.102-.544-4.157-7.386-2.904-12.219 1.248-4.833 9.738-12.421 10.061-13.2 2.746-6.606 7.42 2.018 7.42 2.018z" fill="#ED975D"/><path d="M89.13 560.605c4.037 1.296 4.685 1.005 4.685 1.005s19.64-35.756 21.63-39.031c1.99-3.276 41.707-40.097 41.707-40.097l-10.207-38.055s-45.171 58.486-50.052 66.88c-8.062 13.866-12.784 46.079-12.784 46.079s1.854 2.201 5.022 3.219z" fill="#1E3D70"/><path d="M193.461 497.418c-.14 7.818-.596 16.602-1.206 25.522l-.112 1.586a844.626 844.626 0 01-1.305 16.47 569.775 569.775 0 01-.619 6.41l-.033.282c-.019.788-.113 1.642-.202 2.421-1.99 20.238-4.078 36.225-4.468 36.469-.465.31-.985.465-1.553.394-5.308-.666-21.143.54-34.109-2.285-10.94-2.309-20.359-6.682-30.346-12.58-1.323-.784-4.346-2.858-4.101-4.406.239-1.704.685-4.167 1.253-7.259 1.966-10.765 5.359-29.281 6.518-50.95.225-4.036.554-8.024.981-11.942 1.112-10.211 2.896-19.91 5.289-28.525 4.444-16.006 10.977-28.258 19.171-33.053 1.07-.601 6.833 3.064 12.122 6.461 4.886 3.135 10.034 3.998 15.037 3.562l4.402 4.87c5.331 6.199 11.01 14.453 12.563 26.179.118.868.216 1.788.301 2.764.431 4.791.539 10.839.417 17.61z" fill="#2A4E96"/><path d="M193.462 497.418c-.141 7.818-.596 16.602-1.206 25.522l-.113 1.586c-30.317-18.976-34.987-53.694-34.987-53.694 14.915.652 26.765 4.082 35.897 8.985.423 4.782.531 10.83.409 17.601z" fill="#1E3D70"/><path d="M288.45 465.539c-1.563-4.228-3.994-3.951-3.994-3.951s-45.076 11.233-49.122 11.712c-4.045.483-48.54-17.371-48.54-17.371s-17.514-7.86-25.718-.686c-7.129 6.237-7.453 14.134-5.786 20.769 1.989 7.907 8.677 13.744 16.763 14.776 18.153 2.313 54.374 6.663 61.962 5.608 16.895-2.351 55.181-24.448 55.181-24.448s.479-3.087-.746-6.409z" fill="#2A4E96"/><path d="M732.942 548.152s6.261 5.804 5.04 9.929c-1.22 4.125-6.875 6.874-7.635 11.914-.76 5.04-3.82 7.789-6.57 7.789h-13.108s-2.023-3.547 2.863-4.617c4.89-1.07 6.729-6.992 6.424-12.491-.305-5.499.46-12.829.46-12.829l10.386-2.445 2.14 2.75zm-78.054 28.942c-.634.319-2.868.54-5.932.685h-29.642c.099-.882.789-4.026 5.637-4.805 5.477-.891 14.961-4.073 17.078-11.074.07-.225.131-.455.183-.685 1.68-7.484 13.896 2.29 13.896 2.29s.037.301.089.812c.286 2.745 1.009 11.623-1.309 12.777z" fill="#2C3A64"/><path d="M626.4 376.933s1.854 23.152 4.036 50.982c2.966 37.807 6.533 84.242 6.885 93.041.61 15.273 3.055 39.711 3.055 39.711s5.801 5.805 17.416 3.36c0 0 10.348-34.883 13.305-71.789.047-.605.094-1.215.136-1.825 2.75-37.572 7.026-116.685 7.026-116.685l-51.859 3.205z" fill="#35488B"/><path d="M626.4 376.933s1.854 23.152 4.036 50.982l40.656 64.319c.047-.606.094-1.216.136-1.826 2.751-37.572 7.026-116.685 7.026-116.685l-51.854 3.21z" fill="#2C3A64"/><path d="M634.877 379.682s33.452 83.848 55.448 123.25c21.997 39.402 28.872 50.401 28.872 50.401s12.601-5.04 13.746-8.475c0 0-8.41-76.072-23.142-94.612-8.325-10.478-18.101-41.922-18.556-52.92-.46-10.995-2.98-32.763-2.98-32.763l-53.388 15.119z" fill="#35488B"/><path d="M531.694 334.204s-9.072-2.074-10.602-1.971c-1.525.103-6.87 2.341-6.941 2.773-.07.432.183.784 1.103.849.925.061 3.961-.328 3.769.038-.193.366-8.945 2.088-9.039 3.848-.099 1.759 4.698 5.034 8.748 5.255 4.05.221 12.014-4.486 12.699-4.547 5.796-.507.263-6.245.263-6.245z" fill="#FFB27D"/><path d="M527.813 336.508c-1.3-4.144-.995-4.805-.995-4.805s36.78-19.887 40.149-21.904c3.37-2.018 41.379-42.462 41.379-42.462l38.934 10.713s-60.25 45.887-68.885 50.832c-14.267 8.165-47.311 12.787-47.311 12.787s-2.252-1.905-3.271-5.161z" fill="#B80290"/><path d="M620.138 247.681s-13.647 24.011-26.99 27.146c0 0 .554-8.067 3.807-13.585a142.535 142.535 0 01-3.511-4.298c-3.36-4.303-4.956-6.935-4.956-6.935l4.529-12.172 3.074-8.259c1.478 2.679 3.102 4.965 4.801 6.917 8.738 10.051 19.246 11.186 19.246 11.186z" fill="#FFB27D"/><path d="M600.888 236.495s1.629 12.031-7.448 20.449c-3.36-4.303-4.956-6.935-4.956-6.935l4.529-12.172c4.857-1.479 7.875-1.342 7.875-1.342z" fill="#ED975D"/><path d="M584.89 251.782s20.396-7.949 15.247-20.571c-5.148-12.622-5.978-22.148-19.218-17.606-13.239 4.542-13.788 10.384-13.093 15.016.69 4.626 11.629 24.902 17.064 23.161z" fill="#FFB27D"/><path d="M690.239 370.898c-8.227 11.825-69.735 27.629-69.007 19.44.277-3.134.652-8.657-.01-16.146-.154-1.755-.37-3.613-.652-5.579-1.563-10.755-5.275-24.588-13.553-40.594a167.726 167.726 0 00-1.939-3.632c-3.407-6.198-6.312-12.749-8.527-19.159-4.261-12.312-5.979-24.095-3.829-31.795.009-.038.023-.07.032-.108 12.859-5.945 17.839-28.999 17.839-28.999s43.866 7.874 68.434 66.336c.004 0 18.368 49.941 11.212 60.236z" fill="#D900A9"/><path d="M621.223 374.192c-.154-1.755-.37-3.613-.652-5.579-1.563-10.755-5.275-24.588-13.553-40.594 1.422-8.615 3.383-15.78 5.537-19.004 8.748-13.11 13.845-15.156 13.845-15.156s13.117 55.318-5.177 80.333z" fill="#9B057A"/><path d="M552.081 361.03s-12.137.638-14.014 1.314c-1.882.675-7.79 5.391-7.724 5.959.065.568.511.92 1.689.671 1.183-.253 4.857-1.825 4.745-1.295-.113.53-10.485 5.818-9.978 8.061.507 2.248 7.697 4.641 12.864 3.473 5.167-1.173 13.483-9.929 14.318-10.244 7.096-2.707-1.9-7.939-1.9-7.939z" fill="#FFB27D"/><path d="M549.79 365.633c-2.431-3.927-.68-5.72-.68-5.72s37.483-29.346 40.421-32.311c2.938-2.966 16.548-50.171 16.548-50.171s4.683-19.103 15.656-21.21c9.531-1.83 16.12 2.886 20.433 8.414 5.139 6.588 5.641 15.672 1.38 22.856-9.569 16.123-28.876 48.135-34.517 53.601-12.55 12.172-54.534 29.177-54.534 29.177s-2.797-1.553-4.707-4.636z" fill="#D900A9"/><path d="M603.065 207.763c.141-.281.559-.582 1.572-.891 0 0-.948-.319-2.055-.075-.573-1.399-1.962-3.778-4.576-3.797 0 0 1.497.39 2.051 1.887-3.576-2.267-10.207-2.924-26.76 2.585-21.813 7.264-10.916 19.929-7.612 20.942 3.309 1.014 9.396-5.499 14.868-6.391 5.472-.891 8.438 6.734 10.521 7.367 2.089.634.901-1.102 3.088-2.839 2.187-1.736 3.44 2.351 3.394 5.223-.047 2.872 4.214 5.593 4.214 5.593l2.501-4.584c2.502-4.585 1.821-21.224-.568-24.222-.211-.258-.422-.526-.638-.798z" fill="#2B478B"/><path d="M258.243 788.331v24.686l-58.442-24.686h58.442z" fill="#4271BC"/><path d="M758.373 577.78H565.104v253.814h193.269V577.78z" fill="#002D87"/><path d="M698.782 577.78H505.508v253.814h193.274V577.78z" fill="#0F5CD5"/><path d="M758.374 577.78v37.956l-59.593-37.956h59.593z" fill="#4271BC"/></g><defs><radialGradient id="paint0_radial" cx="0" cy="0" r="1" gradientUnits="userSpaceOnUse" gradientTransform="matrix(1437.00168 -1147.75945 2474.9743 3098.6826 246 1188.28)"><stop stop-color="#F600B2"/><stop offset="1" stop-color="#32B5F7"/></radialGradient><radialGradient id="paint1_radial" cx="0" cy="0" r="1" gradientUnits="userSpaceOnUse" gradientTransform="matrix(1538.1278 -1405.395 3094.77624 3387.063 451.698 1405.39)"><stop stop-color="#F600B2"/><stop offset="1" stop-color="#32B5F7"/></radialGradient><clipPath id="clip0"><path fill="#fff" transform="translate(-272 203)" d="M0 0h1235v633H0z"/></clipPath></defs></svg>