<svg width="614" height="307" fill="none" xmlns="http://www.w3.org/2000/svg"><g clip-path="url(#clip0)"><path d="M19.896 306.19s-78.43-86.905 76.147-86.905c81.674 0 48.028-58.561 103.556-126.334 55.527-67.773 249.715-121.921 291.049 8.952 41.331 130.873-60.813 230.237 37.888 213.19C647.145 294.61 694 306.19 694 306.19H19.896z" fill="url(#paint0_radial)" fill-opacity=".15"/><path d="M67.477 306.116s-88.602-96.805 86.021-96.805c92.266 0 54.257-60.944 116.985-131.474 62.729-70.53 282.1-126.88 328.794 9.316 46.69 136.197-68.7 239.603 42.801 221.862C776.069 287.7 829 306.116 829 306.116H67.476z" fill="url(#paint1_radial)" fill-opacity=".2"/><path d="M433.527 292.923c-5.381-4.025-16.376-1.307-24.492 1.599a37.667 37.667 0 00-4.461-5.296c17.483-11.526 41.628-36.106 28.831-38.187-11.126-1.808-26.139 20.317-34.163 33.784-8.333-5.737-21.1-9.954-40.593-8.49-50.589 3.795-90.111-29.601-119.244-18.464-23.162 8.856-44.39 13.819-64.862 12.123.881-15.306 1.073-45.358-10.672-48.475-11.923-3.165-.229 30.964 6.272 48.006a95.731 95.731 0 01-4.565-.714c-4.208-8.493-11.144-19.607-18.76-19.99-7.172-.356 1.678 9.635 10.391 18.1-25.035-5.379-54.733 15.449-55.227 40.075h312.554s-.553-3.595-3.006-8.334c12.081-.242 27.841-1.365 21.997-5.737z" fill="#16FCC5" fill-opacity=".5"/><path d="M170.161 287.961H87.783v19.037h82.378v-19.037z" fill="#4A75CB"/><path d="M144.761 287.961H62.385V307h82.376v-19.039z" fill="#699DEE"/><path d="M202.569 306.992h61.339v-87.745h-61.339v87.745z" fill="#3E0253"/><path d="M183.653 306.992h61.339v-87.745h-61.339v87.745z" fill="#570076"/><path d="M244.99 219.248l18.913 13.175v-13.175H244.99z" fill="#200039"/><path d="M299.723 95.37c-.948-.149-3.806 2.557-3.806 2.557-6.101.722-15.023 2.38-18.234 3.012-2.276.449-8.398-1.687-14.379-4.14-7.112-2.918-14.023-6.284-14.023-6.284-3.947-.206-8.429 7.163-.425 11.85 1.222.716 5.814 1.935 11.099 3.05h.002c7.292 1.539 15.907 2.873 18.84 2.403 3.406-.545 13.049-4.155 18.785-6.921 0 0 .006-.002.014-.008l.063-.031c.345-.165 1.748-.804 2.684-.748 1.075.065 3.468-1.948 3.542-2.484.071-.539-3.213-2.11-4.162-2.257z" fill="#ED975D"/><path d="M292.273 188.203l-3.359.699s-15.374-17.678-17.747-25.119c-1.268-3.974-9.385-5.693-17.869-7.937-7.382-1.954-15.041-4.307-18.701-8.899-7.863-9.867 4.939-21.992 4.939-21.992s13.609 8.28 25.353 16.831c8.206 5.977 15.5 12.087 16.6 15.599 2.67 8.54 8.33 24.774 10.784 30.818z" fill="#2B478B"/><path d="M287.775 194.036h1.889c.632-.103 1.099-.291 1.75-.376.985-.132 1.44.282 1.53.376l.018.018h8.027c.202-.294.008-.979-.181-1.482a1.153 1.153 0 00-.751-.703c-.851-.253-2.529-.478-4.065-1.902-.865-.8-4.176-2.94-4.176-2.94l-.018-.004c-.074.002-.418.111-1.926 1.411-.779.673-2.105-.947-2.105-.947s-.249.21-.434.603a2.09 2.09 0 00-.174 1.261c.12.741-.267 2.117-.575 3.046-.188.563-.345.964-.345.964s-.09.466 1.536.675z" fill="#233862"/><path d="M264.889 141.786l-11.591 14.06c-7.382-1.954-15.041-4.307-18.701-8.899-7.863-9.867 4.939-21.992 4.939-21.992s13.612 8.28 25.353 16.831z" fill="#1E3D70"/><path d="M254.358 134.444s-.934 3.014-2.456 7.551c-1.924 5.737-4.787 13.903-7.896 21.477a186.863 186.863 0 01-2.077 4.877c-2.584 5.829-5.23 10.825-7.557 13.365-4.186 4.566-14.359 33.91-14.359 33.91l-2.535-.718s-3.535-25.058 8.985-39.317c.135-.152.239-.328.253-.532.002-.002.002-.004.002-.007.168-2.11.763-11.563 2.059-21.139.318-2.351.679-4.706 1.085-6.962.024-.144.053-.288.077-.43 1.905-10.439 3.729-15.082 6.083-17.415l17.31 5.043 1.026.297z" fill="#2B478B"/><path d="M217.193 219.227h1.889c.632-.102 1.099-.29 1.75-.376.985-.131 1.44.282 1.53.376a.38.38 0 01.018.019h8.027c.202-.295.008-.98-.181-1.483a1.153 1.153 0 00-.751-.703c-.851-.253-2.529-.476-4.065-1.9-.865-.799-4.176-2.939-4.176-2.939l-.018-.004c-.074.002-.419.11-1.926 1.411-.779.672-2.105-.948-2.105-.948s-.249.211-.435.603a2.081 2.081 0 00-.171 1.261c.12.741-.267 2.117-.575 3.046-.188.564-.345.965-.345.965s-.092.465 1.534.672z" fill="#233862"/><path d="M220.908 100.363s-2.896 7.253-6.235 14.311c-2.809 5.935-5.93 11.732-7.909 12.968-2.79 1.746-10.476 6.666-15.464 10.336 0 0-3.892-.029-4.495.733-.604.762-1.999 4.188-1.593 4.534.408.347 3.5.186 4.253-.603.654-.687 2.115-1.182 2.478-1.296l.067-.021.017-.004c6.06-1.909 15.563-5.883 18.44-7.827 2.476-1.674 7.969-8.597 12.349-14.758h.002c3.176-4.465 5.766-8.532 6.199-9.903 2.837-8.98-5.324-11.34-8.109-8.47z" fill="#FFB27D"/><path d="M236.057 71.927a14.699 14.699 0 00-1.039-1.372c.429.009.894-.033 1.279-.196 1.016-.43 1.481-3.732 1.328-4.714-.153-.979-1.564-3.812-3.306-4.095-1.742-.282-3.541 1.697-3.541 1.697.322-1.428 3.267-2.253 3.267-2.253-6.068 1.146-5.76 5.288-5.717 5.67-5.557-2.025-8.816 8.683-8.816 8.683l14.391 8.678s.036-2.365 1.411-2.213c2.14.238 3.923-5.142.743-9.885z" fill="#2C3A64"/><path d="M236.973 94.394c-3.302 1.593-7.684-.701-7.659-.726.283-.29.183-1.157-.076-2.293-.259-1.183-.873-2.8-2.005-4.73-.236-.411-.471-.82-.754-1.255l.377-.144 6.415-2.63s1.038 1.906 2.124 3.645c.92 1.449 1.886 2.751 2.311 2.703.022-.025 4.267 2.967-.733 5.43z" fill="#FFB27D"/><path d="M233.266 83.265c-.165 2.34-.944 6.566-4.032 8.11-.259-1.183-.873-2.799-2.005-4.73l6.037-3.38z" fill="#ED975D"/><path d="M226.853 89.311s8.351-3.37 6.222-8.66c-2.13-5.29-2.487-9.287-7.909-7.36-5.421 1.926-5.64 4.38-5.348 6.323.292 1.941 4.808 10.436 7.035 9.697z" fill="#FFB27D"/><path d="M229.97 79.445c3.855-.558 4.981-2.153 4.981-2.153s-3.551-1.043-5.638-4.603c0 0-4.334-1.497-7.547 1.004a2.21 2.21 0 00-.406.927c-.736-.246-1.844-.183-2.483 1.948-.96 3.198 2.454 6.693 2.454 6.693.829-.24-.106-3.09-.236-4.612-.096-1.119.493-2.553.812-3.233.408.542 4.477 5.774 9.444 5.983 0 0-2.623-.931-5.012-2.754 1.189.597 2.452.969 3.631.8z" fill="#2C3A64"/><path d="M252.873 105.294c-.071-.255-.147-.52-.226-.791 1.24-2.426 1.85-4.614 2.107-6.464.567-3.91-.4-6.323-.4-6.323s-5.793-3.144-8.351-3.545a.199.199 0 00-.032-.01 1.348 1.348 0 00-.102-.01c-2.583-.366-8.172.803-8.172.803s1.079 2.937-1.964 4.897c-3.042 1.959-6.291-.5-6.291-.5-.098.066-.202.141-.31.219 0 0-8.004 5.405-8.724 6.64-.718 1.236-3.799 7.351-3.799 7.351s.977 5.136 11.791 5.564c.889 2.206 1.568 4.359 1.791 6.154.858 6.971-.139 12.467.862 16.536 1.002 4.069 19.044 1.75 22.312.967 3.268-.783 2.533-4.353 2.784-7.823.316-4.361-2.211-19.82-3.276-23.665z" fill="#699DEE"/><path d="M254.752 98.04c-.259 1.857-.873 4.053-2.123 6.492-.284-1.28-1.438-5.963-3.303-8.086.002-.002 3.139.288 5.426 1.593z" fill="#4A82D3"/><path d="M181.291 143.719s3.361-4.169 4.086-4.662c.724-.492 3.898-1.357 4.079-1.183.182.173.19.426-.204.78-.393.355-1.895 1.253-1.681 1.353.215.1 4.745-2.206 5.398-1.43.653.777-.369 3.981-2.115 5.518-1.747 1.536-6.956 2.192-7.285 2.405-2.778 1.82-2.278-2.781-2.278-2.781z" fill="#ED975D"/><path d="M122.111 134.091s4.829 5.864 10.979 3.411c0 0 1.324-3.275 1.342-5.689.002-.296.006-.584.01-.858.033-2.718.122-4.244.122-4.244l-.006-.002c-.279-.119-9.401-3.952-9.393-3.635.157 7.355-3.054 11.017-3.054 11.017z" fill="#FFB27D"/><path d="M126.08 124.83c.879 1.668 3.898 4.933 8.361 6.125.033-2.718.123-4.244.123-4.244l-.006-.002c-.253-.069-8.739-2.371-8.478-1.879z" fill="#ED975D"/><path d="M136.474 126.429s-10.258 2.468-11.662-4.093c-1.403-6.562-3.671-10.662 2.817-12.516 6.491-1.854 8.303.366 9.292 2.439.989 2.073 2.184 13.358-.447 14.17z" fill="#FFB27D"/><path d="M125.164 124.125c-.141.091-2.348.784-6.528-7.737-.657-1.338-1.103-4.232.426-6.789 1.53-2.558 6.954-4.568 11.46-5.443 4.506-.875 5.587 1.72 6.65 4.328 1.114 2.737 4.331 4.991 4.331 4.991-3.886 2.222-8.566-.956-10.187-.434-1.622.522-2.195 3.138-2.316 3.977-.122.837-.308 1.535-2.347.785-2.04-.749-.922 2.958-.596 3.666-.002 0 .275 1.887-.893 2.656z" fill="#A9453D"/><path d="M98.74 287.961h-6.21c-1.301 0-2.75-1.353-3.11-3.827-.364-2.478-3.04-3.826-3.62-5.853-.579-2.028 2.39-4.879 2.39-4.879l.495-.662.516-.689 4.92 1.2s.12 1.215.198 2.762c.053 1.117.082 2.41.02 3.543-.145 2.704.73 5.612 3.044 6.138 2.317.524 1.358 2.267 1.358 2.267zm43.24.06h-16.463a1.502 1.502 0 01-.349-.106c-1.1-.581-.755-5.015-.622-6.384l.043-.403s5.789-4.879 6.586-1.144c.025.116.055.231.086.344v.002c1.006 3.497 5.497 5.084 8.092 5.526 1.98.34 2.495 1.557 2.627 2.165z" fill="#2C3A64"/><path d="M138.66 190.581s-.88 11.227-1.914 24.722c-1.405 18.333-3.094 40.851-3.262 45.116-.289 7.407-1.448 19.256-1.448 19.256s-2.747 2.814-8.249 1.629c0 0-4.902-16.915-6.303-34.812l-.065-.885c-1.302-18.219-3.329-56.584-3.329-56.584l24.57 1.558z" fill="#4A75CB"/><path d="M138.659 190.581s-.879 11.227-1.913 24.722l-19.26 31.191-.065-.885c-1.302-18.219-3.329-56.584-3.329-56.584l24.567 1.556z" fill="#3358A3"/><path d="M134.644 191.915s-15.847 40.659-26.268 59.767c-10.422 19.108-13.677 24.44-13.677 24.44s-5.97-2.445-6.513-4.111c0 0 3.985-36.888 10.964-45.882 3.943-5.081 8.575-20.329 8.791-25.661.216-5.332 1.412-15.887 1.412-15.887l25.291 7.334z" fill="#4A75CB"/><path d="M98.36 185.142s-.41 5.077-.712 5.858c-.3.779-2.305 3.196-2.535 3.163-.233-.036-.372-.226-.253-.716.118-.493.807-2.013.59-1.973-.22.04-2.514 4.321-3.426 4.079-.913-.242-1.807-3.286-1.262-5.436.542-2.15 4.232-5.526 4.373-5.872 1.193-2.94 3.225.897 3.225.897z" fill="#ED975D"/><path d="M96.66 186.43c1.753.576 2.035.447 2.035.447s8.537-15.908 9.401-17.365c.865-1.457 18.128-17.839 18.128-17.839l-4.436-16.931s-19.634 26.021-21.755 29.756c-3.504 6.169-5.556 20.5-5.556 20.5s.805.979 2.182 1.432z" fill="#1E3D70"/><path d="M142.007 158.318c-.062 3.478-.259 7.386-.525 11.355l-.049.705c-.169 2.46-.355 4.925-.567 7.328-.085.964-.175 1.916-.269 2.852l-.014.125a12.44 12.44 0 01-.088 1.077c-.865 9.004-1.773 16.117-1.942 16.225a.96.96 0 01-.675.176c-2.307-.297-9.189.24-14.825-1.017-4.755-1.027-8.849-2.973-13.19-5.597-.575-.349-1.889-1.271-1.783-1.96.104-.758.298-1.854.545-3.23.855-4.789 2.329-13.027 2.833-22.667.098-1.796.241-3.57.427-5.313.483-4.543 1.258-8.858 2.298-12.691 1.932-7.121 4.772-12.572 8.333-14.706.465-.267 2.97 1.364 5.269 2.875 2.123 1.395 4.361 1.779 6.536 1.585l1.913 2.167c2.317 2.757 4.785 6.43 5.461 11.647.051.386.093.795.13 1.229.188 2.132.235 4.823.182 7.835z" fill="#2A4E96"/><path d="M142.005 158.318c-.062 3.478-.259 7.386-.525 11.355l-.049.705c-13.177-8.442-15.206-23.889-15.206-23.889 6.482.29 11.633 1.816 15.602 3.998.184 2.127.231 4.818.178 7.831z" fill="#1E3D70"/><path d="M183.293 144.135c-.68-1.881-1.736-1.758-1.736-1.758s-19.593 4.998-21.351 5.211c-1.759.215-21.098-7.729-21.098-7.729s-7.613-3.497-11.178-.305c-3.099 2.775-3.24 6.288-2.515 9.24.864 3.518 3.771 6.115 7.286 6.574 7.89 1.03 23.633 2.965 26.932 2.495 7.343-1.046 23.984-10.877 23.984-10.877s.208-1.373-.324-2.851z" fill="#2A4E96"/><path d="M376.49 180.889s2.721 2.583 2.191 4.418c-.53 1.835-2.988 3.058-3.319 5.3-.33 2.242-1.66 3.466-2.855 3.466h-5.698s-.879-1.578 1.245-2.054c2.125-.476 2.925-3.111 2.792-5.558-.132-2.446.2-5.707.2-5.707l4.514-1.088.93 1.223zm-33.929 12.877c-.275.142-1.246.24-2.578.305H327.1c.042-.393.342-1.791 2.449-2.138 2.381-.397 6.503-1.812 7.423-4.927.031-.1.057-.202.08-.304.73-3.33 6.04 1.018 6.04 1.018s.016.134.039.361c.124 1.222.438 5.172-.57 5.685z" fill="#2C3A64"/><path d="M330.18 104.713s.805 10.301 1.754 22.683c1.289 16.82 2.839 37.479 2.992 41.393.266 6.796 1.328 17.668 1.328 17.668s2.521 2.583 7.57 1.495c0 0 4.498-15.52 5.783-31.939.02-.269.041-.541.059-.812 1.195-16.716 3.054-51.913 3.054-51.913l-22.54 1.425z" fill="#35488B"/><path d="M330.18 104.713s.805 10.301 1.754 22.682l17.671 28.616c.02-.27.041-.541.059-.812 1.195-16.716 3.054-51.914 3.054-51.914l-22.538 1.428z" fill="#2C3A64"/><path d="M333.863 105.937s14.54 37.304 24.101 54.834c9.56 17.53 12.549 22.423 12.549 22.423s5.477-2.242 5.974-3.77c0 0-3.655-33.845-10.058-42.093-3.619-4.662-7.868-18.651-8.065-23.545-.2-4.891-1.296-14.576-1.296-14.576l-23.205 6.727z" fill="#35488B"/><path d="M289.015 85.704s-3.943-.923-4.608-.877c-.663.046-2.986 1.042-3.017 1.234-.03.192.08.348.479.378.402.027 1.722-.146 1.638.017-.083.162-3.887.928-3.928 1.711-.043.783 2.042 2.24 3.802 2.338 1.76.099 5.222-1.995 5.52-2.022 2.519-.226.114-2.78.114-2.78z" fill="#FFB27D"/><path d="M287.329 86.729c-.565-1.844-.433-2.138-.433-2.138s15.986-8.847 17.451-9.745c1.465-.898 17.985-18.891 17.985-18.891l16.922 4.766s-26.187 20.415-29.94 22.615c-6.201 3.633-20.563 5.69-20.563 5.69s-.98-.848-1.422-2.297z" fill="#B80290"/><path d="M327.46 47.21s-5.932 10.682-11.731 12.076c0 0 .24-3.588 1.654-6.043a64.122 64.122 0 01-1.526-1.913c-1.46-1.914-2.154-3.085-2.154-3.085l1.969-5.415 1.336-3.675a17.668 17.668 0 002.086 3.078c3.799 4.471 8.366 4.976 8.366 4.976z" fill="#FFB27D"/><path d="M319.094 42.233s.708 5.352-3.237 9.098c-1.46-1.915-2.154-3.086-2.154-3.086l1.969-5.415c2.111-.658 3.422-.597 3.422-.597z" fill="#ED975D"/><path d="M312.138 49.034s8.866-3.536 6.628-9.152c-2.238-5.616-2.599-9.854-8.353-7.833-5.755 2.02-5.993 4.62-5.691 6.68.3 2.059 5.054 11.08 7.416 10.305z" fill="#FFB27D"/><path d="M357.929 102.029c-3.576 5.261-30.31 12.292-29.994 8.649a40.531 40.531 0 00-.004-7.184 47.366 47.366 0 00-.283-2.482c-.68-4.785-2.293-10.94-5.891-18.06a75.348 75.348 0 00-.843-1.616 56.277 56.277 0 01-3.706-8.524c-1.852-5.478-2.599-10.72-1.665-14.146.004-.016.011-.03.015-.048 5.589-2.645 7.753-12.901 7.753-12.901s19.066 3.503 29.745 29.513c.002 0 7.984 22.218 4.873 26.799z" fill="#D900A9"/><path d="M327.93 103.494a47.366 47.366 0 00-.283-2.482c-.679-4.785-2.293-10.94-5.891-18.06.618-3.833 1.471-7.02 2.407-8.455 3.802-5.833 6.017-6.743 6.017-6.743s5.702 24.611-2.25 35.74z" fill="#9B057A"/><path d="M297.877 97.639s-5.275.284-6.091.584c-.818.3-3.386 2.399-3.357 2.652.028.252.222.409.734.298.514-.113 2.111-.812 2.062-.576-.049.236-4.557 2.589-4.336 3.586.22 1 3.345 2.065 5.591 1.545 2.246-.522 5.86-4.417 6.223-4.557 3.085-1.205-.826-3.532-.826-3.532z" fill="#FFB27D"/><path d="M296.885 99.686c-1.057-1.747-.296-2.544-.296-2.544s16.292-13.056 17.569-14.376c1.277-1.32 7.193-22.32 7.193-22.32s2.035-8.5 6.804-9.437c4.143-.814 7.007 1.284 8.882 3.743 2.233 2.931 2.452 6.973.599 10.169-4.159 7.173-12.551 21.415-15.002 23.847-5.455 5.415-23.703 12.981-23.703 12.981s-1.216-.691-2.046-2.063z" fill="#D900A9"/><path d="M320.038 29.45c.061-.125.243-.259.683-.397 0 0-.412-.142-.893-.033-.249-.622-.853-1.68-1.989-1.689 0 0 .651.173.891.84-1.554-1.009-4.436-1.301-11.631 1.15-9.481 3.231-4.744 8.866-3.308 9.317 1.438.45 4.083-2.447 6.462-2.844 2.378-.396 3.667 2.996 4.573 3.278.908.282.392-.49 1.342-1.263.951-.773 1.495 1.046 1.475 2.324-.02 1.277 1.832 2.488 1.832 2.488l1.087-2.04c1.087-2.04.791-9.442-.247-10.776-.092-.115-.183-.234-.277-.355z" fill="#2B478B"/><path d="M170.166 287.746v10.983l-25.402-10.983h25.402z" fill="#4271BC"/><path d="M387.543 194.071h-84.004v112.922h84.004V194.071z" fill="#002D87"/><path d="M361.643 194.071h-84.006v112.922h84.006V194.071z" fill="#0F5CD5"/><path d="M387.542 194.071v16.887l-25.901-16.887h25.901z" fill="#4271BC"/></g><defs><radialGradient id="paint0_radial" cx="0" cy="0" r="1" gradientUnits="userSpaceOnUse" gradientTransform="rotate(-45.769 692.848 91.302) scale(703.578 1555.08)"><stop stop-color="#F600B2"/><stop offset="1" stop-color="#32B5F7"/></radialGradient><radialGradient id="paint1_radial" cx="0" cy="0" r="1" gradientUnits="userSpaceOnUse" gradientTransform="rotate(-43.419 767.806 3.33) scale(763.311 1685.14)"><stop stop-color="#F600B2"/><stop offset="1" stop-color="#32B5F7"/></radialGradient><clipPath id="clip0"><path fill="#fff" d="M0 0h614v307H0z"/></clipPath></defs></svg>