<svg width="364" height="365" fill="none" xmlns="http://www.w3.org/2000/svg"><g clip-path="url(#clip0)"><path opacity=".25" d="M322.66 308.086c-7.323 7.715-14.252 12.689-19.727 16.619-64.354 46.201-140.501 32.734-156.684 29.445-23.898-4.857-70.092-14.244-103.49-53.541C-7.766 241.154.1 147.486 39.294 85.655c7.17-11.31 45.037-74.083 122.005-84.15C207.877-4.59 262.175 7.698 301.495 40.66c82.537 69.191 76.661 208.966 21.165 267.425z" fill="url(#paint0_linear)"/><path d="M314.731 76.293a.579.579 0 01-.507-.217 49.332 49.332 0 00-1.489-1.763.585.585 0 01.874-.776c.52.587 1.033 1.194 1.526 1.807a.588.588 0 01-.089.822.595.595 0 01-.315.127zm-34.009 79.874a41.92 41.92 0 01-2.681.163.584.584 0 01-.603-.565.59.59 0 01.564-.603 53.578 53.578 0 002.617-.159c.633-.055 1.28-.126 1.921-.209.324-.065.612.185.654.504a.585.585 0 01-.505.655c-.656.085-1.318.156-1.967.214zm9.272-1.734a.584.584 0 01-.211-1.143 49.375 49.375 0 004.195-1.419l.12-.047a.585.585 0 01.424 1.09l-.12.047a50.06 50.06 0 01-4.294 1.452.683.683 0 01-.114.02zm11.108-4.729a.585.585 0 01-.344-1.089 48.465 48.465 0 003.829-2.465.584.584 0 01.678.952 49.759 49.759 0 01-3.922 2.523.567.567 0 01-.241.079zm9.619-7.291a.584.584 0 01-.459-1.001 48.381 48.381 0 003.107-3.328.584.584 0 11.89.757 49.992 49.992 0 01-3.181 3.407.588.588 0 01-.357.165zm7.542-9.426a.583.583 0 01-.547-.889 49.194 49.194 0 002.205-3.987.585.585 0 011.048.519 50.151 50.151 0 01-2.258 4.082.593.593 0 01-.448.275zm5.03-10.98a.585.585 0 01-.607-.759 49.048 49.048 0 001.174-4.402.584.584 0 111.141.249 49.962 49.962 0 01-1.203 4.507.584.584 0 01-.505.405zm2.217-11.873a.584.584 0 01-.634-.618c.092-1.514.115-3.047.064-4.558a.577.577 0 01.564-.603.584.584 0 01.603.564 50.113 50.113 0 01-.065 4.667.587.587 0 01-.532.548zm-.758-12.06a.583.583 0 01-.624-.473 48.946 48.946 0 00-1.054-4.433.586.586 0 01.4-.724c.311-.09.635.09.723.4a50.308 50.308 0 011.08 4.54.584.584 0 01-.466.684c-.02.002-.039.005-.059.006zm-3.673-11.508a.584.584 0 01-.581-.337 49.185 49.185 0 00-2.092-4.048.586.586 0 011.012-.585 49.876 49.876 0 012.142 4.144.586.586 0 01-.481.826zm-50.511 69.435a.555.555 0 01-.122-.002 51.558 51.558 0 01-2.337-.339.586.586 0 01-.48-.674.582.582 0 01.674-.479c.757.128 1.525.24 2.284.331a.584.584 0 01-.019 1.163zm-33.566-19.44a.582.582 0 01-.52-.233 50.08 50.08 0 01-1.367-1.931.584.584 0 11.969-.654c.432.641.881 1.274 1.335 1.885a.584.584 0 01-.12.817.559.559 0 01-.297.116zm-4.993-8.313a.582.582 0 01-.578-.332 51.259 51.259 0 01-1.773-4.234.584.584 0 111.097-.403 49.64 49.64 0 001.731 4.136.585.585 0 01-.477.833zm-3.767-11.272a.585.585 0 01-.623-.465 49.987 49.987 0 01-.713-4.537.585.585 0 01.518-.645c.31-.03.609.195.644.517.163 1.481.398 2.971.696 4.429a.582.582 0 01-.455.689.27.27 0 01-.067.012zm-.953-11.849c-.024.002-.05.002-.075.002a.584.584 0 01-.559-.609c.064-1.524.199-3.062.402-4.573a.585.585 0 011.157.157 48.363 48.363 0 00-.393 4.466.584.584 0 01-.532.557zm1.927-11.727a.581.581 0 01-.612-.746 50.15 50.15 0 011.486-4.342.585.585 0 011.087.427 48.995 48.995 0 00-1.451 4.242.586.586 0 01-.51.419zm4.673-10.926a.585.585 0 01-.555-.876 50.32 50.32 0 012.478-3.862.584.584 0 11.954.676 49.048 49.048 0 00-2.419 3.772.593.593 0 01-.458.29zm7.146-9.49a.585.585 0 01-.471-.988 49.32 49.32 0 013.331-3.153.583.583 0 11.763.885 48.588 48.588 0 00-3.253 3.08.593.593 0 01-.37.176zm9.218-7.49a.584.584 0 01-.361-1.078 50.146 50.146 0 013.994-2.256.583.583 0 11.527 1.042 48.79 48.79 0 00-3.901 2.203.548.548 0 01-.259.09zM261 60.438a.584.584 0 01-.233-1.137 50.39 50.39 0 014.416-1.244.585.585 0 01.265 1.138 49.548 49.548 0 00-4.314 1.214.565.565 0 01-.134.029zm16.177-2.489a.958.958 0 01-.06.003 47.904 47.904 0 00-4.478.138.584.584 0 01-.096-1.164h.005a49.812 49.812 0 014.587-.142.585.585 0 01.042 1.165zm9.652 1.116a.615.615 0 01-.175-.01 48.078 48.078 0 00-2.266-.438.584.584 0 01.193-1.153c.775.13 1.557.282 2.32.447.315.07.515.38.447.696a.583.583 0 01-.519.458z" fill="#EAC4F9"/><path d="M288.956 70.934a.592.592 0 00-.675.117l-5.043 5.117a31.258 31.258 0 00-10.122-.55l-4.462-5.624a.59.59 0 00-.658-.19l-8.124 2.865a.59.59 0 00-.394.56l.05 7.182a31.289 31.289 0 00-7.54 6.778l-7.135-.82a.591.591 0 00-.6.332l-3.719 7.774a.59.59 0 00.117.675l5.114 5.046a31.328 31.328 0 00-.549 10.128l-5.621 4.465a.592.592 0 00-.191.658l2.864 8.129a.59.59 0 00.56.394l7.177-.05a31.296 31.296 0 006.775 7.544l-.819 7.14a.589.589 0 00.33.599l7.77 3.722a.592.592 0 00.675-.117l5.043-5.117c3.276.721 6.69.924 10.122.549l4.462 5.625a.59.59 0 00.658.19l8.124-2.865a.588.588 0 00.394-.561l-.05-7.181a31.25 31.25 0 007.54-6.779l7.135.82a.59.59 0 00.6-.331l3.719-7.774a.595.595 0 00-.117-.676l-5.114-5.046a31.32 31.32 0 00.549-10.127l5.621-4.465a.588.588 0 00.189-.658l-2.863-8.13a.59.59 0 00-.56-.393l-7.178.05a31.285 31.285 0 00-6.774-7.544l.819-7.14a.589.589 0 00-.331-.6l-7.768-3.721z" fill="url(#paint1_linear)"/><path opacity=".57" d="M277.262 115.433a8.594 8.594 0 01-2.441-.14 8.472 8.472 0 01-5.415-3.643 8.48 8.48 0 01-1.254-6.407 8.475 8.475 0 013.64-5.418 8.47 8.47 0 016.403-1.255 8.466 8.466 0 015.415 3.643 8.48 8.48 0 011.254 6.407 8.474 8.474 0 01-3.64 5.418 8.482 8.482 0 01-3.962 1.395zm-1.353-15.256a6.739 6.739 0 00-3.148 1.108c-3.111 2.066-3.96 6.281-1.895 9.395a6.728 6.728 0 004.301 2.894 6.726 6.726 0 005.088-.998 6.732 6.732 0 002.892-4.304 6.74 6.74 0 00-.996-5.09 6.725 6.725 0 00-4.302-2.894 6.79 6.79 0 00-1.94-.111z" fill="#fff"/><path opacity=".57" d="M278.294 128.708a21.512 21.512 0 01-11.203-2.054 21.533 21.533 0 01-11.076-12.344 21.562 21.562 0 01.891-16.566 21.531 21.531 0 0112.766-11.23 21.726 21.726 0 014.058-.92l.222 1.74a19.99 19.99 0 00-4.125.98 19.77 19.77 0 00-10.958 9.43 19.803 19.803 0 00-1.201 15.981 19.781 19.781 0 0010.18 11.346 19.77 19.77 0 0015.217.82c8.742-3.083 13.99-11.689 13.217-20.528a19.855 19.855 0 00-1.059-4.884 19.901 19.901 0 00-6.06-8.709l1.118-1.35a21.637 21.637 0 016.595 9.475 21.63 21.63 0 011.152 5.314c.841 9.617-4.87 18.981-14.381 22.335a21.78 21.78 0 01-5.353 1.164z" fill="#fff"/><path d="M349.261 45.61a.582.582 0 01-.523-.236 24.559 24.559 0 00-1.433-1.777.584.584 0 01.874-.776c.527.593 1.031 1.22 1.501 1.862a.586.586 0 01-.419.928zm-14.568 39.546a.585.585 0 01-.185-1.151 24.918 24.918 0 004.384-1.485.583.583 0 11.474 1.068 26.182 26.182 0 01-4.588 1.553.49.49 0 01-.085.015zm10.945-5.673a.585.585 0 01-.439-1.02 24.603 24.603 0 003.157-3.38.585.585 0 01.925.714 25.805 25.805 0 01-3.308 3.542.583.583 0 01-.335.144zm6.948-10.182a.585.585 0 01-.598-.785 24.938 24.938 0 001.19-4.474.585.585 0 011.153.193 26.141 26.141 0 01-1.246 4.685.589.589 0 01-.499.38zm1.319-12.263a.586.586 0 01-.63-.5 24.698 24.698 0 00-1.076-4.503.585.585 0 011.106-.377c.523 1.534.902 3.12 1.127 4.716a.585.585 0 01-.496.661l-.031.003zm-26.893 28.727a.767.767 0 01-.095.001 26.16 26.16 0 01-2.372-.29.585.585 0 01.195-1.152c.746.127 1.508.22 2.265.277a.585.585 0 01.007 1.164zm-18.373-10.097a.583.583 0 01-.52-.233 25.68 25.68 0 01-1.336-1.984.584.584 0 11.998-.607c.396.649.824 1.286 1.277 1.892a.585.585 0 01-.419.932zm-4.236-8.906a.583.583 0 01-.616-.438 25.633 25.633 0 01-.743-4.713c-.02-.322.236-.581.546-.62a.586.586 0 01.62.547 24.56 24.56 0 00.709 4.497.585.585 0 01-.516.727zm-.067-12.13a.585.585 0 01-.618-.72 26.11 26.11 0 011.541-4.51.586.586 0 011.067.48 24.936 24.936 0 00-1.472 4.307.586.586 0 01-.518.443zm5.586-10.765a.585.585 0 01-.49-.968 25.88 25.88 0 013.461-3.276.585.585 0 01.722.92 24.604 24.604 0 00-3.305 3.127.58.58 0 01-.388.197zm9.957-6.914a.584.584 0 01-.259-1.129 25.932 25.932 0 014.587-1.286.572.572 0 01.68.469.584.584 0 01-.469.68 24.758 24.758 0 00-4.381 1.23.685.685 0 01-.158.036zm14.356-1.094a.62.62 0 01-.176-.01 24.478 24.478 0 00-2.248-.383.585.585 0 01.14-1.16c.787.097 1.581.23 2.357.4a.585.585 0 01-.073 1.153z" fill="#EAC4F9"/><path d="M335.301 41.673a.303.303 0 00-.346.06l-2.592 2.628a16.055 16.055 0 00-5.199-.282l-2.293-2.889a.304.304 0 00-.339-.097l-4.173 1.471a.303.303 0 00-.202.288l.025 3.69a16.069 16.069 0 00-3.873 3.481l-3.665-.42a.302.302 0 00-.308.17l-1.911 3.994a.304.304 0 00.06.347l2.627 2.591a16.08 16.08 0 00-.282 5.203l-2.887 2.294a.303.303 0 00-.098.34l1.471 4.174a.302.302 0 00.288.203l3.687-.025a16.091 16.091 0 003.48 3.875l-.421 3.667a.302.302 0 00.171.308l3.992 1.912a.303.303 0 00.346-.06l2.592-2.628c1.683.37 3.436.475 5.199.282l2.293 2.888a.303.303 0 00.339.098l4.173-1.472a.303.303 0 00.202-.288l-.025-3.689a16.087 16.087 0 003.873-3.482l3.665.421a.3.3 0 00.307-.17l1.912-3.994a.305.305 0 00-.06-.347l-2.627-2.592c.37-1.684.474-3.438.282-5.202l2.887-2.294a.304.304 0 00.097-.34l-1.47-4.175a.302.302 0 00-.288-.202l-3.687.025a16.091 16.091 0 00-3.48-3.876l.421-3.666a.302.302 0 00-.171-.308l-3.992-1.912z" fill="url(#paint2_linear)"/><path opacity=".57" d="M329.332 64.952a4.808 4.808 0 01-4.43-2.129 4.818 4.818 0 011.345-6.666 4.809 4.809 0 016.661 1.345 4.817 4.817 0 01-1.344 6.666 4.749 4.749 0 01-2.232.784zm-2.115-7.333a3.06 3.06 0 00-.854 4.236 3.055 3.055 0 004.233.853 3.062 3.062 0 00.854-4.235 3.058 3.058 0 00-4.233-.854z" fill="#fff"/><path opacity=".57" d="M329.86 71.775a11.467 11.467 0 01-5.976-1.097 11.483 11.483 0 01-5.908-6.584 11.494 11.494 0 01.475-8.834 11.484 11.484 0 016.581-5.912 11.65 11.65 0 012.393-.568l.22 1.74a9.854 9.854 0 00-2.031.482 9.735 9.735 0 00-5.43 4.71l-.051.1a9.74 9.74 0 00-.504 7.7 9.737 9.737 0 005.012 5.585 9.72 9.72 0 007.491.403 9.74 9.74 0 005.583-5.015 9.75 9.75 0 00.402-7.494 9.794 9.794 0 00-2.982-4.288l1.118-1.35a11.549 11.549 0 013.518 5.054 11.505 11.505 0 01-.476 8.834 11.485 11.485 0 01-6.58 5.912 11.5 11.5 0 01-2.855.622z" fill="#fff"/><path d="M242.476 364.433H134.66V219.488a5.267 5.267 0 015.266-5.269h97.283a5.267 5.267 0 015.266 5.269v144.945h.001z" fill="url(#paint3_linear)"/><path d="M215.087 364.433H107.271V219.488a5.268 5.268 0 015.266-5.269h97.283a5.267 5.267 0 015.266 5.269v144.945h.001z" fill="url(#paint4_linear)"/><path d="M114.5 242.413a.662.662 0 01-.662-.662v-10.658c0-5.758 5.913-10.441 13.182-10.441h20.704a.662.662 0 010 1.324H127.02c-6.539 0-11.86 4.091-11.86 9.119v10.658a.659.659 0 01-.66.66zm0 11.3a.662.662 0 01-.662-.662v-4.343a.662.662 0 011.324 0v4.343a.662.662 0 01-.662.662z" fill="#fff"/><path d="M120.289 365H27.387v-93.476a5.267 5.267 0 015.266-5.269h82.369a5.267 5.267 0 015.266 5.269V365h.001z" fill="url(#paint5_linear)"/><path d="M92.902 365H0v-93.476a5.267 5.267 0 015.266-5.269h82.37a5.267 5.267 0 015.265 5.269V365h.001z" fill="url(#paint6_linear)"/><path d="M7.67 294.555a.662.662 0 01-.662-.662v-11.702c0-6.287 6.923-11.401 15.433-11.401h24.428a.662.662 0 010 1.324H22.44c-7.78 0-14.11 4.521-14.11 10.078v11.702a.663.663 0 01-.661.661zm0 12.409a.662.662 0 01-.662-.662v-4.769a.662.662 0 111.323 0v4.769a.663.663 0 01-.661.662z" fill="#fff"/><path d="M363.648 364.252h-98.427v-95.047a5.267 5.267 0 015.266-5.269h87.895a5.266 5.266 0 015.266 5.269v95.047z" fill="url(#paint7_linear)"/><path d="M334.631 364.252h-98.428v-95.047a5.267 5.267 0 015.266-5.269h87.896a5.267 5.267 0 015.266 5.269v95.047z" fill="url(#paint8_linear)"/><path d="M244.328 292.675a.662.662 0 01-.662-.662v-11.888c0-6.381 7.318-11.572 16.311-11.572h25.881a.663.663 0 010 1.324h-25.881c-8.265 0-14.989 4.598-14.989 10.249v11.888a.66.66 0 01-.66.661zm0 12.607a.662.662 0 01-.662-.662v-4.844a.662.662 0 011.324 0v4.844a.664.664 0 01-.662.662z" fill="#fff"/><path d="M12.993 237.427c-.71 1.052-3.534 24.87-3.976 33.666a1.042 1.042 0 002.07.21l5.165-33.117-3.259-.759z" fill="url(#paint9_linear)"/><path d="M35.696 237.427c.71 1.052 3.534 24.87 3.976 33.666a1.042 1.042 0 01-2.07.21l-5.164-33.117 3.258-.759z" fill="url(#paint10_linear)"/><path d="M8.721 235.568l-.002.26c-.017 1.868 1.592 3.401 3.606 3.435l23.873.406c1.985.034 3.64-1.401 3.736-3.24l.013-.238c.1-1.918-1.528-3.535-3.598-3.571l-23.883-.429c-2.043-.037-3.726 1.482-3.745 3.377z" fill="url(#paint11_linear)"/><path d="M55.164 270.228c-4.243 0-6.122-.364-6.96-.696a1.61 1.61 0 001.568 1.247h15.013a.73.73 0 00.704-.923c-1.71.138-5.346.372-10.325.372z" fill="url(#paint12_linear)"/><path d="M65.489 269.856a.711.711 0 00-.123-.255c-1.144-1.462-3.44-3.756-6.566-3.712-4.578.064-6.174.562-9.732.028l-.84 2.783a1.596 1.596 0 00-.025.83c.839.333 2.717.696 6.96.696 4.98.002 8.615-.232 10.326-.37z" fill="url(#paint13_linear)"/><path d="M50.099 262.919l-1.03 3.505s2.282 1.039 4.29.204l.394-3.037-3.654-.672z" fill="url(#paint14_linear)"/><path d="M81.216 268.021c-3.308 2.659-5 3.553-5.86 3.822a1.607 1.607 0 002-.015l11.703-9.409a.728.728 0 00-.027-1.157c-1.248 1.179-3.935 3.638-7.816 6.759z" fill="url(#paint15_linear)"/><path d="M89.032 261.262a.713.713 0 00-.255-.122c-1.802-.417-5.023-.757-7.43 1.236-3.528 2.919-4.464 4.306-7.57 6.121l1.08 2.685c.111.274.286.494.498.66.861-.269 2.552-1.163 5.86-3.823 3.881-3.119 6.569-5.578 7.817-6.757z" fill="url(#paint16_linear)"/><path d="M28.06 222.976s25.408 2.075 30.62 4.531c5.213 2.455-4.254 36.864-4.254 36.864s-1.418.683-4.576-.299c0 0 3.237-25.392.828-30.898l-27.51-4.503 4.892-5.695z" fill="url(#paint17_linear)"/><path d="M71.252 263.663c.236.215 2.525 4.834 2.525 4.834s2.548-.552 3.067-2.166l-2.293-4.168-3.299 1.5z" fill="url(#paint18_linear)"/><path d="M12.759 222.763s-.829 1.994-.795 4.642c.047 3.663 2.99 6.637 6.647 6.819l30.036 1.37a1.44 1.44 0 011.33 1.084c.707 2.732 4.156 11.121 21.02 27.858a1.358 1.358 0 001.682.184l2.401-1.517a.555.555 0 00.183-.747l-17.488-29.882a6.77 6.77 0 00-4.112-3.052l-25.6-6.547-15.304-.212z" fill="url(#paint19_linear)"/><path d="M42.358 176.086s-3.218 5.693-6.499 8.45l6.782 3.786s1.528-6.027 5.018-7.79l-5.301-4.446z" fill="url(#paint20_linear)"/><path d="M12.213 222.976s8.109 1.977 15.849 0c0 0 10.83-14.568 15.02-18.532 0 0 6.683 10.553 21.559 12.048l.83-1.855s-11.843-5.462-15.488-13.856c-3.645-8.393-5.11-11.973-8.427-14.162-2.066-1.363-3.302-2.295-3.942-2.804a1.058 1.058 0 00-1.214-.077c-3.523 2.146-20.086 13.496-24.187 39.238z" fill="url(#paint21_linear)"/><path d="M42.64 204.77a1.051 1.051 0 00.834-1.692c-2.445-3.191-3.845-6.808-3.86-6.845a1.052 1.052 0 10-1.962.755c.062.159 1.526 3.941 4.155 7.37.206.27.518.412.834.412z" fill="url(#paint22_linear)"/><path d="M63.746 213.668l1.674-.447 5.084-1.178a2.356 2.356 0 011.787.301l4.371 2.752-12.072-.021-.844-1.407z" fill="url(#paint23_linear)"/><path d="M47.467 167.551s3.127 5.201 3.67 8.075c.542 2.875 1.414 4.672-1.856 5.695-3.27 1.025-6.308-.272-8.216-2.955 0 0-2.978-4.129-2.68-6.021.296-1.89 9.082-4.794 9.082-4.794z" fill="url(#paint24_linear)"/><path d="M41.936 176.142l.423-.056s-2.215-3.347-.765-4.178c1.45-.83 7.354-2.867 8.379-5.194.989-2.244-.49-4.777-2.273-5.306a.226.226 0 00-.273.144l-.104.282a.23.23 0 01-.425.012c-.078-.18-.335-.186-.415-.009-.316.697-1.263 1.888-4.103 2.808-4.028 1.307-6.539 3.338-6.23 6.202a.23.23 0 01-.327.234c-.33-.146-.828-.169-1.408.465-1.009 1.103-.22 3.517 2.535 5.225.13.081.154.266.038.366-.412.353-.992 1.139.871 1.841 1.906.717 2.946.474 3.33.32a.228.228 0 00.141-.258l-.49-2.509a.23.23 0 01.196-.271l.9-.118z" fill="url(#paint25_linear)"/><path d="M42.11 176.657s-1.38-3.403-2.828-2.207c-1.449 1.197 1.34 3.841 2.626 3.806l.202-1.599z" fill="url(#paint26_linear)"/><path d="M59.081 217.466l.06.001 25.788-.026c.637 0 1.154-.518 1.153-1.154a1.149 1.149 0 00-1.155-1.152l-25.79.026a1.154 1.154 0 00-.056 2.305z" fill="url(#paint27_linear)"/><path d="M94.917 192.196a.723.723 0 00-.026.053l-10.852 23.409a1.155 1.155 0 00.56 1.533 1.147 1.147 0 001.53-.564l10.851-23.408a1.154 1.154 0 00-.559-1.533 1.154 1.154 0 00-1.504.51z" fill="url(#paint28_linear)"/><path d="M70.564 218.761c-.112.467-10.873 40.848-13.601 51.085-.314 1.179.564 2.338 1.77 2.338.842 0 1.575-.58 1.779-1.406l11.944-48.458-1.892-3.559z" fill="url(#paint29_linear)"/><path d="M76.457 218.761c.113.467 10.874 40.848 13.602 51.085.314 1.179-.564 2.338-1.77 2.338-.842 0-1.576-.58-1.779-1.406L74.564 222.32l1.893-3.559z" fill="url(#paint30_linear)"/><path d="M76.905 217.441h-6.702v5.385c0 .774.62 1.401 1.384 1.401h.92v12.096c0 .585.468 1.061 1.047 1.061.578 0 1.047-.474 1.047-1.061v-12.096h.467a1.849 1.849 0 001.837-1.86v-4.926z" fill="url(#paint31_linear)"/><path d="M53.725 216.148h37.42c.522 0 .98.358 1.11.871l.522 2.05c.188.738-.365 1.456-1.116 1.451l-38.397-.223c-.744-.004-1.287-.714-1.106-1.446l.455-1.826a1.15 1.15 0 011.112-.877z" fill="url(#paint32_linear)"/><path d="M317.336 240.581h-2.434v26.328h2.434v-26.328z" fill="url(#paint33_linear)"/><path d="M326.774 267.417h-21.311v-1.151c0-.24.194-.433.432-.433h20.446c.238 0 .432.195.432.433v1.151h.001z" fill="url(#paint34_linear)"/><path d="M329.938 239.667a2.624 2.624 0 01-2.616 2.617h-21.561a2.624 2.624 0 01-2.616-2.617V237.3a2.624 2.624 0 012.616-2.618h21.561a2.624 2.624 0 012.616 2.618v2.367z" fill="url(#paint35_linear)"/><path d="M298.156 223.025s-3.615.561-7.68 3.28a2.028 2.028 0 00-.894 1.939c.487 3.858 2.489 16.345 9.089 28.54a3.07 3.07 0 01.294 2.107l-1.146 5.339-2.127 1.994h5.477l3.647-9.874-1.559-.493a2.95 2.95 0 01-2.06-2.763l-.183-10.593c.157-4.719-2.892-7.975-2.892-7.975l8.747-.427-8.713-11.074z" fill="url(#paint36_linear)"/><path d="M293.551 267.188c-.499.653 5.369 1.515 8.333.086 0 0 4.109-7.154 4.109-10.837 0 0-.325-.751-2.738-.58 0 0-1.38 8.471-2.836 9.418-1.457.949-4.076.097-4.076.097s-2.056.852-2.792 1.816z" fill="url(#paint37_linear)"/><path d="M305.759 234.681c-.046-.081-9.416-1.128-9.416-1.128s.306 2.851-.652 6.775c-.959 3.925-14.716 20.927-14.716 20.927l1.442 4.576c-4.461 1.555-8.848 1.803-13.165.792l8.94-5.368s8.367-28.53 13.492-33.619l9.393-3.251 4.682 10.296z" fill="url(#paint38_linear)"/><path d="M326.776 218.081s5.398 8.035 5.841 11.699c.443 3.666-1.478 5.155-7.143 5.4-5.665.245-20.788.241-20.788.241l-12.907-11.037s9.407-3.358 11.852-4.309c2.445-.947 23.145-1.994 23.145-1.994z" fill="url(#paint39_linear)"/><path d="M281.872 264.291s1.553 1.506.505 3.18c0 0-12.304 2.182-15.645 1.191 0 0 .694-1.584 4.456-3.387l-.277.214c-.352.27-.145.832.297.807 2.478-.142 7.607-.596 10.664-2.005z" fill="url(#paint40_linear)"/><path d="M312.175 217.017s-6.287-5.99-9.382-9.958a8.426 8.426 0 01-1.424-7.576c1.413-4.763 3.925-9.696 4.154-10.464.35-1.177 7.4-1.127 7.4-1.127s13.872 9.007 19.322 24.267l-6.121 1.907s-3.622-6.08-7.2-9.945c0 0 6.192 8.185 6.409 11.535l-13.158 1.361z" fill="url(#paint41_linear)"/><path d="M304.67 182.443c.073.245 1.914 6.348 2.057 6.474.143.127 4.035.337 5.867-.916l-3.108-6.509-4.816.951z" fill="url(#paint42_linear)"/><path d="M307.691 169.623s-3.322 1.404-5.58 6.207c-2.259 4.802-.572 7.019 1.547 7.324 2.118.305 5.286.258 8.637-2.844 3.352-3.103-.285-12.35-4.604-10.687z" fill="url(#paint43_linear)"/><path d="M310.044 177.746s2.507-7.026-3.72-7.11l-1.465 1.025s-2.284-3.895 1.465-5.755c3.75-1.861 9.344-.204 10.94 4.85 1.596 5.054.662 8.318-1.993 10.736-2.655 2.418-3.748-.323-3.748-.323s1.446-2.262.857-3.471c-.589-1.21-1.946.25-1.946.25l-.39-.202z" fill="url(#paint44_linear)"/><path d="M310.742 178.528s1.268-3.62 2.958-2.178c1.689 1.441-1.374 3.343-2.573 3.959l-.385-1.781z" fill="url(#paint45_linear)"/><path d="M299.367 217.462l4.62-4.455 6.39 2.701s6.361.986 10.001 0l3.64-.985 8.226-2.563 1.292 3.654a2.2 2.2 0 01-.804 2.528c-.711.505-1.546 1.062-2.078 1.294-1.084.475-26.706-.328-26.706-.328l-4.581-1.846z" fill="url(#paint46_linear)"/><path d="M316.775 171.549c-.8-.819-.28-2.201.851-2.377 3.65-.569 9.214.012 11.552 7.83 2.633 8.805 4.347 13.209 6.106 13.982 1.156.507 1.23 2.111.078 2.629-.851.382-2.069.518-3.812.134-13.451-2.963-10.08-17.4-14.775-22.198z" fill="url(#paint47_linear)"/><path d="M316.846 219.562l-.061.001-26.795-.029a1.2 1.2 0 01-1.199-1.2c0-.664.541-1.211 1.201-1.2l26.795.029a1.201 1.201 0 01.059 2.399z" fill="url(#paint48_linear)"/><path d="M265.903 195.219h22.314c1.647 0 3.145.95 3.848 2.44l10.315 21.888h-27.731a2.584 2.584 0 01-2.404-1.636l-7.999-20.253a1.783 1.783 0 011.657-2.439z" fill="url(#paint49_linear)"/><path d="M281.623 206.443c.483 1.503.126 2.963-.797 3.26-.924.297-2.065-.679-2.55-2.184-.483-1.503-.126-2.963.797-3.261.925-.296 2.067.68 2.55 2.185z" fill="url(#paint50_linear)"/><path d="M354.298 220.541a.993.993 0 00-.233-.858 1.136 1.136 0 00-.854-.377H241.396c-.434 0-.838.208-1.072.55a1.13 1.13 0 00-.084 1.144l1.212 2.459c.277.564.878.925 1.54.925h109.451c.615 0 1.143-.41 1.261-.977l.594-2.866z" fill="url(#paint51_linear)"/><path d="M247.664 272.383a.956.956 0 01-.387-.083 1.012 1.012 0 01-.513-1.319l20.579-48.976a.973.973 0 011.29-.526c.498.219.728.81.514 1.32l-20.58 48.976a.981.981 0 01-.903.608z" fill="url(#paint52_linear)"/><path d="M270.848 272.383a.982.982 0 01-.902-.608l-20.579-48.976a1.014 1.014 0 01.513-1.32.974.974 0 011.29.526l20.579 48.976c.214.51-.015 1.1-.513 1.319a.965.965 0 01-.388.083z" fill="url(#paint53_linear)"/><path d="M328.703 272.383a.956.956 0 01-.387-.083 1.012 1.012 0 01-.513-1.319l20.579-48.976a.973.973 0 011.29-.526c.498.219.728.81.514 1.32l-20.58 48.976a.981.981 0 01-.903.608z" fill="url(#paint54_linear)"/><path d="M351.887 272.383a.982.982 0 01-.902-.608l-20.579-48.976a1.014 1.014 0 01.513-1.32.974.974 0 011.29.526l20.579 48.976c.214.51-.015 1.1-.513 1.319a.954.954 0 01-.388.083z" fill="url(#paint55_linear)"/><path d="M47.525 13.843l182.583-.8a3.13 3.13 0 013.157 3.15l-.39 63.947a3.127 3.127 0 01-3.219 3.111c-16.1-.48-181.117-2.599-184.273-2.467-3.117.13-1.424-50.369-.959-63.92a3.13 3.13 0 013.101-3.021z" fill="url(#paint56_linear)"/><path d="M229.752 80.778h-.021c-10.29-.307-108.898-1.538-156.287-2.13-13.857-.173-23.692-.295-26.314-.332l-.245-.004-.043-.241c-1.12-6.322-1.101-27.457.056-61.12a.655.655 0 01.65-.633l182.584-.798a.657.657 0 01.661.66l-.39 63.947a.657.657 0 01-.651.651zM47.384 77.725c2.95.04 12.614.162 26.067.329 47.389.592 146.002 1.824 156.296 2.13l.017.001c.018 0 .044-.03.045-.064l.39-63.946-.068-.36.001.296-182.583.798a.06.06 0 00-.061.06c-1.14 33.204-1.175 54.19-.104 60.756z" fill="#fff"/><path opacity=".64" d="M55.336 30.356c0 1.73.577 3.131 1.288 3.131h69.939c.712 0 1.289-1.4 1.289-3.13s-.577-3.132-1.289-3.132H56.624c-.71 0-1.288 1.403-1.288 3.131zm0 10.675c0 1.73.577 3.132 1.288 3.132h69.939c.712 0 1.289-1.402 1.289-3.132 0-1.73-.577-3.13-1.289-3.13H56.624c-.71 0-1.288 1.4-1.288 3.13zm0 10.674c0 1.73.577 3.131 1.288 3.131h69.939c.712 0 1.289-1.401 1.289-3.131 0-1.73-.577-3.131-1.289-3.131H56.624c-.71 0-1.288 1.401-1.288 3.13zm0 10.674c0 1.73.577 3.13 1.288 3.13h69.939c.712 0 1.289-1.4 1.289-3.13s-.577-3.132-1.289-3.132H56.624c-.71 0-1.288 1.403-1.288 3.132z" fill="#fff"/><path d="M154.172 41.171c4.751-4.753 4.751-12.46 0-17.214-4.751-4.754-12.453-4.754-17.204 0-4.751 4.753-4.751 12.46 0 17.214 4.751 4.754 12.453 4.754 17.204 0zm30.237.001c4.751-4.754 4.751-12.461 0-17.215s-12.454-4.754-17.205 0c-4.751 4.754-4.751 12.46 0 17.215 4.751 4.753 12.454 4.753 17.205 0zm30.234.398c4.751-4.754 4.751-12.461 0-17.215s-12.454-4.754-17.205 0c-4.751 4.754-4.751 12.46 0 17.215 4.751 4.753 12.454 4.753 17.205 0z" fill="#fff"/><path d="M152.799 29.99a7.816 7.816 0 01-7.229 10.79 7.816 7.816 0 01-7.814-7.82 7.816 7.816 0 018.209-7.808v-1.981a9.923 9.923 0 00-.395-.01c-5.409 0-9.795 4.389-9.795 9.801s4.386 9.8 9.795 9.8 9.795-4.388 9.795-9.8a9.763 9.763 0 00-.748-3.76l-1.818.788z" fill="url(#paint57_linear)"/><path d="M179.837 39.576a7.816 7.816 0 01-11.978-6.616 7.816 7.816 0 018.209-7.808v-1.981a9.879 9.879 0 00-.395-.01c-5.409 0-9.794 4.389-9.794 9.801s4.385 9.8 9.794 9.8a9.74 9.74 0 005.147-1.46l-.983-1.726z" fill="url(#paint58_linear)"/><path d="M212.563 37.358a7.803 7.803 0 01-6.462 3.423 7.816 7.816 0 01-7.814-7.819 7.816 7.816 0 018.209-7.808v-1.982a9.879 9.879 0 00-.395-.009c-5.409 0-9.794 4.388-9.794 9.8 0 5.413 4.385 9.8 9.794 9.8a9.78 9.78 0 008.067-4.241l-1.605-1.164z" fill="url(#paint59_linear)"/><path opacity=".64" d="M155.483 49.892h-19.825a2.254 2.254 0 000 4.507h19.825a2.254 2.254 0 000-4.507zm30.235 0h-19.825a2.253 2.253 0 00-2.252 2.253 2.253 2.253 0 002.252 2.254h19.825a2.253 2.253 0 000-4.507zM196.13 54.4h19.824a2.253 2.253 0 100-4.507H196.13a2.253 2.253 0 00-2.253 2.254 2.252 2.252 0 002.253 2.254zm-40.647 2.506h-19.825a2.254 2.254 0 00-2.254 2.254v13.277a2.254 2.254 0 002.254 2.254h19.825a2.254 2.254 0 002.254-2.254V59.16a2.255 2.255 0 00-2.254-2.254zm30.235 0h-19.825a2.253 2.253 0 00-2.252 2.254v13.277a2.253 2.253 0 002.252 2.254h19.825a2.254 2.254 0 002.253-2.254V59.16a2.254 2.254 0 00-2.253-2.254zm30.236 0H196.13a2.253 2.253 0 00-2.253 2.254v13.277a2.253 2.253 0 002.253 2.254h19.824a2.253 2.253 0 002.253-2.254V59.16a2.253 2.253 0 00-2.253-2.254z" fill="#fff"/><path d="M146.081 92.382l-140.88-.678c-1.698-.016-3.077 1.864-3.064 4.175l.312 55.771c.014 2.325 1.428 4.18 3.135 4.11l140.077-3.002c1.63-.067 2.932-1.87 2.953-4.09l.491-52.092c.021-2.295-1.336-4.179-3.024-4.194z" fill="url(#paint60_linear)"/><path d="M5.496 152.246c-.296 0-.525-.274-.526-.622l-.312-55.771a.68.68 0 01.128-.417.487.487 0 01.397-.213l140.881.678a.484.484 0 01.394.215c.083.116.128.26.126.418l-.491 52.092c-.004.341-.22.606-.505.617h-.006L5.496 152.246zm-.315-56.54a.253.253 0 00-.042.144l.311 55.771c0 .089.04.137.052.145l140.06-3.004c.014-.011.048-.06.048-.14l.491-52.092a.224.224 0 00-.035-.13L5.181 95.705z" fill="#fff"/><path opacity=".6" d="M17.77 121.201h-6.856v26.215h6.856v-26.215zm11.455 9.01h-6.856v17.205h6.856v-17.205zm11.457-22.266h-6.856v39.471h6.856v-39.471zm11.455 29.989H45.28v9.482h6.856v-9.482zm11.455-24.712h-6.856v34.194h6.856v-34.194zm11.455 5.921H68.19v28.274h6.856v-28.274zm11.457 6.434h-6.856v21.839h6.856v-21.839zm11.455-25.612h-6.856v47.451h6.856V99.965zm11.455 5.019h-6.855v42.432h6.855v-42.432zm11.457 7.594h-6.855v34.838h6.855v-34.838zm11.455 26.235h-6.855v8.603h6.855v-8.603zm11.455-16.711h-6.855v25.314h6.855v-25.314z" fill="#fff"/><path d="M174.597 210.558c3.117.27 8.528.708 12.793.896 2.564.113 4.04-.139 4.891-.479a7.236 7.236 0 01-.008.271.882.882 0 01-.837.835c-8.06.449-14.471.155-16.752.017-.472-.029-.753-.543-.512-.944.12-.204.266-.4.425-.596z" fill="url(#paint61_linear)"/><path d="M187.391 211.454c-4.265-.188-9.676-.626-12.793-.896 3.065-3.762 12.793-6.299 12.793-6.299h2.748c1.89 2.726 2.164 5.321 2.143 6.715-.851.341-2.327.593-4.891.48z" fill="url(#paint62_linear)"/><path d="M190.602 199.772l-.257 5.091a1.163 1.163 0 01-.993 1.094 4.53 4.53 0 01-2.063-.171 1.375 1.375 0 01-.924-1.057l-.888-4.957h5.125z" fill="url(#paint63_linear)"/><path d="M222.49 216.432c1.353-.244 1.964-1.152 2.22-2.124l.005.026c.2 1.025-.261 2.086-1.184 2.591-1.114.61-2.332.714-3.278.663-1.015-.055-1.946-.597-2.458-1.466l-.008-.013c1.019.653 2.449.73 4.703.323z" fill="url(#paint64_linear)"/><path d="M216.117 201.341h2.266c3.451-.092 5.619 9.323 6.328 12.967-.257.972-.868 1.88-2.22 2.124-2.256.407-3.685.33-4.704-.322-1.864-3.173-2.789-7.82-3.233-10.533-.504-3.084 1.563-4.236 1.563-4.236z" fill="url(#paint65_linear)"/><path d="M218.091 196.615l1.259 5.007a1.362 1.362 0 01-.706 1.541c-.704.361-1.695.742-2.606.631a1.132 1.132 0 01-.925-.757l-1.847-5.268 4.825-1.154z" fill="url(#paint66_linear)"/><path d="M173.83 130.666s11.245 70.327 11.06 70.714c0 0 3.106 1.411 6.49.18 0 0-1.016-37.595-3.399-52.01 0 0 19.191 33.602 25.284 50.345 0 0 3.179-.379 5.809-2.112 0 0-20.662-60.482-26.175-68.538l-19.069 1.421z" fill="url(#paint67_linear)"/><path d="M187.531 149.129a.278.278 0 00.233-.424l-4.201-6.716a.277.277 0 00-.18-.124l-3.093-.623a.277.277 0 10-.109.542l2.975.6 4.139 6.614a.281.281 0 00.236.131z" fill="url(#paint68_linear)"/><path d="M122.231 61.801s7.587 1.674 12.202 3.806a4.207 4.207 0 012.063 2.077c1.38 3.026 5.51 10.611 13.518 14.231-1.153 1.532-3.01 4.718-3.818 10.073-4.81-3.582-8.962-9.564-10.955-19.375 0 0-1.518.825-3.413-.095-1-.487-2.156-1.176-3.022-1.718-.864-.541-1.507-1.38-1.758-2.362-.329-1.296-.135-2.436-.135-3.657l-3.901-1.208c-.001-.002-1.174-.444-.781-1.772z" fill="url(#paint69_linear)"/><path d="M146.195 91.987c.809-5.355 2.666-8.541 3.819-10.073 4.975 2.248 11.446 2.968 19.687.11a8.779 8.779 0 012.355-.465c4.387-.257 18.843-.727 30.805 3.228a9.296 9.296 0 015.608 5.107c3.236 7.43 8.474 24.352-6.069 32.895a36.16 36.16 0 00-3.51-6.646c2.343-3.952 3.036-9.352-1.12-16.382-3.03 8.188-4.453 20.135-4.75 25.422a11.359 11.359 0 00.89 5.085l.074.175a.601.601 0 01-.422.821c-8.187 1.841-16.704 1.34-19.248 1.131a1.05 1.05 0 01-.935-.802c-3.982-16.786-3.991-28.235-3.016-35.474-3.723.834-15.112 2.612-24.168-4.132z" fill="url(#paint70_linear)"/><path d="M170.348 96.517a.276.276 0 00.273-.24c.939-7.102 2.847-10.175 2.866-10.205a.277.277 0 00-.467-.296c-.081.128-1.992 3.206-2.947 10.428a.276.276 0 00.275.313z" fill="url(#paint71_linear)"/><path d="M190.553 71.783s.829 8.762 1.558 11.354a.885.885 0 01-.417 1.011c-1.237.708-4.206 1.862-8.267-.129a1.843 1.843 0 01-1.023-1.735l.358-8.468 7.791-2.033z" fill="url(#paint72_linear)"/><path d="M182.583 60.572s-2.649 6.089-2.828 9.285c-.178 3.197-.866 5.27 2.828 5.913 3.693.644 6.804-1.197 8.49-4.381 0 0 2.641-4.905 2.048-6.914-.593-2.01-10.538-3.903-10.538-3.903z" fill="url(#paint73_linear)"/><path d="M189.811 69.101l-.21-.093a.509.509 0 01-.247-.697c.521-1.006 1.536-3.314.224-3.852-1.69-.694-8.386-2.06-9.831-4.437-1.389-2.285-.158-5.234 1.691-6.074a.256.256 0 01.334.109l.153.292c.106.199.4.169.463-.047a.25.25 0 01.452-.066c.444.712 1.643 1.865 4.849 2.456 4.556.841 7.569 2.687 7.644 5.837a.25.25 0 00.388.207c.336-.205.874-.301 1.594.303 1.251 1.054.739 3.785-2.003 6.03-.131.108-.129.311.011.404.498.323 1.239 1.095-.682 2.122-1.987 1.062-3.471.975-4.042.881a.251.251 0 01-.203-.302l.61-2.77a.251.251 0 00-.245-.304h-.95v.001z" fill="url(#paint74_linear)"/><path d="M189.697 69.685s1.011-3.89 2.754-2.799c1.744 1.091-.904 4.358-2.306 4.504l-.448-1.705z" fill="url(#paint75_linear)"/><path d="M133.216 71.687a.313.313 0 00.242-.51c-.286-.354-2.831-3.466-3.808-4.018-.362-.205-.578-.417-.624-.616a.513.513 0 01.052-.338l3.012.603 1.699 1.459a.313.313 0 00.407-.475l-1.762-1.512a.307.307 0 00-.142-.069l-3.312-.663a.312.312 0 00-.32.131c-.24.356-.319.686-.244 1.01.09.383.394.714.925 1.015.74.418 2.872 2.934 3.631 3.867a.314.314 0 00.244.116z" fill="#F8A570"/><path d="M179.546 126.082s-.188 3.634 4.579 3.106c2.592-.287 6.775-2.705 6.775-2.705s-10.903-.029-11.354-.401z" fill="url(#paint76_linear)"/><path d="M188.549 125.955s-3.906-.484-5.289-1.142c-1.383-.657-1.867.184-.657.992 1.21.807 1.418.807 1.418.807s-4.115 1.092-5.014 1.1c-.899.008-3.434.168-2.708.583.725.414 3.672.695 5.542.673 1.871-.021 3.684.76 8.721-2.373-.733-.918-2.013-.64-2.013-.64z" fill="url(#paint77_linear)"/><path d="M189.825 127.001l-5.579-1.226s11.103-3.656 14.644-9.632a36.193 36.193 0 013.51 6.646c-3.174 1.865-7.288 3.332-12.575 4.212z" fill="url(#paint78_linear)"/></g><defs><linearGradient id="paint0_linear" x1="410.372" y1="464.33" x2="91.321" y2="68.319" gradientUnits="userSpaceOnUse"><stop stop-color="#2F0569"/><stop offset="1" stop-color="#F600B2"/></linearGradient><linearGradient id="paint1_linear" x1="240.833" y1="119.507" x2="312.194" y2="94.381" gradientUnits="userSpaceOnUse"><stop stop-color="#A737D5"/><stop offset="1" stop-color="#EF497A"/></linearGradient><linearGradient id="paint2_linear" x1="310.581" y1="66.624" x2="347.237" y2="53.717" gradientUnits="userSpaceOnUse"><stop stop-color="#A737D5"/><stop offset="1" stop-color="#EF497A"/></linearGradient><linearGradient id="paint3_linear" x1="115.268" y1="289.862" x2="326.229" y2="288.372" gradientUnits="userSpaceOnUse"><stop stop-color="#FF4AED"/><stop offset="1"/></linearGradient><linearGradient id="paint4_linear" x1="236.67" y1="175.819" x2="-5.595" y2="545.585" gradientUnits="userSpaceOnUse"><stop stop-color="#FF4AED"/><stop offset="1"/></linearGradient><linearGradient id="paint5_linear" x1="32.89" y1="314.471" x2="155.982" y2="318.177" gradientUnits="userSpaceOnUse"><stop stop-color="#53D8FF"/><stop offset="1" stop-color="#3840F7"/></linearGradient><linearGradient id="paint6_linear" x1="100.86" y1="234.337" x2="-73.484" y2="500.435" gradientUnits="userSpaceOnUse"><stop stop-color="#53D8FF"/><stop offset="1" stop-color="#3840F7"/></linearGradient><linearGradient id="paint7_linear" x1="271.098" y1="312.865" x2="401.356" y2="316.786" gradientUnits="userSpaceOnUse"><stop stop-color="#53D8FF"/><stop offset="1" stop-color="#3840F7"/></linearGradient><linearGradient id="paint8_linear" x1="341.613" y1="230.071" x2="161.511" y2="504.959" gradientUnits="userSpaceOnUse"><stop stop-color="#53D8FF"/><stop offset="1" stop-color="#3840F7"/></linearGradient><linearGradient id="paint9_linear" x1="21.533" y1="232.907" x2="-3" y2="288.396" gradientUnits="userSpaceOnUse"><stop stop-color="#FDF53F"/><stop offset=".664" stop-color="#E57A58"/><stop offset="1" stop-color="#D93C65"/></linearGradient><linearGradient id="paint10_linear" x1="41.763" y1="241.851" x2="17.23" y2="297.34" gradientUnits="userSpaceOnUse"><stop stop-color="#FDF53F"/><stop offset=".664" stop-color="#E57A58"/><stop offset="1" stop-color="#D93C65"/></linearGradient><linearGradient id="paint11_linear" x1="18.18" y1="265.469" x2="22.485" y2="244.819" gradientUnits="userSpaceOnUse"><stop stop-color="#FDF53F"/><stop offset=".664" stop-color="#E57A58"/><stop offset="1" stop-color="#D93C65"/></linearGradient><linearGradient id="paint12_linear" x1="48.204" y1="270.155" x2="65.515" y2="270.155" gradientUnits="userSpaceOnUse"><stop stop-color="#CB236D"/><stop offset="1" stop-color="#4C246D"/></linearGradient><linearGradient id="paint13_linear" x1="61.541" y1="236.849" x2="56.806" y2="269.546" gradientUnits="userSpaceOnUse"><stop stop-color="#CB236D"/><stop offset="1" stop-color="#4C246D"/></linearGradient><linearGradient id="paint14_linear" x1="49.069" y1="264.936" x2="53.752" y2="264.936" gradientUnits="userSpaceOnUse"><stop stop-color="#F9B776"/><stop offset="1" stop-color="#F47960"/></linearGradient><linearGradient id="paint15_linear" x1="75.355" y1="266.723" x2="89.332" y2="266.723" gradientUnits="userSpaceOnUse"><stop stop-color="#CB236D"/><stop offset="1" stop-color="#4C246D"/></linearGradient><linearGradient id="paint16_linear" x1="84.969" y1="240.242" x2="80.233" y2="272.939" gradientUnits="userSpaceOnUse"><stop stop-color="#CB236D"/><stop offset="1" stop-color="#4C246D"/></linearGradient><linearGradient id="paint17_linear" x1="23.169" y1="243.789" x2="60.247" y2="243.789" gradientUnits="userSpaceOnUse"><stop stop-color="#2B3582"/><stop offset="1" stop-color="#150E42"/></linearGradient><linearGradient id="paint18_linear" x1="71.252" y1="265.33" x2="76.844" y2="265.33" gradientUnits="userSpaceOnUse"><stop stop-color="#F9B776"/><stop offset="1" stop-color="#F47960"/></linearGradient><linearGradient id="paint19_linear" x1="56.849" y1="228.332" x2="16.117" y2="274.487" gradientUnits="userSpaceOnUse"><stop stop-color="#2B3582"/><stop offset="1" stop-color="#150E42"/></linearGradient><linearGradient id="paint20_linear" x1="40.192" y1="186.487" x2="42.951" y2="179.533" gradientUnits="userSpaceOnUse"><stop stop-color="#F9B776"/><stop offset="1" stop-color="#F47960"/></linearGradient><linearGradient id="paint21_linear" x1="81.466" y1="181.683" x2="-29.68" y2="247.803" gradientUnits="userSpaceOnUse"><stop stop-color="#A737D5"/><stop offset="1" stop-color="#EF497A"/></linearGradient><linearGradient id="paint22_linear" x1="26.905" y1="206.99" x2="165.386" y2="138.231" gradientUnits="userSpaceOnUse"><stop stop-color="#A737D5"/><stop offset="1" stop-color="#EF497A"/></linearGradient><linearGradient id="paint23_linear" x1="63.745" y1="213.54" x2="76.662" y2="213.54" gradientUnits="userSpaceOnUse"><stop stop-color="#F9B776"/><stop offset="1" stop-color="#F47960"/></linearGradient><linearGradient id="paint24_linear" x1="48.61" y1="172.341" x2="36.263" y2="184.648" gradientUnits="userSpaceOnUse"><stop stop-color="#F9B776"/><stop offset="1" stop-color="#F47960"/></linearGradient><linearGradient id="paint25_linear" x1="37.878" y1="165.318" x2="52.42" y2="179.68" gradientUnits="userSpaceOnUse"><stop stop-color="#2B3582"/><stop offset="1" stop-color="#150E42"/></linearGradient><linearGradient id="paint26_linear" x1="46.616" y1="170.34" x2="34.27" y2="182.647" gradientUnits="userSpaceOnUse"><stop stop-color="#F9B776"/><stop offset="1" stop-color="#F47960"/></linearGradient><linearGradient id="paint27_linear" x1="-2704.18" y1="-2742.85" x2="-2658.58" y2="-2694.13" gradientUnits="userSpaceOnUse"><stop stop-color="#9CFFFB"/><stop offset="1" stop-color="#9BFFFA"/></linearGradient><linearGradient id="paint28_linear" x1="3941.85" y1="-1066.36" x2="3878.45" y2="-1045.6" gradientUnits="userSpaceOnUse"><stop stop-color="#9CFFFB"/><stop offset="1" stop-color="#9BFFFA"/></linearGradient><linearGradient id="paint29_linear" x1="65.912" y1="275.476" x2="68.495" y2="336.354" gradientUnits="userSpaceOnUse"><stop stop-color="#53D8FF"/><stop offset="1" stop-color="#3840F7"/></linearGradient><linearGradient id="paint30_linear" x1="83.548" y1="274.728" x2="86.131" y2="335.605" gradientUnits="userSpaceOnUse"><stop stop-color="#53D8FF"/><stop offset="1" stop-color="#3840F7"/></linearGradient><linearGradient id="paint31_linear" x1="75.88" y1="275.053" x2="78.463" y2="335.931" gradientUnits="userSpaceOnUse"><stop stop-color="#53D8FF"/><stop offset="1" stop-color="#3840F7"/></linearGradient><linearGradient id="paint32_linear" x1="72.921" y1="215.908" x2="68.16" y2="251.086" gradientUnits="userSpaceOnUse"><stop stop-color="#2B3582"/><stop offset="1" stop-color="#150E42"/></linearGradient><linearGradient id="paint33_linear" x1="326.76" y1="212.734" x2="290.435" y2="352.574" gradientUnits="userSpaceOnUse"><stop stop-color="#FDF53F"/><stop offset=".664" stop-color="#E57A58"/><stop offset="1" stop-color="#D93C65"/></linearGradient><linearGradient id="paint34_linear" x1="330.452" y1="211.572" x2="292.846" y2="356.338" gradientUnits="userSpaceOnUse"><stop stop-color="#FDF53F"/><stop offset=".664" stop-color="#E57A58"/><stop offset="1" stop-color="#D93C65"/></linearGradient><linearGradient id="paint35_linear" x1="323.445" y1="211.873" x2="287.119" y2="351.713" gradientUnits="userSpaceOnUse"><stop stop-color="#FDF53F"/><stop offset=".664" stop-color="#E57A58"/><stop offset="1" stop-color="#D93C65"/></linearGradient><linearGradient id="paint36_linear" x1="289.566" y1="244.625" x2="306.866" y2="244.625" gradientUnits="userSpaceOnUse"><stop stop-color="#F9B776"/><stop offset="1" stop-color="#F47960"/></linearGradient><linearGradient id="paint37_linear" x1="300.151" y1="255.905" x2="297.603" y2="294.945" gradientUnits="userSpaceOnUse"><stop stop-color="#CB236D"/><stop offset="1" stop-color="#4C246D"/></linearGradient><linearGradient id="paint38_linear" x1="269.252" y1="245.808" x2="305.76" y2="245.808" gradientUnits="userSpaceOnUse"><stop stop-color="#F9B776"/><stop offset="1" stop-color="#F47960"/></linearGradient><linearGradient id="paint39_linear" x1="304.492" y1="256.455" x2="311.058" y2="232.258" gradientUnits="userSpaceOnUse"><stop stop-color="#A737D5"/><stop offset="1" stop-color="#EF497A"/></linearGradient><linearGradient id="paint40_linear" x1="275.596" y1="254.302" x2="273.048" y2="293.343" gradientUnits="userSpaceOnUse"><stop stop-color="#CB236D"/><stop offset="1" stop-color="#4C246D"/></linearGradient><linearGradient id="paint41_linear" x1="294.668" y1="174.388" x2="370.365" y2="287.181" gradientUnits="userSpaceOnUse"><stop stop-color="#53D8FF"/><stop offset="1" stop-color="#3840F7"/></linearGradient><linearGradient id="paint42_linear" x1="310.259" y1="195.672" x2="308.431" y2="183.948" gradientUnits="userSpaceOnUse"><stop stop-color="#F9B776"/><stop offset="1" stop-color="#F47960"/></linearGradient><linearGradient id="paint43_linear" x1="302.366" y1="173.577" x2="318.503" y2="184.531" gradientUnits="userSpaceOnUse"><stop stop-color="#F9B776"/><stop offset="1" stop-color="#F47960"/></linearGradient><linearGradient id="paint44_linear" x1="330.517" y1="152.982" x2="303.446" y2="181.131" gradientUnits="userSpaceOnUse"><stop stop-color="#2B3582"/><stop offset="1" stop-color="#150E42"/></linearGradient><linearGradient id="paint45_linear" x1="303.333" y1="172.153" x2="319.469" y2="183.107" gradientUnits="userSpaceOnUse"><stop stop-color="#F9B776"/><stop offset="1" stop-color="#F47960"/></linearGradient><linearGradient id="paint46_linear" x1="320.742" y1="215.972" x2="355.037" y2="215.972" gradientUnits="userSpaceOnUse"><stop stop-color="#F9B776"/><stop offset="1" stop-color="#F47960"/></linearGradient><linearGradient id="paint47_linear" x1="342.541" y1="164.547" x2="315.47" y2="192.695" gradientUnits="userSpaceOnUse"><stop stop-color="#2B3582"/><stop offset="1" stop-color="#150E42"/></linearGradient><linearGradient id="paint48_linear" x1="321.392" y1="212.438" x2="300.119" y2="219.412" gradientUnits="userSpaceOnUse"><stop stop-color="#2B3582"/><stop offset="1" stop-color="#150E42"/></linearGradient><linearGradient id="paint49_linear" x1="292.174" y1="198.484" x2="276.846" y2="214.675" gradientUnits="userSpaceOnUse"><stop stop-color="#2B3582"/><stop offset="1" stop-color="#150E42"/></linearGradient><linearGradient id="paint50_linear" x1="282.912" y1="202.517" x2="275.956" y2="212.986" gradientUnits="userSpaceOnUse"><stop stop-color="#53D8FF"/><stop offset="1" stop-color="#3840F7"/></linearGradient><linearGradient id="paint51_linear" x1="240.125" y1="221.846" x2="354.319" y2="221.846" gradientUnits="userSpaceOnUse"><stop stop-color="#9CFFFB"/><stop offset="1" stop-color="#9BFFFA"/></linearGradient><linearGradient id="paint52_linear" x1="246.683" y1="246.89" x2="269.226" y2="246.89" gradientUnits="userSpaceOnUse"><stop stop-color="#9CFFFB"/><stop offset="1" stop-color="#9BFFFA"/></linearGradient><linearGradient id="paint53_linear" x1="249.286" y1="246.89" x2="271.829" y2="246.89" gradientUnits="userSpaceOnUse"><stop stop-color="#9CFFFB"/><stop offset="1" stop-color="#9BFFFA"/></linearGradient><linearGradient id="paint54_linear" x1="327.723" y1="246.89" x2="350.265" y2="246.89" gradientUnits="userSpaceOnUse"><stop stop-color="#9CFFFB"/><stop offset="1" stop-color="#9BFFFA"/></linearGradient><linearGradient id="paint55_linear" x1="330.326" y1="246.89" x2="352.868" y2="246.89" gradientUnits="userSpaceOnUse"><stop stop-color="#9CFFFB"/><stop offset="1" stop-color="#9BFFFA"/></linearGradient><linearGradient id="paint56_linear" x1="161.558" y1="5.681" x2="84.577" y2="149.562" gradientUnits="userSpaceOnUse"><stop stop-color="#53D8FF"/><stop offset="1" stop-color="#3840F7"/></linearGradient><linearGradient id="paint57_linear" x1="162.138" y1="17.229" x2="119.699" y2="57.481" gradientUnits="userSpaceOnUse"><stop stop-color="#FDF53F"/><stop offset="1" stop-color="#D93C65"/></linearGradient><linearGradient id="paint58_linear" x1="189.513" y1="19.678" x2="151.839" y2="55.41" gradientUnits="userSpaceOnUse"><stop stop-color="#FDF53F"/><stop offset="1" stop-color="#D93C65"/></linearGradient><linearGradient id="paint59_linear" x1="220.01" y1="19.752" x2="182.336" y2="55.486" gradientUnits="userSpaceOnUse"><stop stop-color="#FDF53F"/><stop offset="1" stop-color="#D93C65"/></linearGradient><linearGradient id="paint60_linear" x1="170.568" y1="24.673" x2="-21.523" y2="221.312" gradientUnits="userSpaceOnUse"><stop stop-color="#53D8FF"/><stop offset="1" stop-color="#3840F7"/></linearGradient><linearGradient id="paint61_linear" x1="192.28" y1="211.439" x2="174.082" y2="211.439" gradientUnits="userSpaceOnUse"><stop stop-color="#53D8FF"/><stop offset="1" stop-color="#3840F7"/></linearGradient><linearGradient id="paint62_linear" x1="192.282" y1="207.871" x2="174.597" y2="207.871" gradientUnits="userSpaceOnUse"><stop stop-color="#2B3582"/><stop offset="1" stop-color="#150E42"/></linearGradient><linearGradient id="paint63_linear" x1="190.602" y1="202.889" x2="185.475" y2="202.889" gradientUnits="userSpaceOnUse"><stop stop-color="#F9B776"/><stop offset="1" stop-color="#F47960"/></linearGradient><linearGradient id="paint64_linear" x1="224.762" y1="215.954" x2="217.788" y2="215.954" gradientUnits="userSpaceOnUse"><stop stop-color="#53D8FF"/><stop offset="1" stop-color="#3840F7"/></linearGradient><linearGradient id="paint65_linear" x1="224.711" y1="209.011" x2="214.475" y2="209.011" gradientUnits="userSpaceOnUse"><stop stop-color="#2B3582"/><stop offset="1" stop-color="#150E42"/></linearGradient><linearGradient id="paint66_linear" x1="219.391" y1="200.214" x2="213.265" y2="200.214" gradientUnits="userSpaceOnUse"><stop stop-color="#F9B776"/><stop offset="1" stop-color="#F47960"/></linearGradient><linearGradient id="paint67_linear" x1="213.815" y1="208.084" x2="158.173" y2="112.634" gradientUnits="userSpaceOnUse"><stop stop-color="#2B3582"/><stop offset="1" stop-color="#150E42"/></linearGradient><linearGradient id="paint68_linear" x1="267.891" y1="34.858" x2="193.765" y2="132.092" gradientUnits="userSpaceOnUse"><stop stop-color="#53D8FF"/><stop offset="1" stop-color="#3840F7"/></linearGradient><linearGradient id="paint69_linear" x1="135.129" y1="71.101" x2="159.41" y2="102.67" gradientUnits="userSpaceOnUse"><stop stop-color="#F9B776"/><stop offset="1" stop-color="#F47960"/></linearGradient><linearGradient id="paint70_linear" x1="163.913" y1="78.499" x2="244.971" y2="174.513" gradientUnits="userSpaceOnUse"><stop stop-color="#CB236D"/><stop offset="1" stop-color="#4C246D"/></linearGradient><linearGradient id="paint71_linear" x1="173.531" y1="91.082" x2="170.071" y2="91.082" gradientUnits="userSpaceOnUse"><stop stop-color="#CE1567"/><stop offset="1" stop-color="#7A1DBC"/></linearGradient><linearGradient id="paint72_linear" x1="189.21" y1="91.514" x2="186.553" y2="77.571" gradientUnits="userSpaceOnUse"><stop stop-color="#F9B776"/><stop offset="1" stop-color="#F47960"/></linearGradient><linearGradient id="paint73_linear" x1="182.027" y1="65.932" x2="197.178" y2="77.518" gradientUnits="userSpaceOnUse"><stop stop-color="#F9B776"/><stop offset="1" stop-color="#F47960"/></linearGradient><linearGradient id="paint74_linear" x1="192.689" y1="56.751" x2="178.573" y2="74.914" gradientUnits="userSpaceOnUse"><stop stop-color="#2B3582"/><stop offset="1" stop-color="#150E42"/></linearGradient><linearGradient id="paint75_linear" x1="183.907" y1="63.475" x2="199.058" y2="75.061" gradientUnits="userSpaceOnUse"><stop stop-color="#F9B776"/><stop offset="1" stop-color="#F47960"/></linearGradient><linearGradient id="paint76_linear" x1="175.634" y1="112.39" x2="182.133" y2="122.132" gradientUnits="userSpaceOnUse"><stop stop-color="#F9B776"/><stop offset="1" stop-color="#F47960"/></linearGradient><linearGradient id="paint77_linear" x1="173.856" y1="113.112" x2="180.449" y2="122.995" gradientUnits="userSpaceOnUse"><stop stop-color="#F9B776"/><stop offset="1" stop-color="#F47960"/></linearGradient><linearGradient id="paint78_linear" x1="182.938" y1="108.005" x2="190.371" y2="119.148" gradientUnits="userSpaceOnUse"><stop stop-color="#F9B776"/><stop offset="1" stop-color="#F47960"/></linearGradient><clipPath id="clip0"><path fill="#fff" d="M0 0h364v365H0z"/></clipPath></defs></svg>