<svg width="241" height="30" fill="none" xmlns="http://www.w3.org/2000/svg"><path d="M11.726 29.236c-2.329 0-4.538-.281-6.626-.844-2.088-.562-3.788-1.285-5.1-2.168l3.132-5.944a17.883 17.883 0 004.538 2.088 17.58 17.58 0 004.82.683c1.525 0 2.704-.214 3.533-.642.857-.456 1.285-1.071 1.285-1.848 0-.669-.388-1.191-1.164-1.566-.75-.375-1.928-.776-3.534-1.205-1.82-.482-3.333-.963-4.538-1.445a8.47 8.47 0 01-3.132-2.29c-.857-1.017-1.286-2.355-1.286-4.015 0-2.008.55-3.762 1.647-5.261C6.399 3.253 7.965 2.075 10 1.245 12.034.415 14.417 0 17.148 0c2.008 0 3.882.214 5.622.643 1.74.401 3.24.99 4.498 1.767l-2.892 5.903a12.778 12.778 0 00-3.654-1.566 14.692 14.692 0 00-4.056-.563c-1.58 0-2.825.255-3.735.763-.883.51-1.325 1.165-1.325 1.968 0 .696.388 1.232 1.165 1.607.776.374 1.98.776 3.614 1.204 1.82.455 3.32.924 4.498 1.406a7.927 7.927 0 013.092 2.209c.857.99 1.285 2.289 1.285 3.895 0 1.981-.562 3.735-1.687 5.26-1.097 1.5-2.677 2.665-4.739 3.495-2.034.83-4.404 1.245-7.108 1.245zM37.978 6.867h-8.634L30.629.562h25.18l-1.285 6.305H45.93l-4.378 21.807h-7.951l4.377-21.807zM72.78 23.212H60.813l-3.253 5.462h-8.393L67.198.562h7.831l6.787 28.111h-7.911l-1.125-5.461zm-1.205-5.863l-1.887-9.116-5.381 9.116h7.268zm42.293-7.831c0 2.57-.683 4.792-2.048 6.666-1.365 1.847-3.28 3.2-5.743 4.056l4.779 8.434h-8.313l-4.176-7.47H94.35l-1.486 7.47h-7.951L90.535.562h12.007c3.588 0 6.372.79 8.353 2.37 1.981 1.58 2.972 3.775 2.972 6.586zm-8.032.763c0-1.152-.388-2.008-1.164-2.57-.777-.59-1.861-.884-3.253-.884h-4.177l-1.686 8.233h4.738c1.767 0 3.133-.415 4.097-1.245.963-.83 1.445-2.008 1.445-3.534z" fill="#32B5F7"/><path d="M126.242 6.879h-8.635l1.286-6.305h25.179l-1.285 6.305h-8.594l-4.377 21.806h-7.952l4.378-21.806zm28.182-.161l-.924 4.739h12.489l-1.164 5.943h-12.53l-1.004 5.14h14.739l-1.285 6.145h-22.53L147.838.574h22.007L168.6 6.718h-14.176zm35.816 16.505h-11.967l-3.253 5.462h-8.393L184.658.574h7.831l6.787 28.111h-7.911l-1.125-5.462zm-1.204-5.863l-1.888-9.116-5.381 9.116h7.269zM240.605.574l-5.542 28.111h-7.349l2.891-14.819-9.357 12.048h-3.493l-5.101-12.048-2.971 14.819h-7.309L207.996.574h6.466l6.586 16.264L233.818.574h6.787z" fill="#F600B2"/><mask id="a" maskUnits="userSpaceOnUse" x="0" y="0" width="241" height="30"><path fill-rule="evenodd" clip-rule="evenodd" d="M5.1 28.392c2.088.563 4.297.844 6.626.844 2.704 0 5.074-.415 7.108-1.245 2.062-.83 3.642-1.995 4.74-3.494 1.124-1.526 1.686-3.28 1.686-5.26 0-1.607-.428-2.906-1.285-3.896a7.927 7.927 0 00-3.092-2.209c-1.178-.482-2.678-.95-4.498-1.406-1.633-.428-2.838-.83-3.615-1.204-.776-.375-1.164-.91-1.164-1.607 0-.803.442-1.459 1.325-1.968.91-.508 2.155-.763 3.735-.763 1.392 0 2.744.188 4.056.563 1.339.348 2.557.87 3.654 1.566l2.892-5.903C26.01 1.633 24.51 1.044 22.77.643 21.03.214 19.156 0 17.148 0 14.417 0 12.034.415 10 1.245c-2.035.83-3.601 2.008-4.699 3.534-1.098 1.5-1.647 3.253-1.647 5.26 0 1.66.429 3 1.286 4.017a8.47 8.47 0 003.132 2.289c1.205.482 2.717.963 4.538 1.445 1.606.429 2.784.83 3.534 1.205.776.375 1.165.897 1.165 1.566 0 .777-.429 1.392-1.286 1.848-.83.428-2.008.642-3.534.642-1.606 0-3.212-.227-4.819-.682a17.883 17.883 0 01-4.538-2.089L0 26.224c1.312.883 3.012 1.606 5.1 2.168zM29.344 6.867h8.634l-4.377 21.806h7.951L45.93 6.867h8.594L55.809.562h-25.18l-1.285 6.305zM72.78 23.212H60.813l-3.253 5.462h-8.393L67.198.562h7.831l6.787 28.111h-7.911l-1.125-5.461zm-1.205-5.863l-1.887-9.116-5.381 9.116h7.268zm40.245-1.165c1.365-1.874 2.048-4.096 2.048-6.666 0-2.811-.991-5.007-2.972-6.586-1.981-1.58-4.765-2.37-8.353-2.37H90.536l-5.623 28.111h7.952l1.486-7.47h4.016l4.176 7.47h8.313l-4.779-8.433c2.463-.857 4.378-2.209 5.743-4.056zm-7.148-8.473c.776.562 1.164 1.418 1.164 2.57 0 1.526-.482 2.704-1.445 3.534-.964.83-2.33 1.245-4.097 1.245h-4.738l1.686-8.233h4.177c1.392 0 2.476.295 3.253.884zm12.936-.832h8.634l-4.377 21.806h7.951l4.378-21.806h8.594l1.285-6.305h-25.18l-1.285 6.305zm35.893 4.578l.923-4.74h14.177l1.245-6.143h-22.008l-5.622 28.11h22.529l1.285-6.143h-14.738l1.004-5.14h12.53l1.164-5.944h-12.489zm36.74 11.766h-11.967l-3.253 5.462h-8.393L184.659.574h7.831l6.787 28.11h-7.911l-1.125-5.46zm-1.205-5.863l-1.887-9.116-5.381 9.116h7.268zm46.028 11.325L240.606.574h-6.787l-12.771 16.264L214.462.574h-6.465l-5.622 28.11h7.308l2.972-14.818 5.1 12.048h3.494l9.357-12.048-2.891 14.819h7.349z" fill="#F600B2"/></mask><g mask="url(#a)"><path d="M-73.004-4.365l364.097-23.154 2.077 32.654-364.097 23.154-2.077-32.654z" fill="#fff" fill-opacity=".47"/><path d="M.656 26.051l2.668-5.063a18.355 18.355 0 004.203 1.86h0l.007.002c1.649.467 3.301.701 4.955.701 1.561 0 2.832-.217 3.764-.698h0l.005-.003c.972-.516 1.55-1.278 1.55-2.289 0-.918-.556-1.585-1.444-2.015-.796-.398-2.014-.809-3.625-1.239h-.001c-1.807-.478-3.297-.953-4.476-1.425a7.97 7.97 0 01-2.942-2.151c-.762-.907-1.166-2.12-1.166-3.691 0-1.911.52-3.56 1.55-4.966h0l.003-.003c1.034-1.438 2.519-2.563 4.481-3.363C12.15.908 14.467.5 17.148.5c1.972 0 3.806.21 5.503.628h0l.007.002c1.518.35 2.835.844 3.957 1.475l-2.448 4.998a13.43 13.43 0 00-3.313-1.339 15.191 15.191 0 00-4.188-.58c-1.625 0-2.965.26-3.979.827h0l-.005.003c-.99.57-1.576 1.37-1.576 2.401 0 .448.127.86.386 1.217.255.352.62.627 1.061.84.821.396 2.064.808 3.705 1.238h0l.006.001c1.807.452 3.281.914 4.43 1.384l.003.001a7.427 7.427 0 012.9 2.072c.761.88 1.163 2.054 1.163 3.568 0 1.88-.531 3.528-1.59 4.964v.002c-1.033 1.41-2.53 2.523-4.522 3.325h-.002c-1.963.801-4.266 1.209-6.92 1.209-2.288 0-4.453-.277-6.496-.826-1.853-.5-3.374-1.122-4.574-1.859zM38.468 6.966l.12-.599h-8.632l1.081-5.305h24.16l-1.082 5.305H45.52l-.08.402-4.297 21.404H34.21l4.257-21.207zM73.27 23.11l-.082-.4H60.529l-.146.245-3.107 5.218H50.08L67.47 1.061h7.164l6.546 27.111h-6.869l-1.042-5.062zm-1.695-5.262h.614l-.124-.602-1.887-9.116-.263-1.267-.658 1.114-5.38 9.117-.446.754h8.144zm34.067 2.638l4.356 7.687h-7.161l-4.034-7.214-.143-.256h-4.719l-.08.402-1.406 7.067h-6.932l5.423-27.11h11.597c3.521 0 6.179.775 8.042 2.26l.311-.391-.311.39c1.848 1.474 2.783 3.518 2.783 6.196 0 2.475-.655 4.591-1.951 6.37-1.298 1.755-3.123 3.052-5.504 3.88l-.566.197.295.522zm.694-10.206c0-1.273-.436-2.296-1.366-2.972-.894-.676-2.098-.982-3.551-.982h-4.585l-.082.4-1.686 8.232-.123.6h5.351c1.841 0 3.338-.432 4.423-1.365 1.096-.944 1.619-2.274 1.619-3.913z" stroke="#32B5F7"/><path d="M126.732 6.977l.12-.598h-8.632l1.081-5.305h24.159l-1.081 5.305h-8.596l-.08.401-4.297 21.405h-6.931l4.257-21.208zm27.692-.759h-.412l-.079.404-.924 4.74-.116.595h12.489l-.969 4.943h-12.529l-.079.405-1.004 5.14-.117.596h14.73l-1.076 5.144h-21.513l5.423-27.111h20.985l-1.042 5.144h-13.767zm36.306 16.904l-.082-.399h-12.659l-.145.245-3.108 5.217h-7.194l17.39-27.111h7.164l6.545 27.111h-6.869l-1.042-5.063zm-1.694-5.262h.614l-.125-.601-1.887-9.116-.263-1.267-.657 1.114-5.382 9.116-.445.754h8.145zm45.616 10.325h-6.331l2.775-14.223-.885-.402-9.207 11.854h-2.918l-4.971-11.743-.632-1.492-.319 1.589-2.891 14.417h-6.289l5.422-27.111h5.719l6.459 15.952.324.8.533-.68 12.62-16.072h5.936l-5.345 27.111z" stroke="#F600B2"/></g></svg>